<?xml version="1.0" encoding="utf-8"?>
<!-- Generator: Adobe Illustrator 26.0.0, SVG Export Plug-In . SVG Version: 6.00 Build 0)  -->
<svg version="1.1" id="图层_1" xmlns="http://www.w3.org/2000/svg" xmlns:xlink="http://www.w3.org/1999/xlink" x="0px" y="0px"
	 viewBox="0 0 414.4 138.7" style="enable-background:new 0 0 414.4 138.7;" xml:space="preserve">
<style type="text/css">
	.st0{fill:#666666;}
	.st1{fill:#1770DE;enable-background:new    ;}
	.st2{fill:#1770DE;}
	.st3{fill:#888888;}
	.st4{fill:#333333;}
	.st5{enable-background:new    ;}
	.st6{fill:#8BB7EE;}
	.st7{fill:#333332;enable-background:new    ;}
	.st8{fill:#333333;enable-background:new    ;}
</style>
<path class="st0" d="M73.3,36.3l-4.5-4.5c1.1-1.3,1.7-3,1.7-4.8c0-4.2-3.4-7.5-7.5-7.5c-4.1,0-7.5,3.4-7.5,7.5
	c0,4.2,3.4,7.5,7.5,7.5c1.8,0,3.5-0.7,4.8-1.7l4.5,4.5c0.3,0.3,0.7,0.3,1,0C73.6,37,73.6,36.6,73.3,36.3z M56.9,27
	c0-3.4,2.7-6.1,6.1-6.1c3.4,0,6.1,2.7,6.1,6.1c0,3.4-2.7,6.1-6.1,6.1C59.6,33.2,56.9,30.4,56.9,27z"/>
<path class="st1" d="M92.4,37l-4.5-4.5c1.1-1.3,1.7-3,1.7-4.8c0-4.2-3.4-7.5-7.5-7.5c-4.1,0-7.5,3.4-7.5,7.5s3.4,7.5,7.5,7.5
	c1.8,0,3.5-0.7,4.8-1.7l4.5,4.5c0.3,0.3,0.7,0.3,1,0C92.7,37.7,92.7,37.2,92.4,37z M76,27.7c0-3.4,2.7-6.1,6.1-6.1
	c3.4,0,6.1,2.7,6.1,6.1c0,3.4-2.7,6.1-6.1,6.1C78.7,33.8,76,31.1,76,27.7z"/>
<g>
	<path class="st0" d="M118.5,22.6c-0.3-0.3-0.7-0.5-1.1-0.5H98.9l-1.1-4.5c-0.1-0.3-0.4-0.6-0.7-0.6h-2.6c-0.4,0-0.7,0.3-0.7,0.7
		c0,0.4,0.3,0.7,0.7,0.7h2l4.2,16.9c-1.1,0.4-1.8,1.5-1.8,2.7c0,1.6,1.3,2.9,2.9,2.9s2.9-1.3,2.9-2.9c0-0.5-0.1-1-0.4-1.4h4.8
		c-0.2,0.4-0.4,0.9-0.4,1.4c0,1.6,1.3,2.9,2.9,2.9c1.6,0,2.9-1.3,2.9-2.9c0-1.6-1.3-2.9-2.9-2.9c0,0,0,0,0,0c0,0,0,0,0,0h-9.5
		l-0.4-1.7h12.2c0.6,0,1.1-0.4,1.3-0.9l3.4-8.7c0,0,0,0,0,0c0,0,0,0,0,0C118.8,23.4,118.7,22.9,118.5,22.6z M111.7,36.6
		c0.8,0,1.4,0.6,1.4,1.4c0,0.8-0.6,1.4-1.4,1.4c-0.8,0-1.4-0.6-1.4-1.4C110.2,37.3,110.9,36.6,111.7,36.6z M101.8,36.6
		c0.8,0,1.4,0.6,1.4,1.4c0,0.8-0.6,1.4-1.4,1.4s-1.4-0.6-1.4-1.4C100.3,37.3,101,36.6,101.8,36.6z M113.9,32h-12.6l-2.1-8.5h17.9
		L113.9,32z"/>
	<path class="st0" d="M102.8,26.8h9.8c0.4,0,0.7-0.3,0.7-0.7c0-0.4-0.3-0.7-0.7-0.7h-9.8c-0.4,0-0.7,0.3-0.7,0.7
		C102.1,26.5,102.4,26.8,102.8,26.8z"/>
	<path class="st0" d="M111.8,28.7h-8.1c-0.4,0-0.7,0.3-0.7,0.7c0,0.4,0.3,0.7,0.7,0.7h8.1c0.4,0,0.7-0.3,0.7-0.7
		C112.5,29,112.2,28.7,111.8,28.7z"/>
</g>
<g>
	<path class="st2" d="M144.7,22.6c-0.3-0.3-0.7-0.5-1.1-0.5h-18.4l-1.1-4.5c-0.1-0.3-0.4-0.6-0.7-0.6h-2.6c-0.4,0-0.7,0.3-0.7,0.7
		c0,0.4,0.3,0.7,0.7,0.7h2l4.2,16.9c-1.1,0.4-1.8,1.5-1.8,2.7c0,1.6,1.3,2.9,2.9,2.9s2.9-1.3,2.9-2.9c0-0.5-0.1-1-0.4-1.4h4.8
		c-0.2,0.4-0.4,0.9-0.4,1.4c0,1.6,1.3,2.9,2.9,2.9s2.9-1.3,2.9-2.9c0-1.6-1.3-2.9-2.9-2.9c0,0,0,0,0,0c0,0,0,0,0,0h-9.5l-0.4-1.7
		h12.2c0.6,0,1.1-0.4,1.3-0.9l3.4-8.7c0,0,0,0,0,0c0,0,0,0,0,0C145.1,23.4,145,22.9,144.7,22.6z M138,36.6c0.8,0,1.4,0.6,1.4,1.4
		c0,0.8-0.6,1.4-1.4,1.4c-0.8,0-1.4-0.6-1.4-1.4C136.5,37.3,137.2,36.6,138,36.6z M128,36.6c0.8,0,1.4,0.6,1.4,1.4
		c0,0.8-0.6,1.4-1.4,1.4c-0.8,0-1.4-0.6-1.4-1.4C126.6,37.3,127.2,36.6,128,36.6z M140.2,32h-12.6l-2.1-8.5h17.9L140.2,32z"/>
	<path class="st2" d="M129.1,26.8h9.8c0.4,0,0.7-0.3,0.7-0.7c0-0.4-0.3-0.7-0.7-0.7h-9.8c-0.4,0-0.7,0.3-0.7,0.7
		C128.3,26.5,128.7,26.8,129.1,26.8z"/>
	<path class="st2" d="M138,28.7h-8.1c-0.4,0-0.7,0.3-0.7,0.7c0,0.4,0.3,0.7,0.7,0.7h8.1c0.4,0,0.7-0.3,0.7-0.7
		C138.8,29,138.4,28.7,138,28.7z"/>
</g>
<g>
	<path class="st0" d="M161.2,20.2h-3.8v-3.8c0-0.4-0.4-0.6-0.6-0.6c0,0,0,0,0,0c-0.2,0.1-0.6,0.3-0.6,0.6v4c0,0.7,0.3,1.1,1.1,1.1h4
		c0.4,0,0.6-0.4,0.6-0.6C161.8,20.5,161.6,20.2,161.2,20.2z"/>
	<path class="st0" d="M157.6,10.5c-5,0-9,4-9,9c0,5,4,9,9,9c5,0,9-4,9-9C166.6,14.6,162.6,10.5,157.6,10.5z M165.4,19.5
		c0,4.3-3.5,7.8-7.8,7.8c-4.3,0-7.8-3.5-7.8-7.8c0-4.3,3.5-7.8,7.8-7.8C161.9,11.8,165.4,15.2,165.4,19.5z"/>
</g>
<g>
	<path class="st3" d="M235.2,15.8c-0.2,0-0.4,0-0.6,0.2c-0.2,0.1-0.3,0.3-0.3,0.6c-0.1,0.5,0.3,0.9,0.7,0.9c2.8,0.4,5.4,1.4,7.7,3.1
		l0.9,0.7l-1.1,0.2c-3.8,0.9-5.9,3.2-6.3,7c-0.4,4,2.3,6,4.3,7.5c1.3,1,1.9,1.5,2,2c0,0.2-0.1,0.6-0.4,0.9c-2.5,3.1-3.4,5.7-2.8,7.6
		c0.2,0.7,0.7,1.3,1.4,1.8l0.7,0.5l-0.7,0.4c-2.4,1.3-5.1,1.9-7.8,1.9c-0.1,0-0.2,0-0.2,0l-1,0l0.4-0.8c1.3-2.2,1.3-4.2,0.2-5.9
		c-2.1-3.2-5.3-4.2-8.3-2.6c-0.6,0.3-1.1-0.1-2-1c-1-0.9-2.5-2.3-4.6-1.9l-0.5,0.1l-0.1-0.5c-0.2-0.9-0.4-1.8-0.5-2.6
		c0-0.4-0.4-0.8-0.8-0.8c0,0-0.1,0-0.1,0c-0.5,0-0.8,0.5-0.8,0.9c0.9,9.6,8.8,16.7,18.3,16.7c0,0,0,0,0.1,0
		c10.2,0,18.5-8.4,18.5-18.6C251.4,24.9,244.4,16.9,235.2,15.8z M229.8,50.6l-0.2,0.2l-0.3-0.1c-5.2-1.1-9.5-4.6-11.7-9.5l-0.3-0.8
		l0.8,0c1,0,1.7,0.7,2.6,1.5c1.2,1.1,2.4,2.1,4,1.3c2.2-1.2,4.4-0.4,6.1,2C231.4,46.3,232,47.9,229.8,50.6z M243.4,47.4l-0.2,0.2
		l-0.3-0.1c-1.1-0.3-1.7-0.8-1.9-1.5c-0.4-1.3,0.5-3.5,2.5-6c0.6-0.7,0.8-1.5,0.7-2.2c-0.2-1.3-1.3-2.2-2.7-3.2
		c-1.9-1.4-4-3-3.7-5.9c0.4-3.7,2.7-5.6,7.1-5.8l0.2,0l0.2,0.2c2.7,3.1,4.3,7.1,4.3,11.2C249.7,39.4,247.4,44.2,243.4,47.4z"/>
	<path class="st3" d="M221.5,36.2c0.3,0.3,0.8,0.3,1.1,0c6.1-5.6,9.1-10.1,9.1-13.6c0-5.4-4.3-9.7-9.7-9.7c-5.3,0-9.7,4.4-9.7,9.7
		C212.4,26.2,215.3,30.6,221.5,36.2z M222,14.6c4.4,0,8,3.6,8,8c0,2.8-2.6,6.7-7.6,11.5l-0.3,0.3l-0.3-0.3
		c-5.1-4.8-7.6-8.7-7.6-11.5C214.1,18.2,217.6,14.6,222,14.6z"/>
	<path class="st3" d="M222,25.5c1.6,0,2.9-1.3,2.9-2.9c0-1.6-1.3-2.9-2.9-2.9c-1.6,0-2.9,1.3-2.9,2.9
		C219.1,24.2,220.4,25.5,222,25.5z"/>
</g>
<g>
	<path class="st3" d="M290.1,26.3c-0.9-1-2.2-1.6-3.5-1.7h-0.2l0-0.1c-1.2-5.6-5.5-10-10.9-11.3c-3.7-0.8-7.5-0.1-10.7,2
		c-3.2,2.1-5.4,5.4-6.2,9.2l0,0.1h-0.2c-2.8,0.1-4.9,2.6-4.8,5.4c-0.1,2.8,1.9,5.2,4.6,5.4l1.7,0v-7.8c0-7.2,5.7-13.1,12.7-13.1
		c0,0,0,0,0,0c3.4,0,6.6,1.4,9,3.8c2.4,2.5,3.7,5.8,3.7,9.3v7.8h1.7c2.7-0.3,4.7-2.6,4.6-5.4l0,0C291.5,28.7,291.1,27.3,290.1,26.3z
		"/>
	<path class="st3" d="M276.5,35.5c2.6-1.5,4.1-4.2,4.1-7.1c0-4.5-3.6-8.2-8.1-8.2s-8.1,3.7-8.1,8.2c0,3,1.6,5.7,4.1,7.1
		c-6.8,1.8-11.5,7.8-11.5,14.7c0,0.6,0,1.2,0.1,1.9l0,0c0,0.5,0.4,0.8,0.9,0.8h29c0.5,0,0.9-0.4,0.9-0.9l0,0
		c0.1-0.7,0.1-1.3,0.1-1.9C288,43.3,283.2,37.3,276.5,35.5z M272.5,36.7c7.6,0,13.8,6,13.8,13.5c0,0.3,0,0.6-0.1,1h-27.5
		c0-0.4-0.1-0.7-0.1-1C258.7,42.7,264.9,36.7,272.5,36.7z M266,28.4c0-3.6,2.9-6.5,6.4-6.5c3.5,0,6.4,2.9,6.4,6.5s-2.9,6.5-6.4,6.5
		C268.9,34.9,266,32,266,28.4z"/>
</g>
<path class="st3" d="M335.2,27.2c-0.2-0.4-0.5-0.7-0.8-1l-10.4-11c-0.5-0.6-1.2-1-2-1.2c-0.9-0.3-1.9-0.2-2.7,0.2
	c-0.5,0.2-1,0.6-1.4,1l-2.9,3.1l-3.1-3.3c-0.8-0.8-1.8-1.3-2.9-1.2l-0.1,0c-1,0-1.9,0.4-2.7,1c-0.1,0.1-0.3,0.2-0.4,0.4l-10.7,11.3
	c-0.8,0.8-1.2,2-1.2,3.2c0,1.2,0.5,2.3,1.3,3.1L312,50.6c0.5,0.5,1.1,0.9,1.7,1.1c0.4,0.1,0.8,0.2,1.3,0.2c0.8,0,1.6-0.2,2.3-0.7
	c0.4-0.2,0.6-0.5,0.9-0.8l3.4-3.5c0.7-0.7,1.3-1.4,2-2.1l0.2-0.2c0.8-0.8,1.5-1.6,2.3-2.4l8.7-9.2c0.5-0.5,0.9-1.2,1-2
	C336.1,29.6,335.9,28.3,335.2,27.2z M319.4,32.3c-0.3,0.1-0.5,0.3-0.6,0.6c-0.1,0.3,0,0.7,0.2,0.9c0.9,0.9,3.8,4,4.7,4.9l1.6,1.7
	l-2.4,2.5l-8.2-8.6c-0.2-0.2-0.5-0.3-0.8-0.2c-0.2,0.1-0.4,0.2-0.5,0.5c-0.1,0.3-0.1,0.6,0,0.9c0.1,0.1,0.2,0.2,0.2,0.3l8,8.5
	l-2.4,2.5l-10.8-11.4c-0.2-0.2-0.5-0.3-0.8-0.2c-0.3,0.1-0.5,0.3-0.6,0.6c-0.1,0.3,0,0.7,0.2,1l10.8,11.3l-1.2,1.3
	c-0.1,0.2-0.3,0.3-0.5,0.5c-0.7,0.5-1.7,0.6-2.5,0.2c-0.3-0.1-0.5-0.3-0.7-0.5l-7.2-7.6c-0.5-0.5-1-1-1.5-1.6l-0.1-0.1
	c-0.5-0.6-1.1-1.1-1.6-1.7l-6.4-6.8c-0.5-0.5-0.7-1.2-0.7-1.9c0-0.7,0.2-1.4,0.7-1.9l10.9-11.5c0.5-0.5,1.1-0.7,1.7-0.7
	c0.3,0,0.6,0,0.8,0.1c0.4,0.1,0.7,0.4,1,0.7l1.6,1.6c0.4,0.5,0.9,0.9,1.3,1.4l0.1,0.1l-6.5,6.8c-0.3,0.3-0.3,0.9-0.1,1.2
	c0.5,0.7,1.1,1.3,1.7,1.7c0.8,0.6,1.7,1,2.5,1.1c0.8,0.1,1.7,0,2.5-0.4c0.4-0.2,0.8-0.4,1-0.7l1.5-1.5c0.8-0.8,1.7-1.7,2.5-2.5
	l0.1-0.1l8.2,8.7c0.2,0.2,0.5,0.5,0.7,0.8c0.4,0.8,0.4,1.8,0,2.6l0,0c-0.2,0.3-0.4,0.6-0.6,0.8l-0.9,0.9l-6.2-6.6
	C320,32.3,319.7,32.2,319.4,32.3z M319.1,23.1c-0.2,0-0.4,0.1-0.6,0.2l-2.4,2.4c-0.8,0.8-1.6,1.6-2.4,2.4c-0.7,0.5-1.5,0.7-2.2,0.6
	c-0.8-0.1-1.6-0.6-2.4-1.4l-0.1-0.1l10.1-10.7c0.5-0.5,1.2-0.8,1.9-0.8c0.6,0,1.2,0.3,1.7,0.8l10.8,11.4c0.4,0.4,0.7,1,0.7,1.7
	c0.1,0.7-0.2,1.5-0.7,2.1l-3.7,3.9l-0.1-0.3c-0.2-0.8-0.6-1.6-1.1-2.2l-9-9.5C319.5,23.2,319.3,23.1,319.1,23.1z"/>
<path class="st3" d="M205.7,19.6h-8.2v-2.9c0-1-0.9-1.9-2.1-1.9h-7.7c-1.1,0-2,0.8-2.1,1.9v2.8h-8.2c-3.3,0-5.9,2.4-5.9,5.4v20.4
	c0,3,2.6,5.4,5.9,5.4h28.2c3.3,0,5.9-2.4,5.9-5.4V25.1C211.6,22,209,19.6,205.7,19.6z M187.3,16.3l8.7,0v3.3h-8.7V16.3z M210.1,45.4
	c0,2.2-2,4-4.4,4h-28.2c-2.4,0-4.4-1.8-4.4-4V28l0.6,0.1c5.3,1.2,10.8,1.8,16.6,1.9l0.1,0c0,0.1-0.1,0.3-0.1,0.4v1.3
	c0,0.7,0.6,1.3,1.3,1.3h0.1c0.7,0,1.3-0.6,1.3-1.3v-1.3c0-0.1,0-0.3-0.1-0.4l0.1,0c5.7-0.1,11.3-0.7,16.6-1.9l0.6-0.1V45.4z
	 M210.1,26.6l-0.4,0.1c-5.7,1.3-11.9,2-18,2c-6.2,0-12.3-0.7-18-2l-0.4-0.1l0-0.4v-1.1c0-2.2,2-4,4.4-4h28.2c2.4,0,4.4,1.8,4.4,4
	V26.6z"/>
<g>
	<path class="st3" d="M349,50.9l3.5,2.7l0,0c0.4,0.3,0.8,0.4,1.2,0.4c0.4,0,0.7-0.1,1.1-0.3l0.3-0.1l3.5-2.7H349z"/>
	<path class="st3" d="M360.5,47.6h-13.2c-0.5,0-0.9,0.4-0.9,1c0,0.6,0.4,1,0.9,1h13.2c0.5,0,0.9-0.5,0.9-1
		C361.3,48,360.9,47.6,360.5,47.6z"/>
	<path class="st3" d="M353.9,12c-4.3,0-8.3,1.7-11.3,4.9c-3,3.1-4.6,7.3-4.6,11.7c0,5.2,2.3,10,6.3,13.3l0.1,0.1
		c0.1,0.2,0.4,0.6,0.6,0.9l0.4,0.6l0,0.2c0.1,1.1,1,1.9,2.1,1.9h12.7c1.1,0,2-0.9,2.1-1.8l0-0.1c0.3-0.7,1-1.4,1-1.5
		c4.2-3.2,6.5-8.1,6.5-13.4C369.9,19.5,362.7,12,353.9,12z M368,28.6c0,4.8-2.1,9.1-5.6,11.9l0,0c-0.5,0.4-1.6,1.7-1.8,2.7l-0.1,0.6
		h-13.2l-0.1-0.6c-0.3-1.1-1.4-2.4-1.9-2.8c-3.6-2.8-5.6-7-5.6-11.8c0-8.1,6.4-14.7,14.2-14.7S368,20.4,368,28.6z"/>
	<path class="st3" d="M363.3,33.4c-0.1,0-0.2,0-0.3-0.1c-0.4-0.2-0.6-0.7-0.4-1.1c1.8-4.4,0.5-9.4-3.1-12.2
		c-0.4-0.3-0.4-0.8-0.2-1.2c0.3-0.4,0.8-0.4,1.1-0.2c4.3,3.3,5.8,9.1,3.7,14.2C363.9,33.2,363.6,33.4,363.3,33.4z"/>
</g>
<g>
	<path class="st4" d="M61.6,58.7c1.7,0,3,1.4,3,3v47.8c0,1.7-1.3,3-3,3H35.8c-1,0-2,0.3-2.9,0.9l-10.2,7l0-2.7
		c0-2.9-2.3-5.2-5.2-5.2H8.6c-1.7,0-3-1.4-3-3V61.7c0-1.7,1.3-3,3-3H61.6 M61.6,55.6h-53c-3.3,0-6,2.7-6,6v47.8c0,3.3,2.7,6,6,6h8.8
		c1.2,0,2.2,1,2.2,2.2l0,7.6c0,0.2,0.2,0.4,0.4,0.4c0.1,0,0.1,0,0.2-0.1l14.3-9.7c0.4-0.2,0.8-0.4,1.2-0.4h25.8c3.3,0,6-2.7,6-6
		V61.7C67.6,58.3,64.9,55.6,61.6,55.6L61.6,55.6z"/>
	<g class="st5">
		<path class="st2" d="M14.3,93.4h-3.5l3.6-17.3H22c1.3,0,2.3,0.1,3.1,0.4s1.3,0.8,1.8,1.5c0.4,0.7,0.7,1.6,0.7,2.6
			c0,1.5-0.4,2.7-1.3,3.6s-2.2,1.5-4,1.8c0.5,0.4,0.9,0.9,1.3,1.6c0.8,1.4,1.7,3.3,2.6,5.7h-3.8c-0.3-1-0.9-2.5-1.8-4.6
			c-0.5-1.1-1-1.9-1.5-2.3c-0.3-0.2-0.9-0.3-1.8-0.3h-1.4L14.3,93.4z M16.3,83.7h1.9c1.9,0,3.2-0.1,3.8-0.3s1.1-0.6,1.5-1.1
			c0.4-0.5,0.5-1,0.5-1.5c0-0.6-0.3-1.1-0.8-1.4c-0.3-0.2-1-0.3-2-0.3h-3.9L16.3,83.7z"/>
		<path class="st2" d="M28,93.4l3.6-17.3h12L43,79h-8.5l-0.9,4.2h8.3l-0.6,2.9H33l-1.5,7.4H28z"/>
		<path class="st2" d="M54.3,93.1c-0.5,0.2-1.1,0.4-1.7,0.5c-0.6,0.1-1.2,0.2-1.8,0.2c-2.1,0-3.8-0.7-5.1-2c-1.3-1.3-1.9-3-1.9-5.2
			c0-1.7,0.4-3.5,1.2-5.3c0.8-1.8,1.9-3.1,3.4-4.1c1.5-0.9,3.1-1.4,5-1.4c2.1,0,3.8,0.7,5.1,2c1.3,1.3,2,3.1,2,5.3
			c0,1.7-0.3,3.3-1,4.8c-0.7,1.5-1.6,2.8-2.8,3.8c0.7,0.7,1.5,1.3,2.4,1.8l-1.7,2.2C56.2,95.2,55.2,94.3,54.3,93.1z M54.6,89.3
			c0.7-0.7,1.3-1.7,1.7-2.8c0.4-1.1,0.6-2.2,0.6-3.2c0-1.4-0.4-2.4-1.1-3.2s-1.7-1.2-2.8-1.2c-0.8,0-1.5,0.2-2.1,0.5
			s-1.3,0.9-1.8,1.6s-1,1.5-1.3,2.5s-0.5,2-0.5,3c0,1.3,0.4,2.4,1.1,3.2s1.7,1.2,2.8,1.2c0.3,0,0.7,0,1-0.1c0.1,0,0.2,0,0.2-0.1
			s0-0.1,0-0.1c0-0.1-0.1-0.2-0.4-0.4c-0.5-0.5-1-0.8-1.6-1l1.3-2C52.9,87.6,53.8,88.4,54.6,89.3z"/>
	</g>
</g>
<g>
	<path class="st4" d="M133.5,125.6H77.9c-4,0-7.2-3.2-7.2-7.1V94.7c0-3.9,3.2-7.1,7.2-7.1l14.3,0c0,0,0,0,0,0c0.8,0,1.4,0.7,1.4,1.5
		c0,0.8-0.6,1.5-1.4,1.5l-14.3,0c-2.4,0-4.3,1.8-4.3,4.1v23.8c0,2.3,1.9,4.1,4.3,4.1h55.6c2.4,0,4.3-1.8,4.3-4.1V94.7
		c0-2.3-1.9-4.1-4.3-4.1h-14.4c-0.8,0-1.4-0.7-1.4-1.5c0-0.8,0.6-1.5,1.4-1.5h14.4c4,0,7.2,3.2,7.2,7.1v23.8
		C140.7,122.5,137.5,125.6,133.5,125.6z"/>
	<path class="st1" d="M123.9,73.3L107,56.2c-0.1-0.1-0.2-0.2-0.3-0.2c0,0-0.1,0-0.1-0.1c-0.1,0-0.1-0.1-0.2-0.1
		c-0.1,0-0.1,0-0.2-0.1c0,0-0.1,0-0.1,0c-0.2,0-0.5,0-0.7,0c-0.1,0-0.1,0-0.1,0c-0.1,0-0.1,0-0.2,0.1c-0.1,0-0.1,0.1-0.2,0.1
		c0,0-0.1,0-0.1,0.1c-0.1,0.1-0.2,0.1-0.3,0.2c0,0,0,0,0,0L87.6,73.3c-0.7,0.7-0.7,1.8,0,2.5c0.7,0.7,1.8,0.7,2.4,0l14-14.2V114
		c0,1,0.8,1.8,1.7,1.8c1,0,1.7-0.8,1.7-1.8V61.6l14,14.2c0.7,0.7,1.8,0.7,2.4,0C124.6,75.1,124.6,74,123.9,73.3z"/>
</g>
<path class="st2" d="M22.8,27.7l-3.2-3.1c-0.2-0.2-0.4-0.2-0.6,0C19,24.7,19,24.9,19,25s0,0.2,0.1,0.3l2.8,2.7l-2.8,2.7
	C19,30.9,19,31,19,31.1c0,0.1,0,0.2,0.1,0.3c0.1,0.1,0.2,0.1,0.3,0.1s0.2,0,0.3-0.1l3.2-3.1c0.1-0.1,0.1-0.2,0.1-0.3
	C23,27.9,22.9,27.8,22.8,27.7z"/>
<path class="st2" d="M48.9,43.4l-6.4-6.2c-0.3-0.3-0.8-0.3-1.1,0c-0.1,0.1-0.2,0.3-0.2,0.5c0,0.2,0.1,0.4,0.2,0.5l5.9,5.7l-5.9,5.7
	c-0.1,0.1-0.2,0.3-0.2,0.5c0,0.2,0.1,0.4,0.2,0.5c0.2,0.1,0.4,0.2,0.5,0.2s0.4-0.1,0.5-0.2l6.4-6.2c0.1-0.1,0.2-0.3,0.2-0.5
	C49.1,43.7,49,43.5,48.9,43.4z"/>
<path class="st2" d="M31.2,44.2l5.9-5.7c0.1-0.1,0.2-0.3,0.2-0.5s-0.1-0.4-0.2-0.5c-0.3-0.3-0.8-0.3-1.1,0l-6.4,6.2
	c-0.1,0.1-0.2,0.3-0.2,0.5c0,0.2,0.1,0.4,0.2,0.5L36,51c0.2,0.1,0.3,0.2,0.5,0.2s0.4-0.1,0.5-0.2c0.1-0.1,0.2-0.3,0.2-0.5
	c0-0.2-0.1-0.4-0.2-0.5L31.2,44.2z"/>
<path class="st6" d="M31.7,28.4l5.9-5.7c0.1-0.1,0.2-0.3,0.2-0.5c0-0.2-0.1-0.4-0.2-0.5c-0.3-0.3-0.8-0.3-1.1,0l-6.4,6.2
	c-0.1,0.1-0.2,0.3-0.2,0.5c0,0.2,0.1,0.4,0.2,0.5l6.4,6.2c0.2,0.1,0.4,0.2,0.5,0.2s0.4-0.1,0.5-0.2c0.1-0.1,0.2-0.3,0.2-0.5
	c0-0.2-0.1-0.4-0.2-0.5L31.7,28.4z"/>
<path class="st6" d="M49.2,28.4l-6.4-6.2c-0.3-0.3-0.8-0.3-1.1,0c-0.1,0.1-0.2,0.3-0.2,0.5c0,0.2,0.1,0.4,0.2,0.5l5.9,5.7l-5.9,5.7
	c-0.1,0.1-0.2,0.3-0.2,0.5c0,0.2,0.1,0.4,0.2,0.5c0.2,0.1,0.4,0.2,0.5,0.2s0.4-0.1,0.5-0.2l6.4-6.2c0.1-0.1,0.2-0.3,0.2-0.5
	C49.4,28.7,49.3,28.5,49.2,28.4z"/>
<g>
	<path class="st4" d="M196.1,55.6h-46.2c-3.8,0-6.9,2.8-6.9,6.4v7.9v49.4c0,3.5,3.1,6.4,6.9,6.4h46.2c3.8,0,6.9-2.8,6.9-6.4V69.9V62
		C203,58.5,199.9,55.6,196.1,55.6z M146.4,62c0-1.8,1.6-3.2,3.5-3.2h46.2c1.9,0,3.5,1.4,3.5,3.2v7.9c0,1.8-1.6,3.2-3.5,3.2h-46.2
		c-1.9,0-3.5-1.4-3.5-3.2V62z M196.1,122.5h-46.2c-1.9,0-3.5-1.4-3.5-3.2V75.4c1,0.5,2.2,0.9,3.5,0.9h46.2c1.3,0,2.4-0.3,3.5-0.9
		v43.9C199.5,121,198,122.5,196.1,122.5z"/>
	<g>
		<path class="st2" d="M154.7,66.5h9.7c0.9,0,1.6-0.7,1.6-1.6c0-0.9-0.7-1.6-1.6-1.6h-9.7c-0.9,0-1.6,0.7-1.6,1.6
			C153.1,65.8,153.8,66.5,154.7,66.5z"/>
		<path class="st2" d="M161.4,79.2c-4.6,0-8.3,3.6-8.3,8.2c0,4.5,3.7,8.2,8.3,8.2c4.6,0,8.3-3.6,8.3-8.2
			C169.6,82.9,165.9,79.2,161.4,79.2z M161.4,92.3c-2.8,0-5-2.2-5-5c0-2.7,2.3-5,5-5c2.8,0,5,2.2,5,5
			C166.4,90.1,164.2,92.3,161.4,92.3z"/>
		<path class="st2" d="M184.6,95.5c4.6,0,8.3-3.6,8.3-8.2c0-4.5-3.7-8.2-8.3-8.2s-8.3,3.6-8.3,8.2C176.3,91.9,180,95.5,184.6,95.5z
			 M184.6,82.4c2.8,0,5,2.2,5,5c0,2.7-2.3,5-5,5c-2.8,0-5-2.2-5-5C179.5,84.6,181.8,82.4,184.6,82.4z"/>
		<path class="st2" d="M184.6,99.9c-4.6,0-8.3,3.6-8.3,8.2s3.7,8.2,8.3,8.2s8.3-3.6,8.3-8.2S189.2,99.9,184.6,99.9z M184.6,113
			c-2.8,0-5-2.2-5-5c0-2.7,2.3-5,5-5c2.8,0,5,2.2,5,5C189.6,110.7,187.4,113,184.6,113z"/>
		<path class="st2" d="M161.4,99.9c-4.6,0-8.3,3.6-8.3,8.2s3.7,8.2,8.3,8.2c4.6,0,8.3-3.6,8.3-8.2S165.9,99.9,161.4,99.9z
			 M161.4,113c-2.8,0-5-2.2-5-5c0-2.7,2.3-5,5-5c2.8,0,5,2.2,5,5C166.4,110.7,164.2,113,161.4,113z"/>
	</g>
</g>
<g>
	<g>
		<path class="st1" d="M228.2,123.9c0,1,0.8,1.8,1.7,1.8s1.7-0.8,1.7-1.8v-8.3h-3.5V123.9z"/>
		<path class="st1" d="M230,55.6c-1,0-1.7,0.8-1.7,1.8v8.3h3.5v-8.3C231.7,56.4,230.9,55.6,230,55.6z"/>
		<path class="st1" d="M238.9,123.9c0,1,0.8,1.8,1.7,1.8c1,0,1.7-0.8,1.7-1.8v-8.3h-3.5V123.9z"/>
		<path class="st1" d="M240.7,55.6c-1,0-1.7,0.8-1.7,1.8v8.3h3.5v-8.3C242.4,56.4,241.6,55.6,240.7,55.6z"/>
		<path class="st1" d="M251.4,55.6c-1,0-1.7,0.8-1.7,1.8v8.3h3.5v-8.3C253.1,56.4,252.3,55.6,251.4,55.6z"/>
		<path class="st1" d="M249.6,123.9c0,1,0.8,1.8,1.7,1.8c1,0,1.7-0.8,1.7-1.8v-8.3h-3.5V123.9z"/>
		<path class="st1" d="M205.7,80.1c0,1,0.8,1.8,1.7,1.8h7.1v-3.5h-7.1C206.5,78.4,205.7,79.2,205.7,80.1z"/>
		<path class="st1" d="M275.5,80.1c0-1-0.8-1.8-1.7-1.8h-9.4v3.5h9.4C274.8,81.9,275.5,81.1,275.5,80.1z"/>
		<path class="st1" d="M274,88.9h-9.6v3.5h9.6c1,0,1.7-0.8,1.7-1.8v0C275.7,89.7,275,88.9,274,88.9z"/>
		<path class="st1" d="M205.9,90.6L205.9,90.6c0,1,0.8,1.8,1.7,1.8h6.9v-3.5h-6.9C206.7,88.9,205.9,89.7,205.9,90.6z"/>
		<path class="st1" d="M205.8,101.2c0,1,0.8,1.8,1.7,1.8h7v-3.5h-7C206.6,99.4,205.8,100.2,205.8,101.2z"/>
		<path class="st1" d="M273.9,99.4h-9.5v3.5h9.5c1,0,1.7-0.8,1.7-1.8C275.6,100.2,274.9,99.4,273.9,99.4z"/>
	</g>
	<g>
		<path class="st4" d="M258.4,65.7h-5.3h-3.5h-7.2h-3.5h-7.2h-3.5h-7.7c-3.3,0-6,2.7-6,6v6.7v3.5v7v3.5v7v3.5v6.7c0,3.3,2.7,6,6,6
			h7.7h3.5h7.2h3.5h7.2h3.5h5.3c3.3,0,6-2.7,6-6v-6.7v-3.5v-7v-3.5v-7v-3.5v-6.7C264.4,68.4,261.7,65.7,258.4,65.7z M261.4,78.4v3.5
			v7v3.5v7v3.5v6.7c0,1.7-1.3,3-3,3h-5.3h-3.5h-7.2h-3.5h-7.2h-3.5h-7.7c-1.6,0-3-1.3-3-3v-6.7v-3.5v-7v-3.5v-7v-3.5v-6.7
			c0-1.7,1.3-3,3-3h7.7h3.5h7.2h3.5h7.2h3.5h5.3c1.6,0,3,1.3,3,3V78.4z"/>
		<path class="st4" d="M248.5,75.6h-18.1c-3.3,0-6,2.7-6,6v18.1c0,3.3,2.7,6,6,6h18.1c3.3,0,6-2.7,6-6V81.6
			C254.5,78.3,251.8,75.6,248.5,75.6z M251.5,99.7c0,1.7-1.3,3-3,3h-18.1c-1.6,0-3-1.3-3-3V81.6c0-1.7,1.3-3,3-3h18.1
			c1.6,0,3,1.3,3,3V99.7z"/>
	</g>
</g>
<g>
	<g>
		<path class="st7" d="M347.2,99.3l-5-4.9c-0.6-0.6-1.5-0.6-2.1,0c-0.3,0.3-0.4,0.6-0.4,1c0,0.4,0.2,0.8,0.4,1l2.4,2.3h-15.3
			c-0.8,0-1.5,0.7-1.5,1.5c0,0.8,0.7,1.5,1.5,1.5h15.3l-2.4,2.3c-0.3,0.3-0.4,0.6-0.4,1s0.2,0.8,0.4,1c0.6,0.6,1.5,0.6,2.1,0l5-4.9
			c0.3-0.3,0.4-0.6,0.4-1C347.7,99.9,347.5,99.5,347.2,99.3z"/>
		<path class="st7" d="M335.6,107.5c-0.5-0.4-1.2-0.4-1.8-0.1l-24.6,14.1V89.6l25.5-14.1v16.2c0,0.8,0.7,1.5,1.5,1.5
			c0.8,0,1.5-0.7,1.5-1.5V73.1c0-0.6-0.3-1.1-0.8-1.3l-28.5-16c-0.2-0.1-0.5-0.2-0.8-0.2s-0.5,0.1-0.8,0.2l-28.5,16
			c-0.5,0.3-0.8,0.8-0.8,1.3v35c0,0.6,0.3,1.1,0.8,1.3l28.5,16c0.5,0.3,1.1,0.3,1.6,0l26.9-15.3c0.5-0.3,0.8-0.7,0.8-1.3
			C336.2,108.3,336,107.8,335.6,107.5z M307.7,59l0.1,0.1l11.1,6.1l-25.1,14.2l-0.1-0.1l-11.1-6.1L307.7,59z M306.2,121.4
			l-25.4-14.1V75.5l25.4,14.1V121.4z M307.7,86.9l-10.8-6.2l24.7-14.2l0.1,0.1l11.1,6.1L307.7,86.9z"/>
	</g>
	<polygon class="st1" points="293.7,98.7 289.9,96.6 289.8,80.5 321.1,62.9 324.6,64.9 293.7,82.6 	"/>
</g>
<g>
	<path class="st8" d="M409.3,70.1c-0.4-0.8-0.8-1.5-1.5-2.1c-0.6-0.6-1.4-1.1-2.2-1.4c-0.9-0.3-1.8-0.5-2.8-0.5h-5.2l0-0.9
		c0-2.4-2-4.3-4.4-4.3h-4.6c-1.6-3.1-5-5.1-8.7-5.1c-3.7,0-7.1,2-8.7,5.1h-4.6c-2.5,0-4.4,1.9-4.4,4.3V66h-5.3
		c-0.9,0-1.9,0.2-2.8,0.5c-0.8,0.3-1.6,0.8-2.2,1.4c-0.7,0.6-1.1,1.3-1.5,2.1c-0.4,0.9-0.5,1.7-0.5,2.7v46.1c0,0.9,0.2,1.8,0.5,2.7
		c0.4,0.8,0.9,1.5,1.5,2.1c0.6,0.6,1.4,1.1,2.2,1.4c0.9,0.3,1.8,0.5,2.8,0.5h46c1,0,1.9-0.2,2.8-0.6c0.8-0.3,1.6-0.8,2.2-1.4
		c0.7-0.6,1.1-1.3,1.5-2.1c0.4-0.9,0.5-1.7,0.5-2.7V72.7C409.8,71.8,409.6,70.9,409.3,70.1z M365.6,65.1c0-0.5,0.4-0.9,0.9-0.9h5.8
		c0.7,0,1.4-0.5,1.7-1.2l0,0c0.8-2.4,3.2-4,5.8-4c2.6,0,5,1.6,5.8,4c0.3,0.7,0.9,1.2,1.7,1.2h5.8c0.5,0,0.9,0.4,0.9,0.9v5.4
		c0,1.3-1,2.3-2.3,2.3h-23.7c-1.3,0-2.3-1-2.3-2.3V65.1z M406.3,118.9c0,1.9-1.6,3.4-3.5,3.4h-45.9c-2,0-3.5-1.6-3.5-3.4V72.8
		c0-1.9,1.6-3.4,3.5-3.4h5.3V71c0,2.9,2.3,5.2,5.2,5.2h24.9c2.9,0,5.2-2.3,5.2-5.2l0-1.7h5.2c2,0,3.5,1.6,3.5,3.4V118.9z"/>
	<g class="st5">
		<path class="st2" d="M363.9,87H399c0.9,0,1.7-0.8,1.7-1.7s-0.8-1.7-1.7-1.7h-35.2c-0.9,0-1.7,0.8-1.7,1.7S362.9,87,363.9,87z"/>
		<path class="st2" d="M363.9,96.5h24.7c0.9,0,1.7-0.8,1.7-1.7v0c0-0.9-0.8-1.7-1.7-1.7h-24.7c-0.9,0-1.7,0.8-1.7,1.7v0
			C362.2,95.7,362.9,96.5,363.9,96.5z"/>
		<path class="st2" d="M399,102.5h-35.2c-0.9,0-1.7,0.8-1.7,1.7s0.8,1.7,1.7,1.7H399c0.9,0,1.7-0.8,1.7-1.7S400,102.5,399,102.5z"/>
		<path class="st2" d="M378.6,112h-14.8c-0.9,0-1.7,0.8-1.7,1.7s0.8,1.7,1.7,1.7h14.8c0.9,0,1.7-0.8,1.7-1.7S379.6,112,378.6,112z"
			/>
	</g>
</g>
<g>
	<path class="st2" d="M164.2,47.8c0-2.8-1.7-5.2-4.3-6.1c1-0.7,1.6-1.9,1.6-3.2c0-2.2-1.8-4-4-4c-2.2,0-4,1.8-4,4
		c0,1.3,0.6,2.5,1.7,3.2c-2.5,0.9-4.2,3.4-4.2,6.1v1.1h13.3L164.2,47.8z M157.9,41.3c-0.2,0-0.3,0-0.4,0c-1.6,0-2.8-1.3-2.8-2.8
		c0-1.6,1.3-2.8,2.8-2.8c1.6,0,2.8,1.3,2.8,2.8C160.3,39.9,159.3,41.1,157.9,41.3z M155.7,42.8c0.7-0.3,1.3-0.3,1.9-0.3
		c0.1,0,0.2,0,0.2,0c3,0.1,5.3,2.4,5.3,5.3l-11,0C152.2,45.6,153.6,43.6,155.7,42.8z"/>
	<g>
		<g>
			<path class="st2" d="M157.6,32.1c5.8,0,10.6,4.8,10.6,10.6s-4.8,10.6-10.6,10.6S147,48.6,147,42.7S151.8,32.1,157.6,32.1
				 M157.6,30.7c-6.6,0-12,5.4-12,12c0,6.6,5.4,12,12,12c6.6,0,12-5.4,12-12C169.6,36.1,164.3,30.7,157.6,30.7L157.6,30.7z"/>
		</g>
	</g>
</g>
<g>
	<path class="st2" d="M25.1,44.9H4.9c-0.5,0-0.9-0.4-0.9-0.9l0,0C4,43.4,4.4,43,4.9,43h20.2c0.5,0,0.9,0.4,0.9,0.9l0,0
		C26,44.4,25.6,44.9,25.1,44.9z"/>
	<path class="st2" d="M24.4,44.6l-7.2-7.1c-0.4-0.4-0.4-0.9,0-1.3v0c0.4-0.4,0.9-0.4,1.3,0l7.2,7.1c0.4,0.4,0.4,0.9,0,1.3h0
		C25.4,44.9,24.8,44.9,24.4,44.6z"/>
	<path class="st2" d="M17.3,50.4l7.2-7.1c0.4-0.4,0.9-0.4,1.3,0h0c0.4,0.4,0.4,0.9,0,1.3l-7.2,7.1c-0.4,0.4-0.9,0.4-1.3,0l0,0
		C16.9,51.3,16.9,50.7,17.3,50.4z"/>
</g>
</svg>
