<?xml version="1.0" encoding="utf-8"?>
<!-- Generator: Adobe Illustrator 26.0.0, SVG Export Plug-In . SVG Version: 6.00 Build 0)  -->
<svg version="1.1" id="图层_1" xmlns="http://www.w3.org/2000/svg" xmlns:xlink="http://www.w3.org/1999/xlink" x="0px" y="0px"
	 viewBox="0 0 198 40" style="enable-background:new 0 0 198 40;" xml:space="preserve">
<style type="text/css">
	.st0{fill:#1770DE;}
</style>
<g>
	<g>
		<path class="st0" d="M6.7,20.1c0-6.6,5.3-11.9,11.8-11.9c3.1,0,5.9,1.2,8,3.1V8.4c0-1.5-1-2.8-2.4-3.1L3.3,0C1.6-0.3,0,1.2,0,3.1
			v33.7c0,1.9,1.6,3.4,3.3,3.1l20.9-5.2c1.4-0.2,2.4-1.6,2.4-3.1v-2.8c-2.1,1.9-4.9,3.1-8,3.1C12,32,6.7,26.7,6.7,20.1z"/>
		<ellipse class="st0" cx="18.6" cy="20.1" rx="6.9" ry="6.9"/>
	</g>
	<path class="st0" d="M40.8,22.5h-2v8.6h-1.4c-1.9,0-3.4-1.5-3.4-3.4V9h0.4h4.4h5.3c1.6,0,2.8,0.2,3.8,0.7c0.9,0.4,1.6,1.1,2.1,2.1
		c0.4,1,0.6,2.9,0.6,4.6c0,2.1-0.4,3.1-1.1,4.1c-0.7,1-1.9,1.6-3.5,1.8l5.6,8.6h-5.5L40.8,22.5z M38.8,18.3H43c0.8,0,1.3,0,1.7-0.1
		c0.4-0.1,0.6-0.3,0.8-0.6c0.2-0.3,0.2-0.9,0.2-1.6c0-0.8-0.1-1.4-0.2-1.8c-0.2-0.4-0.4-0.6-0.8-0.8c-0.4-0.1-0.9-0.2-1.7-0.2h-4.2
		V18.3z"/>
	<path class="st0" d="M55.1,27.6V9h1.1c1.9,0,3.4,1.5,3.4,3.4v18.6h-1.1C56.6,31.1,55.1,29.5,55.1,27.6z"/>
	<path class="st0" d="M86.3,26.7V9h0.2c2.4,0,4.3,1.9,4.3,4.3v17.7h-0.2C88.2,31.1,86.3,29.1,86.3,26.7z"/>
	<path class="st0" d="M114.9,17.7h7.4c1.9,0,3.4,1.5,3.4,3.4v1.1h-7.4c-1.9,0-3.4-1.5-3.4-3.4L114.9,17.7L114.9,17.7z"/>
	<path class="st0" d="M81.9,27c-0.6,1.5-1.5,2.5-2.8,3.1S75.9,31,73.5,31c-2.6,0-4.7-0.4-6.2-1.1c-1.5-0.7-2.6-1.9-3.2-3.4
		c-0.6-1.6-1-3.7-1-6.3c0-2.7,0.4-4.9,1.1-6.5s1.8-2.8,3.3-3.5C69.1,9.4,71,9,73.5,9c1.7,0,3.2,0.2,4.3,0.6c1.1,0.4,2.1,1.1,2.8,2
		c0.7,0.9,1.2,2.2,1.6,3.7L80.8,16c-1.3,0.5-2.8,0-3.6-1.2l0,0c-0.4-0.6-0.9-0.9-1.4-1.2c-0.6-0.2-1.4-0.3-2.3-0.3
		c-1.4,0-2.5,0.2-3.3,0.6c-0.8,0.4-1.4,1.1-1.8,2.1c-0.4,1-0.6,2.3-0.6,4.1c0,1.7,0.2,3,0.5,4c0.4,0.9,0.9,1.6,1.8,2
		c0.8,0.4,1.9,0.6,3.4,0.6c1.2,0,2.2-0.2,2.9-0.5c0.7-0.3,1.2-0.8,1.4-1.4c0.3-0.6,0.4-1.4,0.4-2.5h-6.3v-0.5c0-1.9,1.5-3.4,3.4-3.4
		h5.2c0.8,0,1.4,0.2,1.7,0.5c0.4,0.3,0.5,0.8,0.5,1.6C82.7,23.4,82.4,25.5,81.9,27z"/>
	<path class="st0" d="M98.8,17v14h-1.1c-1.9,0-3.4-1.5-3.4-3.4V9h3.3c0.5,0,0.9,0,1,0.1c0.2,0.1,0.4,0.2,0.6,0.5l7.9,13.2V9h1.3
		c1.9,0,3.4,1.5,3.4,3.4v18.6h-3.7c-0.5,0-0.8,0-1-0.1c-0.2-0.1-0.4-0.3-0.6-0.7C105.3,28.1,102.7,23.4,98.8,17z"/>
	<path class="st0" d="M128.8,9h6.4c2.7,0,4.7,0.4,6.1,1.1c1.3,0.8,2.5,1.9,3.6,3.6c1.1,1.6,1.6,3.7,1.6,6.2c0,3.1-0.9,5.7-2.8,7.8
		c-1.8,2.1-4.4,3.1-7.6,3.1h-3.8c-1.9,0-3.4-1.5-3.4-3.4L128.8,9L128.8,9z M133.5,13.1v13.7h2.1c1.9,0,3.9-0.7,4.8-2.1
		c0.9-1.4,1.4-3,1.4-4.9c0-1.3-0.3-2.5-0.8-3.7c-0.5-1.1-1.2-1.9-1.9-2.4c-0.8-0.5-2.3-0.7-3.4-0.7h-2.2V13.1z"/>
	<path class="st0" d="M160.3,12.1l5.9,18.8h-2.3c-1.5,0-2.8-1-3.2-2.4l-0.6-2.1H153l-0.6,1.9c-0.5,1.5-1.9,2.6-3.5,2.6h-2l7-21.9
		h2.2C158,9,159.7,10.3,160.3,12.1z M154.2,22.5h4.6l-2.3-7.7L154.2,22.5z"/>
	<path class="st0" d="M180.3,13.4L180.3,13.4h-5.6V31h-0.6c-2.4,0-4.3-1.9-4.3-4.3V13.4h-1.2c-2.4,0-4.3-1.9-4.3-4.3l0,0H176
		C178.3,9,180.3,11,180.3,13.4z"/>
	<path class="st0" d="M192.1,12.1L198,31h-2.3c-1.5,0-2.8-1-3.2-2.4l-0.6-2.1h-7.1l-0.6,1.9c-0.5,1.5-1.9,2.6-3.5,2.6h-2l7-21.9h2.2
		C189.8,9,191.5,10.3,192.1,12.1z M186.1,22.5h4.6l-2.3-7.7L186.1,22.5z"/>
</g>
</svg>
