<?xml version="1.0" encoding="utf-8"?>
<!-- Generator: Adobe Illustrator 26.0.0, SVG Export Plug-In . SVG Version: 6.00 Build 0)  -->
<svg version="1.1" id="图层_1" xmlns="http://www.w3.org/2000/svg" xmlns:xlink="http://www.w3.org/1999/xlink" x="0px" y="0px"
	 viewBox="0 0 139 28" style="enable-background:new 0 0 139 28;" xml:space="preserve">
<style type="text/css">
	.st0{fill:#FFFFFF;}
</style>
<g>
	<g>
		<path class="st0" d="M4.7,14.1c0-4.6,3.7-8.3,8.3-8.3c2.2,0,4.1,0.8,5.6,2.2V6c0-1.1-0.7-2-1.7-2.2L2.3,0C1.1-0.2,0,0.9,0,2.2
			v23.6c0,1.3,1.1,2.4,2.3,2.2L17,24.3c1-0.1,1.7-1.1,1.7-2.2v-2c-1.5,1.3-3.4,2.2-5.6,2.2C8.4,22.4,4.7,18.7,4.7,14.1z"/>
		<ellipse class="st0" cx="13.1" cy="14.1" rx="4.8" ry="4.8"/>
	</g>
	<path class="st0" d="M28.6,15.8h-1.4v6h-1c-1.3,0-2.4-1.1-2.4-2.4V6.3h0.3h3.1H31c1.1,0,2,0.1,2.7,0.5c0.6,0.3,1.1,0.8,1.5,1.5
		c0.3,0.7,0.4,2,0.4,3.2c0,1.5-0.3,2.2-0.8,2.9s-1.3,1.1-2.5,1.3l3.9,6h-3.9L28.6,15.8z M27.2,12.8h2.9c0.6,0,0.9,0,1.2-0.1
		c0.3-0.1,0.4-0.2,0.6-0.4c0.1-0.2,0.1-0.6,0.1-1.1c0-0.6-0.1-1-0.1-1.3c-0.1-0.3-0.3-0.4-0.6-0.6c-0.3-0.1-0.6-0.1-1.2-0.1h-2.9
		C27.2,9.2,27.2,12.8,27.2,12.8z"/>
	<path class="st0" d="M38.7,19.4v-13h0.8c1.3,0,2.4,1.1,2.4,2.4v13h-0.8C39.7,21.8,38.7,20.7,38.7,19.4z"/>
	<path class="st0" d="M60.6,18.7V6.3h0.1c1.7,0,3,1.3,3,3v12.4h-0.1C61.9,21.8,60.6,20.4,60.6,18.7z"/>
	<path class="st0" d="M80.7,12.4h5.2c1.3,0,2.4,1.1,2.4,2.4v0.8H83c-1.3,0-2.4-1.1-2.4-2.4L80.7,12.4L80.7,12.4z"/>
	<path class="st0" d="M57.5,18.9c-0.4,1.1-1.1,1.8-2,2.2c-0.9,0.4-2.2,0.6-3.9,0.6c-1.8,0-3.3-0.3-4.4-0.8c-1.1-0.5-1.8-1.3-2.2-2.4
		s-0.7-2.6-0.7-4.4c0-1.9,0.3-3.4,0.8-4.6c0.5-1.1,1.3-2,2.3-2.5c1.1-0.6,2.5-0.8,4.2-0.8c1.2,0,2.2,0.1,3,0.4s1.5,0.8,2,1.4
		s0.8,1.5,1.1,2.6l-1,0.5c-0.9,0.4-2,0-2.5-0.8l0,0c-0.3-0.4-0.6-0.6-1-0.8c-0.4-0.1-1-0.2-1.6-0.2c-1,0-1.8,0.1-2.3,0.4
		c-0.6,0.3-1,0.8-1.3,1.5s-0.4,1.6-0.4,2.9c0,1.2,0.1,2.1,0.4,2.8c0.3,0.6,0.6,1.1,1.3,1.4c0.6,0.3,1.3,0.4,2.4,0.4
		c0.8,0,1.5-0.1,2-0.4c0.5-0.2,0.8-0.6,1-1s0.3-1,0.3-1.8h-4.4v-0.4c0-1.3,1.1-2.4,2.4-2.4h3.7c0.6,0,1,0.1,1.2,0.4
		c0.3,0.2,0.4,0.6,0.4,1.1C58.1,16.4,57.8,17.9,57.5,18.9z"/>
	<path class="st0" d="M69.4,11.9v9.8h-0.8c-1.3,0-2.4-1.1-2.4-2.4v-13h2.3c0.4,0,0.6,0,0.7,0.1s0.3,0.1,0.4,0.4l5.5,9.2V6.3H76
		c1.3,0,2.4,1.1,2.4,2.4v13h-2.6c-0.4,0-0.6,0-0.7-0.1s-0.3-0.2-0.4-0.5C73.9,19.7,72.1,16.4,69.4,11.9z"/>
	<path class="st0" d="M90.4,6.3h4.5c1.9,0,3.3,0.3,4.3,0.8c0.9,0.6,1.8,1.3,2.5,2.5c0.8,1.1,1.1,2.6,1.1,4.3c0,2.2-0.6,4-2,5.5
		c-1.3,1.5-3.1,2.2-5.3,2.2h-2.7c-1.3,0-2.4-1.1-2.4-2.4V6.3L90.4,6.3z M93.7,9.2v9.6h1.5c1.3,0,2.7-0.5,3.4-1.5c0.6-1,1-2.1,1-3.4
		c0-0.9-0.2-1.8-0.6-2.6s-0.8-1.3-1.3-1.7c-0.6-0.4-1.6-0.5-2.4-0.5L93.7,9.2L93.7,9.2L93.7,9.2z"/>
	<path class="st0" d="M112.5,8.5l4.1,13.2H115c-1.1,0-2-0.7-2.2-1.7l-0.4-1.5h-5l-0.4,1.3c-0.4,1.1-1.3,1.8-2.5,1.8h-1.4L108,6.3
		h1.5C110.9,6.3,112.1,7.2,112.5,8.5z M108.3,15.8h3.2l-1.6-5.4L108.3,15.8z"/>
	<path class="st0" d="M126.6,9.4L126.6,9.4h-3.9v12.3h-0.4c-1.7,0-3-1.3-3-3V9.4h-0.8c-1.7,0-3-1.3-3-3l0,0h8.2
		C125.2,6.3,126.6,7.7,126.6,9.4z"/>
	<path class="st0" d="M134.9,8.5l4.1,13.2h-1.6c-1.1,0-2-0.7-2.2-1.7l-0.4-1.5h-5l-0.4,1.3c-0.4,1.1-1.3,1.8-2.5,1.8h-1.4l4.9-15.3
		h1.5C133.2,6.3,134.4,7.2,134.9,8.5z M130.6,15.8h3.2l-1.6-5.4L130.6,15.8z"/>
</g>
</svg>
