<?xml version="1.0" encoding="UTF-8"?>
<svg width="16px" height="16px" viewBox="0 0 16 16" version="1.1" xmlns="http://www.w3.org/2000/svg" xmlns:xlink="http://www.w3.org/1999/xlink">
    <title>画板</title>
    <g id="画板" stroke="none" stroke-width="1" fill="none" fill-rule="evenodd">
        <g id="分组" transform="translate(0.000000, 1.000000)" fill="#0076FF">
            <path d="M5,5 C5,3.34314575 6.34314575,2 8,2 C9.65685425,2 11,3.34314575 11,5 L11,11 C11,11.5522847 10.5522847,12 10,12 L10,14 C11.6568542,14 13,12.6568542 13,11 L13,5 C13,2.23857625 10.7614237,0 8,0 C5.23857625,0 3,2.23857625 3,5 L5,5 Z" id="路径" fill-rule="nonzero"></path>
            <path d="M3,5 L5,5 L5,11 L3,11 C1.34314575,11 0,9.65685425 0,8 C0,6.34314575 1.34314575,5 3,5 Z M2,8 C2,8.55228475 2.44771525,9 3,9 L3,7 C2.44771525,7 2,7.44771525 2,8 Z" id="矩形" fill-rule="nonzero"></path>
            <path d="M14,5 L16,5 L16,11 L14,11 C12.3431458,11 11,9.65685425 11,8 C11,6.34314575 12.3431458,5 14,5 Z M13,8 C13,8.55228475 13.4477153,9 14,9 L14,7 C13.4477153,7 13,7.44771525 13,8 Z" id="矩形" fill-rule="nonzero" transform="translate(13.500000, 8.000000) rotate(-180.000000) translate(-13.500000, -8.000000) "></path>
            <rect id="矩形" x="7" y="11" width="3" height="3"></rect>
        </g>
    </g>
</svg>
