<?xml version="1.0" encoding="utf-8"?>
<!-- Generator: Adobe Illustrator 26.0.0, SVG Export Plug-In . SVG Version: 6.00 Build 0)  -->
<svg version="1.1" id="图层_1" xmlns="http://www.w3.org/2000/svg" xmlns:xlink="http://www.w3.org/1999/xlink" x="0px" y="0px"
	 viewBox="0 0 350 100" style="enable-background:new 0 0 350 100;" xml:space="preserve">
<style type="text/css">
	.st0{fill:none;}
	.st1{fill:#3073BA;}
	.st2{opacity:0.49;fill:#BF8686;}
	.st3{opacity:0.77;fill:#7D77DB;}
	.st4{fill:#FFFFFF;}
	.st5{fill:#3073BA;enable-background:new    ;}
	.st6{fill-rule:evenodd;clip-rule:evenodd;fill:#FFFFFF;}
	.st7{font-family:'Arial-BoldMT';}
	.st8{font-size:11.5334px;}
	.st9{enable-background:new    ;}
	.st10{font-size:4.152px;}
</style>
<g>
	<path class="st0" d="M40.8,11.8c0.7,0,1.4-0.3,1.9-0.7c-1.4-0.7-3-1.3-4.7-1.8C38.2,10.7,39.4,11.8,40.8,11.8z"/>
	<path class="st0" d="M40.8,6.1c-0.8,0-1.6,0.4-2.1,1c1.8,0.4,3.4,1,4.9,1.7C43.5,7.3,42.3,6.1,40.8,6.1z"/>
	<path class="st1" d="M37.7,6.9C35,6.3,32.2,6,29.2,6C22.9,6,17.4,7.3,13,9.6c-1,0.5-2,1.1-2.8,1.7c-0.7,0.5-0.9,0.7-0.8,0.8
		c0.1,0,0.2-0.1,0.9-0.5C14.5,9.3,20.4,7.8,27,7.8c3.6,0,7,0.4,10,1.2C37,9,37,9,37,9C37,8.2,37.3,7.5,37.7,6.9z"/>
	<path class="st1" d="M44.6,9.2c-0.1,0.9-0.4,1.8-1,2.4c4.1,2.3,6.7,5.4,6.7,8.8c0,6.9-10.4,12.5-23.3,12.5
		c-6.8,0-12.9-1.6-17.2-4.1c-0.6-0.3-0.7-0.4-0.7-0.4c0,0,0.2,0.3,0.8,0.8c4.5,3.4,11.4,5.5,19.3,5.5c13.5,0,24.5-6.4,24.5-14.4
		C53.6,15.8,50.1,11.8,44.6,9.2z"/>
	<path class="st2" d="M38,9c0,0.1,0,0.2,0,0.4c1.7,0.5,3.3,1.1,4.7,1.8c0.6-0.5,1-1.3,1-2.1c0-0.1,0-0.1,0-0.2
		c-1.5-0.7-3.2-1.2-4.9-1.7C38.3,7.6,38,8.3,38,9z"/>
	<circle class="st3" cx="40.8" cy="9" r="2.8"/>
	<circle class="st1" cx="40.8" cy="9" r="2.8"/>
	<g>
		<path class="st1" d="M14.1,13.3H9.2c-2.4,0-4.3,1.9-4.3,4.3v0.8v2.3v1.9c0,2.4,1.9,4.3,4.3,4.3l7.5,0l0-2.3l-7.5,0
			c-1.1,0-2-0.9-2-2v-1.9h11.2v0v-2.3v-0.8C18.4,15.2,16.5,13.3,14.1,13.3z M7.2,18.4v-0.8c0-1.1,0.9-2,2-2h4.9c1.1,0,2,0.9,2,2v0.8
			H7.2z"/>
		<path class="st1" d="M25.5,13.2h-0.9c-2.9,0-5.2,2.3-5.2,5.2v8.4h2.3v-2.3v-1.9v-4.2c0-1.6,1.3-2.9,2.9-2.9h0.9V13.2z"/>
		<path class="st1" d="M34.2,13.3h-7.5v2.3h7.5c1.2,0,2.1,0.9,2.1,2.1v0.9h-7.3c-2.2,0-4,1.8-4,4v0.7c0,2,1.6,3.6,3.6,3.6l10,0
			l0-9.1C38.5,15.3,36.6,13.3,34.2,13.3z M36.2,24.6h-7.7c-0.7,0-1.3-0.6-1.3-1.3v-0.7c0-1,0.8-1.7,1.7-1.7h7.3V24.6z"/>
		<rect x="39.7" y="13.3" class="st1" width="2.3" height="13.5"/>
	</g>
	<path class="st1" d="M53.3,48h-48v-7.7c0-2.2,1.7-3.9,3.9-3.9c1.9,0,4.4,0,7.2,0c10.5,0.1,24.1,0.4,30.1-2.5c6.3-3,6.6-5.8,6.6-5.8
		L53.3,48z"/>
	<g>
		<path class="st4" d="M27.5,42.4c-0.1,0.3-0.1,0.4-0.3,0.9c-0.1-0.6-0.2-0.8-0.3-1.1L26,39.7h-1.6v4.7h1v-2.8c0-0.4,0-0.6,0-1.2
			c0.2,0.5,0.2,0.7,0.4,1l1,2.9h0.9l1.2-3.5c0.1-0.2,0.1-0.3,0.2-0.5c0,0.2,0,0.3,0,0.4l0,0.9v2.8h1v-4.7h-1.6L27.5,42.4z"/>
		<path class="st4" d="M15.2,42.4c-0.1,0.3-0.1,0.4-0.3,0.9c-0.1-0.6-0.2-0.8-0.3-1.1l-0.8-2.5h-1.6v4.7h1v-2.8c0-0.4,0-0.6,0-1.2
			c0.2,0.5,0.2,0.7,0.4,1l1,2.9h0.9l1.2-3.5c0.1-0.2,0.1-0.3,0.2-0.5c0,0.2,0,0.3,0,0.4l0,0.9v2.8h1v-4.7h-1.6L15.2,42.4z"/>
		<polygon class="st4" points="20.7,42.4 22.6,42.4 22.6,41.6 20.7,41.6 20.7,40.5 22.7,40.5 22.7,39.7 19.6,39.7 19.6,44.4 
			22.8,44.4 22.8,43.6 20.7,43.6 		"/>
		<polygon class="st4" points="38.3,42.3 40.2,42.3 40.2,41.6 38.3,41.6 38.3,40.4 40.3,40.4 40.3,39.7 37.2,39.7 37.2,44.4 
			40.4,44.4 40.4,43.6 38.3,43.6 		"/>
		<path class="st4" d="M34.4,41.9c0.6-0.1,0.9-0.5,0.9-1c0-0.4-0.2-0.7-0.5-0.9c-0.3-0.2-0.6-0.3-1.2-0.3H32v4.7h1.6
			c0.6,0,0.7,0,1-0.1c0.6-0.2,0.9-0.6,0.9-1.2C35.5,42.5,35.1,42.1,34.4,41.9z M33,40.4h0.6c0.5,0,0.7,0.2,0.7,0.6
			c0,0.4-0.2,0.6-0.7,0.6H33V40.4z M33.6,43.7H33v-1.4h0.7c0.6,0,0.8,0.2,0.8,0.7C34.5,43.5,34.2,43.7,33.6,43.7z"/>
		<path class="st4" d="M45.2,42.8c-0.2-0.5-0.3-0.6-0.6-0.7c0.3-0.1,0.4-0.1,0.5-0.2c0.3-0.2,0.4-0.5,0.4-0.9c0-0.4-0.2-0.7-0.5-1
			c-0.3-0.2-0.6-0.3-1.2-0.3h-1.7v4.7h1v-2h0.4c0.5,0,0.6,0.1,0.8,0.6l0.5,1.3h1L45.2,42.8z M43.7,41.7h-0.6v-1.3h0.6
			c0.5,0,0.8,0.2,0.8,0.6C44.5,41.5,44.2,41.7,43.7,41.7z"/>
	</g>
</g>
<g>
	<path class="st4" d="M301.1,86.1c-1.9,0-3.5-1.6-3.5-3.5v-18c0-1.9,1.6-3.5,3.5-3.5h40c1.9,0,3.5,1.6,3.5,3.5v18
		c0,1.9-1.6,3.5-3.5,3.5H301.1z"/>
	<path class="st1" d="M341.1,61.6c1.7,0,3,1.3,3,3v18c0,1.7-1.3,3-3,3h-40c-1.7,0-3-1.3-3-3v-18c0-1.7,1.3-3,3-3H341.1 M341.1,60.6
		h-40c-2.2,0-4,1.8-4,4v18c0,2.2,1.8,4,4,4h40c2.2,0,4-1.8,4-4v-18C345.1,62.4,343.3,60.6,341.1,60.6L341.1,60.6z"/>
</g>
<path class="st1" d="M339.3,73.2C339.3,73.1,339.3,73.1,339.3,73.2l-4-3.9c-0.2-0.2-0.6-0.2-0.8,0c-0.1,0.1-0.2,0.3-0.2,0.4
	s0.1,0.3,0.2,0.4l3.5,3.4l-3.5,3.4c-0.1,0.1-0.2,0.3-0.2,0.4s0.1,0.3,0.2,0.4c0.1,0.1,0.3,0.2,0.4,0.2c0.2,0,0.3-0.1,0.4-0.2
	l3.9-3.8l0,0c0.1-0.1,0.2-0.3,0.2-0.4C339.5,73.4,339.5,73.3,339.3,73.2z"/>
<g>
	<path class="st1" d="M309.7,65.4L307,73h-1.1l-2.7-7.6h1.1l2,5.9c0.1,0.2,0.1,0.4,0.2,0.7h0c0-0.2,0.1-0.5,0.2-0.7l2.1-5.9H309.7z"
		/>
	<path class="st1" d="M310.7,65.7c0-0.2,0.1-0.3,0.2-0.4c0.1-0.1,0.3-0.2,0.4-0.2c0.2,0,0.3,0.1,0.4,0.2c0.1,0.1,0.2,0.3,0.2,0.4
		c0,0.2-0.1,0.3-0.2,0.4c-0.1,0.1-0.3,0.2-0.4,0.2s-0.3-0.1-0.4-0.2S310.7,65.8,310.7,65.7z M310.8,73v-5.4h1V73H310.8z"/>
	<path class="st1" d="M317.9,70.5h-3.8c0,0.6,0.2,1,0.5,1.3s0.7,0.5,1.3,0.5c0.6,0,1.2-0.2,1.7-0.6v0.9c-0.5,0.3-1.1,0.5-1.9,0.5
		c-0.8,0-1.4-0.2-1.8-0.7c-0.4-0.5-0.7-1.2-0.7-2.1c0-0.8,0.2-1.5,0.7-2c0.5-0.5,1.1-0.8,1.8-0.8c0.7,0,1.3,0.2,1.7,0.7
		s0.6,1.1,0.6,1.9V70.5z M317,69.7c0-0.5-0.1-0.9-0.3-1.1s-0.5-0.4-1-0.4c-0.4,0-0.7,0.1-1,0.4c-0.3,0.3-0.5,0.7-0.5,1.1H317z"/>
	<path class="st1" d="M326.2,67.6l-1.6,5.4h-1l-1.1-3.8c0-0.2-0.1-0.3-0.1-0.5h0c0,0.1,0,0.3-0.1,0.5l-1.2,3.8h-1l-1.6-5.4h1l1.1,4
		c0,0.1,0.1,0.3,0.1,0.5h0c0-0.2,0-0.3,0.1-0.5l1.2-4h0.9l1.1,4c0,0.1,0.1,0.3,0.1,0.5h0c0-0.1,0-0.3,0.1-0.5l1.1-4H326.2z"/>
	<path class="st1" d="M311.7,82h-1v-3.1c0-0.6-0.1-1-0.3-1.3c-0.2-0.3-0.5-0.4-0.9-0.4c-0.4,0-0.7,0.2-0.9,0.5
		c-0.3,0.3-0.4,0.7-0.4,1.2V82h-1v-3.2c0-1-0.4-1.5-1.2-1.5c-0.4,0-0.7,0.2-0.9,0.5c-0.2,0.3-0.4,0.7-0.4,1.2V82h-1v-5.4h1v0.9h0
		c0.4-0.7,0.9-1,1.7-1c0.4,0,0.7,0.1,1,0.3c0.3,0.2,0.5,0.5,0.6,0.8c0.4-0.7,1-1.1,1.8-1.1c1.2,0,1.8,0.7,1.8,2.2V82z"/>
	<path class="st1" d="M313,79.3c0-0.9,0.2-1.6,0.7-2.1s1.2-0.8,2-0.8c0.8,0,1.4,0.2,1.9,0.7c0.5,0.5,0.7,1.2,0.7,2.1
		c0,0.9-0.2,1.5-0.7,2.1s-1.2,0.8-2,0.8c-0.8,0-1.5-0.3-1.9-0.8S313,80.2,313,79.3z M314,79.3c0,0.6,0.2,1.1,0.5,1.5
		c0.3,0.4,0.7,0.5,1.3,0.5c0.5,0,1-0.2,1.2-0.5s0.4-0.9,0.4-1.5c0-0.7-0.1-1.2-0.4-1.5s-0.7-0.5-1.2-0.5c-0.5,0-1,0.2-1.3,0.6
		C314.2,78.2,314,78.7,314,79.3z"/>
	<path class="st1" d="M322.7,77.5c-0.2-0.1-0.4-0.2-0.7-0.2c-0.4,0-0.7,0.2-0.9,0.5s-0.4,0.8-0.4,1.4V82h-1v-5.4h1v1.1h0
		c0.3-0.8,0.7-1.2,1.4-1.2c0.2,0,0.4,0,0.5,0.1V77.5z"/>
	<path class="st1" d="M328,79.5h-3.8c0,0.6,0.2,1,0.5,1.3s0.7,0.5,1.3,0.5c0.6,0,1.2-0.2,1.7-0.6v0.9c-0.5,0.3-1.1,0.5-1.9,0.5
		c-0.8,0-1.4-0.2-1.8-0.7c-0.4-0.5-0.7-1.2-0.7-2.1c0-0.8,0.2-1.5,0.7-2c0.5-0.5,1.1-0.8,1.8-0.8c0.7,0,1.3,0.2,1.7,0.7
		s0.6,1.1,0.6,1.9V79.5z M327.1,78.7c0-0.5-0.1-0.9-0.3-1.1s-0.5-0.4-1-0.4c-0.4,0-0.7,0.1-1,0.4c-0.3,0.3-0.5,0.7-0.5,1.1H327.1z"
		/>
</g>
<g>
	<path class="st5" d="M145.8,7.2c8.4,0,15.4,5.6,17.8,13.3h3.3C164.4,11,155.9,4,145.8,4c-10.1,0-18.6,7-21,16.5h3.3
		C130.3,12.7,137.4,7.2,145.8,7.2z"/>
	<path class="st5" d="M145.8,44.8c-7.7,0-14.4-4.8-17.2-11.6h-3.4c2.9,8.6,11,14.8,20.5,14.8c9.5,0,17.6-6.2,20.5-14.8h-3.4
		C160.1,40,153.5,44.8,145.8,44.8z"/>
	<path class="st5" d="M129.3,32.2c2.5,6.7,8.9,11.5,16.4,11.5c7.5,0,13.9-4.8,16.4-11.5h7.6l-1.9-5.3l1.7-5.3h-6.8
		c-1.9-7.7-8.8-13.4-17-13.4c-8.2,0-15.1,5.7-17,13.4h-7l1.9,5.3l-1.7,5.3H129.3z M124.3,26.6l-1.6-4.4h6h34h5.8l-1.4,4.4l-0.1,0.2
		l0.1,0.2l1.6,4.4h-6.6h-32.9h-6.5l1.4-4.4l0.1-0.2L124.3,26.6z"/>
</g>
<g>
	<path id="A" class="st6" d="M143.6,19.1l0.7,1.4h2l-3.8-7.9h-1.3l-3.7,7.9h1.9l0.6-1.4H143.6L143.6,19.1z M140.6,17.6l1.3-2.8
		l1.3,2.8H140.6z"/>
	<text id="S" transform="matrix(1 0 0 1 146.2286 20.4917)" class="st4 st7 st8">S</text>
</g>
<g class="st9">
	<path class="st1" d="M131,28.9l1.4-0.2c0,0.3,0.1,0.5,0.3,0.6c0.1,0.1,0.3,0.2,0.6,0.2c0.3,0,0.5-0.1,0.8-0.4s0.3-0.8,0.4-1.7
		c-0.4,0.4-0.8,0.6-1.3,0.6c-0.6,0-1.1-0.2-1.5-0.7c-0.4-0.5-0.6-1-0.6-1.8c0-0.8,0.2-1.4,0.7-1.8c0.4-0.5,1-0.7,1.7-0.7
		c0.8,0,1.4,0.3,1.9,0.9c0.5,0.6,0.7,1.5,0.7,2.9c0,1.4-0.3,2.3-0.8,2.9s-1.2,0.9-2,0.9c-0.6,0-1.1-0.2-1.4-0.5
		C131.4,30,131.1,29.5,131,28.9z M134.3,25.8c0-0.5-0.1-0.8-0.3-1.1c-0.2-0.3-0.5-0.4-0.7-0.4c-0.3,0-0.5,0.1-0.7,0.3
		s-0.3,0.5-0.3,1c0,0.5,0.1,0.8,0.3,1.1c0.2,0.2,0.4,0.3,0.7,0.3c0.3,0,0.5-0.1,0.7-0.3C134.2,26.5,134.3,26.2,134.3,25.8z"/>
	<path class="st1" d="M140.4,30.6H139v-5.4c-0.5,0.5-1.1,0.8-1.8,1.1V25c0.4-0.1,0.8-0.4,1.2-0.7c0.4-0.3,0.7-0.7,0.9-1.2h1.2V30.6z
		"/>
	<path class="st1" d="M147.4,29.3v1.3h-5c0.1-0.5,0.2-1,0.5-1.4c0.3-0.4,0.8-1,1.6-1.8c0.6-0.6,1-1,1.2-1.2c0.2-0.3,0.3-0.6,0.3-0.9
		c0-0.3-0.1-0.6-0.3-0.7c-0.2-0.2-0.4-0.3-0.7-0.3c-0.3,0-0.5,0.1-0.7,0.3c-0.2,0.2-0.3,0.5-0.3,0.9l-1.4-0.1
		c0.1-0.8,0.3-1.3,0.8-1.7c0.4-0.3,1-0.5,1.7-0.5c0.7,0,1.3,0.2,1.7,0.6c0.4,0.4,0.6,0.9,0.6,1.5c0,0.3-0.1,0.7-0.2,1
		c-0.1,0.3-0.3,0.6-0.6,1c-0.2,0.2-0.5,0.5-0.9,0.9s-0.7,0.7-0.9,0.8c-0.1,0.1-0.2,0.3-0.3,0.4H147.4z"/>
	<path class="st1" d="M150.7,23.1c0.7,0,1.3,0.3,1.7,0.8c0.5,0.6,0.7,1.6,0.7,3c0,1.4-0.2,2.4-0.7,3c-0.4,0.5-1,0.8-1.7,0.8
		c-0.7,0-1.3-0.3-1.7-0.8s-0.7-1.5-0.7-3c0-1.4,0.2-2.4,0.7-3C149.4,23.4,150,23.1,150.7,23.1z M150.7,24.3c-0.2,0-0.3,0.1-0.5,0.2
		c-0.1,0.1-0.2,0.3-0.3,0.6c-0.1,0.4-0.1,1-0.1,1.9c0,0.9,0,1.5,0.1,1.8c0.1,0.3,0.2,0.5,0.3,0.7c0.1,0.1,0.3,0.2,0.5,0.2
		c0.2,0,0.3-0.1,0.5-0.2c0.1-0.1,0.2-0.3,0.3-0.6c0.1-0.4,0.1-1,0.1-1.9c0-0.9,0-1.5-0.1-1.8s-0.2-0.5-0.3-0.7
		C151.1,24.4,150.9,24.3,150.7,24.3z"/>
	<path class="st1" d="M154.4,23.2h3c0.6,0,1,0,1.3,0.1s0.5,0.2,0.8,0.3c0.2,0.2,0.4,0.4,0.6,0.6c0.2,0.3,0.2,0.5,0.2,0.9
		c0,0.3-0.1,0.7-0.3,1c-0.2,0.3-0.4,0.5-0.8,0.7c0.5,0.1,0.8,0.4,1,0.7c0.2,0.3,0.4,0.7,0.4,1.1c0,0.3-0.1,0.7-0.2,1
		c-0.2,0.3-0.4,0.6-0.6,0.8c-0.3,0.2-0.6,0.3-1,0.4c-0.2,0-0.9,0-1.8,0.1h-2.5V23.2z M155.9,24.4v1.7h1c0.6,0,0.9,0,1.1,0
		c0.3,0,0.5-0.1,0.6-0.3c0.1-0.1,0.2-0.3,0.2-0.6c0-0.2-0.1-0.4-0.2-0.6s-0.3-0.2-0.6-0.3c-0.1,0-0.6,0-1.3,0H155.9z M155.9,27.4v2
		h1.4c0.5,0,0.9,0,1,0c0.2,0,0.4-0.1,0.5-0.3c0.1-0.2,0.2-0.4,0.2-0.6c0-0.2-0.1-0.4-0.2-0.6c-0.1-0.2-0.3-0.3-0.5-0.3
		c-0.2-0.1-0.6-0.1-1.3-0.1H155.9z"/>
</g>
<text id="CERTIFIED_拷贝" transform="matrix(1 0 0 1 134.8067 36.8266)" class="st4 st7 st10">CERTIFIED</text>
<g>
	<path class="st5" d="M204.2,7.2c8.4,0,15.4,5.6,17.8,13.3h3.3C222.8,11,214.3,4,204.2,4c-10.1,0-18.6,7-21,16.5h3.3
		C188.8,12.7,195.8,7.2,204.2,7.2z"/>
	<path class="st5" d="M204.2,44.8c-7.7,0-14.4-4.8-17.2-11.6h-3.4c2.9,8.6,11,14.8,20.5,14.8c9.5,0,17.6-6.2,20.5-14.8h-3.4
		C218.6,40,211.9,44.8,204.2,44.8z"/>
	<path class="st5" d="M187.8,32.2c2.5,6.7,8.9,11.5,16.4,11.5c7.5,0,13.9-4.8,16.4-11.5h7.6l-1.9-5.3l1.7-5.3h-6.8
		c-1.9-7.7-8.8-13.4-17-13.4c-8.2,0-15.1,5.7-17,13.4h-7l1.9,5.3l-1.7,5.3H187.8z M182.7,26.6l-1.6-4.4h6h34h5.8l-1.4,4.4l-0.1,0.2
		l0.1,0.2l1.6,4.4h-6.6h-32.9h-6.5l1.4-4.4l0.1-0.2L182.7,26.6z"/>
</g>
<g id="组_1_00000008124411034504910710000007536711947128902580_">
	<path id="ISO_00000156556123895574327520000005094764252546500739_" class="st6" d="M196.2,12.6v7.6h1.8v-7.6H196.2z"/>
	<path id="ISO_拷贝_3_00000081645334323172689560000008414547910153077653_" class="st6" d="M200.1,18L200.1,18
		c0.2,1.4,1.2,2.4,3.2,2.4c2,0,3.1-1,3.1-2.4c0-1.1-0.5-1.9-2.8-2.4c-1.2-0.3-1.6-0.5-1.6-1c0-0.5,0.4-0.8,1.1-0.8
		c1,0,1.3,0.5,1.4,1h1.7c-0.1-1.1-1-2.2-3-2.2c-1.8,0-2.8,0.9-2.8,2.2c0,1,0.5,1.8,2.6,2.3c1.3,0.3,1.7,0.6,1.7,1.2
		c0,0.6-0.4,0.9-1.3,0.9c-0.9,0-1.4-0.4-1.6-1.2L200.1,18L200.1,18z"/>
	<path id="ISO_拷贝_2_00000017502913376819423550000002947450921144002465_" class="st6" d="M198.9,19h-3.6v1.3h3.6V19z"/>
	<path id="ISO_拷贝_4_00000078747068386059692550000010216767950958789264_" class="st6" d="M198.9,12.6h-3.6v1.3h3.6V12.6z"/>
	<path id="_0_00000149374853511909502610000010690918410249261988_" class="st6" d="M208.5,13.2c-0.6,0.6-1,1.7-1,3.2
		c0,1.5,0.3,2.5,0.9,3.1c0.6,0.6,1.3,0.9,2.3,0.9c0.9,0,1.7-0.3,2.2-0.8c0.6-0.6,1-1.7,1-3.2c0-1.5-0.3-2.5-0.9-3.2
		c-0.5-0.5-1.3-0.8-2.2-0.8S209,12.7,208.5,13.2L208.5,13.2z M211.2,13.9c0.2,0.1,0.3,0.3,0.4,0.7c0.1,0.3,0.2,1,0.2,1.9
		c0,0.9-0.1,1.6-0.2,1.9c-0.1,0.3-0.2,0.5-0.4,0.6c-0.4,0.2-0.8,0.2-1.2,0c-0.2-0.1-0.3-0.3-0.4-0.7c-0.1-0.3-0.2-1-0.2-1.9
		c0-0.9,0.1-1.6,0.2-2c0.1-0.3,0.2-0.5,0.4-0.6c0.2-0.1,0.4-0.2,0.6-0.2C210.9,13.7,211.1,13.7,211.2,13.9L211.2,13.9z"/>
</g>
<g class="st9">
	<path class="st1" d="M193.8,28.9l1.4-0.2c0,0.3,0.1,0.5,0.3,0.6c0.1,0.1,0.3,0.2,0.6,0.2c0.3,0,0.5-0.1,0.8-0.4s0.3-0.8,0.4-1.7
		c-0.4,0.4-0.8,0.6-1.3,0.6c-0.6,0-1.1-0.2-1.5-0.7c-0.4-0.5-0.6-1-0.6-1.8c0-0.8,0.2-1.4,0.7-1.8c0.4-0.5,1-0.7,1.7-0.7
		c0.8,0,1.4,0.3,1.9,0.9c0.5,0.6,0.7,1.5,0.7,2.9c0,1.4-0.3,2.3-0.8,2.9s-1.2,0.9-2,0.9c-0.6,0-1.1-0.2-1.4-0.5
		C194.1,30,193.9,29.5,193.8,28.9z M197,25.8c0-0.5-0.1-0.8-0.3-1.1c-0.2-0.3-0.5-0.4-0.7-0.4c-0.3,0-0.5,0.1-0.7,0.3
		c-0.2,0.2-0.3,0.5-0.3,1c0,0.5,0.1,0.8,0.3,1.1c0.2,0.2,0.4,0.3,0.7,0.3c0.3,0,0.5-0.1,0.7-0.3C196.9,26.5,197,26.2,197,25.8z"/>
	<path class="st1" d="M202,23.1c0.7,0,1.3,0.3,1.7,0.8c0.5,0.6,0.7,1.6,0.7,3c0,1.4-0.2,2.4-0.7,3c-0.4,0.5-1,0.8-1.7,0.8
		c-0.7,0-1.3-0.3-1.7-0.8c-0.4-0.6-0.7-1.5-0.7-3c0-1.4,0.2-2.4,0.7-3C200.7,23.4,201.2,23.1,202,23.1z M202,24.3
		c-0.2,0-0.3,0.1-0.5,0.2c-0.1,0.1-0.2,0.3-0.3,0.6c-0.1,0.4-0.1,1-0.1,1.9c0,0.9,0,1.5,0.1,1.8c0.1,0.3,0.2,0.5,0.3,0.7
		c0.1,0.1,0.3,0.2,0.5,0.2s0.3-0.1,0.5-0.2c0.1-0.1,0.2-0.3,0.3-0.6c0.1-0.4,0.1-1,0.1-1.9c0-0.9,0-1.5-0.1-1.8s-0.2-0.5-0.3-0.7
		C202.3,24.4,202.1,24.3,202,24.3z"/>
	<path class="st1" d="M207.7,23.1c0.7,0,1.3,0.3,1.7,0.8c0.5,0.6,0.7,1.6,0.7,3c0,1.4-0.2,2.4-0.7,3c-0.4,0.5-1,0.8-1.7,0.8
		c-0.7,0-1.3-0.3-1.7-0.8c-0.4-0.6-0.7-1.5-0.7-3c0-1.4,0.2-2.4,0.7-3C206.4,23.4,207,23.1,207.7,23.1z M207.7,24.3
		c-0.2,0-0.3,0.1-0.5,0.2c-0.1,0.1-0.2,0.3-0.3,0.6c-0.1,0.4-0.1,1-0.1,1.9c0,0.9,0,1.5,0.1,1.8c0.1,0.3,0.2,0.5,0.3,0.7
		c0.1,0.1,0.3,0.2,0.5,0.2s0.3-0.1,0.5-0.2c0.1-0.1,0.2-0.3,0.3-0.6c0.1-0.4,0.1-1,0.1-1.9c0-0.9,0-1.5-0.1-1.8s-0.2-0.5-0.3-0.7
		C208.1,24.4,207.9,24.3,207.7,24.3z"/>
	<path class="st1" d="M214.7,30.6h-1.4v-5.4c-0.5,0.5-1.1,0.8-1.8,1.1V25c0.4-0.1,0.8-0.4,1.2-0.7c0.4-0.3,0.7-0.7,0.9-1.2h1.2V30.6
		z"/>
</g>
<text id="CERTIFIED_00000073719561478280985560000006055914167911294602_" transform="matrix(1 0 0 1 192.1804 36.8268)" class="st4 st7 st10">CERTIFIED</text>
<g>
	<path class="st5" d="M28.9,54.8c8.4,0,15.4,5.6,17.8,13.3h3.3c-2.4-9.5-10.9-16.5-21-16.5c-10.1,0-18.6,7-21,16.5h3.3
		C13.5,60.4,20.5,54.8,28.9,54.8z"/>
	<path class="st5" d="M28.9,92.4c-7.7,0-14.4-4.8-17.2-11.6H8.4c2.9,8.6,11,14.8,20.5,14.8c9.5,0,17.6-6.2,20.5-14.8H46
		C43.2,87.6,36.6,92.4,28.9,92.4z"/>
	<path class="st5" d="M12.4,79.8c2.5,6.7,8.9,11.5,16.4,11.5c7.5,0,13.9-4.8,16.4-11.5h7.6L51,74.5l1.7-5.3h-6.8
		c-1.9-7.7-8.8-13.4-17-13.4c-8.2,0-15.1,5.7-17,13.4h-7l1.9,5.3l-1.7,5.3H12.4z M7.4,74.3l-1.6-4.4h6h34h5.8l-1.4,4.4l-0.1,0.2
		l0.1,0.2l1.6,4.4h-6.6H12.4H6l1.4-4.4l0.1-0.2L7.4,74.3z"/>
</g>
<g id="组_1_00000064338488951273890630000016984986953641190786_">
	<path id="ISO_00000001652440440876518810000004309856675757788822_" class="st6" d="M20.9,60.2v7.6h1.8v-7.6H20.9z"/>
	<path id="ISO_拷贝_3_00000038381401040361066650000002985457098356812172_" class="st6" d="M24.7,65.6L24.7,65.6
		C24.9,67,26,68,27.9,68c2,0,3.1-1,3.1-2.4c0-1.1-0.5-1.9-2.8-2.4c-1.2-0.3-1.6-0.5-1.6-1c0-0.5,0.4-0.8,1.1-0.8c1,0,1.3,0.5,1.4,1
		h1.7c-0.1-1.1-1-2.2-3-2.2C26,60.1,25,61,25,62.3c0,1,0.5,1.8,2.6,2.3c1.3,0.3,1.7,0.6,1.7,1.2c0,0.6-0.4,0.9-1.3,0.9
		c-0.9,0-1.4-0.4-1.6-1.2L24.7,65.6L24.7,65.6z"/>
	<path id="ISO_拷贝_2_00000083054201221465858300000017404857556830768553_" class="st6" d="M23.6,66.6H20v1.3h3.6V66.6z"/>
	<path id="ISO_拷贝_4_00000021831449198045355570000018008704804325961393_" class="st6" d="M23.6,60.2H20v1.3h3.6V60.2z"/>
	<path id="_0_00000105423807109383905020000011657728267599419826_" class="st6" d="M33.1,60.9c-0.6,0.6-1,1.7-1,3.2
		c0,1.5,0.3,2.5,0.9,3.1c0.6,0.6,1.3,0.9,2.3,0.9c0.9,0,1.7-0.3,2.2-0.8c0.6-0.6,1-1.7,1-3.2c0-1.5-0.3-2.5-0.9-3.2
		c-0.5-0.5-1.3-0.8-2.2-0.8C34.4,60.1,33.7,60.3,33.1,60.9L33.1,60.9z M35.9,61.5c0.2,0.1,0.3,0.3,0.4,0.7c0.1,0.3,0.2,1,0.2,1.9
		c0,0.9-0.1,1.6-0.2,1.9c-0.1,0.3-0.2,0.5-0.4,0.6c-0.4,0.2-0.8,0.2-1.2,0c-0.2-0.1-0.3-0.3-0.4-0.7c-0.1-0.3-0.2-1-0.2-1.9
		c0-0.9,0.1-1.6,0.2-2c0.1-0.3,0.2-0.5,0.4-0.6c0.2-0.1,0.4-0.2,0.6-0.2C35.5,61.3,35.7,61.4,35.9,61.5L35.9,61.5z"/>
</g>
<g class="st9">
	<path class="st1" d="M20.4,76.9v1.3h-5c0.1-0.5,0.2-1,0.5-1.4c0.3-0.4,0.8-1,1.6-1.8c0.6-0.6,1-1,1.2-1.2c0.2-0.3,0.3-0.6,0.3-0.9
		c0-0.3-0.1-0.6-0.3-0.7c-0.2-0.2-0.4-0.3-0.7-0.3c-0.3,0-0.5,0.1-0.7,0.3c-0.2,0.2-0.3,0.5-0.3,0.9l-1.4-0.1
		c0.1-0.8,0.3-1.3,0.8-1.7c0.4-0.3,1-0.5,1.7-0.5c0.7,0,1.3,0.2,1.7,0.6c0.4,0.4,0.6,0.9,0.6,1.5c0,0.3-0.1,0.7-0.2,1
		c-0.1,0.3-0.3,0.6-0.6,1c-0.2,0.2-0.5,0.5-0.9,0.9c-0.4,0.4-0.7,0.7-0.9,0.8c-0.1,0.1-0.2,0.3-0.3,0.4H20.4z"/>
	<path class="st1" d="M26.2,76.9v1.3h-5c0.1-0.5,0.2-1,0.5-1.4c0.3-0.4,0.8-1,1.6-1.8c0.6-0.6,1-1,1.2-1.2c0.2-0.3,0.3-0.6,0.3-0.9
		c0-0.3-0.1-0.6-0.3-0.7c-0.2-0.2-0.4-0.3-0.7-0.3c-0.3,0-0.5,0.1-0.7,0.3c-0.2,0.2-0.3,0.5-0.3,0.9l-1.4-0.1
		c0.1-0.8,0.3-1.3,0.8-1.7c0.4-0.3,1-0.5,1.7-0.5c0.7,0,1.3,0.2,1.7,0.6c0.4,0.4,0.6,0.9,0.6,1.5c0,0.3-0.1,0.7-0.2,1
		c-0.1,0.3-0.3,0.6-0.6,1c-0.2,0.2-0.5,0.5-0.9,0.9c-0.4,0.4-0.7,0.7-0.9,0.8c-0.1,0.1-0.2,0.3-0.3,0.4H26.2z"/>
	<path class="st1" d="M27.1,76.2l1.4-0.2c0,0.4,0.2,0.6,0.4,0.8c0.2,0.2,0.4,0.3,0.7,0.3c0.3,0,0.5-0.1,0.7-0.3
		c0.2-0.2,0.3-0.5,0.3-0.9c0-0.4-0.1-0.6-0.3-0.9c-0.2-0.2-0.4-0.3-0.7-0.3c-0.2,0-0.4,0-0.7,0.1l0.2-1.2c0.4,0,0.7-0.1,0.9-0.3
		c0.2-0.2,0.3-0.4,0.3-0.7c0-0.2-0.1-0.4-0.2-0.6c-0.1-0.1-0.3-0.2-0.6-0.2c-0.2,0-0.5,0.1-0.6,0.3s-0.3,0.4-0.3,0.7l-1.3-0.2
		c0.1-0.4,0.2-0.8,0.4-1.1s0.4-0.5,0.8-0.6c0.3-0.2,0.7-0.2,1.1-0.2c0.7,0,1.3,0.2,1.7,0.7c0.3,0.4,0.5,0.8,0.5,1.2
		c0,0.7-0.4,1.2-1.1,1.6c0.4,0.1,0.8,0.3,1,0.6c0.3,0.3,0.4,0.7,0.4,1.2c0,0.7-0.2,1.2-0.7,1.7c-0.5,0.5-1.1,0.7-1.8,0.7
		c-0.7,0-1.2-0.2-1.7-0.6C27.4,77.4,27.2,76.9,27.1,76.2z"/>
	<path class="st1" d="M35.3,70.7c0.7,0,1.3,0.3,1.7,0.8c0.5,0.6,0.7,1.6,0.7,3c0,1.4-0.2,2.4-0.7,3c-0.4,0.5-1,0.8-1.7,0.8
		c-0.7,0-1.3-0.3-1.7-0.8c-0.4-0.6-0.7-1.5-0.7-3c0-1.4,0.2-2.4,0.7-3C34.1,71,34.6,70.7,35.3,70.7z M35.3,71.9
		c-0.2,0-0.3,0.1-0.5,0.2c-0.1,0.1-0.2,0.3-0.3,0.6c-0.1,0.4-0.1,1-0.1,1.9c0,0.9,0,1.5,0.1,1.8c0.1,0.3,0.2,0.5,0.3,0.7
		c0.1,0.1,0.3,0.2,0.5,0.2s0.3-0.1,0.5-0.2c0.1-0.1,0.2-0.3,0.3-0.6c0.1-0.4,0.1-1,0.1-1.9c0-0.9,0-1.5-0.1-1.8s-0.2-0.5-0.3-0.7
		C35.7,72,35.5,71.9,35.3,71.9z"/>
	<path class="st1" d="M42.3,78.2h-1.4v-5.4c-0.5,0.5-1.1,0.8-1.8,1.1v-1.3c0.4-0.1,0.8-0.4,1.2-0.7c0.4-0.3,0.7-0.7,0.9-1.2h1.2
		V78.2z"/>
</g>
<text id="CERTIFIED_00000072968303371550958320000009544515537670122153_" transform="matrix(1 0 0 1 16.8598 84.4385)" class="st4 st7 st10">CERTIFIED</text>
<g>
	<path class="st5" d="M87.3,54.8c8.4,0,15.4,5.6,17.8,13.3h3.3c-2.4-9.5-10.9-16.5-21-16.5c-10.1,0-18.6,7-21,16.5h3.3
		C71.9,60.4,79,54.8,87.3,54.8z"/>
	<path class="st5" d="M87.3,92.4c-7.7,0-14.4-4.8-17.2-11.6h-3.4c2.9,8.6,11,14.8,20.5,14.8c9.5,0,17.6-6.2,20.5-14.8h-3.4
		C101.7,87.6,95.1,92.4,87.3,92.4z"/>
	<path class="st5" d="M70.9,79.8c2.5,6.7,8.9,11.5,16.4,11.5c7.5,0,13.9-4.8,16.4-11.5h7.6l-1.9-5.3l1.7-5.3h-6.8
		c-1.9-7.7-8.8-13.4-17-13.4c-8.2,0-15.1,5.7-17,13.4h-7l1.9,5.3l-1.7,5.3H70.9z M65.9,74.3l-1.6-4.4h6h34h5.8l-1.4,4.4l-0.1,0.2
		l0.1,0.2l1.6,4.4h-6.6H70.9h-6.5l1.4-4.4l0.1-0.2L65.9,74.3z"/>
</g>
<g id="组_1_00000145759905907788213640000005143512125613547423_">
	<path id="ISO_00000052824710947232530160000018215330163422403246_" class="st6" d="M79.3,60.2v7.6h1.8v-7.6H79.3z"/>
	<path id="ISO_拷贝_3_00000054259830031425257510000014332986208333193124_" class="st6" d="M83.2,65.6L83.2,65.6
		c0.2,1.4,1.2,2.4,3.2,2.4c2,0,3.1-1,3.1-2.4c0-1.1-0.5-1.9-2.8-2.4c-1.2-0.3-1.6-0.5-1.6-1c0-0.5,0.4-0.8,1.1-0.8
		c1,0,1.3,0.5,1.4,1h1.7c-0.1-1.1-1-2.2-3-2.2c-1.8,0-2.8,0.9-2.8,2.2c0,1,0.5,1.8,2.6,2.3c1.3,0.3,1.7,0.6,1.7,1.2
		c0,0.6-0.4,0.9-1.3,0.9c-0.9,0-1.4-0.4-1.6-1.2L83.2,65.6L83.2,65.6z"/>
	<path id="ISO_拷贝_2_00000182520814540836172580000002058147811810248577_" class="st6" d="M82,66.6h-3.6v1.3H82V66.6z"/>
	<path id="ISO_拷贝_4_00000002347137880783395420000005782596371788739984_" class="st6" d="M82,60.2h-3.6v1.3H82V60.2z"/>
	<path id="_0_00000168810249804441848770000015746513042975965116_" class="st6" d="M91.6,60.9c-0.6,0.6-1,1.7-1,3.2
		c0,1.5,0.3,2.5,0.9,3.1c0.6,0.6,1.3,0.9,2.3,0.9c0.9,0,1.7-0.3,2.2-0.8c0.6-0.6,1-1.7,1-3.2c0-1.5-0.3-2.5-0.9-3.2
		c-0.5-0.5-1.3-0.8-2.2-0.8S92.1,60.3,91.6,60.9L91.6,60.9z M94.4,61.5c0.2,0.1,0.3,0.3,0.4,0.7c0.1,0.3,0.2,1,0.2,1.9
		c0,0.9-0.1,1.6-0.2,1.9c-0.1,0.3-0.2,0.5-0.4,0.6c-0.4,0.2-0.8,0.2-1.2,0c-0.2-0.1-0.3-0.3-0.4-0.7c-0.1-0.3-0.2-1-0.2-1.9
		c0-0.9,0.1-1.6,0.2-2c0.1-0.3,0.2-0.5,0.4-0.6c0.2-0.1,0.4-0.2,0.6-0.2C94,61.3,94.2,61.4,94.4,61.5L94.4,61.5z"/>
</g>
<g class="st9">
	<path class="st1" d="M78.3,76.9v1.3h-5c0.1-0.5,0.2-1,0.5-1.4c0.3-0.4,0.8-1,1.6-1.8c0.6-0.6,1-1,1.2-1.2c0.2-0.3,0.3-0.6,0.3-0.9
		c0-0.3-0.1-0.6-0.3-0.7c-0.2-0.2-0.4-0.3-0.7-0.3c-0.3,0-0.5,0.1-0.7,0.3c-0.2,0.2-0.3,0.5-0.3,0.9l-1.4-0.1
		c0.1-0.8,0.3-1.3,0.8-1.7c0.4-0.3,1-0.5,1.7-0.5c0.7,0,1.3,0.2,1.7,0.6c0.4,0.4,0.6,0.9,0.6,1.5c0,0.3-0.1,0.7-0.2,1
		c-0.1,0.3-0.3,0.6-0.6,1c-0.2,0.2-0.5,0.5-0.9,0.9c-0.5,0.4-0.7,0.7-0.9,0.8c-0.1,0.1-0.2,0.3-0.3,0.4H78.3z"/>
	<path class="st1" d="M80.5,74.2c-0.4-0.2-0.6-0.4-0.8-0.6c-0.2-0.3-0.3-0.6-0.3-0.9c0-0.6,0.2-1,0.6-1.4c0.4-0.4,0.9-0.5,1.7-0.5
		c0.7,0,1.3,0.2,1.6,0.5c0.4,0.4,0.6,0.8,0.6,1.4c0,0.3-0.1,0.7-0.3,0.9c-0.2,0.3-0.4,0.5-0.8,0.6c0.4,0.2,0.7,0.4,0.9,0.7
		c0.2,0.3,0.3,0.7,0.3,1.1c0,0.7-0.2,1.2-0.7,1.7c-0.4,0.4-1,0.6-1.7,0.6c-0.7,0-1.2-0.2-1.7-0.5c-0.5-0.4-0.8-1-0.8-1.7
		c0-0.4,0.1-0.8,0.3-1.1C79.7,74.6,80,74.4,80.5,74.2z M80.6,75.9c0,0.4,0.1,0.7,0.3,0.9c0.2,0.2,0.5,0.3,0.8,0.3
		c0.3,0,0.5-0.1,0.7-0.3c0.2-0.2,0.3-0.5,0.3-0.9c0-0.3-0.1-0.6-0.3-0.8c-0.2-0.2-0.4-0.3-0.7-0.3c-0.3,0-0.6,0.1-0.8,0.4
		C80.7,75.4,80.6,75.7,80.6,75.9z M80.7,72.8c0,0.3,0.1,0.5,0.2,0.7c0.2,0.2,0.4,0.2,0.6,0.2c0.3,0,0.5-0.1,0.6-0.2
		c0.2-0.2,0.2-0.4,0.2-0.7c0-0.3-0.1-0.5-0.2-0.6c-0.2-0.2-0.4-0.2-0.6-0.2c-0.3,0-0.5,0.1-0.7,0.2S80.7,72.5,80.7,72.8z"/>
	<path class="st1" d="M87.4,70.7c0.7,0,1.3,0.3,1.7,0.8c0.5,0.6,0.7,1.6,0.7,3c0,1.4-0.2,2.4-0.7,3c-0.4,0.5-1,0.8-1.7,0.8
		c-0.7,0-1.3-0.3-1.7-0.8S85,76,85,74.5c0-1.4,0.2-2.4,0.7-3C86.1,71,86.7,70.7,87.4,70.7z M87.4,71.9c-0.2,0-0.3,0.1-0.5,0.2
		c-0.1,0.1-0.2,0.3-0.3,0.6c-0.1,0.4-0.1,1-0.1,1.9c0,0.9,0,1.5,0.1,1.8c0.1,0.3,0.2,0.5,0.3,0.7c0.1,0.1,0.3,0.2,0.5,0.2
		c0.2,0,0.3-0.1,0.5-0.2c0.1-0.1,0.2-0.3,0.3-0.6c0.1-0.4,0.1-1,0.1-1.9c0-0.9,0-1.5-0.1-1.8s-0.2-0.5-0.3-0.7
		C87.7,72,87.6,71.9,87.4,71.9z"/>
	<path class="st1" d="M93.2,70.7c0.7,0,1.3,0.3,1.7,0.8c0.5,0.6,0.7,1.6,0.7,3c0,1.4-0.2,2.4-0.7,3c-0.4,0.5-1,0.8-1.7,0.8
		c-0.7,0-1.3-0.3-1.7-0.8c-0.4-0.6-0.7-1.5-0.7-3c0-1.4,0.2-2.4,0.7-3C91.9,71,92.5,70.7,93.2,70.7z M93.2,71.9
		c-0.2,0-0.3,0.1-0.5,0.2c-0.1,0.1-0.2,0.3-0.3,0.6c-0.1,0.4-0.1,1-0.1,1.9c0,0.9,0,1.5,0.1,1.8c0.1,0.3,0.2,0.5,0.3,0.7
		c0.1,0.1,0.3,0.2,0.5,0.2c0.2,0,0.3-0.1,0.5-0.2c0.1-0.1,0.2-0.3,0.3-0.6c0.1-0.4,0.1-1,0.1-1.9c0-0.9,0-1.5-0.1-1.8
		s-0.2-0.5-0.3-0.7C93.5,72,93.4,71.9,93.2,71.9z"/>
	<path class="st1" d="M99,70.7c0.7,0,1.3,0.3,1.7,0.8c0.5,0.6,0.7,1.6,0.7,3c0,1.4-0.2,2.4-0.7,3c-0.4,0.5-1,0.8-1.7,0.8
		c-0.7,0-1.3-0.3-1.7-0.8s-0.7-1.5-0.7-3c0-1.4,0.2-2.4,0.7-3C97.7,71,98.2,70.7,99,70.7z M99,71.9c-0.2,0-0.3,0.1-0.5,0.2
		c-0.1,0.1-0.2,0.3-0.3,0.6c-0.1,0.4-0.1,1-0.1,1.9c0,0.9,0,1.5,0.1,1.8c0.1,0.3,0.2,0.5,0.3,0.7c0.1,0.1,0.3,0.2,0.5,0.2
		c0.2,0,0.3-0.1,0.5-0.2c0.1-0.1,0.2-0.3,0.3-0.6c0.1-0.4,0.1-1,0.1-1.9c0-0.9,0-1.5-0.1-1.8s-0.2-0.5-0.3-0.7
		C99.3,72,99.1,71.9,99,71.9z"/>
</g>
<text id="CERTIFIED_00000181780889480484240200000014884568232954439576_" transform="matrix(1 0 0 1 75.2989 84.4385)" class="st4 st7 st10">CERTIFIED</text>
<g>
	<path class="st5" d="M262.6,7.2c8.4,0,15.4,5.6,17.8,13.3h3.3C281.2,11,272.7,4,262.6,4c-10.1,0-18.6,7-21,16.5h3.3
		C247.2,12.7,254.3,7.2,262.6,7.2z"/>
	<path class="st5" d="M262.6,44.8c-7.7,0-14.4-4.8-17.2-11.6h-3.4c2.9,8.6,11,14.8,20.5,14.8c9.5,0,17.6-6.2,20.5-14.8h-3.4
		C277,40,270.4,44.8,262.6,44.8z"/>
	<path class="st5" d="M246.2,32.2c2.5,6.7,8.9,11.5,16.4,11.5c7.5,0,13.9-4.8,16.4-11.5h7.6l-1.9-5.3l1.7-5.3h-6.8
		c-1.9-7.7-8.8-13.4-17-13.4c-8.2,0-15.1,5.7-17,13.4h-7l1.9,5.3l-1.7,5.3H246.2z M241.2,26.6l-1.6-4.4h6h34h5.8l-1.4,4.4l-0.1,0.2
		l0.1,0.2l1.6,4.4h-6.6h-32.9h-6.5l1.4-4.4l0.1-0.2L241.2,26.6z"/>
</g>
<g id="组_1_00000053528639225724882350000014931764129055205798_">
	<path id="ISO_00000038375035164767477750000005225156186534823100_" class="st6" d="M254.6,12.6v7.6h1.8v-7.6H254.6z"/>
	<path id="ISO_拷贝_3_00000017477467831305403060000013307377073867515323_" class="st6" d="M258.5,18L258.5,18
		c0.2,1.4,1.2,2.4,3.2,2.4c2,0,3.1-1,3.1-2.4c0-1.1-0.5-1.9-2.8-2.4c-1.2-0.3-1.6-0.5-1.6-1c0-0.5,0.4-0.8,1.1-0.8
		c1,0,1.3,0.5,1.4,1h1.7c-0.1-1.1-1-2.2-3-2.2c-1.8,0-2.8,0.9-2.8,2.2c0,1,0.5,1.8,2.6,2.3c1.3,0.3,1.7,0.6,1.7,1.2
		c0,0.6-0.4,0.9-1.3,0.9c-0.9,0-1.4-0.4-1.6-1.2L258.5,18L258.5,18z"/>
	<path id="ISO_拷贝_2_00000170270103303935107920000006099004151250579080_" class="st6" d="M257.3,19h-3.6v1.3h3.6V19z"/>
	<path id="ISO_拷贝_4_00000172437923272634686540000004585911269231051156_" class="st6" d="M257.3,12.6h-3.6v1.3h3.6V12.6z"/>
	<path id="_0_00000004535939229127446600000012449500973267559078_" class="st6" d="M266.9,13.2c-0.6,0.6-1,1.7-1,3.2
		c0,1.5,0.3,2.5,0.9,3.1c0.6,0.6,1.3,0.9,2.3,0.9c0.9,0,1.7-0.3,2.2-0.8c0.6-0.6,1-1.7,1-3.2c0-1.5-0.3-2.5-0.9-3.2
		c-0.5-0.5-1.3-0.8-2.2-0.8S267.4,12.7,266.9,13.2L266.9,13.2z M269.7,13.9c0.2,0.1,0.3,0.3,0.4,0.7c0.1,0.3,0.2,1,0.2,1.9
		c0,0.9-0.1,1.6-0.2,1.9c-0.1,0.3-0.2,0.5-0.4,0.6c-0.4,0.2-0.8,0.2-1.2,0c-0.2-0.1-0.3-0.3-0.4-0.7c-0.1-0.3-0.2-1-0.2-1.9
		c0-0.9,0.1-1.6,0.2-2c0.1-0.3,0.2-0.5,0.4-0.6c0.2-0.1,0.4-0.2,0.6-0.2C269.3,13.7,269.5,13.7,269.7,13.9L269.7,13.9z"/>
</g>
<g class="st9">
	<path class="st1" d="M252,30.6h-1.4v-5.4c-0.5,0.5-1.1,0.8-1.8,1.1V25c0.4-0.1,0.8-0.4,1.2-0.7c0.4-0.3,0.7-0.7,0.9-1.2h1.2V30.6z"
		/>
	<path class="st1" d="M254.1,28.6l1.4-0.2c0,0.4,0.2,0.6,0.4,0.8c0.2,0.2,0.4,0.3,0.7,0.3c0.3,0,0.5-0.1,0.7-0.3
		c0.2-0.2,0.3-0.5,0.3-0.9c0-0.4-0.1-0.6-0.3-0.9c-0.2-0.2-0.4-0.3-0.7-0.3c-0.2,0-0.4,0-0.7,0.1l0.2-1.2c0.4,0,0.7-0.1,0.9-0.3
		c0.2-0.2,0.3-0.4,0.3-0.7c0-0.2-0.1-0.4-0.2-0.6c-0.1-0.1-0.3-0.2-0.6-0.2c-0.2,0-0.5,0.1-0.6,0.3c-0.2,0.2-0.3,0.4-0.3,0.7
		l-1.3-0.2c0.1-0.4,0.2-0.8,0.4-1.1s0.4-0.5,0.8-0.6c0.3-0.2,0.7-0.2,1.1-0.2c0.7,0,1.3,0.2,1.7,0.7c0.3,0.4,0.5,0.8,0.5,1.2
		c0,0.7-0.4,1.2-1.1,1.6c0.4,0.1,0.8,0.3,1,0.6c0.3,0.3,0.4,0.7,0.4,1.2c0,0.7-0.2,1.2-0.7,1.7c-0.5,0.5-1.1,0.7-1.8,0.7
		c-0.7,0-1.2-0.2-1.7-0.6C254.4,29.8,254.2,29.3,254.1,28.6z"/>
	<path class="st1" d="M262.7,30.6v-1.5h-3v-1.2l3.2-4.7h1.2v4.7h0.9v1.3h-0.9v1.5H262.7z M262.7,27.9v-2.5l-1.7,2.5H262.7z"/>
	<path class="st1" d="M266.9,26.6c-0.4-0.2-0.6-0.4-0.8-0.6c-0.2-0.3-0.3-0.6-0.3-0.9c0-0.6,0.2-1,0.6-1.4c0.4-0.4,0.9-0.5,1.6-0.5
		c0.7,0,1.3,0.2,1.6,0.5c0.4,0.4,0.6,0.8,0.6,1.4c0,0.3-0.1,0.7-0.3,0.9s-0.4,0.5-0.8,0.6c0.4,0.2,0.7,0.4,0.9,0.7
		c0.2,0.3,0.3,0.7,0.3,1.1c0,0.7-0.2,1.2-0.7,1.7c-0.4,0.4-1,0.6-1.7,0.6c-0.7,0-1.2-0.2-1.7-0.5c-0.5-0.4-0.8-1-0.8-1.7
		c0-0.4,0.1-0.8,0.3-1.1C266.2,27,266.5,26.8,266.9,26.6z M267.1,28.3c0,0.4,0.1,0.7,0.3,0.9c0.2,0.2,0.5,0.3,0.8,0.3
		c0.3,0,0.5-0.1,0.7-0.3c0.2-0.2,0.3-0.5,0.3-0.9c0-0.3-0.1-0.6-0.3-0.8s-0.4-0.3-0.7-0.3c-0.3,0-0.6,0.1-0.8,0.4
		S267.1,28.1,267.1,28.3z M267.2,25.2c0,0.3,0.1,0.5,0.2,0.7c0.2,0.2,0.4,0.2,0.6,0.2c0.3,0,0.5-0.1,0.6-0.2
		c0.2-0.2,0.2-0.4,0.2-0.7c0-0.3-0.1-0.5-0.2-0.6c-0.2-0.2-0.4-0.2-0.6-0.2c-0.3,0-0.5,0.1-0.7,0.2S267.2,24.9,267.2,25.2z"/>
	<path class="st1" d="M271.5,28.7l1.4-0.1c0,0.3,0.2,0.6,0.4,0.8s0.4,0.3,0.7,0.3c0.3,0,0.5-0.1,0.8-0.4s0.3-0.6,0.3-1.1
		c0-0.5-0.1-0.8-0.3-1c-0.2-0.2-0.5-0.3-0.8-0.3c-0.4,0-0.8,0.2-1.1,0.5l-1.2-0.2l0.7-3.9h3.8v1.3h-2.7l-0.2,1.3
		c0.3-0.2,0.6-0.2,1-0.2c0.6,0,1.2,0.2,1.6,0.7c0.4,0.5,0.7,1.1,0.7,1.8c0,0.6-0.2,1.2-0.5,1.6c-0.5,0.7-1.2,1-2,1
		c-0.7,0-1.2-0.2-1.7-0.6C271.9,29.8,271.6,29.3,271.5,28.7z"/>
</g>
<text id="CERTIFIED_00000005946108437853711350000004449791816070479249_" transform="matrix(1 0 0 1 250.6188 36.8268)" class="st4 st7 st10">CERTIFIED</text>
<g>
	<path class="st5" d="M321.1,7.2c8.4,0,15.4,5.6,17.8,13.3h3.3C339.7,11,331.2,4,321.1,4c-10.1,0-18.6,7-21,16.5h3.3
		C305.7,12.7,312.7,7.2,321.1,7.2z"/>
	<path class="st5" d="M321.1,44.8c-7.7,0-14.4-4.8-17.2-11.6h-3.4c2.9,8.6,11,14.8,20.5,14.8c9.5,0,17.6-6.2,20.5-14.8h-3.4
		C335.4,40,328.8,44.8,321.1,44.8z"/>
	<path class="st5" d="M304.6,32.2c2.5,6.7,8.9,11.5,16.4,11.5c7.5,0,13.9-4.8,16.4-11.5h7.6l-1.9-5.3l1.7-5.3h-6.8
		c-1.9-7.7-8.8-13.4-17-13.4c-8.2,0-15.1,5.7-17,13.4h-7l1.9,5.3l-1.7,5.3H304.6z M299.6,26.6l-1.6-4.4h6h34h5.8l-1.4,4.4l-0.1,0.2
		l0.1,0.2l1.6,4.4h-6.6h-32.9h-6.5l1.4-4.4l0.1-0.2L299.6,26.6z"/>
</g>
<g id="组_1_00000054987164158355168460000001522319634165826975_">
	<path id="ISO_00000163032913406273477830000010103795280139638973_" class="st6" d="M312.7,12.6v7.6h1.8v-7.6H312.7z"/>
	<path id="ISO_拷贝_3_00000101077252675310446410000005866898869724406678_" class="st6" d="M316.6,18L316.6,18
		c0.2,1.4,1.2,2.4,3.2,2.4c2,0,3.1-1,3.1-2.4c0-1.1-0.5-1.9-2.8-2.4c-1.2-0.3-1.6-0.5-1.6-1c0-0.5,0.4-0.8,1.1-0.8
		c1,0,1.3,0.5,1.4,1h1.7c-0.1-1.1-1-2.2-3-2.2c-1.8,0-2.8,0.9-2.8,2.2c0,1,0.5,1.8,2.6,2.3c1.3,0.3,1.7,0.6,1.7,1.2
		c0,0.6-0.4,0.9-1.3,0.9c-0.9,0-1.4-0.4-1.6-1.2L316.6,18L316.6,18z"/>
	<path id="ISO_拷贝_2_00000144295963932949257890000018001502011565952425_" class="st6" d="M315.4,19h-3.6v1.3h3.6V19z"/>
	<path id="ISO_拷贝_4_00000155115675282253954030000005115232137017332874_" class="st6" d="M315.4,12.6h-3.6v1.3h3.6V12.6z"/>
	<path id="_0_00000024712316233210149950000005415412269262850751_" class="st6" d="M325,13.2c-0.6,0.6-1,1.7-1,3.2
		c0,1.5,0.3,2.5,0.9,3.1c0.6,0.6,1.3,0.9,2.3,0.9c0.9,0,1.7-0.3,2.2-0.8c0.6-0.6,1-1.7,1-3.2c0-1.5-0.3-2.5-0.9-3.2
		c-0.5-0.5-1.3-0.8-2.2-0.8S325.5,12.7,325,13.2L325,13.2z M327.8,13.9c0.2,0.1,0.3,0.3,0.4,0.7c0.1,0.3,0.2,1,0.2,1.9
		c0,0.9-0.1,1.6-0.2,1.9c-0.1,0.3-0.2,0.5-0.4,0.6c-0.4,0.2-0.8,0.2-1.2,0c-0.2-0.1-0.3-0.3-0.4-0.7c-0.1-0.3-0.2-1-0.2-1.9
		c0-0.9,0.1-1.6,0.2-2c0.1-0.3,0.2-0.5,0.4-0.6c0.2-0.1,0.4-0.2,0.6-0.2C327.4,13.7,327.6,13.7,327.8,13.9L327.8,13.9z"/>
</g>
<g class="st9">
	<path class="st1" d="M311.2,30.6h-1.4v-5.4c-0.5,0.5-1.1,0.8-1.8,1.1V25c0.4-0.1,0.8-0.4,1.2-0.7c0.4-0.3,0.7-0.7,0.9-1.2h1.2V30.6
		z"/>
	<path class="st1" d="M316.1,30.6v-1.5h-3v-1.2l3.2-4.7h1.2v4.7h0.9v1.3h-0.9v1.5H316.1z M316.1,27.9v-2.5l-1.7,2.5H316.1z"/>
	<path class="st1" d="M321.5,23.1c0.7,0,1.3,0.3,1.7,0.8c0.5,0.6,0.7,1.6,0.7,3c0,1.4-0.2,2.4-0.7,3c-0.4,0.5-1,0.8-1.7,0.8
		c-0.7,0-1.3-0.3-1.7-0.8s-0.7-1.5-0.7-3c0-1.4,0.2-2.4,0.7-3C320.2,23.4,320.8,23.1,321.5,23.1z M321.5,24.3
		c-0.2,0-0.3,0.1-0.5,0.2c-0.1,0.1-0.2,0.3-0.3,0.6c-0.1,0.4-0.1,1-0.1,1.9c0,0.9,0,1.5,0.1,1.8c0.1,0.3,0.2,0.5,0.3,0.7
		c0.1,0.1,0.3,0.2,0.5,0.2c0.2,0,0.3-0.1,0.5-0.2c0.1-0.1,0.2-0.3,0.3-0.6c0.1-0.4,0.1-1,0.1-1.9c0-0.9,0-1.5-0.1-1.8
		s-0.2-0.5-0.3-0.7C321.8,24.4,321.6,24.3,321.5,24.3z"/>
	<path class="st1" d="M327.2,23.1c0.7,0,1.3,0.3,1.7,0.8c0.5,0.6,0.7,1.6,0.7,3c0,1.4-0.2,2.4-0.7,3c-0.4,0.5-1,0.8-1.7,0.8
		c-0.7,0-1.3-0.3-1.7-0.8c-0.4-0.6-0.7-1.5-0.7-3c0-1.4,0.2-2.4,0.7-3C326,23.4,326.5,23.1,327.2,23.1z M327.2,24.3
		c-0.2,0-0.3,0.1-0.5,0.2c-0.1,0.1-0.2,0.3-0.3,0.6c-0.1,0.4-0.1,1-0.1,1.9c0,0.9,0,1.5,0.1,1.8c0.1,0.3,0.2,0.5,0.3,0.7
		c0.1,0.1,0.3,0.2,0.5,0.2c0.2,0,0.3-0.1,0.5-0.2c0.1-0.1,0.2-0.3,0.3-0.6c0.1-0.4,0.1-1,0.1-1.9c0-0.9,0-1.5-0.1-1.8
		s-0.2-0.5-0.3-0.7C327.6,24.4,327.4,24.3,327.2,24.3z"/>
	<path class="st1" d="M334.3,30.6h-1.4v-5.4c-0.5,0.5-1.1,0.8-1.8,1.1V25c0.4-0.1,0.8-0.4,1.2-0.7c0.4-0.3,0.7-0.7,0.9-1.2h1.2V30.6
		z"/>
</g>
<text id="CERTIFIED_00000170961806127399854460000015494894599205360774_" transform="matrix(1 0 0 1 310.1218 36.8268)" class="st4 st7 st10">CERTIFIED</text>
<g>
	<path class="st5" d="M145.8,54.8c8.4,0,15.4,5.6,17.8,13.3h3.3c-2.4-9.5-10.9-16.5-21-16.5c-10.1,0-18.6,7-21,16.5h3.3
		C130.3,60.4,137.4,54.8,145.8,54.8z"/>
	<path class="st5" d="M145.8,92.4c-7.7,0-14.4-4.8-17.2-11.6h-3.4c2.9,8.6,11,14.8,20.5,14.8c9.5,0,17.6-6.2,20.5-14.8h-3.4
		C160.1,87.6,153.5,92.4,145.8,92.4z"/>
	<path class="st5" d="M129.3,79.8c2.5,6.7,8.9,11.5,16.4,11.5c7.5,0,13.9-4.8,16.4-11.5h7.6l-1.9-5.3l1.7-5.3h-6.8
		c-1.9-7.7-8.8-13.4-17-13.4c-8.2,0-15.1,5.7-17,13.4h-7l1.9,5.3l-1.7,5.3H129.3z M124.3,74.3l-1.6-4.4h6h34h5.8l-1.4,4.4l-0.1,0.2
		l0.1,0.2l1.6,4.4h-6.6h-32.9h-6.5l1.4-4.4l0.1-0.2L124.3,74.3z"/>
</g>
<g id="组_1_00000026860660061723764800000004629220859895695026_">
	<path id="ISO_00000177453455932612239780000013741839116604295578_" class="st6" d="M137.8,60.2v7.6h1.8v-7.6H137.8z"/>
	<path id="ISO_拷贝_3_00000108299764607949027690000005269724023179629982_" class="st6" d="M141.6,65.6L141.6,65.6
		c0.2,1.4,1.2,2.4,3.2,2.4c2,0,3.1-1,3.1-2.4c0-1.1-0.5-1.9-2.8-2.4c-1.2-0.3-1.6-0.5-1.6-1c0-0.5,0.4-0.8,1.1-0.8
		c1,0,1.3,0.5,1.4,1h1.7c-0.1-1.1-1-2.2-3-2.2c-1.8,0-2.8,0.9-2.8,2.2c0,1,0.5,1.8,2.6,2.3c1.3,0.3,1.7,0.6,1.7,1.2
		c0,0.6-0.4,0.9-1.3,0.9c-0.9,0-1.4-0.4-1.6-1.2L141.6,65.6L141.6,65.6z"/>
	<path id="ISO_拷贝_2_00000155854991403057226190000012382875719414973857_" class="st6" d="M140.5,66.6h-3.6v1.3h3.6V66.6z"/>
	<path id="ISO_拷贝_4_00000151534529647878074420000004688202770481482124_" class="st6" d="M140.5,60.2h-3.6v1.3h3.6V60.2z"/>
	<path id="_0_00000168801060783033087460000013774908695613338264_" class="st6" d="M150,60.9c-0.6,0.6-1,1.7-1,3.2
		c0,1.5,0.3,2.5,0.9,3.1c0.6,0.6,1.3,0.9,2.3,0.9c0.9,0,1.7-0.3,2.2-0.8c0.6-0.6,1-1.7,1-3.2c0-1.5-0.3-2.5-0.9-3.2
		c-0.5-0.5-1.3-0.8-2.2-0.8S150.5,60.3,150,60.9L150,60.9z M152.8,61.5c0.2,0.1,0.3,0.3,0.4,0.7c0.1,0.3,0.2,1,0.2,1.9
		c0,0.9-0.1,1.6-0.2,1.9c-0.1,0.3-0.2,0.5-0.4,0.6c-0.4,0.2-0.8,0.2-1.2,0c-0.2-0.1-0.3-0.3-0.4-0.7c-0.1-0.3-0.2-1-0.2-1.9
		c0-0.9,0.1-1.6,0.2-2c0.1-0.3,0.2-0.5,0.4-0.6c0.2-0.1,0.4-0.2,0.6-0.2C152.4,61.3,152.6,61.4,152.8,61.5L152.8,61.5z"/>
</g>
<g class="st9">
	<path class="st1" d="M132.4,76.2l1.4-0.2c0,0.4,0.2,0.6,0.4,0.8c0.2,0.2,0.4,0.3,0.7,0.3c0.3,0,0.5-0.1,0.7-0.3
		c0.2-0.2,0.3-0.5,0.3-0.9c0-0.4-0.1-0.6-0.3-0.9c-0.2-0.2-0.4-0.3-0.7-0.3c-0.2,0-0.4,0-0.7,0.1l0.2-1.2c0.4,0,0.7-0.1,0.9-0.3
		c0.2-0.2,0.3-0.4,0.3-0.7c0-0.2-0.1-0.4-0.2-0.6c-0.1-0.1-0.3-0.2-0.6-0.2c-0.2,0-0.5,0.1-0.6,0.3s-0.3,0.4-0.3,0.7l-1.3-0.2
		c0.1-0.4,0.2-0.8,0.4-1.1s0.4-0.5,0.8-0.6c0.3-0.2,0.7-0.2,1.1-0.2c0.7,0,1.3,0.2,1.7,0.7c0.3,0.4,0.5,0.8,0.5,1.2
		c0,0.7-0.4,1.2-1.1,1.6c0.4,0.1,0.8,0.3,1,0.6c0.3,0.3,0.4,0.7,0.4,1.2c0,0.7-0.2,1.2-0.7,1.7c-0.5,0.5-1.1,0.7-1.8,0.7
		c-0.7,0-1.2-0.2-1.7-0.6C132.7,77.4,132.4,76.9,132.4,76.2z"/>
	<path class="st1" d="M138.2,72.2v-1.3h4.9v1c-0.4,0.4-0.8,1-1.2,1.7c-0.4,0.7-0.7,1.5-1,2.4s-0.3,1.6-0.3,2.2h-1.4
		c0-1,0.2-2.1,0.6-3.1c0.4-1.1,0.9-2,1.6-2.9H138.2z"/>
	<path class="st1" d="M146.4,70.7c0.7,0,1.3,0.3,1.7,0.8c0.5,0.6,0.7,1.6,0.7,3c0,1.4-0.2,2.4-0.7,3c-0.4,0.5-1,0.8-1.7,0.8
		c-0.7,0-1.3-0.3-1.7-0.8c-0.4-0.6-0.7-1.5-0.7-3c0-1.4,0.2-2.4,0.7-3C145.1,71,145.7,70.7,146.4,70.7z M146.4,71.9
		c-0.2,0-0.3,0.1-0.5,0.2c-0.1,0.1-0.2,0.3-0.3,0.6c-0.1,0.4-0.1,1-0.1,1.9c0,0.9,0,1.5,0.1,1.8c0.1,0.3,0.2,0.5,0.3,0.7
		c0.1,0.1,0.3,0.2,0.5,0.2s0.3-0.1,0.5-0.2c0.1-0.1,0.2-0.3,0.3-0.6c0.1-0.4,0.1-1,0.1-1.9c0-0.9,0-1.5-0.1-1.8s-0.2-0.5-0.3-0.7
		C146.7,72,146.5,71.9,146.4,71.9z"/>
	<path class="st1" d="M152.1,70.7c0.7,0,1.3,0.3,1.7,0.8c0.5,0.6,0.7,1.6,0.7,3c0,1.4-0.2,2.4-0.7,3c-0.4,0.5-1,0.8-1.7,0.8
		c-0.7,0-1.3-0.3-1.7-0.8c-0.4-0.6-0.7-1.5-0.7-3c0-1.4,0.2-2.4,0.7-3C150.9,71,151.4,70.7,152.1,70.7z M152.1,71.9
		c-0.2,0-0.3,0.1-0.5,0.2c-0.1,0.1-0.2,0.3-0.3,0.6c-0.1,0.4-0.1,1-0.1,1.9c0,0.9,0,1.5,0.1,1.8c0.1,0.3,0.2,0.5,0.3,0.7
		c0.1,0.1,0.3,0.2,0.5,0.2s0.3-0.1,0.5-0.2c0.1-0.1,0.2-0.3,0.3-0.6c0.1-0.4,0.1-1,0.1-1.9c0-0.9,0-1.5-0.1-1.8s-0.2-0.5-0.3-0.7
		C152.5,72,152.3,71.9,152.1,71.9z"/>
	<path class="st1" d="M159.2,78.2h-1.4v-5.4c-0.5,0.5-1.1,0.8-1.8,1.1v-1.3c0.4-0.1,0.8-0.4,1.2-0.7c0.4-0.3,0.7-0.7,0.9-1.2h1.2
		V78.2z"/>
</g>
<text id="CERTIFIED_00000123430582984868301190000004652617538515137435_" transform="matrix(1 0 0 1 133.7381 84.4385)" class="st4 st7 st10">CERTIFIED</text>
<g>
	<path class="st5" d="M204.2,54.8c8.4,0,15.4,5.6,17.8,13.3h3.3c-2.4-9.5-10.9-16.5-21-16.5c-10.1,0-18.6,7-21,16.5h3.3
		C188.8,60.4,195.8,54.8,204.2,54.8z"/>
	<path class="st5" d="M204.2,92.4c-7.7,0-14.4-4.8-17.2-11.6h-3.4c2.9,8.6,11,14.8,20.5,14.8c9.5,0,17.6-6.2,20.5-14.8h-3.4
		C218.6,87.6,211.9,92.4,204.2,92.4z"/>
	<path class="st5" d="M187.8,79.8c2.5,6.7,8.9,11.5,16.4,11.5c7.5,0,13.9-4.8,16.4-11.5h7.6l-1.9-5.3l1.7-5.3h-6.8
		c-1.9-7.7-8.8-13.4-17-13.4c-8.2,0-15.1,5.7-17,13.4h-7l1.9,5.3l-1.7,5.3H187.8z M182.7,74.3l-1.6-4.4h6h34h5.8l-1.4,4.4l-0.1,0.2
		l0.1,0.2l1.6,4.4h-6.6h-32.9h-6.5l1.4-4.4l0.1-0.2L182.7,74.3z"/>
</g>
<g id="组_1_00000091726665901100018420000018167375660744842164_">
	<path id="ISO_00000009558334637210074660000004978715244110491042_" class="st6" d="M196.2,60.2v7.6h1.8v-7.6H196.2z"/>
	<path id="ISO_拷贝_3_00000120552914113262045760000008488124845565739416_" class="st6" d="M200.1,65.6L200.1,65.6
		c0.2,1.4,1.2,2.4,3.2,2.4c2,0,3.1-1,3.1-2.4c0-1.1-0.5-1.9-2.8-2.4c-1.2-0.3-1.6-0.5-1.6-1c0-0.5,0.4-0.8,1.1-0.8
		c1,0,1.3,0.5,1.4,1h1.7c-0.1-1.1-1-2.2-3-2.2c-1.8,0-2.8,0.9-2.8,2.2c0,1,0.5,1.8,2.6,2.3c1.3,0.3,1.7,0.6,1.7,1.2
		c0,0.6-0.4,0.9-1.3,0.9c-0.9,0-1.4-0.4-1.6-1.2L200.1,65.6L200.1,65.6z"/>
	<path id="ISO_拷贝_2_00000119811198598218376470000000658534464721872316_" class="st6" d="M198.9,66.6h-3.6v1.3h3.6V66.6z"/>
	<path id="ISO_拷贝_4_00000049216931519081806020000008993078439499681189_" class="st6" d="M198.9,60.2h-3.6v1.3h3.6V60.2z"/>
	<path id="_0_00000066497035898279669030000005653221571060698280_" class="st6" d="M208.4,60.9c-0.6,0.6-1,1.7-1,3.2
		c0,1.5,0.3,2.5,0.9,3.1c0.6,0.6,1.3,0.9,2.3,0.9c0.9,0,1.7-0.3,2.2-0.8c0.6-0.6,1-1.7,1-3.2c0-1.5-0.3-2.5-0.9-3.2
		c-0.5-0.5-1.3-0.8-2.2-0.8S209,60.3,208.4,60.9L208.4,60.9z M211.2,61.5c0.2,0.1,0.3,0.3,0.4,0.7c0.1,0.3,0.2,1,0.2,1.9
		c0,0.9-0.1,1.6-0.2,1.9c-0.1,0.3-0.2,0.5-0.4,0.6c-0.4,0.2-0.8,0.2-1.2,0c-0.2-0.1-0.3-0.3-0.4-0.7c-0.1-0.3-0.2-1-0.2-1.9
		c0-0.9,0.1-1.6,0.2-2c0.1-0.3,0.2-0.5,0.4-0.6c0.2-0.1,0.4-0.2,0.6-0.2C210.9,61.3,211.1,61.4,211.2,61.5L211.2,61.5z"/>
</g>
<g class="st9">
	<path class="st1" d="M190.8,76.2l1.4-0.2c0,0.4,0.2,0.6,0.4,0.8c0.2,0.2,0.4,0.3,0.7,0.3c0.3,0,0.5-0.1,0.7-0.3
		c0.2-0.2,0.3-0.5,0.3-0.9c0-0.4-0.1-0.6-0.3-0.9c-0.2-0.2-0.4-0.3-0.7-0.3c-0.2,0-0.4,0-0.7,0.1l0.2-1.2c0.4,0,0.7-0.1,0.9-0.3
		c0.2-0.2,0.3-0.4,0.3-0.7c0-0.2-0.1-0.4-0.2-0.6c-0.1-0.1-0.3-0.2-0.6-0.2c-0.2,0-0.5,0.1-0.6,0.3s-0.3,0.4-0.3,0.7l-1.3-0.2
		c0.1-0.4,0.2-0.8,0.4-1.1s0.4-0.5,0.8-0.6c0.3-0.2,0.7-0.2,1.1-0.2c0.7,0,1.3,0.2,1.7,0.7c0.3,0.4,0.5,0.8,0.5,1.2
		c0,0.7-0.4,1.2-1.1,1.6c0.4,0.1,0.8,0.3,1,0.6c0.3,0.3,0.4,0.7,0.4,1.2c0,0.7-0.2,1.2-0.7,1.7c-0.5,0.5-1.1,0.7-1.8,0.7
		c-0.7,0-1.2-0.2-1.7-0.6C191.1,77.4,190.9,76.9,190.8,76.2z"/>
	<path class="st1" d="M196.6,72.2v-1.3h4.9v1c-0.4,0.4-0.8,1-1.2,1.7c-0.4,0.7-0.7,1.5-1,2.4s-0.3,1.6-0.3,2.2h-1.4
		c0-1,0.2-2.1,0.6-3.1c0.4-1.1,0.9-2,1.6-2.9H196.6z"/>
	<path class="st1" d="M202.4,76.2l1.4-0.2c0,0.4,0.2,0.6,0.4,0.8c0.2,0.2,0.4,0.3,0.7,0.3c0.3,0,0.5-0.1,0.7-0.3
		c0.2-0.2,0.3-0.5,0.3-0.9c0-0.4-0.1-0.6-0.3-0.9c-0.2-0.2-0.4-0.3-0.7-0.3c-0.2,0-0.4,0-0.7,0.1l0.2-1.2c0.4,0,0.7-0.1,0.9-0.3
		c0.2-0.2,0.3-0.4,0.3-0.7c0-0.2-0.1-0.4-0.2-0.6c-0.1-0.1-0.3-0.2-0.6-0.2c-0.2,0-0.5,0.1-0.6,0.3s-0.3,0.4-0.3,0.7l-1.3-0.2
		c0.1-0.4,0.2-0.8,0.4-1.1s0.4-0.5,0.8-0.6c0.3-0.2,0.7-0.2,1.1-0.2c0.7,0,1.3,0.2,1.7,0.7c0.3,0.4,0.5,0.8,0.5,1.2
		c0,0.7-0.4,1.2-1.1,1.6c0.4,0.1,0.8,0.3,1,0.6c0.3,0.3,0.4,0.7,0.4,1.2c0,0.7-0.2,1.2-0.7,1.7c-0.5,0.5-1.1,0.7-1.8,0.7
		c-0.7,0-1.2-0.2-1.7-0.6C202.7,77.4,202.4,76.9,202.4,76.2z"/>
	<path class="st1" d="M210.6,70.7c0.7,0,1.3,0.3,1.7,0.8c0.5,0.6,0.7,1.6,0.7,3c0,1.4-0.2,2.4-0.7,3c-0.4,0.5-1,0.8-1.7,0.8
		c-0.7,0-1.3-0.3-1.7-0.8c-0.4-0.6-0.7-1.5-0.7-3c0-1.4,0.2-2.4,0.7-3C209.3,71,209.9,70.7,210.6,70.7z M210.6,71.9
		c-0.2,0-0.3,0.1-0.5,0.2c-0.1,0.1-0.2,0.3-0.3,0.6c-0.1,0.4-0.1,1-0.1,1.9c0,0.9,0,1.5,0.1,1.8c0.1,0.3,0.2,0.5,0.3,0.7
		c0.1,0.1,0.3,0.2,0.5,0.2s0.3-0.1,0.5-0.2c0.1-0.1,0.2-0.3,0.3-0.6c0.1-0.4,0.1-1,0.1-1.9c0-0.9,0-1.5-0.1-1.8s-0.2-0.5-0.3-0.7
		C210.9,72,210.8,71.9,210.6,71.9z"/>
	<path class="st1" d="M217.6,78.2h-1.4v-5.4c-0.5,0.5-1.1,0.8-1.8,1.1v-1.3c0.4-0.1,0.8-0.4,1.2-0.7c0.4-0.3,0.7-0.7,0.9-1.2h1.2
		V78.2z"/>
</g>
<text id="CERTIFIED_00000163757730957588196760000011566291845184265889_" transform="matrix(1 0 0 1 192.1772 84.4385)" class="st4 st7 st10">CERTIFIED</text>
<g>
	<path class="st5" d="M262.6,54.8c8.4,0,15.4,5.6,17.8,13.3h3.3c-2.4-9.5-10.9-16.5-21-16.5c-10.1,0-18.6,7-21,16.5h3.3
		C247.2,60.4,254.3,54.8,262.6,54.8z"/>
	<path class="st5" d="M262.6,92.4c-7.7,0-14.4-4.8-17.2-11.6h-3.4c2.9,8.6,11,14.8,20.5,14.8c9.5,0,17.6-6.2,20.5-14.8h-3.4
		C277,87.6,270.4,92.4,262.6,92.4z"/>
	<path class="st5" d="M246.2,79.8c2.5,6.7,8.9,11.5,16.4,11.5c7.5,0,13.9-4.8,16.4-11.5h7.6l-1.9-5.3l1.7-5.3h-6.8
		c-1.9-7.7-8.8-13.4-17-13.4c-8.2,0-15.1,5.7-17,13.4h-7l1.9,5.3l-1.7,5.3H246.2z M241.2,74.3l-1.6-4.4h6h34h5.8l-1.4,4.4l-0.1,0.2
		l0.1,0.2l1.6,4.4h-6.6h-32.9h-6.5l1.4-4.4l0.1-0.2L241.2,74.3z"/>
</g>
<g id="组_1_00000159449096250229103120000011240158170401626543_">
	<path id="ISO_00000029766417155759092470000002327367360104030631_" class="st6" d="M254.3,60.2v7.6h1.8v-7.6H254.3z"/>
	<path id="ISO_拷贝_3_00000056410385148466490510000009129978585462911126_" class="st6" d="M258.1,65.6L258.1,65.6
		c0.2,1.4,1.2,2.4,3.2,2.4c2,0,3.1-1,3.1-2.4c0-1.1-0.5-1.9-2.8-2.4c-1.2-0.3-1.6-0.5-1.6-1c0-0.5,0.4-0.8,1.1-0.8
		c1,0,1.3,0.5,1.4,1h1.7c-0.1-1.1-1-2.2-3-2.2c-1.8,0-2.8,0.9-2.8,2.2c0,1,0.5,1.8,2.6,2.3c1.3,0.3,1.7,0.6,1.7,1.2
		c0,0.6-0.4,0.9-1.3,0.9c-0.9,0-1.4-0.4-1.6-1.2L258.1,65.6L258.1,65.6z"/>
	<path id="ISO_拷贝_2_00000073683103766796823150000010468767227030498451_" class="st6" d="M257,66.6h-3.6v1.3h3.6V66.6z"/>
	<path id="ISO_拷贝_4_00000021818478440923635530000007979158444443415230_" class="st6" d="M257,60.2h-3.6v1.3h3.6V60.2z"/>
	<path id="_0_00000170265460293210518940000012601183588795309217_" class="st6" d="M266.5,60.9c-0.6,0.6-1,1.7-1,3.2
		c0,1.5,0.3,2.5,0.9,3.1c0.6,0.6,1.3,0.9,2.3,0.9c0.9,0,1.7-0.3,2.2-0.8c0.6-0.6,1-1.7,1-3.2c0-1.5-0.3-2.5-0.9-3.2
		c-0.5-0.5-1.3-0.8-2.2-0.8S267.1,60.3,266.5,60.9L266.5,60.9z M269.3,61.5c0.2,0.1,0.3,0.3,0.4,0.7c0.1,0.3,0.2,1,0.2,1.9
		c0,0.9-0.1,1.6-0.2,1.9c-0.1,0.3-0.2,0.5-0.4,0.6c-0.4,0.2-0.8,0.2-1.2,0c-0.2-0.1-0.3-0.3-0.4-0.7c-0.1-0.3-0.2-1-0.2-1.9
		c0-0.9,0.1-1.6,0.2-2c0.1-0.3,0.2-0.5,0.4-0.6c0.2-0.1,0.4-0.2,0.6-0.2C268.9,61.3,269.1,61.4,269.3,61.5L269.3,61.5z"/>
</g>
<g class="st9">
	<path class="st1" d="M252.2,78.2v-1.5h-3v-1.2l3.2-4.7h1.2v4.7h0.9v1.3h-0.9v1.5H252.2z M252.2,75.5v-2.5l-1.7,2.5H252.2z"/>
	<path class="st1" d="M255.2,76.3l1.4-0.1c0,0.3,0.2,0.6,0.4,0.8s0.4,0.3,0.7,0.3c0.3,0,0.5-0.1,0.8-0.4s0.3-0.6,0.3-1.1
		c0-0.5-0.1-0.8-0.3-1c-0.2-0.2-0.5-0.3-0.8-0.3c-0.4,0-0.8,0.2-1.1,0.5l-1.2-0.2l0.7-3.9h3.8v1.3h-2.7l-0.2,1.3
		c0.3-0.2,0.6-0.2,1-0.2c0.6,0,1.2,0.2,1.6,0.7c0.4,0.5,0.7,1.1,0.7,1.8c0,0.6-0.2,1.2-0.5,1.6c-0.5,0.7-1.2,1-2,1
		c-0.7,0-1.2-0.2-1.7-0.6C255.5,77.4,255.3,76.9,255.2,76.3z"/>
	<path class="st1" d="M263.3,70.7c0.7,0,1.3,0.3,1.7,0.8c0.5,0.6,0.7,1.6,0.7,3c0,1.4-0.2,2.4-0.7,3c-0.4,0.5-1,0.8-1.7,0.8
		c-0.7,0-1.3-0.3-1.7-0.8c-0.4-0.6-0.7-1.5-0.7-3c0-1.4,0.2-2.4,0.7-3C262.1,71,262.6,70.7,263.3,70.7z M263.3,71.9
		c-0.2,0-0.3,0.1-0.5,0.2c-0.1,0.1-0.2,0.3-0.3,0.6c-0.1,0.4-0.1,1-0.1,1.9c0,0.9,0,1.5,0.1,1.8c0.1,0.3,0.2,0.5,0.3,0.7
		c0.1,0.1,0.3,0.2,0.5,0.2s0.3-0.1,0.5-0.2c0.1-0.1,0.2-0.3,0.3-0.6c0.1-0.4,0.1-1,0.1-1.9c0-0.9,0-1.5-0.1-1.8s-0.2-0.5-0.3-0.7
		C263.7,72,263.5,71.9,263.3,71.9z"/>
	<path class="st1" d="M269.1,70.7c0.7,0,1.3,0.3,1.7,0.8c0.5,0.6,0.7,1.6,0.7,3c0,1.4-0.2,2.4-0.7,3c-0.4,0.5-1,0.8-1.7,0.8
		c-0.7,0-1.3-0.3-1.7-0.8c-0.4-0.6-0.7-1.5-0.7-3c0-1.4,0.2-2.4,0.7-3C267.8,71,268.4,70.7,269.1,70.7z M269.1,71.9
		c-0.2,0-0.3,0.1-0.5,0.2c-0.1,0.1-0.2,0.3-0.3,0.6c-0.1,0.4-0.1,1-0.1,1.9c0,0.9,0,1.5,0.1,1.8c0.1,0.3,0.2,0.5,0.3,0.7
		c0.1,0.1,0.3,0.2,0.5,0.2s0.3-0.1,0.5-0.2c0.1-0.1,0.2-0.3,0.3-0.6c0.1-0.4,0.1-1,0.1-1.9c0-0.9,0-1.5-0.1-1.8s-0.2-0.5-0.3-0.7
		C269.4,72,269.3,71.9,269.1,71.9z"/>
	<path class="st1" d="M276.1,78.2h-1.4v-5.4c-0.5,0.5-1.1,0.8-1.8,1.1v-1.3c0.4-0.1,0.8-0.4,1.2-0.7c0.4-0.3,0.7-0.7,0.9-1.2h1.2
		V78.2z"/>
</g>
<text id="CERTIFIED_00000147913537415840028700000003559357101530591893_" transform="matrix(1 0 0 1 251.6811 84.4385)" class="st4 st7 st10">CERTIFIED</text>
<g>
	<g>
		<path class="st1" d="M68.2,47.3h-1.2l-0.2,0.6h-1l1.3-3.8h1.1l1.2,3.8h-1.1L68.2,47.3z M68,46.5l-0.4-1.4l-0.4,1.4H68z"/>
		<path class="st1" d="M69.8,44.1h1l1.3,2.1v-2.1h1v3.8h-1l-1.2-2.1v2.1h-1V44.1z"/>
		<path class="st1" d="M73.5,46.7l1-0.1c0,0.2,0.1,0.3,0.1,0.4c0.1,0.2,0.3,0.2,0.5,0.2c0.1,0,0.3,0,0.3-0.1
			c0.1-0.1,0.1-0.2,0.1-0.3c0-0.1,0-0.2-0.1-0.3c-0.1-0.1-0.3-0.1-0.5-0.2c-0.5-0.1-0.8-0.3-1-0.5c-0.2-0.2-0.3-0.4-0.3-0.7
			c0-0.2,0-0.4,0.1-0.5s0.2-0.3,0.4-0.4c0.2-0.1,0.5-0.1,0.8-0.1c0.4,0,0.7,0.1,1,0.3c0.2,0.2,0.4,0.5,0.4,0.9l-1,0.1
			c0-0.2-0.1-0.3-0.2-0.4c-0.1-0.1-0.2-0.1-0.3-0.1c-0.1,0-0.2,0-0.3,0.1c-0.1,0.1-0.1,0.1-0.1,0.2c0,0.1,0,0.1,0.1,0.2
			c0,0,0.2,0.1,0.3,0.1c0.4,0.1,0.8,0.2,1,0.3c0.2,0.1,0.3,0.3,0.4,0.4c0.1,0.2,0.1,0.4,0.1,0.6c0,0.2-0.1,0.5-0.2,0.7
			c-0.1,0.2-0.3,0.4-0.5,0.5C75.6,47.9,75.4,48,75,48c-0.6,0-1-0.1-1.2-0.4C73.7,47.4,73.5,47,73.5,46.7z"/>
		<path class="st1" d="M77.1,44.1h1v3.8h-1V44.1z"/>
		<path class="st1" d="M79.3,44.1h0.5L79,48h-0.5L79.3,44.1z"/>
		<path class="st1" d="M80.1,44.1h2.8v0.8h-1.7v0.6h1.6v0.8h-1.6v0.7h1.8v0.9h-2.8V44.1z"/>
		<path class="st1" d="M83.3,46.7l1-0.1c0,0.2,0.1,0.3,0.1,0.4c0.1,0.2,0.3,0.2,0.5,0.2c0.1,0,0.3,0,0.3-0.1
			c0.1-0.1,0.1-0.2,0.1-0.3c0-0.1,0-0.2-0.1-0.3c-0.1-0.1-0.3-0.1-0.5-0.2c-0.5-0.1-0.8-0.3-1-0.5c-0.2-0.2-0.3-0.4-0.3-0.7
			c0-0.2,0-0.4,0.1-0.5c0.1-0.2,0.2-0.3,0.4-0.4c0.2-0.1,0.5-0.1,0.8-0.1c0.4,0,0.7,0.1,1,0.3c0.2,0.2,0.4,0.5,0.4,0.9l-1,0.1
			c0-0.2-0.1-0.3-0.2-0.4c-0.1-0.1-0.2-0.1-0.3-0.1c-0.1,0-0.2,0-0.3,0.1c-0.1,0.1-0.1,0.1-0.1,0.2c0,0.1,0,0.1,0.1,0.2
			c0,0,0.2,0.1,0.3,0.1c0.4,0.1,0.8,0.2,1,0.3c0.2,0.1,0.3,0.3,0.4,0.4c0.1,0.2,0.1,0.4,0.1,0.6c0,0.2-0.1,0.5-0.2,0.7
			c-0.1,0.2-0.3,0.4-0.5,0.5c-0.2,0.1-0.5,0.2-0.8,0.2c-0.6,0-1-0.1-1.2-0.4C83.5,47.4,83.3,47,83.3,46.7z"/>
		<path class="st1" d="M86.9,44.1h1.5c0.3,0,0.5,0,0.7,0.1c0.2,0.1,0.3,0.2,0.5,0.4c0.1,0.2,0.2,0.4,0.3,0.6
			c0.1,0.2,0.1,0.5,0.1,0.7c0,0.4,0,0.7-0.1,0.9c-0.1,0.2-0.2,0.4-0.3,0.6c-0.1,0.1-0.3,0.2-0.5,0.3c-0.2,0.1-0.4,0.1-0.6,0.1h-1.5
			V44.1z M87.9,45v2.1h0.3c0.2,0,0.4,0,0.5-0.1c0.1-0.1,0.2-0.1,0.2-0.3c0.1-0.1,0.1-0.4,0.1-0.7c0-0.4-0.1-0.7-0.2-0.8
			c-0.1-0.1-0.3-0.2-0.6-0.2H87.9z"/>
		<path class="st1" d="M90.2,46.1h1.3v0.8h-1.3V46.1z"/>
		<path class="st1" d="M91.8,46.7l1-0.1c0,0.2,0.1,0.3,0.1,0.4c0.1,0.2,0.3,0.2,0.5,0.2c0.1,0,0.3,0,0.3-0.1s0.1-0.2,0.1-0.3
			c0-0.1,0-0.2-0.1-0.3c-0.1-0.1-0.3-0.1-0.5-0.2c-0.5-0.1-0.8-0.3-1-0.5c-0.2-0.2-0.3-0.4-0.3-0.7c0-0.2,0-0.4,0.1-0.5
			c0.1-0.2,0.2-0.3,0.4-0.4c0.2-0.1,0.5-0.1,0.8-0.1c0.4,0,0.7,0.1,1,0.3c0.2,0.2,0.4,0.5,0.4,0.9l-1,0.1c0-0.2-0.1-0.3-0.2-0.4
			c-0.1-0.1-0.2-0.1-0.3-0.1c-0.1,0-0.2,0-0.3,0.1c-0.1,0.1-0.1,0.1-0.1,0.2c0,0.1,0,0.1,0.1,0.2c0,0,0.2,0.1,0.3,0.1
			c0.4,0.1,0.8,0.2,1,0.3c0.2,0.1,0.3,0.3,0.4,0.4c0.1,0.2,0.1,0.4,0.1,0.6c0,0.2-0.1,0.5-0.2,0.7c-0.1,0.2-0.3,0.4-0.5,0.5
			C94,47.9,93.7,48,93.4,48c-0.6,0-1-0.1-1.2-0.4C92,47.4,91.9,47,91.8,46.7z"/>
		<path class="st1" d="M97.9,47.9h-2.8c0-0.3,0.1-0.6,0.3-0.9s0.5-0.6,0.9-1c0.3-0.2,0.4-0.4,0.5-0.5c0.1-0.1,0.1-0.2,0.1-0.3
			c0-0.1,0-0.2-0.1-0.3c-0.1-0.1-0.2-0.1-0.3-0.1c-0.1,0-0.2,0-0.3,0.1c-0.1,0.1-0.1,0.2-0.2,0.4l-0.9-0.1c0-0.3,0.1-0.5,0.2-0.7
			c0.1-0.2,0.2-0.3,0.4-0.4c0.2-0.1,0.4-0.1,0.7-0.1c0.3,0,0.6,0,0.8,0.1c0.2,0.1,0.3,0.2,0.4,0.4c0.1,0.2,0.2,0.4,0.2,0.6
			c0,0.2-0.1,0.4-0.2,0.7c-0.1,0.2-0.3,0.4-0.6,0.7c-0.2,0.1-0.3,0.2-0.4,0.3c-0.1,0.1-0.1,0.1-0.2,0.2h1.4V47.9z"/>
		<path class="st1" d="M98.3,46c0-0.7,0.1-1.2,0.3-1.5c0.2-0.3,0.6-0.4,1-0.4c0.2,0,0.4,0,0.6,0.1c0.1,0.1,0.3,0.1,0.4,0.2
			s0.2,0.2,0.2,0.3c0.1,0.1,0.1,0.2,0.1,0.4c0.1,0.3,0.1,0.6,0.1,0.9c0,0.7-0.1,1.2-0.3,1.5c-0.2,0.3-0.6,0.5-1.1,0.5
			c-0.3,0-0.5-0.1-0.7-0.2c-0.2-0.1-0.3-0.2-0.4-0.4c-0.1-0.1-0.1-0.3-0.2-0.6C98.3,46.6,98.3,46.3,98.3,46z M99.2,46
			c0,0.5,0,0.8,0.1,1c0.1,0.2,0.2,0.3,0.3,0.3c0.1,0,0.2,0,0.2-0.1c0.1-0.1,0.1-0.2,0.2-0.4c0-0.2,0-0.4,0-0.8c0-0.5,0-0.8-0.1-1
			c-0.1-0.2-0.2-0.3-0.3-0.3c-0.2,0-0.3,0.1-0.3,0.3C99.3,45.2,99.2,45.5,99.2,46z"/>
		<path class="st1" d="M101.5,46.9h1v1h-1V46.9z"/>
		<path class="st1" d="M105.7,47.9h-2.8c0-0.3,0.1-0.6,0.3-0.9c0.2-0.3,0.5-0.6,0.9-1c0.3-0.2,0.4-0.4,0.5-0.5
			c0.1-0.1,0.1-0.2,0.1-0.3c0-0.1,0-0.2-0.1-0.3s-0.2-0.1-0.3-0.1c-0.1,0-0.2,0-0.3,0.1c-0.1,0.1-0.1,0.2-0.2,0.4l-0.9-0.1
			c0-0.3,0.1-0.5,0.2-0.7c0.1-0.2,0.2-0.3,0.4-0.4c0.2-0.1,0.4-0.1,0.7-0.1c0.3,0,0.6,0,0.8,0.1c0.2,0.1,0.3,0.2,0.4,0.4
			c0.1,0.2,0.2,0.4,0.2,0.6c0,0.2-0.1,0.4-0.2,0.7c-0.1,0.2-0.3,0.4-0.6,0.7c-0.2,0.1-0.3,0.2-0.4,0.3c-0.1,0.1-0.1,0.1-0.2,0.2h1.4
			V47.9z"/>
		<path class="st1" d="M106.1,46c0-0.7,0.1-1.2,0.3-1.5c0.2-0.3,0.6-0.4,1-0.4c0.2,0,0.4,0,0.6,0.1c0.1,0.1,0.3,0.1,0.4,0.2
			s0.2,0.2,0.2,0.3c0.1,0.1,0.1,0.2,0.1,0.4c0.1,0.3,0.1,0.6,0.1,0.9c0,0.7-0.1,1.2-0.3,1.5c-0.2,0.3-0.6,0.5-1.1,0.5
			c-0.3,0-0.5-0.1-0.7-0.2c-0.2-0.1-0.3-0.2-0.4-0.4c-0.1-0.1-0.1-0.3-0.2-0.6C106.1,46.6,106.1,46.3,106.1,46z M107,46
			c0,0.5,0,0.8,0.1,1c0.1,0.2,0.2,0.3,0.3,0.3c0.1,0,0.2,0,0.2-0.1c0.1-0.1,0.1-0.2,0.2-0.4c0-0.2,0-0.4,0-0.8c0-0.5,0-0.8-0.1-1
			c-0.1-0.2-0.2-0.3-0.3-0.3c-0.2,0-0.3,0.1-0.3,0.3C107,45.2,107,45.5,107,46z"/>
	</g>
	<polygon class="st1" points="87.8,4 77.9,21.3 97.3,21.3 	"/>
	<path class="st1" d="M84.1,22.8l-6,0c-0.3,0-0.5,0.1-0.7,0.3l-0.4,0.6L70,35l18.2-0.1c0,0,4.4-0.1,3.2-5c-0.5-1.7-2.4-2.8-2.4-2.8
		s-0.8-0.9,0.5-1s5.4-0.1,5.4-0.1s1.4-0.2,2,1.2c0.6,1.2,1.6,3.1,1.9,3.6c0.1,0.1,0.1,0.3,0.1,0.5c0,0.2-0.1,0.5-0.4,0.5
		c-0.7,0-1.7,0-2.1,0s-0.6-0.1-0.6-0.9c0-1.1,0-3.4,0-4.1c0-0.1-0.1-0.2-0.2-0.2h-3.2l0,8.2l8.8,0c0,0,1.9,0,2.2-1.3
		c0-0.5,0.1-1.7-0.2-2.2c-0.5-0.9-3.7-6.5-4.5-7.5c-0.8-1-1.5-1-1.5-1l-9.1,0l-1.7,0c-1.8,0.3-2.5,2-2.4,3.1c0,0.6,0.3,1.2,0.7,1.7
		l1.4,1.5l0.4,0.6c0.3,0.4,0.3,0.8,0.1,1.1c-0.2,0.4-0.6,0.6-1,0.7l-0.5,0.1c0,0-0.1,0-0.1,0l-8.3,0l0,0c-0.1-0.4,0.2-0.8,0.5-1.1
		c0,0,0.3-0.2,0.6-0.2l3.1,0c0.3,0,0.5-0.1,0.7-0.4l1.2-2.1l0-0.3c0-0.2-0.1-0.3-0.3-0.3l-2.7,0.1c-0.1,0-0.3-0.1-0.4-0.2l0,0
		c-0.1-0.2-0.1-0.4,0-0.6l0.2-0.3c0.1-0.2,0.3-0.3,0.6-0.3l1.8,0.1c0.4,0,0.7,0,0.9-0.4l1.5-2.7C84.5,23,84.4,22.7,84.1,22.8z"/>
	<polygon class="st1" points="65.3,43.2 109.3,43.2 105.7,36.6 69.1,36.6 	"/>
	<g class="st9">
		<path class="st4" d="M72,41.2h-1.2l-0.2,0.6h-1l1.3-3.8H72l1.2,3.8h-1.1L72,41.2z M71.8,40.3L71.4,39L71,40.3H71.8z"/>
		<path class="st4" d="M73.4,40.5l1-0.1c0,0.2,0.1,0.3,0.1,0.4c0.1,0.2,0.3,0.2,0.5,0.2c0.1,0,0.3,0,0.3-0.1
			c0.1-0.1,0.1-0.2,0.1-0.3c0-0.1,0-0.2-0.1-0.3c-0.1-0.1-0.3-0.1-0.5-0.2c-0.5-0.1-0.8-0.3-1-0.5c-0.2-0.2-0.3-0.4-0.3-0.7
			c0-0.2,0-0.4,0.1-0.5c0.1-0.2,0.2-0.3,0.4-0.4c0.2-0.1,0.5-0.1,0.8-0.1c0.4,0,0.7,0.1,1,0.3c0.2,0.2,0.4,0.5,0.4,0.9l-1,0.1
			c0-0.2-0.1-0.3-0.2-0.4c-0.1-0.1-0.2-0.1-0.3-0.1c-0.1,0-0.2,0-0.3,0.1c-0.1,0.1-0.1,0.1-0.1,0.2c0,0.1,0,0.1,0.1,0.2
			c0,0,0.2,0.1,0.3,0.1c0.4,0.1,0.8,0.2,1,0.3c0.2,0.1,0.3,0.3,0.4,0.4c0.1,0.2,0.1,0.4,0.1,0.6c0,0.2-0.1,0.5-0.2,0.7
			c-0.1,0.2-0.3,0.4-0.5,0.5c-0.2,0.1-0.5,0.2-0.8,0.2c-0.6,0-1-0.1-1.2-0.4C73.5,41.2,73.4,40.9,73.4,40.5z"/>
		<path class="st4" d="M76.7,40.5l1-0.1c0,0.2,0.1,0.3,0.1,0.4c0.1,0.2,0.3,0.2,0.5,0.2c0.1,0,0.3,0,0.3-0.1
			c0.1-0.1,0.1-0.2,0.1-0.3c0-0.1,0-0.2-0.1-0.3c-0.1-0.1-0.3-0.1-0.5-0.2c-0.5-0.1-0.8-0.3-1-0.5c-0.2-0.2-0.3-0.4-0.3-0.7
			c0-0.2,0-0.4,0.1-0.5c0.1-0.2,0.2-0.3,0.4-0.4c0.2-0.1,0.5-0.1,0.8-0.1c0.4,0,0.7,0.1,1,0.3c0.2,0.2,0.4,0.5,0.4,0.9l-1,0.1
			c0-0.2-0.1-0.3-0.2-0.4c-0.1-0.1-0.2-0.1-0.3-0.1c-0.1,0-0.2,0-0.3,0.1c-0.1,0.1-0.1,0.1-0.1,0.2c0,0.1,0,0.1,0.1,0.2
			c0,0,0.2,0.1,0.3,0.1c0.4,0.1,0.8,0.2,1,0.3c0.2,0.1,0.3,0.3,0.4,0.4c0.1,0.2,0.1,0.4,0.1,0.6c0,0.2-0.1,0.5-0.2,0.7
			c-0.1,0.2-0.3,0.4-0.5,0.5c-0.2,0.1-0.5,0.2-0.8,0.2c-0.6,0-1-0.1-1.2-0.4C76.9,41.2,76.7,40.9,76.7,40.5z"/>
		<path class="st4" d="M80.1,39.9c0-0.6,0.2-1.1,0.5-1.4c0.3-0.3,0.7-0.5,1.3-0.5c0.6,0,1,0.2,1.3,0.5s0.4,0.8,0.4,1.4
			c0,0.4-0.1,0.8-0.2,1.1c-0.1,0.3-0.3,0.5-0.6,0.7c-0.2,0.2-0.6,0.2-0.9,0.2c-0.4,0-0.7-0.1-0.9-0.2c-0.2-0.1-0.4-0.3-0.6-0.6
			C80.2,40.7,80.1,40.3,80.1,39.9z M81.1,39.9c0,0.4,0.1,0.7,0.2,0.8c0.1,0.2,0.3,0.2,0.5,0.2c0.2,0,0.4-0.1,0.5-0.2
			c0.1-0.2,0.2-0.5,0.2-0.9c0-0.4-0.1-0.6-0.2-0.8c-0.1-0.2-0.3-0.2-0.5-0.2c-0.2,0-0.4,0.1-0.5,0.2C81.2,39.2,81.1,39.5,81.1,39.9z
			"/>
		<path class="st4" d="M86.3,40.2l0.9,0.3c-0.1,0.3-0.2,0.5-0.3,0.7c-0.1,0.2-0.3,0.3-0.5,0.4c-0.2,0.1-0.4,0.1-0.7,0.1
			c-0.4,0-0.7-0.1-0.9-0.2c-0.2-0.1-0.4-0.3-0.6-0.6c-0.2-0.3-0.2-0.7-0.2-1.1c0-0.6,0.1-1.1,0.4-1.4c0.3-0.3,0.7-0.5,1.2-0.5
			c0.4,0,0.7,0.1,1,0.3c0.2,0.2,0.4,0.5,0.5,0.9l-0.9,0.2c0-0.1-0.1-0.2-0.1-0.3c-0.1-0.1-0.1-0.2-0.2-0.2c-0.1,0-0.2-0.1-0.3-0.1
			c-0.2,0-0.4,0.1-0.5,0.3c-0.1,0.2-0.1,0.4-0.1,0.7c0,0.4,0.1,0.7,0.2,0.9c0.1,0.2,0.3,0.2,0.5,0.2c0.2,0,0.3-0.1,0.4-0.2
			C86.2,40.7,86.3,40.5,86.3,40.2z"/>
		<path class="st4" d="M87.8,38h1v3.8h-1V38z"/>
		<path class="st4" d="M91.6,41.2h-1.2l-0.2,0.6h-1l1.3-3.8h1.1l1.2,3.8h-1.1L91.6,41.2z M91.4,40.3L91,39l-0.4,1.4H91.4z"/>
		<path class="st4" d="M92.6,38h3.1v0.9h-1v2.8h-1v-2.8h-1V38z"/>
		<path class="st4" d="M96.2,38h1v3.8h-1V38z"/>
		<path class="st4" d="M97.9,39.9c0-0.6,0.2-1.1,0.5-1.4c0.3-0.3,0.7-0.5,1.3-0.5c0.6,0,1,0.2,1.3,0.5s0.4,0.8,0.4,1.4
			c0,0.4-0.1,0.8-0.2,1.1c-0.1,0.3-0.3,0.5-0.6,0.7c-0.2,0.2-0.6,0.2-0.9,0.2c-0.4,0-0.7-0.1-0.9-0.2c-0.2-0.1-0.4-0.3-0.6-0.6
			C97.9,40.7,97.9,40.3,97.9,39.9z M98.9,39.9c0,0.4,0.1,0.7,0.2,0.8c0.1,0.2,0.3,0.2,0.5,0.2c0.2,0,0.4-0.1,0.5-0.2
			c0.1-0.2,0.2-0.5,0.2-0.9c0-0.4-0.1-0.6-0.2-0.8c-0.1-0.2-0.3-0.2-0.5-0.2c-0.2,0-0.4,0.1-0.5,0.2C99,39.2,98.9,39.5,98.9,39.9z"
			/>
		<path class="st4" d="M101.9,38h1l1.3,2.1V38h1v3.8h-1l-1.2-2.1v2.1h-1V38z"/>
	</g>
</g>
</svg>
