<?xml version="1.0" encoding="iso-8859-1"?>
<!-- Generator: Adobe Illustrator 26.0.0, SVG Export Plug-In . SVG Version: 6.00 Build 0)  -->
<svg version="1.1" id="&#x56FE;&#x5C42;_1" xmlns="http://www.w3.org/2000/svg" xmlns:xlink="http://www.w3.org/1999/xlink" x="0px"
	 y="0px" viewBox="0 0 90.686 36.029" style="enable-background:new 0 0 90.686 36.029;" xml:space="preserve">
<g id="&#x56FE;&#x5C42;_13">
	<path style="fill:#1770DE;" d="M14.091,14.319h-8c-1.105,0-2-0.895-2-2v-8c0-1.105,0.895-2,2-2h8c1.105,0,2,0.895,2,2v8
		C16.091,13.424,15.196,14.319,14.091,14.319z"/>
	<path style="fill:#FFFFFF;" d="M13.487,4.76v1.528h-0.909c-0.332,0-0.556,0.069-0.671,0.208s-0.174,0.347-0.174,0.625v1.094h1.696
		l-0.226,1.713h-1.47v4.392H9.963V9.927H8.487V8.214h1.476V6.953c0-0.718,0.201-1.274,0.602-1.67
		C10.966,4.888,11.5,4.69,12.168,4.69C12.735,4.69,13.175,4.713,13.487,4.76L13.487,4.76L13.487,4.76z"/>
</g>
<g id="&#x56FE;&#x5C42;_12">
	<g>
		<path style="fill:#1770DE;" d="M27.016,14.319h-8c-1.105,0-2-0.895-2-2v-8c0-1.105,0.895-2,2-2h8c1.105,0,2,0.895,2,2v8
			C29.016,13.424,28.12,14.319,27.016,14.319z"/>
		<path style="fill:#FFFFFF;" d="M18.761,12.477h1.952V6.938h-1.952V12.477z M25.257,6.763c-0.808,0-1.253,0.269-1.766,0.92V6.938
			h-1.949v5.539h1.949v-3.01c0-0.635,0.305-1.256,1.036-1.256s0.91,0.621,0.91,1.241v3.025h1.943V9.328
			C27.379,7.14,26.065,6.763,25.257,6.763L25.257,6.763z M19.741,4.162c-0.601,0-1.088,0.438-1.088,0.978
			c0,0.54,0.487,0.977,1.088,0.977c0.601,0,1.088-0.437,1.088-0.977C20.828,4.6,20.341,4.162,19.741,4.162z"/>
	</g>
</g>
<g id="&#x56FE;&#x5C42;_11">
	<g>
		<path style="fill:#1770DE;" d="M39.94,14.319h-8c-1.105,0-2-0.895-2-2v-8c0-1.105,0.895-2,2-2h8c1.105,0,2,0.895,2,2v8
			C41.94,13.424,41.045,14.319,39.94,14.319z"/>
		<path style="fill:#FFFFFF;" d="M40.122,6.217c-0.1-0.376-0.396-0.672-0.771-0.772c-0.681-0.183-3.41-0.183-3.41-0.183
			s-2.729,0-3.41,0.182c-0.376,0.1-0.671,0.396-0.771,0.772c-0.182,0.682-0.182,2.104-0.182,2.104s0,1.422,0.182,2.103
			c0.1,0.376,0.396,0.672,0.771,0.772c0.681,0.183,3.41,0.183,3.41,0.183s2.729,0,3.41-0.183c0.376-0.1,0.671-0.396,0.771-0.772
			c0.182-0.681,0.182-2.103,0.182-2.103S40.304,6.897,40.122,6.217z M35.073,9.625v-2.61l2.26,1.295L35.073,9.625z"/>
	</g>
</g>
<g id="&#x56FE;&#x5C42;_10">
	<g>
		<path style="fill:#1770DE;" d="M52.864,14.319h-8c-1.105,0-2-0.895-2-2v-8c0-1.105,0.895-2,2-2h8c1.105,0,2,0.895,2,2v8
			C54.864,13.424,53.969,14.319,52.864,14.319z"/>
		<g>
			<path style="fill:#FFFFFF;" d="M48.863,6.081c-1.239,0-2.239,1-2.239,2.239s1,2.239,2.239,2.239s2.239-1,2.239-2.239
				S50.102,6.081,48.863,6.081z M48.863,9.775c-0.801,0-1.455-0.654-1.455-1.455s0.654-1.455,1.455-1.455s1.455,0.654,1.455,1.455
				S49.664,9.775,48.863,9.775z"/>
			<path style="fill:#FFFFFF;" d="M51.194,5.467c-0.289,0-0.523,0.234-0.523,0.523s0.234,0.523,0.523,0.523
				c0.289,0,0.523-0.233,0.523-0.523C51.716,5.7,51.483,5.467,51.194,5.467z"/>
			<path style="fill:#FFFFFF;" d="M53.228,8.319c0-0.603,0.005-1.2-0.028-1.801c-0.034-0.699-0.193-1.319-0.704-1.83
				c-0.512-0.512-1.131-0.67-1.83-0.704c-0.603-0.034-1.2-0.028-1.801-0.028c-0.603,0-1.2-0.005-1.801,0.028
				c-0.699,0.034-1.319,0.193-1.83,0.704c-0.512,0.512-0.67,1.131-0.704,1.83c-0.034,0.603-0.028,1.2-0.028,1.801
				s-0.005,1.2,0.028,1.801c0.034,0.699,0.193,1.319,0.704,1.83c0.512,0.512,1.131,0.67,1.83,0.704
				c0.603,0.034,1.2,0.028,1.801,0.028c0.603,0,1.2,0.005,1.801-0.028c0.699-0.034,1.319-0.193,1.83-0.704
				c0.512-0.512,0.67-1.131,0.704-1.83C53.234,9.519,53.228,8.922,53.228,8.319z M52.267,10.894c-0.08,0.199-0.176,0.347-0.33,0.5
				c-0.154,0.154-0.301,0.25-0.5,0.33C50.863,11.951,49.5,11.9,48.863,11.9s-2.001,0.051-2.575-0.176
				c-0.199-0.08-0.347-0.176-0.5-0.33c-0.154-0.154-0.25-0.301-0.33-0.5c-0.227-0.575-0.176-1.939-0.176-2.575
				s-0.051-2.001,0.176-2.575c0.08-0.199,0.176-0.347,0.33-0.5s0.301-0.25,0.5-0.33c0.574-0.227,1.939-0.176,2.575-0.176
				s2.001-0.051,2.575,0.176c0.199,0.08,0.347,0.176,0.5,0.33c0.154,0.154,0.25,0.301,0.33,0.5c0.227,0.574,0.176,1.939,0.176,2.575
				S52.495,10.319,52.267,10.894z"/>
		</g>
	</g>
</g>
<g id="&#x56FE;&#x5C42;_9">
	<g>
		<path style="fill:#1770DE;" d="M65.789,14.319h-8c-1.105,0-2-0.895-2-2v-8c0-1.105,0.895-2,2-2h8c1.105,0,2,0.895,2,2v8
			C67.789,13.424,66.893,14.319,65.789,14.319z"/>
		<path style="fill:#FFFFFF;" d="M65.264,6.708c0-0.082-0.002-0.163-0.005-0.243c0.35-0.261,0.654-0.587,0.894-0.961
			c-0.326,0.147-0.673,0.242-1.029,0.281c0.37-0.228,0.654-0.592,0.788-1.029c-0.346,0.21-0.729,0.36-1.137,0.438
			c-0.326-0.371-0.792-0.608-1.307-0.617c-0.989-0.016-1.791,0.819-1.791,1.866c0,0.149,0.016,0.293,0.046,0.432
			c-1.489-0.096-2.809-0.871-3.691-2.039c-0.154,0.28-0.242,0.607-0.242,0.958c0,0.663,0.316,1.253,0.796,1.6
			c-0.294-0.013-0.569-0.102-0.811-0.248v0.024c0,0.927,0.617,1.703,1.437,1.885c-0.15,0.043-0.309,0.065-0.471,0.064
			c-0.113-0.001-0.226-0.013-0.337-0.037c0.228,0.76,0.889,1.314,1.672,1.333c-0.613,0.508-1.385,0.812-2.224,0.81
			c-0.145,0-0.287-0.01-0.427-0.027c0.793,0.544,1.734,0.86,2.745,0.86C63.463,12.061,65.264,9.195,65.264,6.708L65.264,6.708z"/>
	</g>
</g>
<g id="&#x56FE;&#x5C42;_8">
	<g>
		<path style="fill:#1770DE;" d="M78.713,14.319h-8c-1.105,0-2-0.895-2-2v-8c0-1.105,0.895-2,2-2h8c1.105,0,2,0.895,2,2v8
			C80.713,13.424,79.818,14.319,78.713,14.319z"/>
		<path style="fill:#FFFFFF;" d="M78.339,7.569c-0.716,0-1.412-0.233-1.985-0.663v3.003c0,1.533-1.181,2.775-2.639,2.775
			c-1.457,0-2.639-1.242-2.639-2.775s1.181-2.775,2.639-2.775c0.146,0,0.287,0.013,0.425,0.037v1.59
			c-0.132-0.052-0.273-0.078-0.414-0.078c-0.65,0-1.178,0.554-1.178,1.238c0,0.684,0.528,1.238,1.178,1.238
			c0.649,0,1.177-0.555,1.177-1.238V3.956h1.472c0,1.146,0.884,2.075,1.974,2.075v1.537L78.339,7.569"/>
	</g>
</g>
<g id="&#x56FE;&#x5C42;_7">
	<path style="fill:#1770DE;" d="M15.847,26.028c-1.714-1.374-2.213-0.687-2.961,0.062c-0.561,0.562-1.932-0.593-3.086-1.779
		c-1.184-1.186-2.337-2.591-1.776-3.09c0.779-0.78,1.434-1.249,0.062-2.965c-1.371-1.717-2.307-0.406-3.054,0.343
		c-0.873,0.874-0.063,4.12,3.148,7.335c3.21,3.184,6.452,4.027,7.325,3.153C16.253,28.337,17.593,27.401,15.847,26.028
		L15.847,26.028z"/>
</g>
<g id="&#x56FE;&#x5C42;_6">
	<path style="fill:#1770DE;" d="M42.637,28.481l-3.589-4.175l3.593-3.723c0.026,0.077,0.043,0.157,0.043,0.242v7.401
		C42.684,28.315,42.665,28.4,42.637,28.481L42.637,28.481z M37.874,24.272l-1.19,0.932l-1.186-0.93l-0.603-0.471l-3.615-3.74
		c0.075-0.021,0.152-0.037,0.234-0.037h10.341c0.082,0,0.158,0.015,0.233,0.037L38.475,23.8L37.874,24.272L37.874,24.272z
		 M30.732,28.481c-0.03-0.081-0.047-0.168-0.048-0.255v-7.401c0-0.085,0.018-0.165,0.043-0.242l3.596,3.725L30.732,28.481
		L30.732,28.481z M36.684,26.157l1.762-1.38l3.633,4.213c-0.073,0.021-0.148,0.033-0.224,0.034H31.514
		c-0.078,0-0.152-0.014-0.224-0.033l3.635-4.212L36.684,26.157L36.684,26.157z"/>
</g>
<g id="&#x56FE;&#x5C42;_5">
	<g>
		<path style="fill:#1770DE;" d="M21.447,28.214c-0.216,0-0.388-0.173-0.388-0.388s0.173-0.388,0.388-0.397h4.247
			c0.216,0,0.388,0.173,0.388,0.397c0,0.216-0.173,0.388-0.388,0.388H21.447z"/>
		<path style="fill:#1770DE;" d="M28.725,20.876h-1.001v-1.588c0-0.604-0.492-1.096-1.096-1.096h-6.077
			c-0.604,0-1.096,0.492-1.096,1.096v1.588h-1.036c-0.475,0-0.855,0.38-0.855,0.855v5.43c0,0.475,0.38,0.855,0.855,0.855h0.397
			c0.138,0,0.242-0.112,0.242-0.242v-0.881h-0.009c-0.259,0-0.466-0.224-0.44-0.483c0.026-0.224,0.224-0.397,0.458-0.397h0.397
			v3.514c0,0.604,0.311,1.096,1.096,1.096h6.034c0.811,0,1.096-0.492,1.096-1.096v-3.514h0.388c0.112,0,0.224,0.052,0.311,0.129
			c0.078,0.086,0.129,0.199,0.121,0.311c0,0.242-0.199,0.432-0.432,0.432H28.06l0.009,0.881c0,0.138,0.112,0.242,0.242,0.242h0.397
			c0.475,0,0.855-0.38,0.855-0.855v-5.421C29.579,21.256,29.199,20.876,28.725,20.876z M20.334,19.287
			c0-0.121,0.095-0.216,0.216-0.216h6.077c0.121,0,0.216,0.095,0.216,0.216v1.588h-6.509V19.287z M26.808,29.526
			c0,0.121-0.095,0.216-0.216,0.216h-6.034c-0.121,0-0.216-0.095-0.216-0.216v-3.514h6.466V29.526z M27.248,23.69
			c-0.311,0-0.561-0.25-0.561-0.561c0-0.311,0.25-0.561,0.561-0.561c0.311,0,0.561,0.25,0.561,0.561
			C27.818,23.431,27.559,23.69,27.248,23.69z"/>
	</g>
</g>
<g id="&#x56FE;&#x5C42;_4">
	<path style="fill:#1770DE;" d="M55.131,25.812c0.062-0.338,0.095-0.683,0.095-1.028c0-0.765-0.15-1.508-0.446-2.205
		c-0.285-0.675-0.695-1.281-1.215-1.802s-1.127-0.929-1.802-1.214c-0.699-0.296-1.44-0.446-2.205-0.446
		c-0.36,0-0.722,0.035-1.073,0.102c-0.485-0.257-1.028-0.393-1.577-0.393c-0.896,0-1.739,0.35-2.372,0.983
		c-0.633,0.633-0.983,1.476-0.983,2.372c0,0.57,0.147,1.131,0.422,1.626c-0.056,0.321-0.086,0.65-0.086,0.977
		c0,0.765,0.15,1.508,0.446,2.205c0.285,0.675,0.693,1.281,1.214,1.802c0.521,0.521,1.127,0.929,1.802,1.214
		c0.699,0.296,1.44,0.446,2.205,0.446c0.333,0,0.666-0.03,0.993-0.089c0.503,0.284,1.07,0.435,1.65,0.435
		c0.896,0,1.739-0.348,2.372-0.983c0.635-0.633,0.983-1.476,0.983-2.372C55.555,26.873,55.408,26.31,55.131,25.812L55.131,25.812z
		 M49.58,28.256c-2.013,0-2.913-0.99-2.913-1.731c0-0.381,0.281-0.647,0.668-0.647c0.861,0,0.639,1.238,2.246,1.238
		c0.824,0,1.278-0.447,1.278-0.905c0-0.275-0.135-0.581-0.678-0.714l-1.791-0.447c-1.442-0.362-1.704-1.142-1.704-1.874
		c0-1.521,1.433-2.093,2.778-2.093c1.239,0,2.7,0.686,2.7,1.598c0,0.392-0.339,0.618-0.726,0.618c-0.735,0-0.6-1.017-2.081-1.017
		c-0.735,0-1.142,0.333-1.142,0.809s0.581,0.627,1.085,0.743l1.326,0.294c1.452,0.324,1.82,1.172,1.82,1.97
		C52.445,27.332,51.496,28.256,49.58,28.256z"/>
</g>
<g id="&#x56FE;&#x5C42;_3">
	<path style="fill:#1770DE;" d="M63.456,18.812c-3.314,0-6,2.686-6,6s2.686,6,6,6c3.314,0,6-2.686,6-6S66.77,18.812,63.456,18.812z
		 M63.028,22.218c-0.576-0.048-1.125-0.189-1.631-0.412c0.41-1.079,1.015-1.811,1.631-2.049V22.218z M63.028,23.075v1.309h-2.131
		c0.027-0.635,0.114-1.225,0.246-1.757C61.729,22.874,62.363,23.028,63.028,23.075z M63.028,25.241v1.309
		c-0.665,0.047-1.298,0.201-1.885,0.448c-0.132-0.532-0.219-1.121-0.246-1.757H63.028L63.028,25.241z M63.028,27.407v2.461
		c-0.615-0.239-1.221-0.971-1.631-2.049C61.903,27.595,62.452,27.455,63.028,27.407L63.028,27.407z M63.885,27.407
		c0.576,0.048,1.125,0.189,1.631,0.412c-0.41,1.079-1.015,1.811-1.631,2.049V27.407z M63.885,26.549v-1.309h2.131
		c-0.027,0.635-0.114,1.225-0.246,1.757C65.183,26.75,64.549,26.597,63.885,26.549z M63.885,24.384v-1.309
		c0.665-0.047,1.298-0.201,1.885-0.448c0.132,0.532,0.219,1.121,0.246,1.757H63.885z M63.885,22.218v-2.461
		c0.615,0.238,1.221,0.971,1.631,2.049C65.009,22.029,64.46,22.17,63.885,22.218z M65.612,20.149
		c0.448,0.208,0.863,0.479,1.234,0.805c-0.18,0.159-0.375,0.301-0.576,0.434C66.084,20.923,65.863,20.506,65.612,20.149z
		 M60.643,21.388c-0.201-0.133-0.396-0.275-0.576-0.434c0.371-0.326,0.786-0.597,1.234-0.805
		C61.049,20.506,60.828,20.923,60.643,21.388z M60.365,22.23c-0.181,0.661-0.294,1.386-0.325,2.154h-1.705
		c0.088-1.061,0.497-2.032,1.133-2.813C59.745,21.818,60.046,22.037,60.365,22.23z M60.04,25.241
		c0.031,0.767,0.144,1.493,0.325,2.154c-0.319,0.193-0.62,0.412-0.897,0.659c-0.636-0.781-1.045-1.752-1.133-2.813H60.04z
		 M60.643,28.236c0.185,0.465,0.406,0.883,0.658,1.239c-0.448-0.208-0.863-0.479-1.234-0.805
		C60.247,28.511,60.442,28.369,60.643,28.236L60.643,28.236z M66.27,28.236c0.201,0.133,0.396,0.275,0.576,0.434
		c-0.371,0.326-0.786,0.597-1.234,0.805C65.863,29.119,66.084,28.701,66.27,28.236z M66.547,27.394
		c0.181-0.661,0.294-1.386,0.325-2.154h1.705c-0.088,1.061-0.497,2.032-1.133,2.813C67.167,27.807,66.866,27.588,66.547,27.394z
		 M66.872,24.384c-0.031-0.767-0.144-1.493-0.325-2.154c0.319-0.193,0.62-0.412,0.897-0.659c0.636,0.781,1.045,1.752,1.133,2.813
		H66.872z"/>
</g>
<g id="&#x56FE;&#x5C42;_2">
	<path style="fill:#3073BA;" d="M78.186,24.176c-0.013-0.013-0.022-0.015-0.02-0.013l-3.931-3.843c-0.234-0.229-0.614-0.229-0.849,0
		c-0.113,0.112-0.176,0.261-0.176,0.419s0.063,0.307,0.177,0.419l3.521,3.439l-3.521,3.44c-0.113,0.112-0.176,0.261-0.176,0.419
		s0.063,0.307,0.176,0.419c0.117,0.115,0.271,0.172,0.424,0.172c0.153,0,0.307-0.057,0.424-0.172l3.923-3.836l0.027-0.019
		c0.114-0.112,0.177-0.263,0.176-0.422C78.362,24.438,78.3,24.289,78.186,24.176z"/>
</g>
</svg>
