<?xml version="1.0" encoding="utf-8"?>
<!-- Generator: Adobe Illustrator 26.0.0, SVG Export Plug-In . SVG Version: 6.00 Build 0)  -->
<svg version="1.1" id="图层_1" xmlns="http://www.w3.org/2000/svg" xmlns:xlink="http://www.w3.org/1999/xlink" x="0px" y="0px"
	 viewBox="0 0 550 200" style="enable-background:new 0 0 550 200;" xml:space="preserve">
<style type="text/css">
	.st0{fill:#4FA72D;}
	.st1{opacity:0.6;fill:#999999;}
	.st2{opacity:0.6;}
	.st3{fill:#999999;}
	.st4{fill:#FF4D4F;}
	.st5{fill:#1770DE;}
	.st6{fill:#888888;}
	.st7{fill:#FFFFFF;stroke:#FFFFFF;stroke-width:0.75;stroke-miterlimit:10;}
	.st8{fill:#1877F2;}
	.st9{fill:#FBBC05;}
	.st10{fill:#EA4335;}
	.st11{fill:#34A853;}
	.st12{fill:#4285F4;}
	.st13{fill:#666666;}
	.st14{fill:#555555;}
</style>
<path class="st0" d="M395,10.1c-1.1-1.1-2.4-1.6-3.9-1.6c-2.3,0-4.8,1.3-7.2,3.8L378,18l-18.4-3.6c-0.9-0.2-1.9,0.1-2.5,0.8
	l-3.5,3.6c-0.7,0.7-0.9,1.6-0.7,2.6c0.2,0.9,0.9,1.7,1.8,2l13.9,5.2l-4,4.4l-6.8-1.3c-0.9-0.2-1.9,0.1-2.6,0.8l-1.8,1.8
	c-0.6,0.6-0.9,1.4-0.8,2.2c0.1,0.8,0.5,1.6,1.2,2l7.9,5.4l4.3,7c0.5,0.7,1.2,1.2,2.1,1.3c0.9,0.1,1.7-0.2,2.3-0.8l1.8-1.8
	c0.6-0.6,0.9-1.5,0.8-2.4l-0.9-6.5l4.2-4l4.9,13.6c0.3,0.9,1.1,1.6,2,1.8c0.2,0,0.4,0.1,0.6,0.1c0.7,0,1.5-0.3,2-0.8l3.5-3.6
	c0.6-0.6,0.9-1.6,0.8-2.5L387,27.3l5.9-5.9C399.2,15,395.7,10.8,395,10.1z M384.7,25.2c-0.6,0.6-0.9,1.6-0.8,2.5l3.2,18.2L384,49
	l-4.9-13.6c-0.3-0.9-1.1-1.6-2-1.8c-0.9-0.2-1.9,0-2.6,0.7l-4.7,4.4c-0.7,0.6-1,1.5-0.9,2.4l0.9,6.5l-1.4,1.4l-4.2-6.8
	c-0.2-0.3-0.5-0.6-0.8-0.8l-7.6-5.2l1.4-1.4l6.8,1.3c1,0.2,2-0.1,2.6-0.9l4.4-4.9c0.6-0.7,0.9-1.6,0.6-2.6c-0.2-0.9-0.9-1.6-1.8-2
	l-13.9-5.2l3.1-3.1l18.4,3.6c0.9,0.2,1.9-0.1,2.5-0.8l6-6c2.7-2.7,5.2-3.6,6.7-2.1c1.5,1.5,0.7,4.1-2,6.9L384.7,25.2z"/>
<path class="st1" d="M345.3,10.1c-1.1-1.1-2.4-1.6-3.9-1.6c-2.3,0-4.8,1.3-7.2,3.8l-5.8,5.8l-18.4-3.6c-0.9-0.2-1.9,0.1-2.5,0.8
	l-3.5,3.6c-0.7,0.7-0.9,1.6-0.7,2.6c0.2,0.9,0.9,1.7,1.8,2l13.9,5.2l-4,4.4l-6.8-1.3c-0.9-0.2-1.9,0.1-2.6,0.8l-1.8,1.8
	c-0.6,0.6-0.9,1.4-0.8,2.2c0.1,0.8,0.5,1.6,1.2,2l7.9,5.4l4.3,7c0.5,0.7,1.2,1.2,2.1,1.3c0.9,0.1,1.7-0.2,2.3-0.8l1.8-1.8
	c0.6-0.6,0.9-1.5,0.8-2.4l-0.9-6.5l4.2-4l4.9,13.6c0.3,0.9,1.1,1.6,2,1.8c0.2,0,0.4,0.1,0.6,0.1c0.7,0,1.5-0.3,2-0.8l3.5-3.6
	c0.6-0.6,0.9-1.6,0.8-2.5l-3.2-18.2l5.9-5.9C349.5,15,346.1,10.8,345.3,10.1z M335,25.2c-0.6,0.6-0.9,1.6-0.8,2.5l3.2,18.2l-3.1,3.1
	l-4.9-13.6c-0.3-0.9-1.1-1.6-2-1.8c-0.9-0.2-1.9,0-2.6,0.7l-4.7,4.4c-0.7,0.6-1,1.5-0.9,2.4l0.9,6.5l-1.4,1.4l-4.2-6.8
	c-0.2-0.3-0.5-0.6-0.8-0.8l-7.6-5.2l1.4-1.4l6.8,1.3c1,0.2,2-0.1,2.6-0.9l4.4-4.9c0.6-0.7,0.9-1.6,0.6-2.6c-0.2-0.9-0.9-1.6-1.8-2
	l-13.9-5.2l3.1-3.1l18.4,3.6c0.9,0.2,1.9-0.1,2.5-0.8l6-6c2.7-2.7,5.2-3.6,6.7-2.1c1.5,1.5,0.7,4.1-2,6.9L335,25.2z"/>
<g class="st2">
	<path class="st3" d="M126.3,8.4c-12.1,0-22,9.9-22,22c0,12.1,9.9,22,22,22c5.9,0,11.4-2.3,15.6-6.5c4.2-4.2,6.5-9.7,6.4-15.5
		C148.3,18.3,138.5,8.4,126.3,8.4z M126.3,49.3c-10.4,0-18.9-8.5-18.9-18.9c0-10.4,8.5-18.9,18.9-18.9c10.4,0,18.9,8.5,18.9,18.9
		C145.2,40.8,136.7,49.3,126.3,49.3z"/>
	<path class="st3" d="M127.9,29v-6c1.4,0.6,1.7,1.9,1.8,2c0.2,0.9,1.1,1.6,2.1,1.4c0.5-0.1,1-0.3,1.3-0.7c0.3-0.4,0.4-0.8,0.3-1.3
		c-0.3-1.6-1.7-4.3-5.4-5.1v-1.2c0-1-0.8-1.7-1.9-1.7c-1,0-1.9,0.8-1.9,1.7v1.1c-2,0.3-3.2,1.2-3.8,1.9c-1.5,1.6-1.8,3.7-1.6,5.1
		c0.2,1.7,1.8,4.2,5.4,5.4v5.7c-1.2-0.8-2-2-2.2-2.5c-0.3-0.9-1.4-1.4-2.4-1.1c-0.5,0.1-0.9,0.5-1.1,0.9c-0.2,0.4-0.2,0.9-0.1,1.3
		c0.6,1.6,2.7,4.3,5.7,5.3v1.4c0,1,0.8,1.7,1.9,1.7c1,0,1.9-0.8,1.9-1.7v-1.1c1.7-0.2,3.3-0.8,4.4-1.8c1.3-1.1,2-2.6,2-4.3
		C134.3,33.3,133.2,30.2,127.9,29z M124.2,27.8c-1.2-0.7-1.7-1.6-1.7-2c-0.1-0.5,0-1.6,0.7-2.3c0.2-0.3,0.6-0.5,1-0.6V27.8z
		 M129.8,37.3c-0.5,0.4-1.1,0.7-1.8,0.8v-5.5c2.3,0.8,2.6,1.9,2.6,3C130.5,36.2,130.3,36.8,129.8,37.3z"/>
</g>
<g>
	<path class="st0" d="M176,8.4c-12.1,0-22,9.9-22,22c0,12.1,9.9,22,22,22c5.9,0,11.4-2.3,15.6-6.5c4.2-4.2,6.5-9.7,6.4-15.5
		C198,18.3,188.1,8.4,176,8.4z M176,49.3c-10.4,0-18.9-8.5-18.9-18.9c0-10.4,8.5-18.9,18.9-18.9c10.4,0,18.9,8.5,18.9,18.9
		C194.9,40.8,186.4,49.3,176,49.3z"/>
	<path class="st0" d="M177.6,29v-6c1.4,0.6,1.7,1.9,1.8,2c0.2,0.9,1.1,1.6,2.1,1.4c0.5-0.1,1-0.3,1.3-0.7c0.3-0.4,0.4-0.8,0.3-1.3
		c-0.3-1.6-1.7-4.3-5.4-5.1v-1.2c0-1-0.8-1.7-1.9-1.7c-1,0-1.9,0.8-1.9,1.7v1.1c-2,0.3-3.2,1.2-3.8,1.9c-1.5,1.6-1.8,3.7-1.6,5.1
		c0.2,1.7,1.8,4.2,5.4,5.4v5.7c-1.2-0.8-2-2-2.2-2.5c-0.3-0.9-1.4-1.4-2.4-1.1c-0.5,0.1-0.9,0.5-1.1,0.9c-0.2,0.4-0.2,0.9-0.1,1.3
		c0.6,1.6,2.7,4.3,5.7,5.3v1.4c0,1,0.8,1.7,1.9,1.7c1,0,1.9-0.8,1.9-1.7v-1.1c1.7-0.2,3.3-0.8,4.4-1.8c1.3-1.1,2-2.6,2-4.3
		C184,33.3,182.8,30.2,177.6,29z M173.8,27.8c-1.2-0.7-1.7-1.6-1.7-2c-0.1-0.5,0-1.6,0.7-2.3c0.2-0.3,0.6-0.5,1-0.6V27.8z
		 M179.4,37.3c-0.5,0.4-1.1,0.7-1.8,0.8v-5.5c2.3,0.8,2.6,1.9,2.6,3C180.2,36.2,179.9,36.8,179.4,37.3z"/>
</g>
<g class="st2">
	<path class="st3" d="M39.6,13.4h-1.5V9.9c0-0.8-0.8-1.5-1.6-1.5c-0.8,0-1.6,0.7-1.6,1.5v3.5H19.1V9.9c0-0.8-0.8-1.5-1.6-1.5
		c-0.8,0-1.6,0.7-1.6,1.5v3.5h-1.5c-4.3,0-7.9,3.1-7.9,7v25.1c0,3.8,3.5,7,7.9,7h25.3c4.3,0,7.9-3.1,7.9-7V20.4
		C47.5,16.5,44,13.4,39.6,13.4z M17.5,22.2c0.9,0,1.6-0.7,1.6-1.5v-4.5h15.8v4.5c0,0.8,0.8,1.5,1.6,1.5c0.9,0,1.6-0.7,1.6-1.5v-4.5
		h1.5c2.5,0,4.6,1.9,4.6,4.1v25.1c0,2.2-2.1,4.1-4.6,4.1H14.4c-2.5,0-4.6-1.9-4.6-4.1V20.4c0-2.2,2.1-4.1,4.6-4.1h1.5v4.5
		C15.9,21.5,16.6,22.2,17.5,22.2z"/>
	<path class="st3" d="M22.8,40.8c0.7,0.6,1.5,0.8,2.3,0.8c0.8,0,1.6-0.3,2-0.8l9.5-9c0.6-0.6,0.6-1.6,0-2.3
		c-0.3-0.3-0.8-0.5-1.3-0.6h0c0,0,0,0,0,0c-0.5,0-0.9,0.2-1.3,0.5L25,38L20,33.4c-0.4-0.3-0.8-0.5-1.3-0.5c-0.5,0-0.9,0.2-1.3,0.5
		c-0.4,0.3-0.6,0.8-0.6,1.2c0,0.4,0.2,0.9,0.6,1.2L22.8,40.8z"/>
</g>
<g>
	<path class="st0" d="M89.3,13.4h-1.5V9.9c0-0.8-0.8-1.5-1.6-1.5c-0.8,0-1.6,0.7-1.6,1.5v3.5H68.8V9.9c0-0.8-0.8-1.5-1.6-1.5
		c-0.8,0-1.6,0.7-1.6,1.5v3.5H64c-4.3,0-7.9,3.1-7.9,7v25.1c0,3.8,3.5,7,7.9,7h25.3c4.3,0,7.9-3.1,7.9-7V20.4
		C97.2,16.5,93.6,13.4,89.3,13.4z M67.2,22.2c0.9,0,1.6-0.7,1.6-1.5v-4.5h15.8v4.5c0,0.8,0.8,1.5,1.6,1.5c0.9,0,1.6-0.7,1.6-1.5
		v-4.5h1.5c2.5,0,4.6,1.9,4.6,4.1v25.1c0,2.2-2.1,4.1-4.6,4.1H64c-2.5,0-4.6-1.9-4.6-4.1V20.4c0-2.2,2.1-4.1,4.6-4.1h1.5v4.5
		C65.5,21.5,66.3,22.2,67.2,22.2z"/>
	<path class="st0" d="M72.4,40.8c0.7,0.6,1.5,0.8,2.3,0.8c0.8,0,1.6-0.3,2-0.8l9.5-9c0.6-0.6,0.6-1.6,0-2.3C86,29.2,85.5,29,85,29h0
		c0,0,0,0,0,0c-0.5,0-0.9,0.2-1.3,0.5L74.6,38l-4.9-4.7c-0.4-0.3-0.8-0.5-1.3-0.5c-0.5,0-0.9,0.2-1.3,0.5c-0.4,0.3-0.6,0.8-0.6,1.2
		c0,0.4,0.2,0.9,0.6,1.2L72.4,40.8z"/>
</g>
<g>
	<path class="st0" d="M296.7,26.1L276.3,8.8c-0.6-0.5-1.5-0.5-2,0l-20.4,17.3c-0.3,0.3-0.5,0.6-0.5,1.1c0,0.4,0.1,0.8,0.4,1.1
		c0.3,0.3,0.6,0.5,1.1,0.6c0.4,0,0.8-0.1,1.1-0.4l0.5-0.5v22.3c0,1.1,0.9,2.1,2.1,2.1h33.6c1.1,0,2.1-0.9,2.1-2.1V28l0.5,0.5
		c0.3,0.3,0.7,0.4,1.1,0.4c0.4,0,0.8-0.2,1.1-0.5c0.3-0.3,0.4-0.7,0.4-1.1C297.3,26.8,297.1,26.4,296.7,26.1z M291,25.4l0,23.9
		h-31.5V25.4L275.3,12L291,25.4z"/>
	<path class="st0" d="M266.8,35.1h-3.5c-0.3,0-0.6,0.3-0.6,0.6v3.5c0,0.3,0.3,0.6,0.6,0.6h3.5c0.3,0,0.6-0.3,0.6-0.6v-3.5
		C267.4,35.4,267.2,35.1,266.8,35.1z"/>
	<path class="st0" d="M266.8,41.4h-3.5c-0.3,0-0.6,0.3-0.6,0.6v3.5c0,0.3,0.3,0.6,0.6,0.6h3.5c0.3,0,0.6-0.3,0.6-0.6V42
		C267.4,41.7,267.2,41.4,266.8,41.4z"/>
	<path class="st0" d="M266.8,28.9h-3.5c-0.3,0-0.6,0.3-0.6,0.6V33c0,0.3,0.3,0.6,0.6,0.6h3.5c0.3,0,0.6-0.3,0.6-0.6v-3.5
		C267.4,29.1,267.2,28.9,266.8,28.9z"/>
	<path class="st0" d="M272.1,35.7v3.5c0,0.3,0.3,0.6,0.6,0.6h3.5c0.3,0,0.6-0.3,0.6-0.6v-3.5c0-0.3-0.3-0.6-0.6-0.6h-3.5
		C272.4,35.1,272.1,35.4,272.1,35.7z"/>
	<path class="st0" d="M282.2,46.1h3.5c0.3,0,0.6-0.3,0.6-0.6V42c0-0.3-0.3-0.6-0.6-0.6h-3.5c-0.3,0-0.6,0.3-0.6,0.6v3.5
		C281.6,45.8,281.8,46.1,282.2,46.1z"/>
	<path class="st0" d="M276.3,41.4h-3.5c-0.3,0-0.6,0.3-0.6,0.6v3.5c0,0.3,0.3,0.6,0.6,0.6h3.5c0.3,0,0.6-0.3,0.6-0.6V42
		C276.9,41.7,276.6,41.4,276.3,41.4z"/>
</g>
<g class="st2">
	<path class="st3" d="M247.1,26.1L226.7,8.8c-0.6-0.5-1.5-0.5-2,0l-20.4,17.3c-0.3,0.3-0.5,0.6-0.5,1.1c0,0.4,0.1,0.8,0.4,1.1
		c0.3,0.3,0.6,0.5,1.1,0.6c0.4,0,0.8-0.1,1.1-0.4l0.5-0.5v22.3c0,1.1,0.9,2.1,2.1,2.1h33.6c1.1,0,2.1-0.9,2.1-2.1V28l0.5,0.5
		c0.3,0.3,0.7,0.4,1.1,0.4c0.4,0,0.8-0.2,1.1-0.5c0.3-0.3,0.4-0.7,0.4-1.1C247.6,26.8,247.4,26.4,247.1,26.1z M241.4,25.4l0,23.9
		h-31.5V25.4L225.6,12L241.4,25.4z"/>
	<path class="st3" d="M217.2,35.1h-3.5c-0.3,0-0.6,0.3-0.6,0.6v3.5c0,0.3,0.3,0.6,0.6,0.6h3.5c0.3,0,0.6-0.3,0.6-0.6v-3.5
		C217.8,35.4,217.5,35.1,217.2,35.1z"/>
	<path class="st3" d="M217.2,41.4h-3.5c-0.3,0-0.6,0.3-0.6,0.6v3.5c0,0.3,0.3,0.6,0.6,0.6h3.5c0.3,0,0.6-0.3,0.6-0.6V42
		C217.8,41.7,217.5,41.4,217.2,41.4z"/>
	<path class="st3" d="M217.2,28.9h-3.5c-0.3,0-0.6,0.3-0.6,0.6V33c0,0.3,0.3,0.6,0.6,0.6h3.5c0.3,0,0.6-0.3,0.6-0.6v-3.5
		C217.8,29.1,217.5,28.9,217.2,28.9z"/>
	<path class="st3" d="M222.5,35.7v3.5c0,0.3,0.3,0.6,0.6,0.6h3.5c0.3,0,0.6-0.3,0.6-0.6v-3.5c0-0.3-0.3-0.6-0.6-0.6h-3.5
		C222.8,35.1,222.5,35.4,222.5,35.7z"/>
	<path class="st3" d="M232.5,46.1h3.5c0.3,0,0.6-0.3,0.6-0.6V42c0-0.3-0.3-0.6-0.6-0.6h-3.5c-0.3,0-0.6,0.3-0.6,0.6v3.5
		C231.9,45.8,232.2,46.1,232.5,46.1z"/>
	<path class="st3" d="M226.6,41.4h-3.5c-0.3,0-0.6,0.3-0.6,0.6v3.5c0,0.3,0.3,0.6,0.6,0.6h3.5c0.3,0,0.6-0.3,0.6-0.6V42
		C227.2,41.7,226.9,41.4,226.6,41.4z"/>
</g>
<g class="st2">
	<path class="st3" d="M424.3,8.4c-12.1,0-22,9.9-22,22c0,12.1,9.9,22,22,22c12.1,0,22-9.9,22-22C446.3,18.3,436.4,8.4,424.3,8.4z
		 M424.3,49.4c-10.5,0-19-8.5-19-19c0-10.5,8.5-19,19-19c10.5,0,19,8.5,19,19C443.3,40.9,434.8,49.4,424.3,49.4z"/>
	<path class="st3" d="M437.3,23.4c-0.3-0.4-0.7-0.6-1.1-0.7c-0.4-0.1-0.9,0-1.3,0.3l-15.7,11.1l-5.1-7.2c-0.3-0.4-0.7-0.6-1.1-0.7
		c-0.5-0.1-0.9,0-1.3,0.3c-0.4,0.3-0.6,0.7-0.7,1.1c-0.1,0.4,0,0.9,0.3,1.3l5.8,8.3l0,0l0.6,0.8l0.1-0.1c0.3,0.2,0.6,0.3,1,0.3
		c0.4,0,0.7-0.1,1-0.3l17.1-12.1C437.6,25.2,437.8,24.1,437.3,23.4L437.3,23.4z"/>
</g>
<g>
	<path class="st0" d="M473.9,8.4c-12.1,0-22,9.9-22,22c0,12.1,9.9,22,22,22c12.1,0,22-9.9,22-22C495.9,18.3,486.1,8.4,473.9,8.4z
		 M473.9,49.4c-10.5,0-19-8.5-19-19c0-10.5,8.5-19,19-19c10.5,0,19,8.5,19,19C492.9,40.9,484.4,49.4,473.9,49.4z"/>
	<path class="st0" d="M486.9,23.4c-0.3-0.4-0.7-0.6-1.1-0.7c-0.4-0.1-0.9,0-1.3,0.3l-15.7,11.1l-5.1-7.2c-0.3-0.4-0.7-0.6-1.1-0.7
		c-0.5-0.1-0.9,0-1.3,0.3c-0.4,0.3-0.6,0.7-0.7,1.1c-0.1,0.4,0,0.9,0.3,1.3l5.8,8.3l0,0l0.6,0.8l0.1-0.1c0.3,0.2,0.6,0.3,1,0.3
		c0.4,0,0.7-0.1,1-0.3l17.1-12.1C487.3,25.2,487.5,24.1,486.9,23.4L486.9,23.4z"/>
</g>
<g>
	<path class="st4" d="M536.2,13.4h-1.5V9.9c0-0.8-0.8-1.5-1.6-1.5c-0.8,0-1.6,0.7-1.6,1.5v3.5h-15.8V9.9c0-0.8-0.8-1.5-1.6-1.5
		c-0.8,0-1.6,0.7-1.6,1.5v3.5H511c-4.3,0-7.9,3.1-7.9,7v25.1c0,3.8,3.5,7,7.9,7h25.3c4.3,0,7.9-3.1,7.9-7V20.4
		C544.1,16.5,540.6,13.4,536.2,13.4z M514.1,22.2c0.9,0,1.6-0.7,1.6-1.5v-4.5h15.8v4.5c0,0.8,0.8,1.5,1.6,1.5c0.9,0,1.6-0.7,1.6-1.5
		v-4.5h1.5c2.5,0,4.6,1.9,4.6,4.1v25.1c0,2.2-2.1,4.1-4.6,4.1H511c-2.5,0-4.6-1.9-4.6-4.1V20.4c0-2.2,2.1-4.1,4.6-4.1h1.5v4.5
		C512.5,21.5,513.2,22.2,514.1,22.2z"/>
	<path class="st4" d="M531.8,26.4l0.6,0.6c0.5,0.5,0.5,1.4,0,1.9L517.3,44c-0.5,0.5-1.4,0.5-1.9,0l-0.6-0.6c-0.5-0.5-0.5-1.4,0-1.9
		l15.2-15.1C530.4,25.9,531.3,25.9,531.8,26.4z"/>
	<path class="st4" d="M532.5,43.4l-0.6,0.6c-0.5,0.5-1.4,0.5-1.9,0l-15.2-15.1c-0.5-0.5-0.5-1.4,0-1.9l0.6-0.6
		c0.5-0.5,1.4-0.5,1.9,0l15.2,15.1C533,42,533,42.8,532.5,43.4z"/>
</g>
<g>
	<path class="st5" d="M53,68.9c-0.6-0.7-1.4-1.1-2.3-1.1h-33L15.7,60c-0.2-0.8-0.9-1.3-1.7-1.3H9.4c-0.9,0-1.7,0.8-1.7,1.7
		c0,0.9,0.8,1.7,1.7,1.7h3.4L20.1,92c-2,0.9-3.3,2.9-3.3,5.1c0,3.1,2.5,5.6,5.7,5.6s5.7-2.5,5.7-5.6c0-0.8-0.2-1.5-0.5-2.2h7.5
		c-0.3,0.7-0.5,1.5-0.5,2.2c0,3.1,2.5,5.6,5.7,5.6c3.1,0,5.7-2.5,5.7-5.6s-2.5-5.6-5.7-5.6h-17l-0.6-2.3h21.6c1.3,0,2.4-0.7,2.8-1.9
		l6.1-15.8l0,0C53.8,70.7,53.6,69.7,53,68.9z M49.9,71.3l-5.6,14.6H22.1l-3.6-14.6H49.9z M20.3,97.1c0-1.2,1-2.2,2.3-2.2
		c1.2,0,2.3,1,2.3,2.2c0,1.2-1,2.2-2.3,2.2C21.3,99.4,20.3,98.4,20.3,97.1z M38.3,97.1c0-1.2,1-2.2,2.3-2.2c1.2,0,2.3,1,2.3,2.2
		c0,1.2-1,2.2-2.3,2.2C39.3,99.4,38.3,98.4,38.3,97.1z"/>
	<path class="st5" d="M24.4,77.2h17.8c0.9,0,1.7-0.8,1.7-1.7c0-0.9-0.8-1.7-1.7-1.7H24.4c-0.9,0-1.7,0.8-1.7,1.7
		C22.7,76.5,23.5,77.2,24.4,77.2z"/>
	<path class="st5" d="M40.6,79.8H26c-0.9,0-1.7,0.8-1.7,1.7c0,0.9,0.8,1.7,1.7,1.7h14.7c0.9,0,1.7-0.8,1.7-1.7
		C42.3,80.6,41.6,79.8,40.6,79.8z"/>
</g>
<g>
	<path class="st6" d="M68.4,82.8L68.4,82.8c0.1,0.1,0.1,0.1,0.2,0.2l10.5,11.6c0.7,0.8,1.7,1.2,2.7,1.2c0.8,0,1.6-0.3,2.3-0.8
		c0.1-0.1,0.3-0.2,0.4-0.4l10.4-11.5l0.1-0.1c0,0,0.1-0.1,0.1-0.1l0.1-0.1l0,0c0,0,0,0,0,0l0.2-0.3l0,0l0.2-0.2
		c1.8-2.4,2.7-5.3,2.7-8.3c0-8.4-7.4-15.2-16.4-15.2c-9,0-16.4,6.8-16.5,15.2c0,3,0.9,5.9,2.7,8.3L68.4,82.8z M81.8,92.3L81.8,92.3
		c-0.1,0-0.2,0-0.2-0.1L71.1,80.7c-1.5-2-2.3-4.3-2.3-6.7c0-6.5,5.8-11.8,12.9-11.8c7.1,0,12.9,5.3,12.9,11.8c0,2.4-0.8,4.7-2.3,6.7
		L82,92.2C81.9,92.2,81.8,92.3,81.8,92.3z"/>
	<path class="st6" d="M102.3,97.7l-3.9-6.4c-0.5-0.7-1.6-0.9-2.3-0.5c-0.4,0.2-0.7,0.6-0.8,1c-0.1,0.4,0,0.9,0.2,1.3l3.8,6.1
		c0,0,0,0.1,0,0.1c0,0-0.1,0-0.1,0l-34.6-0.2c0,0-0.1,0-0.1,0c0,0,0-0.1,0-0.1l3.7-5.9c0.4-0.8,0.1-1.7-0.7-2.2
		c-0.8-0.5-2-0.2-2.4,0.6l-3.8,6.1c-0.2,0.5-0.4,1-0.4,1.5c0,0.9,0.4,1.7,1,2.4c0.7,0.6,1.6,1,2.5,1l34.9,0.2l0.2,0
		c0.5,0,1.1-0.2,1.6-0.5c0.8-0.5,1.4-1.2,1.7-2.1C102.9,99.3,102.7,98.4,102.3,97.7z"/>
	<path class="st6" d="M81.8,67.5c-3.9,0-7.1,3-7.1,6.8c0,3.7,3.2,6.8,7.1,6.8c3.9,0,7.1-3,7.1-6.8C88.9,70.5,85.7,67.5,81.8,67.5z
		 M85.4,74.2c0,1.9-1.6,3.4-3.6,3.4c-1,0-1.9-0.4-2.5-1c-0.7-0.6-1-1.5-1-2.4c0-1.9,1.6-3.4,3.6-3.4C83.8,70.8,85.4,72.4,85.4,74.2z
		"/>
</g>
<g>
	<path class="st5" d="M119.5,82.8L119.5,82.8c0.1,0.1,0.1,0.1,0.2,0.2l10.5,11.6c0.7,0.8,1.7,1.2,2.7,1.2c0.8,0,1.6-0.3,2.3-0.8
		c0.1-0.1,0.3-0.2,0.4-0.4L146,83.1L146,83c0,0,0.1-0.1,0.1-0.1l0.1-0.1l0,0c0,0,0,0,0,0l0.2-0.3l0,0l0.2-0.2
		c1.8-2.4,2.7-5.3,2.7-8.3c0-8.4-7.4-15.2-16.4-15.2c-9,0-16.4,6.8-16.5,15.2c0,3,0.9,5.9,2.7,8.3L119.5,82.8z M132.9,92.3
		L132.9,92.3c-0.1,0-0.2,0-0.2-0.1l-10.4-11.5c-1.5-2-2.3-4.3-2.3-6.7c0-6.5,5.8-11.8,12.9-11.8c7.1,0,12.9,5.3,12.9,11.8
		c0,2.4-0.8,4.7-2.3,6.7l-10.3,11.5C133.1,92.2,133,92.3,132.9,92.3z"/>
	<path class="st5" d="M153.4,97.7l-3.9-6.4c-0.5-0.7-1.6-0.9-2.3-0.5c-0.4,0.2-0.7,0.6-0.8,1c-0.1,0.4,0,0.9,0.2,1.3l3.8,6.1
		c0,0,0,0.1,0,0.1c0,0-0.1,0-0.1,0l-34.6-0.2c0,0-0.1,0-0.1,0c0,0,0-0.1,0-0.1l3.7-5.9c0.4-0.8,0.1-1.7-0.7-2.2
		c-0.8-0.5-2-0.2-2.4,0.6l-3.8,6.1c-0.2,0.5-0.4,1-0.4,1.5c0,0.9,0.4,1.7,1,2.4c0.7,0.6,1.6,1,2.5,1l34.9,0.2l0.2,0
		c0.5,0,1.1-0.2,1.6-0.5c0.8-0.5,1.4-1.2,1.7-2.1C154,99.3,153.9,98.4,153.4,97.7z"/>
	<path class="st5" d="M132.9,67.5c-3.9,0-7.1,3-7.1,6.8c0,3.7,3.2,6.8,7.1,6.8c3.9,0,7.1-3,7.1-6.8C140,70.5,136.8,67.5,132.9,67.5z
		 M136.5,74.2c0,1.9-1.6,3.4-3.6,3.4c-1,0-1.9-0.4-2.5-1c-0.7-0.6-1-1.5-1-2.4c0-1.9,1.6-3.4,3.6-3.4
		C134.9,70.8,136.5,72.4,136.5,74.2z"/>
</g>
<path class="st6" d="M204.3,60.4c-1.1-1.1-2.4-1.7-4-1.7c-2.3,0-4.8,1.3-7.3,3.8l-5.8,5.8l-18.3-3.5c-1-0.2-1.9,0.1-2.6,0.8
	l-3.5,3.6c-0.7,0.7-1,1.7-0.8,2.7c0.2,1,0.9,1.7,1.8,2.1l13.7,5.1l-3.8,4.3l-6.7-1.3c-1-0.2-1.9,0.1-2.6,0.8l-1.8,1.8
	c-0.6,0.6-0.9,1.5-0.8,2.3c0.1,0.9,0.5,1.6,1.3,2.1l7.9,5.4l4.3,7c0.5,0.8,1.3,1.3,2.1,1.4c0.9,0.1,1.8-0.2,2.4-0.9l1.8-1.8
	c0.6-0.6,0.9-1.5,0.8-2.4l-0.9-6.4l4-3.8l4.8,13.4c0.3,0.9,1.1,1.6,2.1,1.9c0.2,0,0.4,0.1,0.6,0.1c0.8,0,1.5-0.3,2.1-0.9l3.5-3.6
	c0.7-0.7,0.9-1.6,0.8-2.5l-3.1-18.1l5.9-5.9C208.6,65.4,205.1,61.2,204.3,60.4z M194,75.5c-0.7,0.7-1,1.6-0.8,2.5l3.1,18.1l-2.9,3
	l-4.8-13.4c-0.3-0.9-1.1-1.6-2.1-1.8c-1-0.2-2,0-2.7,0.7l-4.6,4.4c-0.7,0.6-1,1.6-0.9,2.5l0.9,6.4l-1.2,1.3l-4.1-6.6
	c-0.2-0.3-0.5-0.6-0.8-0.9l-7.5-5.1l1.2-1.3l6.7,1.3c1,0.2,2-0.2,2.7-0.9l4.4-4.9c0.6-0.7,0.9-1.7,0.7-2.6c-0.2-0.9-0.9-1.7-1.8-2
	L165.8,71l2.9-3l18.2,3.5c0.9,0.2,1.9-0.1,2.6-0.8l5.9-5.9c1.8-1.8,3.5-2.8,4.9-2.8c0.6,0,1.2,0.2,1.6,0.7c1.4,1.5,0.7,4-2,6.7
	L194,75.5z"/>
<path class="st5" d="M255.5,60.4c-1.1-1.1-2.4-1.7-4-1.7c-2.3,0-4.8,1.3-7.3,3.8l-5.8,5.8l-18.3-3.5c-1-0.2-1.9,0.1-2.6,0.8
	l-3.5,3.6c-0.7,0.7-1,1.7-0.8,2.7c0.2,1,0.9,1.7,1.8,2.1l13.7,5.1l-3.8,4.3l-6.7-1.3c-1-0.2-1.9,0.1-2.6,0.8l-1.8,1.8
	c-0.6,0.6-0.9,1.5-0.8,2.3c0.1,0.9,0.5,1.6,1.3,2.1l7.9,5.4l4.3,7c0.5,0.8,1.3,1.3,2.1,1.4c0.9,0.1,1.8-0.2,2.4-0.9l1.8-1.8
	c0.6-0.6,0.9-1.5,0.8-2.4l-0.9-6.4l4-3.8l4.8,13.4c0.3,0.9,1.1,1.6,2.1,1.9c0.2,0,0.4,0.1,0.6,0.1c0.8,0,1.5-0.3,2.1-0.9l3.5-3.6
	c0.7-0.7,0.9-1.6,0.8-2.5l-3.1-18.1l5.9-5.9C259.7,65.4,256.2,61.2,255.5,60.4z M245.1,75.5c-0.7,0.7-1,1.6-0.8,2.5l3.1,18.1l-2.9,3
	l-4.8-13.4c-0.3-0.9-1.1-1.6-2.1-1.8c-1-0.2-2,0-2.7,0.7l-4.6,4.4c-0.7,0.6-1,1.6-0.9,2.5l0.9,6.4l-1.2,1.3l-4.1-6.6
	c-0.2-0.3-0.5-0.6-0.8-0.9l-7.5-5.1l1.2-1.3l6.7,1.3c1,0.2,2-0.2,2.7-0.9l4.4-4.9c0.6-0.7,0.9-1.7,0.7-2.6c-0.2-0.9-0.9-1.7-1.8-2
	L216.9,71l2.9-3l18.2,3.5c0.9,0.2,1.9-0.1,2.6-0.8l5.9-5.9c1.8-1.8,3.5-2.8,4.9-2.8c0.6,0,1.2,0.2,1.6,0.7c1.4,1.5,0.7,4-2,6.7
	L245.1,75.5z"/>
<g>
	<path class="st6" d="M286.3,58.8c-12.1,0-22,9.9-22,22s9.9,22,22,22c5.9,0,11.4-2.3,15.6-6.5c4.2-4.2,6.4-9.7,6.4-15.5
		C308.3,68.6,298.4,58.8,286.3,58.8z M286.3,99.2c-10.2,0-18.5-8.3-18.5-18.5s8.3-18.5,18.5-18.5c10.2,0,18.5,8.3,18.5,18.5
		S296.4,99.2,286.3,99.2z"/>
	<path class="st6" d="M288.3,79.5v-6.3c1.4,0.7,1.7,2,1.7,2.2c0.2,0.9,1.1,1.6,2,1.4c1-0.2,1.6-1.1,1.5-2c-0.3-1.6-1.7-4.5-5.2-5.3
		v-1.3c0-1-0.8-1.8-1.8-1.8c-1,0-1.8,0.8-1.8,1.8v1.2c-1.9,0.4-3,1.3-3.7,2c-1.4,1.6-1.7,3.8-1.6,5.3c0.2,1.8,1.7,4.3,5.2,5.6v6
		c-1.2-0.9-2-2.1-2.2-2.7c-0.1-0.4-0.5-0.8-0.9-1c-0.4-0.2-0.9-0.2-1.3-0.1c-0.4,0.1-0.8,0.5-1,0.9c-0.2,0.4-0.2,0.9-0.1,1.3
		c0.6,1.7,2.6,4.5,5.5,5.5v1.5c0,1,0.8,1.8,1.8,1.8c1,0,1.8-0.8,1.8-1.8v-1.2c1.6-0.2,3.1-0.8,4.2-1.8c1.2-1.1,1.9-2.7,1.9-4.4
		C294.4,83.9,293.3,80.8,288.3,79.5z M290.9,86.3c0,0.7-0.3,1.3-0.8,1.8c-0.5,0.4-1.1,0.7-1.8,0.9v-5.8
		C290.6,84,290.9,85.2,290.9,86.3z M283.8,73.7c0.2-0.3,0.6-0.5,1-0.7v5.3c-1.2-0.7-1.6-1.7-1.7-2.1C283,75.7,283.1,74.5,283.8,73.7
		z"/>
</g>
<g>
	<path class="st5" d="M337.4,58.8c-12.1,0-22,9.9-22,22s9.9,22,22,22c5.9,0,11.4-2.3,15.6-6.5c4.2-4.2,6.4-9.7,6.4-15.5
		C359.4,68.6,349.5,58.8,337.4,58.8z M337.4,99.2c-10.2,0-18.5-8.3-18.5-18.5s8.3-18.5,18.5-18.5s18.5,8.3,18.5,18.5
		S347.6,99.2,337.4,99.2z"/>
	<path class="st5" d="M339.4,79.5v-6.3c1.4,0.7,1.7,2,1.7,2.2c0.2,0.9,1.1,1.6,2,1.4c1-0.2,1.6-1.1,1.5-2c-0.3-1.6-1.7-4.5-5.2-5.3
		v-1.3c0-1-0.8-1.8-1.8-1.8c-1,0-1.8,0.8-1.8,1.8v1.2c-1.9,0.4-3,1.3-3.7,2c-1.4,1.6-1.7,3.8-1.6,5.3c0.2,1.8,1.7,4.3,5.2,5.6v6
		c-1.2-0.9-2-2.1-2.2-2.7c-0.1-0.4-0.5-0.8-0.9-1c-0.4-0.2-0.9-0.2-1.3-0.1c-0.4,0.1-0.8,0.5-1,0.9c-0.2,0.4-0.2,0.9-0.1,1.3
		c0.6,1.7,2.6,4.5,5.5,5.5v1.5c0,1,0.8,1.8,1.8,1.8c1,0,1.8-0.8,1.8-1.8v-1.2c1.6-0.2,3.1-0.8,4.2-1.8c1.2-1.1,1.9-2.7,1.9-4.4
		C345.5,83.9,344.5,80.8,339.4,79.5z M342,86.3c0,0.7-0.3,1.3-0.8,1.8c-0.5,0.4-1.1,0.7-1.8,0.9v-5.8C341.7,84,342,85.2,342,86.3z
		 M334.9,73.7c0.2-0.3,0.6-0.5,1-0.7v5.3c-1.2-0.7-1.6-1.7-1.7-2.1C334.1,75.7,334.2,74.5,334.9,73.7z"/>
</g>
<g>
	<path class="st6" d="M398.3,88.2L398.3,88.2c1.6-2.2,2.5-4.8,2.5-7.4c0-3.7-1.7-7.2-4.5-9.5c-2.9-2.3-6.7-3.2-10.4-2.5
		c-4.6,1-8.4,4.7-9.4,9.4c-0.8,3.7,0.1,7.5,2.5,10.4c2.3,2.9,5.8,4.5,9.5,4.5c2.6,0,5.2-0.9,7.4-2.4l0,0l9.6,9.6
		c0.3,0.3,0.7,0.5,1.2,0.5c0.4,0,0.9-0.2,1.2-0.5c0.3-0.3,0.5-0.8,0.5-1.2c0-0.4-0.2-0.9-0.5-1.2L398.3,88.2z M397.4,80.8
		c0,4.9-4,8.9-8.9,8.9c-4.9,0-8.9-4-8.9-8.9c0-4.9,4-8.9,8.9-8.9C393.4,71.9,397.4,75.8,397.4,80.8z"/>
	<path class="st6" d="M406.8,58.8h-36.6c-2,0-3.7,1.6-3.7,3.7v36.6c0,2,1.7,3.7,3.7,3.7h16.3c1.1,0,1.9-0.9,1.9-1.9
		c0-1.1-0.9-1.9-1.9-1.9h-16.2V62.6h36.3v16.2c0,1.1,0.9,1.9,1.9,1.9c1.1,0,1.9-0.9,1.9-1.9V62.4C410.5,60.4,408.9,58.8,406.8,58.8z
		"/>
</g>
<g>
	<path class="st5" d="M449.4,88.2L449.4,88.2c1.6-2.2,2.5-4.8,2.5-7.4c0-3.7-1.7-7.2-4.5-9.5c-2.9-2.3-6.7-3.2-10.4-2.5
		c-4.6,1-8.4,4.7-9.4,9.4c-0.8,3.7,0.1,7.5,2.5,10.4c2.3,2.9,5.8,4.5,9.5,4.5c2.6,0,5.2-0.9,7.4-2.4l0,0l9.6,9.6
		c0.3,0.3,0.7,0.5,1.2,0.5c0.4,0,0.9-0.2,1.2-0.5c0.3-0.3,0.5-0.8,0.5-1.2c0-0.4-0.2-0.9-0.5-1.2L449.4,88.2z M448.5,80.8
		c0,4.9-4,8.9-8.9,8.9c-4.9,0-8.9-4-8.9-8.9c0-4.9,4-8.9,8.9-8.9C444.5,71.9,448.5,75.8,448.5,80.8z"/>
	<path class="st5" d="M457.9,58.8h-36.6c-2,0-3.7,1.6-3.7,3.7v36.6c0,2,1.7,3.7,3.7,3.7h16.3c1.1,0,1.9-0.9,1.9-1.9
		c0-1.1-0.9-1.9-1.9-1.9h-16.2V62.6h36.3v16.2c0,1.1,0.9,1.9,1.9,1.9c1.1,0,1.9-0.9,1.9-1.9V62.4C461.6,60.4,460,58.8,457.9,58.8z"
		/>
</g>
<g>
	<path class="st5" d="M84.6,123.9h-3.1V134h1.9v-3h1.2c1.7,0,3.1-1.4,3.1-3.2v-0.7C87.7,125.3,86.3,123.9,84.6,123.9z M85.8,127.8
		c0,0.7-0.5,1.2-1.2,1.2h-1.2v-3.2h1.2c0.7,0,1.2,0.6,1.2,1.2V127.8z"/>
	<path class="st5" d="M103.6,119.7l-8.1-8.4c-0.4-0.4-1-0.7-1.6-0.7H81c-1.7,0-3.1,1.4-3.1,3.2v23.6c0,1.8,1.4,3.2,3.1,3.2h20.1
		c1.7,0,3.1-1.4,3.1-3.2v-16.2C104.2,120.7,104,120.1,103.6,119.7z M94.9,120.2l0-6.7l6.5,6.7H94.9z M94.6,122.1h7.7v15.3
		c0,0.7-0.5,1.2-1.2,1.2H81c-0.7,0-1.2-0.6-1.2-1.2v-23.6c0-0.7,0.5-1.2,1.2-1.2h12v7.9C93,121.4,93.7,122.1,94.6,122.1z"/>
	<path class="st5" d="M88,123.9V134h2.4c2.1,0,3.8-1.8,3.8-3.9v-2.2c0-2.2-1.7-3.9-3.8-3.9H88z M92.3,127.8v2.2c0,1.1-0.9,2-1.9,2
		h-0.5v-6.2h0.5C91.4,125.8,92.3,126.7,92.3,127.8z"/>
	<polygon class="st5" points="97,130.3 99.9,130.3 99.9,128.3 97,128.3 97,125.8 100.6,125.8 100.6,123.9 95.1,123.9 95.1,134 
		97,134 	"/>
</g>
<g>
	<path class="st5" d="M33.1,124.4h-6.2c-0.7,0-1.3,0.6-1.3,1.3c0,0.7,0.6,1.3,1.3,1.3h6.2c0.7,0,1.3-0.6,1.3-1.3
		C34.4,124.9,33.8,124.4,33.1,124.4z"/>
	<path class="st5" d="M33.1,129.4h-6.2c-0.7,0-1.2,0.6-1.2,1.2c0,0.7,0.6,1.3,1.2,1.3h6.2c0.7,0,1.2-0.6,1.2-1.2
		C34.4,129.9,33.8,129.4,33.1,129.4z"/>
	<path class="st5" d="M33.1,119.4h-6.2c-0.7,0-1.3,0.6-1.3,1.2c0,0.7,0.6,1.3,1.3,1.3h6.2c0.7,0,1.3-0.6,1.3-1.3
		C34.4,119.9,33.8,119.4,33.1,119.4z"/>
	<path class="st5" d="M38.1,114.1c-0.1-2-1.8-3.5-3.7-3.5H16.9l-0.2,0c-2,0.1-3.5,1.8-3.5,3.7v3.8h-2.5c-1.4,0-2.5,1.1-2.5,2.5v10
		c0,1.4,1.1,2.5,2.5,2.5h2.5v3.8l0,0.2c0.1,2,1.8,3.5,3.7,3.5h17.5l0.2,0c2-0.1,3.5-1.8,3.5-3.7v-22.5L38.1,114.1z M13.3,130.6h-1.7
		l3.2-4.6l-3-4.3h1.7l2.2,3.2l2.2-3.2h1.7l-3,4.3l3.2,4.6H18l-2.4-3.5L13.3,130.6z M35.6,136.9l0,0.1c-0.1,0.6-0.6,1.1-1.2,1.1H16.9
		l-0.1,0c-0.6-0.1-1.1-0.6-1.1-1.2v-3.8h5c1.4,0,2.5-1.1,2.5-2.5v-10c0-1.4-1.1-2.5-2.5-2.5h-5v-3.8l0-0.1c0.1-0.6,0.6-1.1,1.2-1.1
		h17.5l0.1,0c0.6,0.1,1.1,0.6,1.1,1.2V136.9z"/>
</g>
<path class="st5" d="M73.2,122.1c0-3-2.4-5.4-5.4-5.4v-3.5c0-1.5-1.2-2.6-2.6-2.6H51.3c-1.4,0-2.6,1.2-2.6,2.6v3.5h-0.1
	c-3,0-5.4,2.4-5.4,5.4v10.7h5.3v5.1c0,1.5,1.1,2.6,2.6,2.6h14.2c1.4,0,2.6-1.2,2.6-2.6v-5.1h5.4V122.1z M51.1,113.2
	c0-0.1,0.1-0.2,0.2-0.2h13.9c0.1,0,0.2,0.1,0.2,0.2v3.5H51.1V113.2z M65.3,138c0,0.1-0.1,0.2-0.2,0.2H51c-0.1,0-0.2-0.1-0.2-0.2
	v-7.6h14.5L65.3,138L65.3,138z M70.8,130.4h-3v-2.5H48.4v2.5h-2.9v-8.2c0-1.6,1.3-3,3-3h19.2c1.7,0,3,1.3,3,3L70.8,130.4L70.8,130.4
	z M58,121.3h-8.2c-0.7,0-1.2,0.6-1.2,1.2c0,0.7,0.5,1.2,1.2,1.2H58c0.7,0,1.2-0.6,1.2-1.2C59.2,121.9,58.6,121.3,58,121.3z"/>
<g>
	<path class="st0" d="M246.6,122.9l0.2,0l0,0L246.6,122.9C246.6,122.8,246.6,122.9,246.6,122.9z"/>
	<path class="st5" d="M255.7,133.9h-18c-1.1,0-2-0.9-2-2v-18c0-1.1,0.9-2,2-2h18c1.1,0,2,0.9,2,2v18
		C257.7,133,256.8,133.9,255.7,133.9z"/>
	<path class="st7" d="M243.2,125.8l-3.6-5.1c-0.2-0.4-0.7-0.4-1.1-0.2c-0.4,0.2-0.4,0.7-0.2,1.1l4,5.7l0,0c0.2,0.2,0.4,0.3,0.6,0.3
		c0.2,0,0.3,0,0.4-0.1l11.4-8c0.4-0.2,0.4-0.7,0.2-1.1c-0.1-0.2-0.3-0.3-0.5-0.3c-0.2,0-0.4,0-0.6,0.1L243.2,125.8z"/>
</g>
<path class="st5" d="M167.4,134.8l-9.9-9.9l9.9-9.9c0.7-0.7,0.7-1.9,0-2.6c-0.7-0.7-1.9-0.7-2.6,0l-9.9,9.9l-9.9-9.9
	c-0.7-0.7-1.9-0.7-2.6,0c-0.3,0.3-0.5,0.8-0.5,1.3c0,0.5,0.2,0.9,0.5,1.3l9.9,9.9l-9.9,9.9c-0.3,0.3-0.5,0.8-0.5,1.3
	c0,0.5,0.2,0.9,0.5,1.3c0.3,0.3,0.8,0.5,1.3,0.5c0.5,0,0.9-0.2,1.3-0.5l9.9-9.9l9.9,9.9c0.7,0.7,1.9,0.7,2.6,0
	c0.3-0.3,0.5-0.8,0.5-1.3C167.9,135.6,167.7,135.1,167.4,134.8z"/>
<path class="st6" d="M135.1,134.8l-9.9-9.9l9.9-9.9c0.7-0.7,0.7-1.9,0-2.6c-0.7-0.7-1.9-0.7-2.6,0l-9.9,9.9l-9.9-9.9
	c-0.7-0.7-1.9-0.7-2.6,0c-0.3,0.3-0.5,0.8-0.5,1.3c0,0.5,0.2,0.9,0.5,1.3l9.9,9.9l-9.9,9.9c-0.3,0.3-0.5,0.8-0.5,1.3
	c0,0.5,0.2,0.9,0.5,1.3c0.3,0.3,0.8,0.5,1.3,0.5c0.5,0,0.9-0.2,1.3-0.5l9.9-9.9l9.9,9.9c0.7,0.7,1.9,0.7,2.6,0
	c0.3-0.3,0.5-0.8,0.5-1.3C135.7,135.6,135.5,135.1,135.1,134.8z"/>
<path class="st8" d="M544.8,79.9c0-10.1-8-18.1-18-18.1s-18,8-18,18.1c0,9.1,6.6,16.5,15.2,17.9V85.2h-4.6v-5.2h4.6v-4
	c0-4.6,2.6-7,6.8-7c2,0,4,0.4,4,0.4v4.4h-2.2c-2.2,0-3,1.4-3,2.8v3.4h5l-0.8,5.2h-4.2v12.7C538.2,96.4,544.8,89,544.8,79.9"/>
<g>
	<path class="st9" d="M475.3,79.7c0-1.2,0.2-2.2,0.6-3.4l-6.2-4.6c-2.6,5-2.6,10.8,0,15.8l6.2-4.6C475.5,81.9,475.3,80.9,475.3,79.7
		"/>
	<path class="st10" d="M486.2,69.1c2.4,0,4.8,0.8,6.8,2.4l5.4-5.2c-7.8-6.6-19.6-5.8-26.2,2c-1,1-1.8,2.2-2.4,3.6l6.2,4.6
		C477.3,71.9,481.5,69.1,486.2,69.1"/>
	<path class="st11" d="M486.2,90.3c-4.6,0-8.8-2.8-10.4-7.2l-6.2,4.6c3.2,6.2,9.6,10,16.4,10c4.4,0,8.6-1.6,12-4.4l-5.8-4.4
		C490.4,89.9,488.4,90.5,486.2,90.3"/>
	<path class="st12" d="M503.8,79.7c0-1-0.2-2.2-0.4-3.2h-17.2v7h9.8c-0.4,2.2-1.8,4.2-3.8,5.4l5.8,4.4C502,89.7,504,84.9,503.8,79.7
		"/>
</g>
<g>
	<path class="st5" d="M193,132.6c-1.4,1.3-3.2,2.1-5.3,2.5c-1.9,0.3-3.9,0-5.8-0.8c-1.8-0.8-3.4-2.1-4.3-3.8
		c-1.1-1.6-1.6-3.6-1.6-5.6s0.5-3.9,1.6-5.6c1.1-1.6,2.6-2.9,4.3-3.8c1.8-0.8,3.9-1.1,5.8-0.8c1.9,0.3,3.7,1.1,5.3,2.5
		c0.6,0.5,1.4,0.5,1.9-0.2c0.3-0.3,0.3-0.7,0.3-1c0-0.3-0.2-0.8-0.5-1c-1.9-1.6-4.2-2.8-6.8-3.1c-2.6-0.3-5,0-7.4,1
		c-2.3,1-4.2,2.8-5.6,4.9c-1.4,2.1-2.1,4.6-2.1,7s0.8,4.9,2.1,7c1.4,2.1,3.4,3.8,5.6,4.7c1.8,0.8,3.5,1.1,5.3,1.1
		c0.6,0,1.3,0,2.1-0.2c2.4-0.3,4.8-1.5,6.8-3.1c0.3-0.3,0.5-0.7,0.5-1s-0.2-0.8-0.3-1C194.6,132.3,193.6,132.1,193,132.6z"/>
	<path class="st5" d="M198.9,126c0-0.5-0.2-0.9-0.5-1.1c0,0,0,0,0,0l-3.2-3.1c-0.5-0.7-1.4-0.7-2.1,0c-0.3,0.3-0.5,0.7-0.5,1
		c0,0.3,0.2,0.8,0.5,1.1l0.6,0.7h-6.9c-0.3,0-0.8,0.2-1,0.5c-0.3,0.3-0.5,0.7-0.5,1c0,0.8,0.6,1.5,1.4,1.5h10.5c0.1,0,0.2,0,0.3,0
		c0,0,0,0,0,0c0,0,0,0,0,0c0.1,0,0.2,0,0.3-0.1C198.4,127.3,198.9,126.7,198.9,126z"/>
</g>
<g>
	<path class="st13" d="M224.2,132.6c-1.4,1.3-3.2,2.1-5.3,2.5c-1.9,0.3-3.9,0-5.8-0.8c-1.8-0.8-3.4-2.1-4.3-3.8
		c-1.1-1.6-1.6-3.6-1.6-5.6s0.5-3.9,1.6-5.6c1.1-1.6,2.6-2.9,4.3-3.8c1.8-0.8,3.9-1.1,5.8-0.8c1.9,0.3,3.7,1.1,5.3,2.5
		c0.6,0.5,1.4,0.5,1.9-0.2c0.3-0.3,0.3-0.7,0.3-1c0-0.3-0.2-0.8-0.5-1c-1.9-1.6-4.2-2.8-6.8-3.1c-2.6-0.3-5,0-7.4,1
		c-2.3,1-4.2,2.8-5.6,4.9c-1.4,2.1-2.1,4.6-2.1,7s0.8,4.9,2.1,7c1.4,2.1,3.4,3.8,5.6,4.7c1.8,0.8,3.5,1.1,5.3,1.1
		c0.6,0,1.3,0,2.1-0.2c2.4-0.3,4.8-1.5,6.8-3.1c0.3-0.3,0.5-0.7,0.5-1s-0.2-0.8-0.3-1C225.8,132.3,224.8,132.1,224.2,132.6z"/>
	<path class="st13" d="M230,126c0-0.5-0.2-0.9-0.5-1.1c0,0,0,0,0,0l-3.2-3.1c-0.5-0.7-1.4-0.7-2.1,0c-0.3,0.3-0.5,0.7-0.5,1
		c0,0.3,0.2,0.8,0.5,1.1l0.6,0.7h-6.9c-0.3,0-0.8,0.2-1,0.5c-0.3,0.3-0.5,0.7-0.5,1c0,0.8,0.6,1.5,1.4,1.5h10.5c0.1,0,0.2,0,0.3,0
		c0,0,0,0,0,0c0,0,0,0,0,0c0.1,0,0.2,0,0.3-0.1C229.6,127.3,230,126.7,230,126z"/>
</g>
<g>
	<path class="st13" d="M282.4,141.9c-0.4,0-0.7-0.1-1.1-0.2l-4.8-1.5l-0.2-0.1c-0.7-0.4-1.1-1.2-1.1-2l0-13.9c0-0.4-0.2-0.8-0.5-1.1
		l-8.1-6.9c-0.8-0.6-1.1-1.7-0.7-2.8c0.4-0.9,1.3-1.5,2.3-1.5h24.4c1,0,2,0.6,2.3,1.5c0.4,1,0.1,2.1-0.8,2.8l-9.1,6.9
		c-0.3,0.3-0.5,0.7-0.5,1.1l0,15.4c0,0.9-0.5,1.7-1.3,2.1C283.2,141.8,282.8,141.9,282.4,141.9z M278.7,137.7l2.3,0.8
		c0.5,0.1,0.9-0.2,0.9-0.7l0-14.6c0-0.7,0.4-1.4,0.9-1.9l7.2-5.3c0.5-0.4,0.2-1.3-0.5-1.3h-18.1c-0.7,0-1,0.8-0.5,1.3l6.2,5.3
		c0.5,0.4,0.9,1.1,0.9,1.8l0,13.8C278.1,137.3,278.3,137.6,278.7,137.7z M275.4,123.5C275.4,123.5,275.4,123.6,275.4,123.5
		L275.4,123.5z M284.7,123.5L284.7,123.5C284.7,123.5,284.7,123.5,284.7,123.5z M292.6,113.9C292.6,113.9,292.6,113.9,292.6,113.9
		L292.6,113.9z M268.6,113.9L268.6,113.9C268.6,113.9,268.6,113.9,268.6,113.9z"/>
	<g>
		<path class="st13" d="M287.4,126.9h6.3c0.9,0,1.7-0.7,1.7-1.7c0-0.9-0.8-1.7-1.7-1.7h-6.3c-0.9,0-1.7,0.7-1.7,1.7
			C285.7,126.2,286.5,126.9,287.4,126.9z"/>
		<path class="st13" d="M293.7,128.8h-6.3c-0.9,0-1.7,0.7-1.7,1.7c0,0.9,0.8,1.7,1.7,1.7h6.3c0.9,0,1.7-0.7,1.7-1.7
			C295.4,129.5,294.6,128.8,293.7,128.8z"/>
		<path class="st13" d="M293.7,133.7h-6.3c-0.9,0-1.7,0.7-1.7,1.7c0,0.9,0.8,1.7,1.7,1.7h6.3c0.9,0,1.7-0.7,1.7-1.7
			C295.4,134.5,294.6,133.7,293.7,133.7z"/>
	</g>
</g>
<g>
	<path class="st5" d="M318.7,141.9c-0.4,0-0.7-0.1-1.1-0.2l-4.8-1.5l-0.2-0.1c-0.7-0.4-1.1-1.2-1.1-2l0-13.9c0-0.4-0.2-0.8-0.5-1.1
		l-8.1-6.9c-0.8-0.6-1.1-1.7-0.7-2.8c0.4-0.9,1.3-1.5,2.3-1.5h24.4c1,0,2,0.6,2.3,1.5c0.4,1,0.1,2.1-0.8,2.8l-9.1,6.9
		c-0.3,0.3-0.5,0.7-0.5,1.1l0,15.4c0,0.9-0.5,1.7-1.3,2.1C319.5,141.8,319.1,141.9,318.7,141.9z M314.9,137.7l2.3,0.8
		c0.5,0.1,0.9-0.2,0.9-0.7l0-14.6c0-0.7,0.4-1.4,0.9-1.9l7.2-5.3c0.5-0.4,0.2-1.3-0.5-1.3h-18.1c-0.7,0-1,0.8-0.5,1.3l6.2,5.3
		c0.5,0.4,0.9,1.1,0.9,1.8l0,13.8C314.4,137.3,314.6,137.6,314.9,137.7z M311.7,123.5C311.7,123.5,311.7,123.6,311.7,123.5
		L311.7,123.5z M321,123.5L321,123.5C320.9,123.5,321,123.5,321,123.5z M328.9,113.9C328.8,113.9,328.8,113.9,328.9,113.9
		L328.9,113.9z M304.8,113.9L304.8,113.9C304.8,113.9,304.8,113.9,304.8,113.9z"/>
	<g>
		<path class="st5" d="M323.7,126.9h6.3c0.9,0,1.7-0.7,1.7-1.7c0-0.9-0.8-1.7-1.7-1.7h-6.3c-0.9,0-1.7,0.7-1.7,1.7
			C322,126.2,322.7,126.9,323.7,126.9z"/>
		<path class="st5" d="M329.9,128.8h-6.3c-0.9,0-1.7,0.7-1.7,1.7c0,0.9,0.8,1.7,1.7,1.7h6.3c0.9,0,1.7-0.7,1.7-1.7
			C331.6,129.5,330.9,128.8,329.9,128.8z"/>
		<path class="st5" d="M329.9,133.7h-6.3c-0.9,0-1.7,0.7-1.7,1.7c0,0.9,0.8,1.7,1.7,1.7h6.3c0.9,0,1.7-0.7,1.7-1.7
			C331.6,134.5,330.9,133.7,329.9,133.7z"/>
	</g>
</g>
<g>
	<path class="st14" d="M354.4,109.9c-8.3,0-15,6.7-15,15s6.7,15,15,15c8.3,0,15-6.7,15-15S362.7,109.9,354.4,109.9z M366.5,124.9
		c0,6.7-5.4,12.1-12.1,12.1c-6.7,0-12.1-5.4-12.1-12.1s5.4-12.1,12.1-12.1C361.1,112.8,366.5,118.2,366.5,124.9z"/>
	<path class="st14" d="M361.3,129.1c-0.1-2.7-1.8-5.2-4.2-6.3c0.8-0.8,1.2-1.8,1.2-2.9c0-2.3-1.9-4.2-4.2-4.2
		c-2.3,0-4.2,1.9-4.2,4.2c0,1.1,0.4,2.1,1.2,2.9c-2.4,1.1-4,3.6-4.2,6.3l0,0.1c0,0.1,0,0.2,0,0.3c0,0.5,0.1,1,0.2,1.5l0.1,0.3H361
		l0.1-0.3c0.1-0.5,0.2-1,0.2-1.5c0-0.1,0-0.2,0-0.2L361.3,129.1z M354.1,121.5c-0.9,0-1.6-0.7-1.6-1.6c0-0.9,0.7-1.6,1.6-1.6
		c0.9,0,1.6,0.7,1.6,1.6C355.7,120.8,355,121.5,354.1,121.5z M349.6,128.7c0.3-2.3,2.3-4,4.5-4c2.3,0,4.2,1.7,4.5,4H349.6z"/>
</g>
<g>
	<path class="st14" d="M387.1,132.5h-5.6c-0.6,0-1.1,0.5-1.1,1.1c0,0.6,0.5,1.1,1.1,1.1h5.6c0.6,0,1.1-0.5,1.1-1.1
		C388.3,133,387.8,132.5,387.1,132.5z"/>
	<path class="st14" d="M394.8,127.2h-13.3c-0.6,0-1.1,0.5-1.1,1.1c0,0.6,0.5,1.1,1.1,1.1h13.3c0.6,0,1.1-0.5,1.1-1.1
		C395.9,127.7,395.4,127.2,394.8,127.2z"/>
	<path class="st14" d="M394.8,121.9h-13.3c-0.6,0-1.1,0.5-1.1,1.1c0,0.6,0.5,1.1,1.1,1.1h13.3c0.6,0,1.1-0.5,1.1-1.1
		C395.9,122.4,395.4,121.9,394.8,121.9z"/>
	<path class="st14" d="M399.2,114.4h-3.4c-0.2-1.3-1.3-2.2-2.8-2.4c-0.3-1.3-1.5-2.2-3.1-2.2h-3.4c-1.6,0-2.7,0.9-3,2.2
		c-1.5,0.1-2.6,1-2.8,2.4h-3.4c-1.7,0-3.1,1.3-3.1,2.9v19.6c0,1.6,1.4,2.9,3.1,2.9h22c1.7,0,3.1-1.3,3.1-2.9v-19.6
		C402.2,115.7,400.9,114.4,399.2,114.4z M399.6,117.3v19.6c0,0.2-0.2,0.4-0.5,0.4h-22c-0.3,0-0.5-0.2-0.5-0.4v-19.6
		c0-0.2,0.2-0.4,0.5-0.4h3.4c0,1.6,1.3,2.8,3.1,2.8h8.9c1.8,0,3.1-1.2,3.1-2.8h3.4C399.4,116.9,399.6,117.1,399.6,117.3z
		 M391.7,114.5h0.9c0.5,0,0.5,0.1,0.5,0.2v2.1c0,0.3-0.3,0.3-0.6,0.3h-8.9c-0.5,0-0.5-0.2-0.5-0.3l0-2.1c0-0.1,0-0.2,0.5-0.2h0.9
		c0.7,0,1.3-0.6,1.3-1.2v-0.6c0-0.1,0-0.3,0.5-0.3h3.4c0.3,0,0.6,0.1,0.6,0.3v0.6C390.4,114,391,114.5,391.7,114.5z"/>
</g>
<g>
	<path class="st14" d="M421.6,109.9c-8.3,0-15,6.7-15,15s6.7,15,15,15c8.3,0,15-6.7,15-15S429.9,109.9,421.6,109.9z M433.7,124.9
		c0,6.7-5.4,12.1-12.1,12.1c-6.7,0-12.1-5.4-12.1-12.1c0-6.7,5.4-12.1,12.1-12.1C428.2,112.8,433.7,118.2,433.7,124.9z"/>
	<path class="st14" d="M425.3,124.3c-0.5-0.2-1.4-0.5-2.6-0.8v-3c0.7,0.1,1.3,0.6,1.6,1.5l0.1,0.2l2.6-0.5l-0.1-0.2
		c-0.6-1.8-2-2.9-4.1-3.2v-1.5h-1.9v1.5c-3,0.4-4.5,1.8-4.5,4.1c0,0.9,0.3,1.7,0.9,2.4c0.6,0.6,1.8,1.2,3.6,1.6v3.5
		c-1.2-0.2-1.9-0.8-2.3-2.1l-0.1-0.2l-2.7,0.6l0.1,0.2c0.7,2.2,2.4,3.5,5,3.7v1.9h1.9v-1.9c1.5-0.2,2.6-0.6,3.4-1.3
		c0.8-0.8,1.3-1.7,1.3-2.9c0-0.8-0.2-1.5-0.6-2.2S425.9,124.5,425.3,124.3z M424.6,127.9c0,0.5-0.2,0.9-0.6,1.2
		c-0.4,0.3-0.8,0.4-1.3,0.5v-3.3C424,126.6,424.6,127.1,424.6,127.9z M419.1,121.8c0-0.5,0.2-0.8,0.5-1.1c0.3-0.2,0.7-0.3,1.2-0.4
		v2.8C419.1,122.9,419.1,122.1,419.1,121.8z"/>
</g>
<g>
	<ellipse class="st14" cx="456" cy="125.3" rx="1.8" ry="1.8"/>
	<ellipse class="st14" cx="464.7" cy="125.3" rx="1.8" ry="1.8"/>
	<path class="st14" d="M474.3,120.8c-0.1,0-0.2,0-0.2,0c-1.9-6.1-7.4-10.1-13.7-10.1c-6.3,0-11.8,4.1-13.7,10.1c-0.1,0-0.2,0-0.2,0
		c-0.8,0-1.5,0.7-1.5,1.5v5.6c0,0.8,0.7,1.5,1.5,1.5c0.1,0,0.1,0,0.2,0c1.8,6.1,7.5,10.4,13.8,10.4c1.4,0,2.8-0.2,4.2-0.6l0.2-0.1
		c0.5-0.2,0.9-0.7,0.9-1.3c0-0.8-0.6-1.4-1.4-1.4c-0.2,0-0.4,0.1-0.6,0.1c-1.1,0.3-2.2,0.5-3.3,0.5c-6.4,0-11.6-5.3-11.6-11.7
		c0-6.5,5.2-11.7,11.6-11.7c6.4,0,11.6,5.3,11.6,11.7c0,1,0,2.1-0.6,4.2c0,0,0,0.2,0,0.4c0,0.8,0.6,1.5,1.4,1.5c0,0,0,0,0,0
		c0.9,0,1.3-0.9,1.4-1.2c0-0.1,0.1-0.3,0.1-0.6c0,0,0,0,0.1,0c0.8,0,1.5-0.7,1.5-1.5v-5.6C475.8,121.5,475.2,120.8,474.3,120.8z"/>
</g>
<g>
	<path class="st6" d="M538.9,110.4h-3.4v-1.8c0-0.5-0.4-0.9-1-0.9c-0.5,0-1,0.4-1,0.9v1.8h-12.8v-1.8c0-0.5-0.4-0.9-1-0.9
		c-0.5,0-1,0.4-1,0.9v1.8h-3.4c-1.8,0-3.2,1.4-3.2,3v21.2c0,1.7,1.4,3,3.2,3h23.6c1.8,0,3.2-1.4,3.2-3v-21.2
		C542.1,111.7,540.7,110.4,538.9,110.4z M540.2,134.6c0,0.3-0.1,0.6-0.3,0.8c-0.2,0.2-0.5,0.4-0.9,0.4h-23.6c-0.7,0-1.2-0.5-1.2-1.2
		v-15.1h26V134.6z M540.2,117.6h-26v-4.2c0-0.7,0.5-1.2,1.2-1.2h3.4v2c0,0.5,0.4,0.9,1,0.9c0.5,0,1-0.4,1-0.9v-2h12.8v2
		c0,0.5,0.4,0.9,1,0.9c0.5,0,1-0.4,1-0.9v-2h3.4c0.7,0,1.2,0.5,1.2,1.2V117.6z"/>
	<path class="st6" d="M526.4,131.5h1.4c0.5,0,0.8-0.4,0.8-0.8v-1.4c0-0.4-0.3-0.7-0.7-0.7h-1.5c-0.4,0-0.7,0.3-0.7,0.7v1.5
		C525.7,131.2,526,131.5,526.4,131.5z"/>
	<path class="st6" d="M519,125.6h1.4c0.5,0,0.8-0.4,0.8-0.8v-1.4c0-0.4-0.3-0.7-0.7-0.7H519c-0.4,0-0.7,0.3-0.7,0.7v1.5
		C518.3,125.3,518.6,125.6,519,125.6z"/>
	<path class="st6" d="M533.8,125.6h1.4c0.5,0,0.8-0.4,0.8-0.8v-1.4c0-0.4-0.3-0.7-0.7-0.7h-1.5c-0.4,0-0.7,0.3-0.7,0.7v1.5
		C533,125.3,533.4,125.6,533.8,125.6z"/>
	<path class="st6" d="M519,131.5h1.4c0.5,0,0.8-0.4,0.8-0.8v-1.4c0-0.4-0.3-0.7-0.7-0.7H519c-0.4,0-0.7,0.3-0.7,0.7v1.5
		C518.3,131.2,518.6,131.5,519,131.5z"/>
	<path class="st6" d="M526.4,125.6h1.4c0.5,0,0.8-0.4,0.8-0.8v-1.4c0-0.4-0.3-0.7-0.7-0.7h-1.5c-0.4,0-0.7,0.3-0.7,0.7v1.5
		C525.7,125.3,526,125.6,526.4,125.6z"/>
	<path class="st6" d="M533.8,131.5h1.4c0.5,0,0.8-0.4,0.8-0.8v-1.4c0-0.4-0.3-0.7-0.7-0.7h-1.5c-0.4,0-0.7,0.3-0.7,0.7v1.5
		C533,131.2,533.4,131.5,533.8,131.5z"/>
</g>
<g>
	<path class="st13" d="M493.4,112.6c-5.5,0-10,4.5-10,10c0,5.5,4.5,10,10,10s10-4.5,10-10C503.4,117.1,498.9,112.6,493.4,112.6z
		 M493.4,131.2c-4.7,0-8.6-3.9-8.6-8.6s3.9-8.6,8.6-8.6s8.6,3.9,8.6,8.6S498.1,131.2,493.4,131.2z"/>
	<path class="st13" d="M493.3,126.2h-0.1c-0.6,0-1,0.5-1,1v0.1c0,0.6,0.5,1,1,1h0.1c0.6,0,1-0.5,1-1v-0.1
		C494.4,126.7,493.9,126.2,493.3,126.2z"/>
	<path class="st13" d="M493.2,116.8c-1.2,0-2.2,0.3-2.9,1c-0.3,0.3-0.6,0.6-0.8,1c-0.4,0.7,0,1.5,0.8,1.6c0.5,0.1,0.9-0.2,1.1-0.6
		c0.1-0.3,0.3-0.5,0.5-0.7c0.4-0.3,0.8-0.5,1.4-0.5c0.6,0,1,0.2,1.4,0.5c0.3,0.3,0.5,0.7,0.5,1.1c0,0.3-0.1,0.6-0.3,0.8
		c-0.1,0.2-0.5,0.5-1.1,1s-1.1,1-1.3,1.4c-0.1,0.3-0.2,0.5-0.3,0.9c0,0.1,0,0.2,0,0.3c0,0.5,0.4,0.9,1,0.9h0c0.5,0,0.9-0.4,1-0.9
		c0-0.2,0.1-0.3,0.1-0.4c0.1-0.2,0.4-0.5,0.9-0.9c0.9-0.7,1.5-1.3,1.8-1.8s0.4-0.9,0.4-1.4c0-0.9-0.4-1.6-1.1-2.3
		C495.5,117.1,494.5,116.8,493.2,116.8z"/>
</g>
<g>
	<path class="st6" d="M47.3,152.1c0,0-4.3,2.7-10.9-0.7c-2.5-1.3-4.9-2.7-7.1-4.3v18.6h18C48,158.7,47.3,152.1,47.3,152.1z"/>
	<path class="st6" d="M35.9,178.2L35.9,178.2l0.1-0.9c0-3.4,2.9-6.1,6.5-6.1c1.5,0,2.9,0.5,4,1.3c0.2-0.7,0.3-1.5,0.4-2.2H29.4v21
		c1.6-0.6,3-1.4,4.5-2.2l0-8.8C33.9,179.1,34.8,178.2,35.9,178.2z"/>
	<path class="st6" d="M10.2,178.7c4.4,7.6,11.2,11,14.7,12.4v-20.9H7.3C7.9,173.3,8.8,176.3,10.2,178.7z"/>
	<path class="st6" d="M6.8,152.1c0,0-0.6,6.5,0,13.7h18v-18.6c-2.3,1.6-4.6,3-7.1,4.2C11.1,154.8,6.8,152.1,6.8,152.1z"/>
	<path class="st6" d="M46.9,178.2c0.1-0.3,0.1-0.5,0.1-0.8c0-2.4-2-4.3-4.5-4.3c-2.5,0-4.5,1.9-4.5,4.3c0,0.3,0,0.5,0.1,0.8h1.8
		v-0.9c0-1.3,1.1-2.4,2.6-2.4c1.4,0,2.6,1.1,2.6,2.4v0.9H46.9z"/>
	<path class="st6" d="M48,179.6H37c-0.8,0-1.5,0.6-1.5,1.4v8.4c0,0.8,0.7,1.4,1.5,1.4h11c0.8,0,1.5-0.6,1.5-1.4v-8.4
		C49.5,180.3,48.8,179.6,48,179.6z M43.4,185.4v2.1c0,0.5-0.4,0.8-0.9,0.8h-0.2c-0.5,0-0.9-0.4-0.9-0.8v-2.1c-0.6-0.3-1-0.9-1-1.5
		c0-1,0.8-1.8,1.9-1.8c1,0,1.9,0.8,1.9,1.8C44.4,184.5,44,185.1,43.4,185.4z"/>
</g>
</svg>
