<?xml version="1.0" encoding="utf-8"?>
<!-- Generator: Adobe Illustrator 26.0.0, SVG Export Plug-In . SVG Version: 6.00 Build 0)  -->
<svg version="1.1" id="图层_1" xmlns="http://www.w3.org/2000/svg" xmlns:xlink="http://www.w3.org/1999/xlink" x="0px" y="0px"
	 viewBox="0 0 760 210" style="enable-background:new 0 0 760 210;" xml:space="preserve">
<style type="text/css">
	.st0{fill:#1770DE;}
	.st1{fill:#666666;}
	.st2{fill:#999999;}
	.st3{enable-background:new    ;}
	.st4{fill:#3A85E3;}
	.st5{fill:#FFFFFF;}
	.st6{opacity:0.42;fill:#FFFFFF;}
	.st7{fill:#FF4D4F;}
	.st8{fill:#FAAD14;}
	.st9{fill:#4D4D4D;}
	.st10{fill:#4FA72D;}
	.st11{fill:#129B47;enable-background:new    ;}
	.st12{fill:#050505;}
	.st13{fill:#888888;}
</style>
<path class="st0" d="M58.4,47.9L48.1,37.6c2.5-3.2,3.9-7.2,3.9-11.3C52,16,43.8,7.7,33.6,7.7S15.1,16,15.1,26.2
	c0,10.2,8.3,18.5,18.5,18.5c4.1,0,8.1-1.4,11.4-3.9l10.3,10.3c0.4,0.4,1,0.7,1.6,0.7c0.6,0,1.2-0.2,1.6-0.7s0.7-1,0.7-1.6
	C59.1,48.9,58.9,48.3,58.4,47.9z M47.5,26.2c0,7.7-6.3,14-13.9,14s-13.9-6.3-13.9-14c0-7.7,6.3-14,13.9-14S47.5,18.5,47.5,26.2z"/>
<path class="st1" d="M108,46.9L97.7,36.6c2.5-3.2,3.9-7.2,3.9-11.3c0-10.2-8.3-18.5-18.5-18.5S64.7,15,64.7,25.2
	c0,10.2,8.3,18.5,18.5,18.5c4.1,0,8.1-1.4,11.4-3.9l10.3,10.3c0.4,0.4,1,0.7,1.6,0.7c0.6,0,1.2-0.2,1.6-0.7c0.4-0.4,0.7-1,0.7-1.6
	C108.7,47.9,108.4,47.3,108,46.9z M97.1,25.2c0,7.7-6.3,14-13.9,14s-13.9-6.3-13.9-14c0-7.7,6.3-14,13.9-14S97.1,17.5,97.1,25.2z"/>
<path class="st2" d="M150.6,43.6l-8.4-8.4c2.1-2.6,3.2-5.9,3.2-9.3c0-8.3-6.8-15.1-15.1-15.1s-15.1,6.8-15.1,15.1
	c0,8.3,6.8,15.1,15.1,15.1c3.4,0,6.7-1.1,9.3-3.2l8.4,8.4c0.3,0.3,0.8,0.5,1.3,0.5c0.5,0,1-0.2,1.3-0.5c0.3-0.3,0.5-0.8,0.5-1.3
	C151.1,44.4,150.9,43.9,150.6,43.6z M141.6,25.8c0,6.3-5.1,11.4-11.4,11.4s-11.4-5.1-11.4-11.4c0-6.3,5.1-11.4,11.4-11.4
	S141.6,19.6,141.6,25.8z"/>
<g class="st3">
	<path class="st0" d="M202.7,17.9c-0.6-0.7-1.4-1.1-2.4-1.1h-32.8l-1.9-7.7c-0.2-0.8-0.9-1.4-1.7-1.4h-4.7c-1,0-1.8,0.8-1.8,1.8
		s0.8,1.8,1.8,1.8h3.3l7.3,29.7c-2,1-3.2,2.9-3.2,5.1c0,3.1,2.6,5.7,5.7,5.7c3.2,0,5.7-2.6,5.7-5.7c0-0.7-0.1-1.5-0.4-2.1h7.2
		c-0.3,0.7-0.4,1.4-0.4,2.1c0,3.1,2.6,5.7,5.7,5.7c3.2,0,5.7-2.6,5.7-5.7s-2.6-5.7-5.7-5.7h-16.9l-0.5-2.1h21.4
		c1.3,0,2.4-0.8,2.8-1.9l6-15.6l0-0.1C203.5,19.7,203.3,18.7,202.7,17.9z M199.4,20.3l-5.6,14.3h-22l-3.6-14.3H199.4z M170.1,46
		c0-1.2,1-2.1,2.2-2.1c1.2,0,2.2,1,2.2,2.1c0,1.2-1,2.1-2.2,2.1C171.1,48.2,170.1,47.2,170.1,46z M188,46.1c0-1.2,1-2.1,2.2-2.1
		c1.2,0,2.2,1,2.2,2.1c0,1.2-1,2.1-2.2,2.1C189,48.2,188,47.2,188,46.1z"/>
	<path class="st0" d="M174.1,26.3h17.7c1,0,1.8-0.8,1.8-1.8s-0.8-1.8-1.8-1.8h-17.7c-1,0-1.8,0.8-1.8,1.8S173.1,26.3,174.1,26.3z"/>
	<path class="st0" d="M190.3,28.7h-14.6c-1,0-1.8,0.8-1.8,1.8s0.8,1.8,1.8,1.8h14.6c1,0,1.8-0.8,1.8-1.8S191.2,28.7,190.3,28.7z"/>
</g>
<g>
	<path class="st0" d="M231.6,7.7c-12.2,0-22,9.8-22,22s9.8,22,22,22c12.2,0,22-9.8,22-22S243.8,7.7,231.6,7.7z M231.6,48.1
		c-10.1,0-18.3-8.2-18.3-18.3s8.2-18.3,18.3-18.3c10.1,0,18.3,8.2,18.3,18.3S241.7,48.1,231.6,48.1z"/>
	<path class="st0" d="M241.4,36c-0.2-4.2-2.7-7.8-6.5-9.3c1.3-1.1,2.1-2.7,2.1-4.4c0-3.2-2.6-5.9-5.9-5.9s-5.9,2.6-5.9,5.9
		c0,1.7,0.7,3.3,2.1,4.4c-3.8,1.5-6.3,5.1-6.5,9.3l0,0.2c0,0.1,0,0.2,0,0.4c0,0.7,0.1,1.5,0.2,2.2l0,0.2h20.1l0-0.2
		c0.2-0.7,0.2-1.5,0.2-2.2c0-0.1,0-0.2,0-0.3L241.4,36z M231.1,19.6c1.5,0,2.7,1.2,2.7,2.7c0,1.5-1.2,2.7-2.7,2.7s-2.7-1.2-2.7-2.7
		C228.4,20.8,229.6,19.6,231.1,19.6z M224,35.8c0.4-3.8,3.4-6.7,7.1-6.7c3.7,0,6.7,2.9,7.1,6.7H224z"/>
</g>
<g>
	<path class="st1" d="M281.1,7.7c-12.2,0-22,9.8-22,22s9.8,22,22,22c12.2,0,22-9.8,22-22S293.3,7.7,281.1,7.7z M281.1,48.1
		c-10.1,0-18.3-8.2-18.3-18.3s8.2-18.3,18.3-18.3c10.1,0,18.3,8.2,18.3,18.3S291.2,48.1,281.1,48.1z"/>
	<path class="st1" d="M290.9,36c-0.2-4.2-2.7-7.8-6.5-9.3c1.3-1.1,2.1-2.7,2.1-4.4c0-3.2-2.6-5.9-5.9-5.9s-5.9,2.6-5.9,5.9
		c0,1.7,0.7,3.3,2.1,4.4c-3.8,1.5-6.3,5.1-6.5,9.3l0,0.2c0,0.1,0,0.2,0,0.4c0,0.7,0.1,1.5,0.2,2.2l0,0.2h20.1l0-0.2
		c0.2-0.7,0.2-1.5,0.2-2.2c0-0.1,0-0.2,0-0.3L290.9,36z M280.6,19.6c1.5,0,2.7,1.2,2.7,2.7c0,1.5-1.2,2.7-2.7,2.7s-2.7-1.2-2.7-2.7
		C277.9,20.8,279.1,19.6,280.6,19.6z M273.5,35.8c0.4-3.8,3.4-6.7,7.1-6.7c3.7,0,6.7,2.9,7.1,6.7H273.5z"/>
</g>
<g>
	<path class="st1" d="M394.7,30.9h-36c-1.1,0-2-0.9-2-2v0c0-1.1,0.9-2,2-2h36c1.1,0,2,0.9,2,2v0C396.7,30,395.8,30.9,394.7,30.9z"/>
	<path class="st1" d="M394.7,44.9h-36c-1.1,0-2-0.9-2-2v0c0-1.1,0.9-2,2-2h36c1.1,0,2,0.9,2,2v0C396.7,44,395.8,44.9,394.7,44.9z"/>
	<path class="st1" d="M394.7,16.9h-36c-1.1,0-2-0.9-2-2v0c0-1.1,0.9-2,2-2h36c1.1,0,2,0.9,2,2v0C396.7,16,395.8,16.9,394.7,16.9z"/>
</g>
<g>
	<path class="st0" d="M348.4,30.7h-36c-1.1,0-2-0.9-2-2v0c0-1.1,0.9-2,2-2h36c1.1,0,2,0.9,2,2v0C350.4,29.8,349.5,30.7,348.4,30.7z"
		/>
	<path class="st0" d="M348.4,44.7h-36c-1.1,0-2-0.9-2-2v0c0-1.1,0.9-2,2-2h36c1.1,0,2,0.9,2,2v0C350.4,43.8,349.5,44.7,348.4,44.7z"
		/>
	<path class="st0" d="M348.4,16.7h-36c-1.1,0-2-0.9-2-2v0c0-1.1,0.9-2,2-2h36c1.1,0,2,0.9,2,2v0C350.4,15.8,349.5,16.7,348.4,16.7z"
		/>
</g>
<path class="st0" d="M416.7,16.8l-7.2-6.7c-0.4-0.4-1-0.4-1.4,0c-0.2,0.2-0.3,0.4-0.3,0.7c0,0.3,0.1,0.5,0.3,0.7l6.5,6l-6.5,6
	c-0.2,0.2-0.3,0.4-0.3,0.7s0.1,0.5,0.3,0.7c0.2,0.2,0.4,0.3,0.7,0.3s0.5-0.1,0.7-0.3l7.2-6.7c0.2-0.2,0.3-0.4,0.3-0.7
	S416.9,17,416.7,16.8z"/>
<path class="st0" d="M516.7,14.5l-9.4-8.8c-0.5-0.5-1.3-0.5-1.8,0c-0.3,0.2-0.4,0.5-0.4,0.9c0,0.3,0.1,0.6,0.4,0.9l8.5,7.9l-8.5,7.9
	c-0.3,0.2-0.4,0.5-0.4,0.9s0.1,0.6,0.4,0.9c0.2,0.2,0.6,0.4,0.9,0.4s0.7-0.1,0.9-0.4l9.4-8.8c0.3-0.2,0.4-0.5,0.4-0.9
	S516.9,14.7,516.7,14.5z"/>
<path class="st1" d="M495.2,14.6l-9.4-8.8c-0.5-0.5-1.3-0.5-1.8,0c-0.3,0.2-0.4,0.5-0.4,0.9c0,0.3,0.1,0.6,0.4,0.9l8.5,7.9l-8.5,7.9
	c-0.3,0.2-0.4,0.5-0.4,0.9s0.1,0.6,0.4,0.9c0.2,0.2,0.6,0.4,0.9,0.4s0.7-0.1,0.9-0.4l9.4-8.8c0.3-0.2,0.4-0.5,0.4-0.9
	S495.5,14.8,495.2,14.6z"/>
<path class="st1" d="M485.9,39.8l9.4,8.8c0.5,0.5,1.3,0.5,1.8,0c0.3-0.2,0.4-0.5,0.4-0.9c0-0.3-0.1-0.6-0.4-0.9l-8.5-7.9l8.5-7.9
	c0.3-0.2,0.4-0.5,0.4-0.9c0-0.3-0.1-0.6-0.4-0.9c-0.2-0.2-0.6-0.4-0.9-0.4s-0.7,0.1-0.9,0.4l-9.4,8.8c-0.3,0.2-0.4,0.5-0.4,0.9
	C485.6,39.3,485.7,39.6,485.9,39.8z"/>
<path class="st0" d="M507.4,39.7l9.4,8.8c0.5,0.5,1.3,0.5,1.8,0c0.3-0.2,0.4-0.5,0.4-0.9c0-0.3-0.1-0.6-0.4-0.9l-8.5-7.9l8.5-7.9
	c0.3-0.2,0.4-0.5,0.4-0.9c0-0.3-0.1-0.6-0.4-0.9c-0.2-0.2-0.6-0.4-0.9-0.4c-0.3,0-0.7,0.1-0.9,0.4l-9.4,8.8
	c-0.3,0.2-0.4,0.5-0.4,0.9S507.1,39.5,507.4,39.7z"/>
<path class="st1" d="M416.9,37.1l-7.2-6.7c-0.4-0.4-1-0.4-1.4,0c-0.2,0.2-0.3,0.4-0.3,0.7c0,0.3,0.1,0.5,0.3,0.7l6.5,6l-6.5,6
	c-0.2,0.2-0.3,0.4-0.3,0.7s0.1,0.5,0.3,0.7c0.2,0.2,0.4,0.3,0.7,0.3s0.5-0.1,0.7-0.3l7.2-6.7c0.2-0.2,0.3-0.4,0.3-0.7
	S417.1,37.3,416.9,37.1z"/>
<path class="st1" d="M443.3,10c-0.2-0.3-0.6-0.4-0.9-0.4c-0.3,0-0.7,0.1-0.9,0.4l-8.5,9.5l-8.5-9.5c-0.2-0.3-0.6-0.4-0.9-0.4
	c-0.3,0-0.7,0.1-0.9,0.4c-0.2,0.3-0.4,0.6-0.4,1c0,0.4,0.1,0.7,0.4,1l9.4,10.5c0.2,0.3,0.6,0.4,0.9,0.4c0.3,0,0.7-0.1,0.9-0.4
	l9.4-10.5C443.7,11.4,443.7,10.5,443.3,10z"/>
<path class="st0" d="M443.5,31.5c-0.2-0.3-0.6-0.4-0.9-0.4c-0.3,0-0.7,0.1-0.9,0.4l-8.5,9.5l-8.5-9.5c-0.2-0.3-0.6-0.4-0.9-0.4
	c-0.3,0-0.7,0.1-0.9,0.4c-0.2,0.3-0.4,0.6-0.4,1c0,0.4,0.1,0.7,0.4,1l9.4,10.5c0.2,0.3,0.6,0.4,0.9,0.4c0.3,0,0.7-0.1,0.9-0.4
	l9.4-10.5C444,32.9,444,32,443.5,31.5z"/>
<path class="st0" d="M449.7,43.3c0.2,0.3,0.6,0.4,0.9,0.4c0.3,0,0.7-0.1,0.9-0.4l8.5-9.5l8.5,9.5c0.2,0.3,0.6,0.4,0.9,0.4
	c0.3,0,0.7-0.1,0.9-0.4c0.2-0.3,0.4-0.6,0.4-1c0-0.4-0.1-0.7-0.4-1l-9.4-10.5c-0.2-0.3-0.6-0.4-0.9-0.4c-0.3,0-0.7,0.1-0.9,0.4
	l-9.4,10.5C449.2,41.8,449.2,42.7,449.7,43.3z"/>
<path class="st1" d="M449.4,21.7c0.2,0.3,0.6,0.4,0.9,0.4c0.3,0,0.7-0.1,0.9-0.4l8.5-9.5l8.5,9.5c0.2,0.3,0.6,0.4,0.9,0.4
	c0.3,0,0.7-0.1,0.9-0.4c0.2-0.3,0.4-0.6,0.4-1c0-0.4-0.1-0.7-0.4-1l-9.4-10.5c-0.2-0.3-0.6-0.4-0.9-0.4c-0.3,0-0.7,0.1-0.9,0.4
	l-9.4,10.5C448.9,20.3,448.9,21.2,449.4,21.7z"/>
<circle class="st4" cx="50.2" cy="103.1" r="40"/>
<g class="st3">
	<path class="st5" d="M72.5,91.3c-0.6-0.7-1.4-1.1-2.4-1.1H37.3l-1.9-7.7c-0.2-0.8-0.9-1.4-1.7-1.4H29c-1,0-1.8,0.8-1.8,1.8
		c0,1,0.8,1.8,1.8,1.8h3.3l7.3,29.7c-2,1-3.2,2.9-3.2,5.1c0,3.1,2.6,5.7,5.7,5.7s5.7-2.6,5.7-5.7c0-0.7-0.1-1.5-0.4-2.1h7.2
		c-0.3,0.7-0.4,1.4-0.4,2.1c0,3.1,2.6,5.7,5.7,5.7s5.7-2.6,5.7-5.7s-2.6-5.7-5.7-5.7H43.1l-0.5-2.1h21.4c1.3,0,2.4-0.8,2.8-1.9
		l6-15.6l0-0.1C73.3,93.1,73.2,92.1,72.5,91.3z M69.3,93.8l-5.6,14.3h-22l-3.6-14.3H69.3z M40,119.5c0-1.2,1-2.1,2.2-2.1
		c1.2,0,2.2,1,2.2,2.1c0,1.2-1,2.1-2.2,2.1C40.9,121.6,40,120.6,40,119.5z M57.8,119.5c0-1.2,1-2.1,2.2-2.1c1.2,0,2.2,1,2.2,2.1
		s-1,2.1-2.2,2.1C58.8,121.6,57.8,120.6,57.8,119.5z"/>
	<path class="st5" d="M44,99.7h17.7c1,0,1.8-0.8,1.8-1.8s-0.8-1.8-1.8-1.8H44c-1,0-1.8,0.8-1.8,1.8S43,99.7,44,99.7z"/>
	<path class="st5" d="M60.1,102.1H45.5c-1,0-1.8,0.8-1.8,1.8s0.8,1.8,1.8,1.8h14.6c1,0,1.8-0.8,1.8-1.8S61.1,102.1,60.1,102.1z"/>
</g>
<path class="st1" d="M559.9,34.3l-0.5-0.6l0,0c-0.2-0.2-0.6-0.6-1.4-1.2c-0.9-0.7-2.5-1.8-2.6-1.9l-2.2-1.3
	c-0.4-0.2-0.8-0.2-1.1-0.2c-0.3,0-0.6,0-0.9,0.1c-1,0.3-1.9,1.8-2.1,2.2c-0.1,0.2-0.2,0.5-0.4,0.7l0,0.1c-0.1,0.3-0.3,0.6-0.5,0.8
	c-0.2,0.3-0.5,0.6-0.8,0.6c-0.1,0-0.2,0-0.3-0.1c-1.5-0.8-3.3-1.9-5.1-3.6c-2-1.9-3.3-3.4-3.9-4.9c0-0.1,0-0.6,0.2-0.7
	c0.4-0.2,0.7-0.3,0.9-0.4l0.1,0c0.4-0.1,0.7-0.3,1.2-0.5c0.2-0.1,0.3-0.2,0.4-0.2l0,0c0.1-0.1,0.3-0.2,0.7-0.4c0,0,0.1-0.1,0.2-0.1
	l0.3-0.2c0.7-0.7,0.9-1.6,0.6-2.5l-0.1-0.3c0,0-0.5-1-1.2-2.2c-0.4-0.6-0.9-1.4-1.4-2c-1.3-1.7-2.5-2.2-2.5-2.2c0,0-0.3-0.2-0.5-0.2
	c-0.8-0.3-1.6-0.3-2.4,0c-1.2,0.4-1.9,1-2.6,1.6l-0.2,0.1c-2.3,1.8-3.5,4.2-3.2,6.2c0.4,3,4.1,9.2,8.8,13.6
	c4.7,4.4,11.3,7.7,14.6,8.1c0.2,0,0.5,0,0.7,0c2.3,0,4.2-1.4,5.5-2.6c0.7-0.6,1.5-1.6,2-2.6C560.4,36.5,560.5,35.3,559.9,34.3
	 M535.7,25.9c0.8,1.8,2.2,3.5,4.5,5.6c2,1.9,3.9,3,5.6,3.9c0.5,0.3,1,0.4,1.5,0.4c1.3,0,2.4-0.9,2.9-1.8c0.2-0.3,0.4-0.7,0.5-1
	l0.1-0.1c0.1-0.2,0.2-0.3,0.2-0.4c0.4-0.7,0.7-1.1,0.9-1.2c0,0,0.1,0,0.1,0l2,1.2l0,0c0.5,0.3,1.7,1.2,2.4,1.7c0.6,0.5,1,0.8,1.1,1
	c0,0,0,0,0,0l0.4,0.5c0,0.1,0,0.4-0.1,0.8c-0.3,0.7-1,1.4-1.5,1.8c-1.5,1.4-2.7,2-3.8,2c-0.2,0-0.3,0-0.5,0
	c-2.5-0.3-8.7-3.3-13.2-7.5c-4.5-4.2-7.7-10-8.1-12.3c-0.2-1.2,0.8-2.8,2.4-4.1l0.2-0.1c0.7-0.6,1.2-0.9,2-1.2
	c0.1-0.1,0.3-0.1,0.4-0.1c0.1,0,0.1,0,0.2,0c0.1,0,0.2,0.1,0.3,0.2l0.1,0c0,0,0.8,0.4,1.6,1.5c0.4,0.6,0.9,1.3,1.2,1.8
	c0.3,0.6,0.7,1.2,1,1.8c0,0,0,0,0,0.1l0.1,0.3c0,0,0,0,0,0c0,0,0,0,0,0l-0.1,0.1c0,0-0.1,0.1-0.1,0.1c-0.3,0.2-0.4,0.2-0.5,0.3
	c-0.1,0.1-0.2,0.1-0.5,0.3c-0.2,0.1-0.5,0.2-0.8,0.4c-0.3,0.1-0.7,0.3-1.1,0.5C535.5,23,535.3,24.9,535.7,25.9"/>
<g>
	<path class="st1" d="M582,23.2h-8.8c-0.7,0-1.3,0.6-1.3,1.2c0,0.7,0.6,1.2,1.3,1.2h8.8c0.7,0,1.3-0.6,1.3-1.2
		C583.2,23.8,582.7,23.2,582,23.2z"/>
	<path class="st1" d="M592.5,18.6v-3.5c0-1.5-1.3-2.6-2.8-2.6h-14.9c-1.5,0-2.8,1.2-2.8,2.6v3.5h-0.1c-3.2,0-5.8,2.4-5.8,5.4v10.7
		h5.6v5.1c0,1.5,1.2,2.6,2.7,2.6h15.1c1.5,0,2.7-1.2,2.7-2.6v-5.1h5.8V24.1C598.2,21.1,595.6,18.6,592.5,18.6z M574.6,15.2
		c0-0.1,0.1-0.2,0.2-0.2h14.9c0.1,0,0.2,0.1,0.2,0.2v3.5h-15.3V15.2z M589.8,39.9L589.8,39.9c0,0.1-0.1,0.2-0.2,0.2h-15.1
		c-0.1,0-0.2-0.1-0.2-0.2v-7.6h15.5V39.9z M592.4,32.3v-2.5h-20.6v2.5h-3.1v-8.2c0-1.6,1.4-3,3.2-3h20.5c1.8,0,3.2,1.3,3.2,3v8.2
		H592.4z"/>
</g>
<path class="st1" d="M632.4,16h-25.9c-1.7,0-3.1,1.3-3.1,3v17c0,1.6,1.4,3,3.1,3h25.9c0.8,0,1.6-0.3,2.2-0.9
	c0.6-0.6,0.9-1.3,0.9-2.1V19C635.4,17.4,634.1,16,632.4,16z M633.2,19v17c0,0,0,0.1,0,0.1l-9-8.8l8.9-8.7
	C633.2,18.8,633.2,18.9,633.2,19z M630.4,18.2l-8.7,8.5c-0.6,0.6-1.4,0.9-2.2,0.9h0c-0.8,0-1.6-0.3-2.2-0.9l-8.7-8.5H630.4z
	 M616.4,28.8c0.9,0.6,1.9,0.9,3,0.9c1.1,0,2.1-0.3,3-0.9l8.2,8h-22.4L616.4,28.8z M614.7,27.4c-2.9,2.8-8,7.8-9,8.8c0,0,0-0.1,0-0.1
	V19c0-0.1,0-0.2,0.1-0.4L614.7,27.4z"/>
<g>
	<path class="st1" d="M670.7,30.2L670.7,30.2l0-0.2c0.2-0.9,0.2-1.7,0.2-2.6c0-1.9-0.4-3.8-1.1-5.5c-0.7-1.7-1.7-3.2-3-4.5
		c-1.3-1.3-2.8-2.3-4.5-3c-2.6-1.1-5.4-1.4-8.2-0.9l-0.1,0l-0.1,0c-1.2-0.6-2.5-1-3.9-1c-2.2,0-4.3,0.9-5.9,2.4
		c-1.6,1.6-2.4,3.7-2.4,5.9c0,1.4,0.4,2.8,1,4l0,0.1l0,0.1c-0.1,0.8-0.2,1.6-0.2,2.4c0,1.9,0.4,3.8,1.1,5.5c0.7,1.7,1.7,3.2,3,4.5
		c1.3,1.3,2.8,2.3,4.5,3c1.7,0.7,3.6,1.1,5.5,1.1c0.8,0,1.7-0.1,2.5-0.2l0.1,0l0.1,0c1.2,0.7,2.7,1.1,4.1,1.1c2.2,0,4.3-0.9,5.9-2.4
		c1.6-1.6,2.4-3.6,2.4-5.9C671.7,32.8,671.4,31.4,670.7,30.2z M667.7,38.5c-1.1,1.1-2.6,1.8-4.3,1.8c-1,0-2.1-0.3-3-0.8l-0.8-0.4
		l-0.9,0.2c-2.3,0.4-4.6,0.1-6.7-0.8c-1.4-0.6-2.7-1.5-3.8-2.6c-1.1-1.1-1.9-2.4-2.5-3.8c-0.6-1.5-0.9-3-0.9-4.6
		c0-0.7,0.1-1.4,0.2-2.1l0.2-0.9l-0.4-0.8c-0.5-0.9-0.8-1.9-0.8-2.9c0-1.6,0.6-3.1,1.8-4.3c1.1-1.1,2.7-1.8,4.3-1.8
		c1,0,2,0.2,2.8,0.7l0.8,0.4l0.9-0.2c2.4-0.4,4.7-0.2,6.9,0.7c1.4,0.6,2.7,1.5,3.8,2.6c1.1,1.1,2,2.4,2.6,3.8c0.6,1.5,0.9,3,0.9,4.6
		c0,0.7-0.1,1.5-0.2,2.2l-0.2,0.9l0.4,0.8c0.5,0.9,0.8,1.9,0.8,2.9C669.5,35.8,668.8,37.3,667.7,38.5z"/>
	<path class="st1" d="M659.4,26l-3.4-0.7c-1.2-0.3-2.9-0.7-2.9-2.1c0-1.4,1.2-2.3,3.1-2.3c2.3,0,3.2,0.9,3.8,1.7
		c0.5,0.5,0.8,0.9,1.4,0.9c0.8,0,1.6-0.4,1.6-1.3c0-2.2-3.6-3.8-6.6-3.8c-3.3,0-6.8,1.3-6.8,5.1c0,1.6,0.5,3.6,4.1,4.5l4.5,1.1
		c1.6,0.4,1.9,1.3,1.9,2.1c0,1.3-1.2,2.5-3.5,2.5c-2.5,0-3.3-1.1-4-2c-0.5-0.6-0.9-1.1-1.7-1.1c-0.9,0-1.5,0.6-1.5,1.4
		c0,1.7,2.2,4.2,7.2,4.2c4.4,0,7-2,7-5.3C663.8,28.3,662.3,26.7,659.4,26z"/>
</g>
<path class="st5" d="M139.6,102.8l-9.9-9.9l9.9-9.9c0.7-0.7,0.7-1.9,0-2.6c-0.7-0.7-1.9-0.7-2.6,0l-9.9,9.9l-9.9-9.9
	c-0.7-0.7-1.9-0.7-2.6,0c-0.3,0.3-0.5,0.8-0.5,1.3c0,0.5,0.2,0.9,0.5,1.3l9.9,9.9l-9.9,9.9c-0.3,0.3-0.5,0.8-0.5,1.3
	c0,0.5,0.2,0.9,0.5,1.3c0.3,0.3,0.8,0.5,1.3,0.5c0.5,0,0.9-0.2,1.3-0.5l9.9-9.9l9.9,9.9c0.7,0.7,1.9,0.7,2.6,0
	c0.3-0.3,0.5-0.8,0.5-1.3C140.1,103.5,139.9,103.1,139.6,102.8z"/>
<g>
	<path class="st0" d="M257.4,100.8h-36c-1.1,0-2-0.9-2-2v-36c0-1.1,0.9-2,2-2h36c1.1,0,2,0.9,2,2v36
		C259.4,99.9,258.5,100.8,257.4,100.8z"/>
	<path class="st5" d="M225.3,94.7h6.5V76.2h-6.5V94.7z M246.9,75.6c-2.7,0-4.2,0.9-5.9,3.1v-2.5h-6.5v18.5h6.5v-10
		c0-2.1,1-4.2,3.5-4.2c2.4,0,3,2.1,3,4.1v10.1h6.5V84.2C254,76.9,249.6,75.6,246.9,75.6L246.9,75.6z M228.5,66.9
		c-2,0-3.6,1.5-3.6,3.3c0,1.8,1.6,3.3,3.6,3.3c2,0,3.6-1.5,3.6-3.3C232.1,68.4,230.5,66.9,228.5,66.9z"/>
</g>
<g>
	<path class="st0" d="M307.4,100.8h-36c-1.1,0-2-0.9-2-2v-36c0-1.1,0.9-2,2-2h36c1.1,0,2,0.9,2,2v36
		C309.4,99.9,308.5,100.8,307.4,100.8z"/>
	<path class="st5" d="M303.4,73.8c-0.3-1.3-1.3-2.2-2.6-2.6c-2.3-0.6-11.4-0.6-11.4-0.6s-9.1,0-11.4,0.6c-1.3,0.3-2.2,1.3-2.6,2.6
		c-0.6,2.3-0.6,7-0.6,7s0,4.7,0.6,7c0.3,1.3,1.3,2.2,2.6,2.6c2.3,0.6,11.4,0.6,11.4,0.6s9.1,0,11.4-0.6c1.3-0.3,2.2-1.3,2.6-2.6
		c0.6-2.3,0.6-7,0.6-7S304,76.1,303.4,73.8z M286.5,85.1v-8.7l7.5,4.3L286.5,85.1z"/>
</g>
<g>
	<path class="st0" d="M357.4,100.8h-36c-1.1,0-2-0.9-2-2v-36c0-1.1,0.9-2,2-2h36c1.1,0,2,0.9,2,2v36
		C359.4,99.9,358.5,100.8,357.4,100.8z"/>
	<g>
		<path class="st5" d="M339.4,73.3c-4.1,0-7.5,3.3-7.5,7.5c0,4.1,3.3,7.5,7.5,7.5s7.5-3.3,7.5-7.5C346.9,76.7,343.6,73.3,339.4,73.3
			z M339.4,85.6c-2.7,0-4.9-2.2-4.9-4.9s2.2-4.9,4.9-4.9s4.9,2.2,4.9,4.9S342.1,85.6,339.4,85.6z"/>
		<path class="st5" d="M347.2,71.3c-1,0-1.7,0.8-1.7,1.7c0,1,0.8,1.7,1.7,1.7S349,74,349,73C348.9,72.1,348.2,71.3,347.2,71.3z"/>
		<path class="st5" d="M354,80.8c0-2,0-4-0.1-6c-0.1-2.3-0.6-4.4-2.3-6.1c-1.7-1.7-3.8-2.2-6.1-2.3c-2-0.1-4-0.1-6-0.1
			c-2,0-4,0-6,0.1c-2.3,0.1-4.4,0.6-6.1,2.3c-1.7,1.7-2.2,3.8-2.3,6.1c-0.1,2-0.1,4-0.1,6s0,4,0.1,6c0.1,2.3,0.6,4.4,2.3,6.1
			c1.7,1.7,3.8,2.2,6.1,2.3c2,0.1,4,0.1,6,0.1c2,0,4,0,6-0.1c2.3-0.1,4.4-0.6,6.1-2.3c1.7-1.7,2.2-3.8,2.3-6.1
			C354,84.8,354,82.8,354,80.8z M350.8,89.4c-0.3,0.7-0.6,1.2-1.1,1.7c-0.5,0.5-1,0.8-1.7,1.1c-1.9,0.8-6.5,0.6-8.6,0.6
			s-6.7,0.2-8.6-0.6c-0.7-0.3-1.2-0.6-1.7-1.1c-0.5-0.5-0.8-1-1.1-1.7c-0.8-1.9-0.6-6.5-0.6-8.6s-0.2-6.7,0.6-8.6
			c0.3-0.7,0.6-1.2,1.1-1.7c0.5-0.5,1-0.8,1.7-1.1c1.9-0.8,6.5-0.6,8.6-0.6s6.7-0.2,8.6,0.6c0.7,0.3,1.2,0.6,1.7,1.1
			c0.5,0.5,0.8,1,1.1,1.7c0.8,1.9,0.6,6.5,0.6,8.6S351.5,87.5,350.8,89.4z"/>
	</g>
</g>
<g>
	<path class="st0" d="M407.5,100.8h-36c-1.1,0-2-0.9-2-2v-36c0-1.1,0.9-2,2-2h36c1.1,0,2,0.9,2,2v36
		C409.5,99.9,408.6,100.8,407.5,100.8z"/>
	<path class="st5" d="M401,75.4c0-0.3,0-0.5,0-0.8c1.2-0.9,2.2-2,3-3.2c-1.1,0.5-2.2,0.8-3.4,0.9c1.2-0.8,2.2-2,2.6-3.4
		c-1.2,0.7-2.4,1.2-3.8,1.5c-1.1-1.2-2.6-2-4.4-2.1c-3.3-0.1-6,2.7-6,6.2c0,0.5,0.1,1,0.2,1.4c-5-0.3-9.4-2.9-12.3-6.8
		c-0.5,0.9-0.8,2-0.8,3.2c0,2.2,1.1,4.2,2.7,5.3c-1,0-1.9-0.3-2.7-0.8V77c0,3.1,2.1,5.7,4.8,6.3c-0.5,0.1-1,0.2-1.6,0.2
		c-0.4,0-0.8,0-1.1-0.1c0.8,2.5,3,4.4,5.6,4.4c-2,1.7-4.6,2.7-7.4,2.7c-0.5,0-1,0-1.4-0.1c2.6,1.8,5.8,2.9,9.2,2.9
		C395,93.3,401,83.7,401,75.4L401,75.4z"/>
</g>
<g>
	<path class="st0" d="M457.5,100.8h-36c-1.1,0-2-0.9-2-2v-36c0-1.1,0.9-2,2-2h36c1.1,0,2,0.9,2,2v36
		C459.5,99.9,458.6,100.8,457.5,100.8z"/>
	<path class="st5" d="M451.7,78.3c-2.4,0-4.8-0.8-6.7-2.2v10c0,5.1-4,9.2-8.9,9.2s-8.9-4.1-8.9-9.2s4-9.2,8.9-9.2c0.5,0,1,0,1.4,0.1
		v5.3c-0.4-0.2-0.9-0.3-1.4-0.3c-2.2,0-4,1.8-4,4.1c0,2.3,1.8,4.1,4,4.1c2.2,0,4-1.8,4-4.1V66.3h5c0,3.8,3,6.9,6.7,6.9L451.7,78.3
		L451.7,78.3"/>
</g>
<g>
	<path class="st0" d="M507.5,100.8h-36c-1.1,0-2-0.9-2-2v-36c0-1.1,0.9-2,2-2h36c1.1,0,2,0.9,2,2v36
		C509.5,99.9,508.6,100.8,507.5,100.8z"/>
	<g>
		<path class="st5" d="M484.6,80.3l-9.4,9.4c-0.2-0.4-0.2-0.7-0.2-1.1V73c0-0.4,0.1-0.7,0.2-1.1L484.6,80.3z"/>
		<path class="st5" d="M488.8,81.8l-12.6-11.3c0.5-0.3,1-0.5,1.6-0.5h23.4c0.6,0,1.1,0.2,1.6,0.5l-10.1,9.1l-0.1,0.1l-2.4,2.1
			C489.7,82.2,489.2,82.2,488.8,81.8z"/>
		<path class="st5" d="M493.1,81.5l9.6,9.6c-0.4,0.3-1,0.4-1.5,0.4h-23.4c-0.5,0-1-0.1-1.5-0.4l9.6-9.6l3,2.7c0.3,0.3,0.8,0.3,1.2,0
			L493.1,81.5z M504,73v15.7c0,0.4-0.1,0.8-0.2,1.1l-9.4-9.4l9.4-8.5C503.9,72.2,504,72.6,504,73z"/>
	</g>
</g>
<g>
	<path class="st0" d="M207.4,100.8h-36c-1.1,0-2-0.9-2-2v-36c0-1.1,0.9-2,2-2h36c1.1,0,2,0.9,2,2v36
		C209.4,99.9,208.5,100.8,207.4,100.8z"/>
	<path class="st5" d="M199.9,80l-0.6,5.3h-4.3v15.5h-6.4V85.3h-3.2V80h3.2v-3.2c0-4.3,1.8-6.9,6.9-6.9h4.3v5.3h-2.7
		c-2,0-2.1,0.8-2.1,2.1V80H199.9z"/>
</g>
<circle class="st6" cx="127.1" cy="92.8" r="30"/>
<path class="st1" d="M505.5,177.9c-1.9,0-3.5,0.9-4.5,2.3l-8.6-4.5c0.4-0.9,0.7-1.9,0.7-3c0-1.1-0.3-2.2-0.8-3.1l5.9-4.2
	c1,1,2.3,1.5,3.8,1.5c2.9,0,5.3-2.3,5.3-5.2s-2.4-5.2-5.3-5.2c-2.9,0-5.3,2.3-5.3,5.2c0,0.6,0.1,1.1,0.3,1.6l-6.1,4.4
	c-1.3-1.2-3-2-4.9-2c-3.9,0-7.1,3.1-7.1,7c0,3.9,3.2,7,7.1,7c1.9,0,3.7-0.8,5-2l9.2,4.7c0,0.2-0.1,0.5-0.1,0.7
	c0,2.9,2.4,5.3,5.4,5.3c3,0,5.4-2.4,5.4-5.3C510.9,180.3,508.4,177.9,505.5,177.9z"/>
<path class="st0" d="M544.4,177.9c-1.9,0-3.5,0.9-4.5,2.3l-8.6-4.5c0.4-0.9,0.7-1.9,0.7-3c0-1.1-0.3-2.2-0.8-3.1l5.9-4.2
	c1,1,2.3,1.5,3.8,1.5c2.9,0,5.3-2.3,5.3-5.2s-2.4-5.2-5.3-5.2c-2.9,0-5.3,2.3-5.3,5.2c0,0.6,0.1,1.1,0.3,1.6l-6.1,4.4
	c-1.3-1.2-3-2-4.9-2c-3.9,0-7.1,3.1-7.1,7c0,3.9,3.2,7,7.1,7c1.9,0,3.7-0.8,5-2l9.2,4.7c0,0.2-0.1,0.5-0.1,0.7
	c0,2.9,2.4,5.3,5.4,5.3s5.4-2.4,5.4-5.3C549.8,180.3,547.4,177.9,544.4,177.9z"/>
<g>
	<path class="st7" d="M138.5,161.8l-12.1-12.4c-0.6-0.6-1.5-1-2.4-1h-19c-2.5,0-4.5,2.1-4.5,4.6v34.8c0,2.5,2,4.6,4.5,4.6h30
		c2.5,0,4.5-2.1,4.5-4.6V164C139.4,163.2,139.1,162.4,138.5,161.8z M125.3,165.3h11.5v22.6c0,1.1-0.8,1.9-1.9,1.9h-30
		c-1,0-1.9-0.9-1.9-1.9v-34.8c0-1.1,0.8-1.9,1.9-1.9h17.9v11.7C122.9,164.2,123.9,165.3,125.3,165.3z M125.5,162.6l0-10.2l10,10.2
		H125.5z"/>
	<g>
		<path class="st7" d="M109.7,169.9h-4.2v13.5h2.6v-3.9h1.6c2.3,0,4.2-1.9,4.2-4.3v-1C113.9,171.8,112,169.9,109.7,169.9z
			 M111.3,175.2c0,0.9-0.7,1.6-1.6,1.6h-1.6v-4.3h1.6c0.9,0,1.6,0.7,1.6,1.6V175.2z"/>
		<path class="st7" d="M119.5,169.9h-3.3v13.5h3.3c2.9,0,5.2-2.4,5.2-5.3v-3C124.7,172.3,122.3,169.9,119.5,169.9z M122,178.1
			c0,1.4-1.2,2.6-2.6,2.6h-0.6v-8.2h0.6c1.4,0,2.6,1.2,2.6,2.6V178.1z"/>
		<polygon class="st7" points="134.4,172.5 134.4,169.9 126.9,169.9 126.9,183.4 129.6,183.4 129.6,178.5 133.4,178.5 133.4,175.8 
			129.6,175.8 129.6,172.5 		"/>
	</g>
</g>
<g>
	<path class="st1" d="M181.6,161.8l-12.1-12.4c-0.6-0.6-1.5-1-2.4-1h-19c-2.5,0-4.5,2.1-4.5,4.6v34.8c0,2.5,2,4.6,4.5,4.6h30
		c2.5,0,4.5-2.1,4.5-4.6V164C182.5,163.2,182.2,162.4,181.6,161.8z M168.4,165.3h11.5v22.6c0,1.1-0.8,1.9-1.9,1.9h-30
		c-1,0-1.9-0.9-1.9-1.9v-34.8c0-1.1,0.8-1.9,1.9-1.9H166v11.7C166,164.2,167,165.3,168.4,165.3z M168.6,162.6l0-10.2l10,10.2H168.6z
		"/>
	<g>
		<path class="st1" d="M152.8,169.9h-4.2v13.5h2.6v-3.9h1.6c2.3,0,4.2-1.9,4.2-4.3v-1C157,171.8,155.1,169.9,152.8,169.9z
			 M154.4,175.2c0,0.9-0.7,1.6-1.6,1.6h-1.6v-4.3h1.6c0.9,0,1.6,0.7,1.6,1.6V175.2z"/>
		<path class="st1" d="M162.6,169.9h-3.3v13.5h3.3c2.9,0,5.2-2.4,5.2-5.3v-3C167.7,172.3,165.4,169.9,162.6,169.9z M165.1,178.1
			c0,1.4-1.2,2.6-2.6,2.6h-0.6v-8.2h0.6c1.4,0,2.6,1.2,2.6,2.6V178.1z"/>
		<polygon class="st1" points="177.5,172.5 177.5,169.9 170,169.9 170,183.4 172.6,183.4 172.6,178.5 176.5,178.5 176.5,175.8 
			172.6,175.8 172.6,172.5 		"/>
	</g>
</g>
<path class="st1" d="M229.5,165.1c-0.2-0.6-0.7-1-1.2-1.1l-13.3-2l-6-12.7c-0.3-0.5-0.8-0.9-1.4-0.9c-0.6,0-1.1,0.3-1.4,0.9l-6,12.7
	l-13.3,2c-0.6,0.1-1.1,0.5-1.2,1.1c-0.2,0.6,0,1.2,0.4,1.6l9.7,9.9l-2.3,13.9c-0.1,0.6,0.1,1.2,0.6,1.6c0.3,0.2,0.6,0.3,0.9,0.3
	c0.2,0,0.5-0.1,0.7-0.2l11.9-6.6l11.9,6.6c0.5,0.3,1.2,0.2,1.6-0.1c0.5-0.4,0.7-1,0.6-1.6l-2.3-13.9l9.7-9.9
	C229.5,166.4,229.7,165.7,229.5,165.1z M198.9,176.4c0.1-0.5-0.1-1-0.4-1.4l-8-8.2l11.1-1.7c0.5-0.1,0.9-0.4,1.2-0.9l4.9-10.5
	l4.9,10.5c0.2,0.5,0.7,0.8,1.2,0.9l11.1,1.7l-8,8.2l0,0c-0.4,0.4-0.5,0.9-0.4,1.4l1.9,11.6l-9.9-5.4c-0.2-0.1-0.5-0.2-0.7-0.2
	c-0.2,0-0.5,0.1-0.7,0.2l-9.9,5.4L198.9,176.4z"/>
<path class="st8" d="M277.6,167.9c0.3-0.3,0.4-0.8,0.3-1.3c-0.1-0.5-0.5-0.8-1-0.9l-13.8-2.1l-6.1-13.1c-0.2-0.4-0.6-0.7-1.1-0.7
	c-0.5,0-0.9,0.3-1.1,0.7l-6.2,13.1l-0.2,0l-13.6,2.1c-0.4,0.1-0.8,0.4-1,0.9c-0.1,0.4,0,1,0.3,1.3l10,10.2l0,0.2l-2,12.5
	c0,0,0,0,0,0c0,0,0,0,0,0l-0.3,1.7c-0.1,0.5,0.1,0.9,0.5,1.2c0.4,0.3,0.9,0.3,1.3,0.1l12.3-6.8l0.1,0.1l12.2,6.7
	c0.4,0.2,0.9,0.2,1.3-0.1c0.4-0.3,0.6-0.7,0.5-1.2l-2.4-14.4l0.1-0.1L277.6,167.9z"/>
<g>
	<path class="st1" d="M324.4,177.2l-0.2-0.1v-21c0-2.9-2.2-5.3-4.9-5.3h-20.6c-2.1,0-3.9,1.4-4.6,3.5l-0.1,0.2h-2.2
		c-2.7,0-4.9,2.4-4.9,5.3v17.3l-0.2,0.1c-1.9,0.7-3.3,2.7-3.3,5v7.4c0,2.9,2.2,5.3,4.9,5.3h34.2c2.7,0,4.9-2.4,4.9-5.3v-7.4
		C327.6,180,326.3,178,324.4,177.2z M290,176.9v-17c0-1.2,0.9-2.1,1.9-2.1h1.9v19.2H290z M321.3,176.9h-10.8c-0.6,0-1.2,0.4-1.4,1
		c-0.5,1.6-1.9,2.7-3.5,2.7c-1.6,0-3-1.1-3.5-2.7c-0.2-0.6-0.8-1-1.4-1h-3.9l0-20.7c0-1.2,0.9-2.1,1.9-2.1h20.6c1.1,0,1.9,1,1.9,2.1
		V176.9z M311.3,180.2l0.1-0.1h11.4c1.1,0,1.9,1,1.9,2.1l0,7.5c0,0.6-0.2,1.1-0.6,1.5l0,0c-0.4,0.4-0.9,0.6-1.4,0.6h-34.3
		c-1.1,0-1.9-1-1.9-2.1v-7.5c0-1.2,0.9-2.1,1.9-2.1h11.3l0.1,0.1c1.2,2.2,3.4,3.6,5.7,3.6S310.1,182.4,311.3,180.2z"/>
	<path class="st1" d="M315.9,167.7h-13.7c-0.8,0-1.5,0.7-1.5,1.5c0,0.9,0.7,1.5,1.5,1.5h13.7c0.8,0,1.5-0.7,1.5-1.5
		C317.4,168.4,316.7,167.7,315.9,167.7z"/>
	<path class="st1" d="M315.9,160.2h-13.7c-0.8,0-1.5,0.7-1.5,1.5c0,0.9,0.7,1.5,1.5,1.5h13.7c0.8,0,1.5-0.7,1.5-1.5
		C317.4,160.9,316.7,160.2,315.9,160.2z"/>
</g>
<path class="st9" d="M599.2,60.8h-32.3c-2.1,0-3.8,1.8-3.8,3.9v22.2c0,2.2,1.7,3.9,3.8,3.9h32.3c1,0,2-0.4,2.7-1.1
	c0.7-0.7,1.1-1.7,1.1-2.8V64.7C603,62.5,601.3,60.8,599.2,60.8z M600.2,64.7v22.2c0,0,0,0.1,0,0.1l-11.3-11.4l11.2-11.4
	C600.2,64.4,600.2,64.5,600.2,64.7z M596.7,63.7l-10.8,11c-0.7,0.8-1.7,1.2-2.8,1.2h0c-1.1,0-2-0.4-2.8-1.2l-10.8-11H596.7z
	 M579.2,77.5c1.1,0.8,2.4,1.2,3.8,1.2c1.4,0,2.7-0.4,3.8-1.2l10.2,10.4H569L579.2,77.5z M577.2,75.6c-3.6,3.7-10,10.2-11.3,11.5
	c0-0.1,0-0.1,0-0.2V64.7c0-0.2,0-0.3,0.1-0.5L577.2,75.6z"/>
<g>
	<path class="st9" d="M556,84.3l-0.1-0.1l0-0.1c0.2-1.2,0.3-2.3,0.3-3.4c0-2.6-0.5-5-1.5-7.4c-0.9-2.2-2.3-4.3-4-6
		c-1.7-1.7-3.7-3.1-6-4.1c-3.4-1.4-7.2-1.9-10.9-1.1l-0.1,0l-0.1-0.1c-1.6-0.8-3.4-1.3-5.2-1.3c-2.9,0-5.7,1.2-7.8,3.2
		c-2.1,2.1-3.2,4.9-3.2,7.8c0,1.9,0.5,3.7,1.4,5.4l0.1,0.1l0,0.1c-0.2,1.1-0.3,2.2-0.3,3.3c0,2.6,0.5,5,1.5,7.4c1,2.3,2.3,4.3,4,6
		c1.7,1.7,3.7,3.1,6,4.1c2.3,1,4.8,1.5,7.3,1.5c1.1,0,2.2-0.1,3.3-0.3l0.1,0l0.1,0.1c1.7,0.9,3.5,1.4,5.4,1.4c3,0,5.7-1.2,7.8-3.2
		c2.1-2.1,3.2-4.9,3.2-7.8C557.4,87.9,556.9,86,556,84.3z M552.1,95.4c-1.5,1.5-3.5,2.4-5.7,2.4c-1.4,0-2.7-0.4-3.9-1l-1-0.6
		l-1.2,0.2c-3,0.5-6.2,0.2-9-1c-1.9-0.8-3.6-1.9-5-3.4c-1.5-1.5-2.6-3.2-3.4-5c-0.8-2-1.2-4-1.2-6.2c0-0.9,0.1-1.8,0.2-2.7l0.2-1.2
		l-0.6-1c-0.7-1.2-1-2.5-1-3.9c0-2.1,0.8-4.2,2.4-5.7c1.5-1.5,3.5-2.4,5.7-2.4c1.3,0,2.6,0.3,3.8,1l1,0.5l1.1-0.2
		c3.2-0.6,6.3-0.3,9.2,1c1.9,0.8,3.6,1.9,5,3.4c1.5,1.5,2.6,3.2,3.4,5.1c0.8,1.9,1.2,4,1.2,6.2c0,1-0.1,1.9-0.3,2.9l-0.2,1.2
		l0.6,1.1c0.7,1.2,1,2.5,1,3.9C554.4,91.9,553.6,93.9,552.1,95.4z"/>
	<path class="st9" d="M541,78.8l-4.5-1c-1.6-0.4-3.9-0.9-3.9-2.8c0-1.9,1.6-3.1,4.2-3.1c3.1,0,4.2,1.3,5.1,2.3
		c0.6,0.7,1,1.2,1.9,1.2c1,0,2.1-0.6,2.1-1.8c0-2.9-4.7-5.1-8.8-5.1c-4.4,0-9.1,1.8-9.1,6.8c0,2.2,0.6,4.8,5.5,6.1l6.1,1.5
		c2.1,0.5,2.5,1.8,2.5,2.7c0,1.7-1.6,3.4-4.7,3.4c-3.3,0-4.5-1.5-5.4-2.7c-0.6-0.8-1.1-1.5-2.2-1.5c-1.1,0-1.9,0.8-1.9,1.9
		c0,2.3,3,5.6,9.5,5.6c5.9,0,9.4-2.6,9.4-7C546.9,81.8,544.9,79.7,541,78.8z"/>
</g>
<g>
	<path class="st9" d="M648.7,71.7c-0.8,0-1.5,0.7-1.5,1.5v24.6h-33.3V64.5h23.9c0.8,0,1.5-0.7,1.5-1.5c0-0.8-0.7-1.5-1.5-1.5h-23.9
		c-1.7,0-3,1.4-3,3v33.3c0,1.7,1.4,3,3,3h33.3c1.7,0,3-1.4,3-3V73.2C650.2,72.3,649.5,71.7,648.7,71.7z"/>
	<path class="st9" d="M650.3,61.3c-0.7-0.7-1.9-0.7-2.6,0l-16.1,16c-0.7,0.7-0.7,1.9,0,2.6c0.4,0.4,0.8,0.5,1.3,0.5
		c0.5,0,0.9-0.2,1.3-0.5l16.1-16C651,63.2,651,62,650.3,61.3z"/>
	<path class="st9" d="M619.3,91.6H636c0.8,0,1.5-0.7,1.5-1.5c0-0.8-0.7-1.5-1.5-1.5h-16.7c-0.8,0-1.5,0.7-1.5,1.5
		C617.8,91,618.5,91.6,619.3,91.6z"/>
	<path class="st9" d="M642.8,90.1C642.8,90.1,642.8,90.1,642.8,90.1c0-0.8-0.7-1.5-1.5-1.5c-0.8,0-1.5,0.7-1.5,1.5c0,0,0,0,0,0
		c0,0.8,0.7,1.5,1.5,1.5C642.1,91.6,642.8,91,642.8,90.1z"/>
</g>
<g>
	<g>
		<path class="st9" d="M679.1,61.3c10.5,0,19,8.5,19,19s-8.5,19-19,19s-19-8.5-19-19S668.6,61.3,679.1,61.3 M679.1,58.3
			c-12.2,0-22,9.8-22,22s9.8,22,22,22s22-9.8,22-22S691.2,58.3,679.1,58.3L679.1,58.3z"/>
	</g>
	<g>
		<circle class="st9" cx="679.1" cy="80.3" r="3"/>
		<circle class="st9" cx="668.1" cy="80.3" r="3"/>
		<circle class="st9" cx="690.1" cy="80.3" r="3"/>
	</g>
</g>
<g>
	<path class="st8" d="M182.9,109.3c-8.8,0-16,7.2-16,16c0,8.8,7.2,16,16,16s16-7.2,16-16C198.9,116.5,191.7,109.3,182.9,109.3z
		 M196.2,125.3c0,7.3-5.9,13.2-13.2,13.2s-13.2-5.9-13.2-13.2c0-7.3,5.9-13.2,13.2-13.2S196.2,118,196.2,125.3z"/>
	<path class="st8" d="M182.9,116c-1.1,0-1.9,0.9-1.9,1.9c0,1.1,0.9,1.9,1.9,1.9s1.9-0.9,1.9-1.9C184.9,116.9,184,116,182.9,116z"/>
	<path class="st8" d="M182.9,121.7c-0.8,0-1.4,0.6-1.4,1.4v10.2c0,0.8,0.6,1.4,1.4,1.4c0.8,0,1.4-0.6,1.4-1.4v-10.2
		C184.3,122.3,183.7,121.7,182.9,121.7z"/>
</g>
<g>
	<path class="st7" d="M223.1,109.3c-8.8,0-16,7.2-16,16c0,8.8,7.2,16,16,16s16-7.2,16-16C239.1,116.5,232,109.3,223.1,109.3z
		 M236.4,125.3c0,7.3-5.9,13.2-13.2,13.2s-13.2-5.9-13.2-13.2c0-7.3,5.9-13.2,13.2-13.2S236.4,118,236.4,125.3z"/>
	<path class="st7" d="M223.1,116c-1.1,0-1.9,0.9-1.9,1.9c0,1.1,0.9,1.9,1.9,1.9s1.9-0.9,1.9-1.9C225.1,116.9,224.2,116,223.1,116z"
		/>
	<path class="st7" d="M223.1,121.7c-0.8,0-1.4,0.6-1.4,1.4v10.2c0,0.8,0.6,1.4,1.4,1.4c0.8,0,1.4-0.6,1.4-1.4v-10.2
		C224.5,122.3,223.9,121.7,223.1,121.7z"/>
</g>
<g>
	<path class="st10" d="M263.4,109.3c-8.8,0-16,7.2-16,16c0,8.8,7.2,16,16,16s16-7.2,16-16C279.4,116.5,272.2,109.3,263.4,109.3z
		 M276.6,125.3c0,7.3-5.9,13.2-13.2,13.2s-13.2-5.9-13.2-13.2c0-7.3,5.9-13.2,13.2-13.2S276.6,118,276.6,125.3z"/>
	<path class="st10" d="M263.4,116c-1.1,0-1.9,0.9-1.9,1.9c0,1.1,0.9,1.9,1.9,1.9c1.1,0,1.9-0.9,1.9-1.9
		C265.3,116.9,264.4,116,263.4,116z"/>
	<path class="st10" d="M263.4,121.7c-0.8,0-1.4,0.6-1.4,1.4v10.2c0,0.8,0.6,1.4,1.4,1.4c0.8,0,1.4-0.6,1.4-1.4v-10.2
		C264.7,122.3,264.1,121.7,263.4,121.7z"/>
</g>
<g>
	<path class="st0" d="M303.6,109.3c-8.8,0-16,7.2-16,16c0,8.8,7.2,16,16,16s16-7.2,16-16C319.6,116.5,312.4,109.3,303.6,109.3z
		 M316.8,125.3c0,7.3-5.9,13.2-13.2,13.2s-13.2-5.9-13.2-13.2c0-7.3,5.9-13.2,13.2-13.2S316.8,118,316.8,125.3z"/>
	<path class="st0" d="M303.6,116c-1.1,0-1.9,0.9-1.9,1.9c0,1.1,0.9,1.9,1.9,1.9s1.9-0.9,1.9-1.9C305.5,116.9,304.7,116,303.6,116z"
		/>
	<path class="st0" d="M303.6,121.7c-0.8,0-1.4,0.6-1.4,1.4v10.2c0,0.8,0.6,1.4,1.4,1.4c0.8,0,1.4-0.6,1.4-1.4v-10.2
		C305,122.3,304.4,121.7,303.6,121.7z"/>
</g>
<g>
	<path class="st1" d="M570.2,115.5h-6.6v-0.9c0-2.4-2-4.3-4.5-4.3h-8.3c-2.5,0-4.5,1.9-4.5,4.3v0.9h-6.6c-1,0-1.8,0.7-1.8,1.7
		c0,0.9,0.8,1.7,1.8,1.7h2.4v17.9c0,3.1,2.7,5.6,5.9,5.6h13.9c3.3,0,5.9-2.5,5.9-5.6v-17.9h2.4c1,0,1.8-0.7,1.8-1.7
		C572,116.3,571.2,115.5,570.2,115.5z M549.8,115.5c0.2-1.1,1.2-1.9,2.4-1.9h5.5c1.2,0,2.2,0.8,2.4,1.9H549.8z M564.3,118.9v17.9
		c0,1.2-1.1,2.2-2.4,2.2H548c-1.3,0-2.4-1-2.4-2.2v-17.9H564.3z"/>
	<path class="st1" d="M559.1,137.1c1,0,1.8-0.7,1.8-1.7v-13c0-0.9-0.8-1.7-1.8-1.7c-1,0-1.8,0.7-1.8,1.7v13
		C557.4,136.4,558.2,137.1,559.1,137.1z"/>
	<path class="st1" d="M550.8,137.1c1,0,1.8-0.7,1.8-1.7v-13c0-0.9-0.8-1.7-1.8-1.7c-1,0-1.8,0.7-1.8,1.7v13
		C549.1,136.4,549.9,137.1,550.8,137.1z"/>
</g>
<g>
	<path class="st0" d="M599.1,137.1c1,0,1.8-0.7,1.8-1.7v-13c0-0.9-0.8-1.7-1.8-1.7c-1,0-1.8,0.7-1.8,1.7v13
		C597.4,136.4,598.2,137.1,599.1,137.1z"/>
	<path class="st0" d="M610.2,115.5h-6.6v-0.9c0-2.4-2-4.3-4.5-4.3h-8.3c-2.5,0-4.5,1.9-4.5,4.3v0.9h-6.6c-1,0-1.8,0.7-1.8,1.7
		c0,0.9,0.8,1.7,1.8,1.7h2.4v17.9c0,3.1,2.7,5.6,5.9,5.6h13.9c3.3,0,5.9-2.5,5.9-5.6v-17.9h2.4c1,0,1.8-0.7,1.8-1.7
		C612,116.3,611.2,115.5,610.2,115.5z M589.8,115.5c0.2-1.1,1.2-1.9,2.4-1.9h5.5c1.2,0,2.2,0.8,2.4,1.9H589.8z M604.3,118.9v17.9
		c0,1.2-1.1,2.2-2.4,2.2h-13.9c-1.3,0-2.4-1-2.4-2.2v-17.9H604.3z"/>
	<path class="st0" d="M590.8,137.1c1,0,1.8-0.7,1.8-1.7v-13c0-0.9-0.8-1.7-1.8-1.7c-1,0-1.8,0.7-1.8,1.7v13
		C589.1,136.4,589.9,137.1,590.8,137.1z"/>
</g>
<g>
	<ellipse class="st0" cx="684.4" cy="139.7" rx="2.7" ry="2.7"/>
	<path class="st0" d="M692.6,122.1c-0.2-0.4-0.5-0.7-0.9-0.9c-0.9-0.3-1.9,0.1-2.2,0.9l-6,8.9h-12.3l-4.6-17.8
		c-0.1-0.4-0.4-0.8-0.8-1.1l-4.3-1.5c-0.8-0.5-1.8-0.2-2.3,0.5c-0.2,0.4-0.3,0.8-0.2,1.3c0.1,0.4,0.4,0.8,0.8,1.1l3.7,1.2l4.8,18.4
		c0.2,0.8,0.9,1.3,1.7,1.3h14.8c0.7,0,1.3-0.4,1.6-1l6.5-10C692.8,122.9,692.8,122.5,692.6,122.1z"/>
	<path class="st0" d="M673.2,118.2h3.4v5.6c0,0.6,0.5,1.1,1.1,1.1h1.1c0.6,0,1.1-0.5,1.1-1.1v-5.6h3.4c0.5,0,0.7-0.3,0.7-0.4
		c0-0.1,0.1-0.4-0.2-0.8l-4.8-5.3c-0.4-0.4-1.1-0.4-1.5,0l-4.8,5.3c-0.3,0.4-0.2,0.7-0.2,0.8C672.5,118,672.7,118.2,673.2,118.2z
		 M683.5,117.3L683.5,117.3L683.5,117.3L683.5,117.3z"/>
	<ellipse class="st0" cx="672.1" cy="139.7" rx="2.7" ry="2.7"/>
</g>
<g>
	<ellipse class="st1" cx="643.5" cy="139.7" rx="2.7" ry="2.7"/>
	<path class="st1" d="M651.8,122.1c-0.2-0.4-0.5-0.7-0.9-0.9c-0.9-0.3-1.9,0.1-2.2,0.9l-6,8.9h-12.3l-4.6-17.8
		c-0.1-0.4-0.4-0.8-0.8-1.1l-4.3-1.5c-0.8-0.5-1.8-0.2-2.3,0.5c-0.2,0.4-0.3,0.8-0.2,1.3c0.1,0.4,0.4,0.8,0.8,1.1l3.7,1.2l4.8,18.4
		c0.2,0.8,0.9,1.3,1.7,1.3h14.8c0.7,0,1.3-0.4,1.6-1l6.5-10C652,122.9,652,122.5,651.8,122.1z"/>
	<path class="st1" d="M632.3,118.2h3.4v5.6c0,0.6,0.5,1.1,1.1,1.1h1.1c0.6,0,1.1-0.5,1.1-1.1v-5.6h3.4c0.5,0,0.7-0.3,0.7-0.4
		c0-0.1,0.1-0.4-0.2-0.8l-4.8-5.3c-0.4-0.4-1.1-0.4-1.5,0l-4.8,5.3c-0.3,0.4-0.2,0.7-0.2,0.8C631.7,118,631.9,118.2,632.3,118.2z
		 M642.7,117.3L642.7,117.3L642.7,117.3L642.7,117.3z"/>
	<ellipse class="st1" cx="631.3" cy="139.7" rx="2.7" ry="2.7"/>
</g>
<g>
	<path class="st1" d="M591.1,175.7c-0.7,0-1.3,0.6-1.3,1.2v8.4c0,0.2-0.5,0.7-1.4,0.7h-24.2c-0.9,0-1.4-0.4-1.4-0.7v-9.1
		c0-0.7-0.6-1.2-1.3-1.2s-1.3,0.6-1.3,1.2v9.1c0,0.9,0.5,1.8,1.3,2.4c0.7,0.5,1.6,0.8,2.6,0.8h24.2c1,0,1.9-0.3,2.6-0.8
		c0.8-0.6,1.3-1.5,1.3-2.4v-8.4C592.3,176.2,591.7,175.7,591.1,175.7z"/>
	<path class="st1" d="M573.8,178.5c0.7,0.7,1.5,1,2.5,1h0c0.9,0,1.8-0.4,2.5-1l5.7-5.6c0.5-0.5,0.5-1.3,0-1.8
		c-0.5-0.5-1.3-0.5-1.8,0l-5.1,5.1c0-0.1,0-0.2,0-0.3v-16.1c0-0.7-0.6-1.2-1.3-1.2s-1.3,0.6-1.3,1.2v16.1c0,0.1,0,0.2,0,0.3L570,171
		c-0.5-0.5-1.3-0.5-1.8,0c-0.5,0.5-0.5,1.3,0,1.8L573.8,178.5z"/>
</g>
<path class="st5" d="M523.7,122.9h-0.8v-3.1c0-5.3-4-9.4-9-9.4c-5,0-9,4.1-9,9.4v3.1h-0.8c-1.7,0-3,1.4-3,3.1v13.2
	c0,1.7,1.4,3.1,3,3.1h19.5c1.7,0,3-1.4,3-3.1V126C526.7,124.2,525.4,122.9,523.7,122.9z M507.5,119.7c0-3.6,2.9-6.6,6.4-6.6
	c3.5,0,6.4,2.9,6.4,6.6v3.2h-12.8V119.7z M515.2,132.5v3.5c0,0.7-0.6,1.3-1.3,1.3c-0.7,0-1.3-0.6-1.3-1.3v-3.5
	c-0.8-0.5-1.3-1.3-1.3-2.3c0-1.5,1.1-2.6,2.6-2.6s2.6,1.2,2.6,2.6C516.5,131.2,516,132,515.2,132.5z"/>
<g>
	<g>
		<g>
			<path class="st0" d="M714.6,114.7c6.8,0,12.4,5.6,12.4,12.4c0,6.8-5.6,12.4-12.4,12.4c-6.8,0-12.4-5.6-12.4-12.4
				C702.2,120.3,707.7,114.7,714.6,114.7 M714.6,113.1c-7.7,0-14,6.3-14,14s6.3,14,14,14s14-6.3,14-14S722.3,113.1,714.6,113.1
				L714.6,113.1z"/>
		</g>
	</g>
	<g>
		<path class="st0" d="M722.6,126.1h-16c-0.6,0-1,0.4-1,1s0.4,1,1,1h16c0.6,0,1-0.4,1-1S723.1,126.1,722.6,126.1L722.6,126.1z"/>
	</g>
	<g>
		<path class="st0" d="M714.6,118.1c-0.6,0-1,0.4-1,1v16c0,0.6,0.4,1,1,1c0.6,0,1-0.4,1-1v-16C715.6,118.6,715.1,118.1,714.6,118.1
			L714.6,118.1z"/>
	</g>
</g>
<g>
	<path class="st10" d="M700.6,7.7c-11,0-20,9-20,20c0,11,9,20,20,20c11,0,20-9,20-20C720.6,16.7,711.6,7.7,700.6,7.7z M700.6,45
		c-9.5,0-17.3-7.8-17.3-17.3c0-9.5,7.8-17.3,17.3-17.3c9.5,0,17.3,7.8,17.3,17.3C717.8,37.2,710.1,45,700.6,45z"/>
	<path class="st10" d="M712.4,21.3c-0.2-0.3-0.6-0.6-1-0.6c-0.4-0.1-0.8,0-1.1,0.3L695.9,31l-4.6-6.6c-0.2-0.3-0.6-0.6-1-0.6
		c-0.4-0.1-0.8,0-1.2,0.3c-0.3,0.2-0.6,0.6-0.6,1s0,0.8,0.3,1.2l5.3,7.5l0,0l0.5,0.7l0.1-0.1c0.3,0.2,0.6,0.3,0.9,0.3
		c0.3,0,0.6-0.1,0.9-0.3l15.6-11C712.7,23,712.9,22,712.4,21.3L712.4,21.3z"/>
</g>
<g>
	<path class="st10" d="M737.5,12.4c-6.1,0-11,4.9-11,11c0,6.1,4.9,11,11,11c6.1,0,11-4.9,11-11C748.5,17.4,743.6,12.4,737.5,12.4z
		 M737.5,32.9c-5.2,0-9.5-4.3-9.5-9.5c0-5.2,4.3-9.5,9.5-9.5c5.2,0,9.5,4.3,9.5,9.5C747,28.7,742.8,32.9,737.5,32.9z"/>
	<path class="st10" d="M744,19.9c-0.1-0.2-0.3-0.3-0.6-0.3c-0.2,0-0.4,0-0.6,0.1l-7.9,5.5l-2.5-3.6c-0.1-0.2-0.3-0.3-0.5-0.3
		c-0.2,0-0.5,0-0.6,0.1c-0.2,0.1-0.3,0.3-0.3,0.6c0,0.2,0,0.5,0.1,0.6l2.9,4.1l0,0l0.3,0.4l0,0c0.1,0.1,0.3,0.2,0.5,0.2
		c0.2,0,0.3-0.1,0.5-0.2l8.6-6C744.2,20.8,744.3,20.3,744,19.9L744,19.9z"/>
</g>
<path class="st0" d="M400.3,200.5h-54v-50h54c3.3,0,6,2.7,6,6v38C406.3,197.9,403.6,200.5,400.3,200.5z"/>
<g>
	<path class="st5" d="M392.8,174.4l-7.5-5.6c-0.6-0.5-1.4-0.3-1.8,0.3c-0.2,0.2-0.3,0.5-0.3,0.8v11.3c0,1.1,1.2,1.8,2.1,1.1l7.5-5.6
		C393.5,176,393.5,174.9,392.8,174.4z"/>
	<path class="st5" d="M360.7,164.4H392c0.7,0,1.4-0.7,1.4-1.5c0-0.8-0.6-1.5-1.4-1.5h-31.3c-0.7,0-1.4,0.7-1.4,1.5
		C359.3,163.8,359.9,164.4,360.7,164.4z"/>
	<path class="st5" d="M360.7,189.7H392c0.7,0,1.4-0.7,1.4-1.5s-0.6-1.5-1.4-1.5h-31.3c-0.7,0-1.4,0.7-1.4,1.5
		S359.9,189.7,360.7,189.7z"/>
	<path class="st5" d="M360.5,172.8h17.6c0.7,0,1.2-0.7,1.2-1.5s-0.5-1.5-1.2-1.5h-17.6c-0.7,0-1.2,0.7-1.2,1.5
		S359.9,172.8,360.5,172.8z"/>
	<path class="st5" d="M360.5,181.2h17.6c0.7,0,1.2-0.7,1.2-1.5c0-0.8-0.5-1.5-1.2-1.5h-17.6c-0.7,0-1.2,0.7-1.2,1.5v0
		C359.3,180.6,359.9,181.2,360.5,181.2z"/>
</g>
<g>
	<path class="st0" d="M434.1,158.1l5.8-5.5v20.9c0,1,0.7,1.7,1.7,1.7c1,0,1.7-0.7,1.7-1.7v-21.1l5.8,5.7c0.7,0.7,1.8,0.7,2.4,0
		c0.7-0.7,0.7-1.7,0-2.4l-8.6-8.6c-0.7-0.7-2-0.7-2.7,0l-8.6,8.6c-0.7,0.7-0.7,1.7,0,2.4C432.4,158.7,433.5,158.7,434.1,158.1z"/>
	<path class="st0" d="M448.9,183.5h-14.7c-1,0-1.7,0.7-1.7,1.7s0.7,1.7,1.7,1.7h14.7c1,0,1.7-0.7,1.7-1.7S449.9,183.5,448.9,183.5z"
		/>
	<path class="st0" d="M461.8,164.3H456c-1,0-1.7,0.7-1.7,1.7s0.7,1.7,1.7,1.7h5.7c2.4,0,4.4,2,4.4,4.4v18.5c0,2.5-2,4.4-4.4,4.4
		h-40.3c-2.4,0-4.4-2-4.4-4.4v-18.5c0-2.5,2-4.4,4.4-4.4h5.9c1,0,1.7-0.7,1.7-1.7s-0.7-1.7-1.7-1.7h-5.9l-0.7,0v0
		c-4,0.4-7.1,3.8-7.1,7.8v18.5c0,4.3,3.5,7.9,7.8,7.9h40.3c4.3,0,7.8-3.5,7.8-7.9v-18.5C469.6,167.8,466.1,164.3,461.8,164.3z"/>
</g>
<path class="st0" d="M427.7,131.9c-4.3-3.4-5.5-1.7-7.4,0.2c-1.4,1.4-4.8-1.5-7.7-4.4c-3-3-5.8-6.5-4.4-7.7c1.9-1.9,3.6-3.1,0.2-7.4
	c-3.4-4.3-5.8-1-7.6,0.9c-2.2,2.2-0.2,10.3,7.9,18.3c8,8,16.1,10.1,18.3,7.9C428.7,137.7,432,135.3,427.7,131.9L427.7,131.9z"/>
<path class="st0" d="M359.2,132.9l-9.6-11.1l9.6-9.9c0.1,0.2,0.1,0.4,0.1,0.6v19.7C359.3,132.4,359.3,132.7,359.2,132.9L359.2,132.9
	z M346.5,121.7l-3.2,2.5l-3.2-2.5l-1.6-1.3l-9.6-10c0.2-0.1,0.4-0.1,0.6-0.1h27.6c0.2,0,0.4,0,0.6,0.1l-9.6,10L346.5,121.7
	L346.5,121.7z M327.5,132.9c-0.1-0.2-0.1-0.4-0.1-0.7v-19.7c0-0.2,0-0.4,0.1-0.6l9.6,9.9L327.5,132.9L327.5,132.9z M343.3,126.7
	l4.7-3.7l9.7,11.2c-0.2,0.1-0.4,0.1-0.6,0.1h-27.6c-0.2,0-0.4,0-0.6-0.1l9.7-11.2L343.3,126.7L343.3,126.7z"/>
<g>
	<path class="st0" d="M442.8,134.5c-0.5,0-1-0.4-1-0.9c0-0.5,0.4-0.9,1-1h10.6c0.5,0,1,0.4,1,1c0,0.5-0.4,0.9-1,0.9H442.8z"/>
	<path class="st0" d="M460.9,116.8h-2.5V113c0-1.5-1.2-2.6-2.7-2.6h-15.2c-1.5,0-2.7,1.2-2.7,2.6v3.8h-2.6c-1.2,0-2.1,0.9-2.1,2.1
		V132c0,1.1,0.9,2.1,2.1,2.1h1c0.3,0,0.6-0.3,0.6-0.6v-2.1h0c-0.6,0-1.2-0.5-1.1-1.2c0.1-0.5,0.6-1,1.1-1h1v8.5
		c0,1.5,0.8,2.6,2.7,2.6h15.1c2,0,2.7-1.2,2.7-2.6v-8.5h1c0.3,0,0.6,0.1,0.8,0.3c0.2,0.2,0.3,0.5,0.3,0.8c0,0.6-0.5,1-1.1,1h0l0,2.1
		c0,0.3,0.3,0.6,0.6,0.6h1c1.2,0,2.1-0.9,2.1-2.1v-13.1C463.1,117.7,462.1,116.8,460.9,116.8z M440,113c0-0.3,0.2-0.5,0.5-0.5h15.2
		c0.3,0,0.5,0.2,0.5,0.5v3.8H440V113z M456.2,137.7c0,0.3-0.2,0.5-0.5,0.5h-15.1c-0.3,0-0.5-0.2-0.5-0.5v-8.5h16.2V137.7z
		 M457.3,123.6c-0.8,0-1.4-0.6-1.4-1.4s0.6-1.4,1.4-1.4s1.4,0.6,1.4,1.4C458.7,123,458,123.6,457.3,123.6z"/>
</g>
<path class="st0" d="M394.8,127.8c0.2-0.8,0.3-1.7,0.3-2.6c0-1.9-0.4-3.8-1.2-5.5c-0.8-1.7-1.9-3.2-3.3-4.5c-1.4-1.3-3.1-2.3-4.9-3
	c-1.9-0.7-3.9-1.1-6-1.1c-1,0-2,0.1-2.9,0.3c-1.3-0.6-2.8-1-4.3-1c-2.4,0-4.7,0.9-6.5,2.5c-1.7,1.6-2.7,3.7-2.7,5.9
	c0,1.4,0.4,2.8,1.1,4.1c-0.2,0.8-0.2,1.6-0.2,2.4c0,1.9,0.4,3.8,1.2,5.5c0.8,1.7,1.9,3.2,3.3,4.5c1.4,1.3,3.1,2.3,4.9,3
	c1.9,0.7,3.9,1.1,6,1.1c0.9,0,1.8-0.1,2.7-0.2c1.4,0.7,2.9,1.1,4.5,1.1c2.4,0,4.7-0.9,6.5-2.5c1.7-1.6,2.7-3.7,2.7-5.9
	C395.9,130.5,395.5,129.1,394.8,127.8L394.8,127.8z M379.6,134c-5.5,0-7.9-2.5-7.9-4.3c0-1,0.8-1.6,1.8-1.6c2.3,0,1.7,3.1,6.1,3.1
	c2.2,0,3.5-1.1,3.5-2.3c0-0.7-0.4-1.5-1.8-1.8l-4.9-1.1c-3.9-0.9-4.6-2.9-4.6-4.7c0-3.8,3.9-5.2,7.6-5.2c3.4,0,7.4,1.7,7.4,4
	c0,1-0.9,1.5-2,1.5c-2,0-1.6-2.5-5.7-2.5c-2,0-3.1,0.8-3.1,2s1.6,1.6,3,1.9l3.6,0.7c4,0.8,5,2.9,5,4.9
	C387.5,131.6,384.9,134,379.6,134z"/>
<path class="st0" d="M479.3,116.6c3.1,0,5.7,2.4,5.7,5.3s-2.6,5.3-5.7,5.3c-3.1,0-5.7-2.4-5.7-5.3
	C473.6,119,476.1,116.6,479.3,116.6z M491.8,121.9c0-6.4-5.6-11.5-12.5-11.5s-12.5,5.2-12.5,11.5c0,2.2,0.7,4.4,2,6.3l9.4,11.5
	c0.3,0.6,1.1,0.8,1.7,0.5c0.2-0.1,0.4-0.3,0.6-0.5l9.4-11.5C491,126.4,491.8,124.2,491.8,121.9L491.8,121.9z"/>
<g>
	<path class="st11" d="M88.7,189.5H35.2l1.3-2l52.3,0c1.5,0,2.8-1.2,2.8-2.7v-24c0-1.5-1.2-2.7-2.8-2.7l-62.3,0.1l-2-2l64.3-0.1
		c2.7,0,4.9,2.1,4.9,4.7v24C93.6,187.4,91.4,189.5,88.7,189.5z"/>
	<path class="st11" d="M15.7,153.9c0,0.1,0.1,0.4,0.1,0.7c0.1,0.4,0.4,0.9,0.4,1.5c0.4,1.6,0.9,3.7,1,4.5c0.4,1.8,0.7,4,0.7,4
		s-0.9-0.3-1.7-0.7c-0.3-0.1-2-1-2-1s1,1,1.4,1.2c0.3,0.1,2.4,1.3,2.4,1.3l0.9,4.1c0,0-0.7,0.1-3.3-1c-0.8-0.3-3-1.5-3-1.5
		s0.1,0.4,2.4,1.6c0.4,0.1,4.3,1.9,4.3,1.9l1.2,4.8c0,0-3.4-0.6-4.7-1.2c-2-0.7-3.1-1.5-3.1-1.3s1.2,0.7,2.5,1.5
		c1.3,0.7,5.9,2.3,5.9,2.3l2.1,5c0,0-2.5-0.1-5.1-1c-0.9-0.3-3.9-1.5-3.9-1.5s0.7,0.6,2.1,1.2c0.5,0.3,2,1,3.4,1.5
		c2,0.7,4.1,1.2,4.1,1.2l3.4,5.3c0,0-2.1,0-4.9-0.9c-1.3-0.4-2.8-0.9-3.8-1.3c-1.2-0.4-2-0.9-2-0.7c0.8,0.6,3.3,1.9,6.6,3.1
		c2.8,0.9,5.2,1.5,5.2,1.5l1.6,2.1c0,0-2.4,1.2-5.6,0.1c-3.7-1-7.5-3.8-10.8-8.4c-6-8.5-2-23.6-2-23.6l2.5-11.6
		c0.1,0,1.8,1.6,4.9,4.8c2.8,2.8,4.1,4.1,6.2,5.9c6.3,4.8,9.8,12.3,10.2,13.9c0.5,1.6,2.4,5.9,0,12.5c-0.9,3.5-4.3,5.9-4.3,5.9
		l-1.3-2.2c0,0,2.8-4.8,3.8-10.1s0.5-5.7,0.5-5.7s-0.8,4.3-1.8,7.3c-1,3.5-3.3,7.3-3.3,7.3s-1.6-2.2-2-2.9c-0.4-0.9-1.4-2.5-1.4-2.5
		s3-6.6,3.8-10c0.8-3.4,0.4-3.5,0.4-3.5s-2,5.4-2.6,6.7c-0.7,1.8-2.6,5.1-2.6,5.1l-2.1-4.7c0,0,2.4-4,2.9-7c0.5-2.1,0.3-1.9,0.3-1.9
		s-0.3,1.3-1.3,3.2c-2.4,4.8-2.5,4.3-2.5,4.3l-2.1-6.6c0,0,1.3-2.2,1.8-3.7s0.3-1.5,0.3-1.5s0.1,0-0.9,2.2c-1.3,2.5-1.3,1.9-1.3,1.9
		s-0.7-4.8-1.2-6.5c-0.4-1.3-1.4-4.5-1.8-6C16,154.2,15.7,153.9,15.7,153.9z"/>
	<g class="st3">
		<path class="st12" d="M41.1,174.1v-11H47c1.1,0,1.9,0.1,2.5,0.3c0.6,0.2,1,0.5,1.4,1c0.4,0.5,0.5,1.1,0.5,1.8
			c0,0.6-0.1,1.1-0.4,1.6c-0.3,0.4-0.6,0.8-1.1,1.1c-0.3,0.2-0.7,0.3-1.2,0.4c0.4,0.1,0.7,0.3,0.9,0.4c0.1,0.1,0.3,0.3,0.6,0.6
			c0.2,0.3,0.4,0.5,0.5,0.7l1.7,3.2h-4l-1.9-3.3c-0.2-0.4-0.4-0.7-0.6-0.8c-0.3-0.2-0.5-0.3-0.9-0.3h-0.3v4.4H41.1z M44.7,167.6h1.5
			c0.2,0,0.5,0,0.9-0.1c0.2,0,0.4-0.2,0.6-0.3c0.1-0.2,0.2-0.4,0.2-0.6c0-0.4-0.1-0.6-0.3-0.8c-0.2-0.2-0.7-0.3-1.3-0.3h-1.5V167.6z
			"/>
		<path class="st12" d="M52.4,170.1c0-1.2,0.4-2.2,1.3-3c0.8-0.8,2-1.2,3.4-1.2c1.6,0,2.9,0.5,3.7,1.4c0.7,0.7,1,1.7,1,2.7
			c0,1.2-0.4,2.2-1.3,3c-0.8,0.8-2,1.2-3.5,1.2c-1.3,0-2.4-0.3-3.2-1C52.9,172.5,52.4,171.4,52.4,170.1z M55.6,170.1
			c0,0.7,0.1,1.2,0.4,1.6c0.3,0.3,0.7,0.5,1.1,0.5c0.5,0,0.8-0.2,1.1-0.5c0.3-0.3,0.4-0.9,0.4-1.6c0-0.7-0.1-1.2-0.4-1.5
			c-0.3-0.3-0.7-0.5-1.1-0.5c-0.5,0-0.8,0.2-1.1,0.5C55.8,168.9,55.6,169.4,55.6,170.1z"/>
		<path class="st12" d="M63.6,163.1h3.5v3.8H71v-3.8h3.5v11H71v-4.4h-3.8v4.4h-3.5V163.1z"/>
		<path class="st12" d="M76.3,170.5l3.3-0.2c0.1,0.5,0.2,0.9,0.4,1.2c0.4,0.4,0.9,0.7,1.6,0.7c0.5,0,0.9-0.1,1.2-0.3
			c0.3-0.2,0.4-0.5,0.4-0.8c0-0.3-0.1-0.5-0.4-0.8c-0.3-0.2-0.9-0.4-1.8-0.6c-1.5-0.3-2.6-0.8-3.3-1.3c-0.7-0.6-1-1.3-1-2.1
			c0-0.6,0.2-1.1,0.5-1.6c0.3-0.5,0.8-0.9,1.5-1.2c0.7-0.3,1.6-0.4,2.8-0.4c1.5,0,2.6,0.3,3.3,0.8c0.8,0.5,1.2,1.3,1.4,2.5l-3.3,0.2
			c-0.1-0.5-0.3-0.9-0.6-1.1c-0.3-0.2-0.7-0.3-1.2-0.3c-0.4,0-0.7,0.1-0.9,0.3c-0.2,0.2-0.3,0.4-0.3,0.6c0,0.2,0.1,0.3,0.3,0.5
			c0.2,0.1,0.6,0.3,1.2,0.4c1.5,0.3,2.6,0.6,3.3,1c0.7,0.3,1.1,0.7,1.5,1.2c0.3,0.5,0.5,1,0.5,1.6c0,0.7-0.2,1.4-0.6,1.9
			c-0.4,0.6-1,1-1.7,1.3c-0.7,0.3-1.6,0.5-2.7,0.5c-1.9,0-3.3-0.4-4-1.1C76.8,172.5,76.4,171.6,76.3,170.5z"/>
	</g>
	<g>
		<path class="st12" d="M45.8,180.1l-1.3,0.2c0-0.3-0.1-0.5-0.3-0.6c-0.2-0.1-0.4-0.2-0.6-0.2c-0.3,0-0.6,0.1-0.8,0.3
			c-0.2,0.2-0.3,0.6-0.3,1.1c0,0.6,0.1,1,0.3,1.3c0.2,0.2,0.5,0.4,0.8,0.4c0.3,0,0.5-0.1,0.6-0.2c0.2-0.1,0.3-0.4,0.3-0.7l1.3,0.2
			c-0.1,0.6-0.4,1-0.8,1.4c-0.4,0.3-0.9,0.5-1.5,0.5c-0.7,0-1.3-0.2-1.7-0.7c-0.4-0.5-0.7-1.1-0.7-1.9c0-0.8,0.2-1.5,0.7-1.9
			c0.4-0.5,1-0.7,1.8-0.7c0.6,0,1.1,0.1,1.5,0.4C45.4,179.2,45.6,179.6,45.8,180.1z"/>
		<path class="st12" d="M46.5,181.1c0-0.4,0.1-0.9,0.3-1.3c0.2-0.4,0.5-0.7,0.9-0.9c0.4-0.2,0.8-0.3,1.3-0.3c0.8,0,1.4,0.2,1.9,0.7
			c0.5,0.5,0.7,1.1,0.7,1.9c0,0.8-0.2,1.4-0.7,1.9c-0.5,0.5-1.1,0.7-1.8,0.7c-0.5,0-0.9-0.1-1.3-0.3c-0.4-0.2-0.7-0.5-0.9-0.9
			C46.6,182.1,46.5,181.6,46.5,181.1z M47.8,181.1c0,0.5,0.1,0.9,0.4,1.1c0.2,0.3,0.5,0.4,0.9,0.4c0.3,0,0.6-0.1,0.9-0.4
			c0.2-0.3,0.4-0.6,0.4-1.1c0-0.5-0.1-0.9-0.4-1.1c-0.2-0.3-0.5-0.4-0.9-0.4c-0.3,0-0.6,0.1-0.9,0.4C48,180.3,47.8,180.6,47.8,181.1
			z"/>
		<path class="st12" d="M52.6,178.6h1.2v0.7c0.4-0.5,1-0.8,1.6-0.8c0.3,0,0.6,0.1,0.8,0.2c0.2,0.1,0.4,0.3,0.6,0.6
			c0.2-0.3,0.5-0.5,0.7-0.6c0.3-0.1,0.5-0.2,0.8-0.2c0.4,0,0.7,0.1,0.9,0.2c0.3,0.1,0.4,0.4,0.6,0.7c0.1,0.2,0.1,0.6,0.1,1v3.2h-1.3
			v-2.9c0-0.5,0-0.8-0.1-1c-0.1-0.2-0.3-0.3-0.6-0.3c-0.2,0-0.4,0.1-0.5,0.2c-0.2,0.1-0.3,0.3-0.4,0.5c-0.1,0.2-0.1,0.6-0.1,1v2.4
			h-1.3v-2.7c0-0.5,0-0.8-0.1-0.9c0-0.1-0.1-0.2-0.2-0.3c-0.1-0.1-0.2-0.1-0.4-0.1c-0.2,0-0.4,0.1-0.6,0.2c-0.2,0.1-0.3,0.3-0.4,0.5
			c-0.1,0.2-0.1,0.6-0.1,1v2.4h-1.3V178.6z"/>
		<path class="st12" d="M61.2,178.6h1.2v0.7c0.2-0.3,0.4-0.5,0.6-0.6c0.3-0.2,0.6-0.2,0.9-0.2c0.6,0,1.1,0.2,1.5,0.7
			s0.6,1.1,0.6,1.9c0,0.8-0.2,1.5-0.6,1.9c-0.4,0.5-0.9,0.7-1.5,0.7c-0.3,0-0.5-0.1-0.8-0.2c-0.2-0.1-0.5-0.3-0.7-0.6v2.5h-1.3
			V178.6z M62.5,181.1c0,0.6,0.1,1,0.3,1.2c0.2,0.3,0.5,0.4,0.8,0.4c0.3,0,0.6-0.1,0.8-0.4c0.2-0.2,0.3-0.7,0.3-1.2
			c0-0.5-0.1-0.9-0.3-1.2c-0.2-0.3-0.5-0.4-0.8-0.4c-0.3,0-0.6,0.1-0.8,0.4C62.6,180.2,62.5,180.6,62.5,181.1z"/>
		<path class="st12" d="M67.1,183.6v-6.9h1.3v6.9H67.1z"/>
		<path class="st12" d="M69.8,178v-1.2h1.3v1.2H69.8z M69.8,183.6v-5h1.3v5H69.8z"/>
		<path class="st12" d="M73.5,180.2l-1.2-0.2c0.1-0.5,0.4-0.8,0.7-1.1c0.3-0.2,0.8-0.3,1.5-0.3c0.6,0,1,0.1,1.3,0.2
			c0.3,0.1,0.5,0.3,0.6,0.5c0.1,0.2,0.2,0.6,0.2,1.2l0,1.5c0,0.4,0,0.8,0.1,1c0,0.2,0.1,0.4,0.2,0.7h-1.3c0-0.1-0.1-0.2-0.1-0.4
			c0-0.1,0-0.1,0-0.2c-0.2,0.2-0.5,0.4-0.7,0.5c-0.3,0.1-0.5,0.2-0.8,0.2c-0.5,0-0.9-0.1-1.2-0.4c-0.3-0.3-0.4-0.6-0.4-1.1
			c0-0.3,0.1-0.5,0.2-0.8c0.1-0.2,0.3-0.4,0.6-0.5c0.2-0.1,0.6-0.2,1.1-0.3c0.6-0.1,1-0.2,1.3-0.3v-0.1c0-0.3-0.1-0.4-0.2-0.5
			c-0.1-0.1-0.4-0.2-0.7-0.2c-0.2,0-0.4,0-0.6,0.1C73.7,179.8,73.6,179.9,73.5,180.2z M75.3,181.2c-0.2,0.1-0.4,0.1-0.8,0.2
			c-0.4,0.1-0.6,0.2-0.7,0.2c-0.2,0.1-0.3,0.3-0.3,0.5c0,0.2,0.1,0.3,0.2,0.5c0.1,0.1,0.3,0.2,0.5,0.2c0.2,0,0.5-0.1,0.7-0.2
			c0.2-0.1,0.3-0.3,0.3-0.4c0-0.1,0.1-0.3,0.1-0.6V181.2z"/>
		<path class="st12" d="M82.4,183.6h-1.3v-2.6c0-0.5,0-0.9-0.1-1c-0.1-0.2-0.1-0.3-0.3-0.4c-0.1-0.1-0.3-0.1-0.5-0.1
			c-0.2,0-0.4,0.1-0.6,0.2c-0.2,0.1-0.3,0.3-0.4,0.5c-0.1,0.2-0.1,0.6-0.1,1.1v2.3h-1.3v-5h1.2v0.7c0.4-0.6,1-0.8,1.6-0.8
			c0.3,0,0.6,0.1,0.8,0.2c0.2,0.1,0.4,0.2,0.5,0.4c0.1,0.2,0.2,0.3,0.3,0.6c0,0.2,0.1,0.5,0.1,0.9V183.6z"/>
		<path class="st12" d="M86.1,178.6v1.1h-0.9v2c0,0.4,0,0.6,0,0.7c0,0.1,0.1,0.1,0.1,0.2c0.1,0,0.1,0.1,0.2,0.1c0.1,0,0.3,0,0.5-0.1
			l0.1,1c-0.3,0.1-0.7,0.2-1,0.2c-0.2,0-0.5,0-0.6-0.1c-0.2-0.1-0.3-0.2-0.4-0.3c-0.1-0.1-0.2-0.3-0.2-0.5c0-0.2,0-0.5,0-0.9v-2.2
			h-0.6v-1.1h0.6v-1l1.3-0.8v1.8H86.1z"/>
	</g>
</g>
<g>
	<path class="st13" d="M747.2,60.7c0,0-4.3,2.7-10.9-0.7c-2.5-1.3-4.9-2.7-7.1-4.3v18.6h18C747.8,67.2,747.2,60.7,747.2,60.7z"/>
	<path class="st13" d="M735.7,86.7L735.7,86.7l0.1-0.9c0-3.4,2.9-6.1,6.5-6.1c1.5,0,2.9,0.5,4,1.3c0.2-0.7,0.3-1.5,0.4-2.2h-17.5v21
		c1.6-0.6,3-1.4,4.5-2.2l0-8.8C733.7,87.6,734.6,86.7,735.7,86.7z"/>
	<path class="st13" d="M710,87.3c4.4,7.6,11.2,11,14.7,12.4V78.7h-17.5C707.7,81.8,708.6,84.9,710,87.3z"/>
	<path class="st13" d="M706.6,60.6c0,0-0.6,6.5,0,13.7h18V55.7c-2.3,1.6-4.6,3-7.1,4.2C710.9,63.4,706.6,60.6,706.6,60.6z"/>
	<path class="st13" d="M746.8,86.8c0.1-0.3,0.1-0.5,0.1-0.8c0-2.4-2-4.3-4.5-4.3c-2.5,0-4.5,1.9-4.5,4.3c0,0.3,0,0.5,0.1,0.8h1.8
		v-0.9c0-1.3,1.1-2.4,2.6-2.4c1.4,0,2.6,1.1,2.6,2.4v0.9H746.8z"/>
	<path class="st13" d="M747.8,88.2h-11c-0.8,0-1.5,0.6-1.5,1.4V98c0,0.8,0.7,1.4,1.5,1.4h11c0.8,0,1.5-0.6,1.5-1.4v-8.4
		C749.4,88.8,748.7,88.2,747.8,88.2z M743.3,94v2.1c0,0.5-0.4,0.8-0.9,0.8h-0.2c-0.5,0-0.9-0.4-0.9-0.8V94c-0.6-0.3-1-0.9-1-1.5
		c0-1,0.8-1.8,1.9-1.8c1,0,1.9,0.8,1.9,1.8C744.2,93.1,743.8,93.7,743.3,94z"/>
</g>
</svg>
