<?xml version="1.0" encoding="iso-8859-1"?>
<!-- Generator: Adobe Illustrator 26.0.0, SVG Export Plug-In . SVG Version: 6.00 Build 0)  -->
<svg version="1.1" id="&#x56FE;&#x5C42;_1" xmlns="http://www.w3.org/2000/svg" xmlns:xlink="http://www.w3.org/1999/xlink" x="0px"
	 y="0px" viewBox="0 0 130 60" style="enable-background:new 0 0 130 60;" xml:space="preserve">
<path style="fill:#1770DE;" d="M73.76,13.045l-4.844-5.261c-0.285-0.312-0.797-0.304-1.068-0.007
	c-0.356,0.33-0.359,0.747-0.007,1.145l3.624,3.937h-11.94c-0.412,0-0.748,0.335-0.748,0.748v0.125c0,0.412,0.335,0.748,0.748,0.748
	h11.939l-3.623,3.935c-0.196,0.202-0.291,0.41-0.281,0.616c0.008,0.192,0.109,0.376,0.28,0.522c0.143,0.156,0.334,0.241,0.538,0.241
	s0.395-0.085,0.538-0.241l4.843-5.26c0.161-0.137,0.269-0.334,0.269-0.562v-0.125C74.028,13.379,73.921,13.182,73.76,13.045z"/>
<path style="fill:#FFFFFF;" d="M90.855,13.171L86.011,7.91c-0.285-0.312-0.797-0.304-1.068-0.007
	c-0.356,0.33-0.359,0.747-0.007,1.145l3.624,3.937H76.62c-0.412,0-0.748,0.335-0.748,0.748v0.125c0,0.412,0.335,0.748,0.748,0.748
	H88.56l-3.623,3.935c-0.196,0.202-0.291,0.41-0.281,0.616c0.008,0.192,0.109,0.376,0.28,0.522c0.143,0.156,0.334,0.241,0.538,0.241
	s0.395-0.085,0.538-0.241l4.843-5.26c0.161-0.137,0.269-0.334,0.269-0.562v-0.125C91.123,13.505,91.015,13.308,90.855,13.171z"/>
<g>
	<path style="fill:#1770DE;" d="M20.91,14.438C20.91,14.438,20.91,14.438,20.91,14.438c0.445,0,0.871-0.181,1.2-0.51l5.767-5.493
		v20.923c0,1.015,0.705,1.724,1.714,1.724c1.009,0,1.714-0.709,1.714-1.724V8.22l5.762,5.703c0.659,0.664,1.751,0.664,2.41,0
		c0.683-0.689,0.683-1.728,0-2.418c0,0-8.436-8.506-8.558-8.63c-0.65-0.655-2.006-0.655-2.654,0l-8.558,8.63
		c-0.684,0.689-0.684,1.728,0,2.418C20.035,14.255,20.463,14.438,20.91,14.438z"/>
	<path style="fill:#1770DE;" d="M36.927,39.348H22.256c-1.009,0-1.714,0.709-1.714,1.724c0,1.015,0.705,1.724,1.714,1.724h14.672
		c1.009,0,1.714-0.709,1.714-1.724C38.641,40.057,37.936,39.348,36.927,39.348z"/>
	<path style="fill:#1770DE;" d="M49.764,20.114h-5.746c-1.009,0-1.714,0.709-1.714,1.724c0,1.015,0.705,1.724,1.714,1.724h5.746
		c2.426,0,4.399,1.992,4.399,4.441v18.494c0,2.449-1.974,4.441-4.399,4.441H9.418c-2.426,0-4.399-1.992-4.399-4.441V28.002
		c0-2.449,1.974-4.441,4.399-4.441h5.868c1.009,0,1.714-0.709,1.714-1.724c0-1.015-0.705-1.724-1.714-1.724H9.418l-0.736,0.012
		v0.031c-3.951,0.381-7.091,3.803-7.091,7.845v18.494c0,4.35,3.511,7.888,7.827,7.888h40.346c4.316,0,7.827-3.539,7.827-7.888
		V28.002C57.591,23.653,54.08,20.114,49.764,20.114z"/>
</g>
<path style="fill:#FF4D4F;" d="M99.478,12.689l3.045-3.045c0.133-0.133,0.207-0.311,0.207-0.499c0-0.188-0.073-0.366-0.207-0.5
	c-0.274-0.275-0.723-0.275-0.998,0l-3.045,3.045l-3.045-3.046c-0.276-0.275-0.724-0.274-0.998,0c-0.134,0.133-0.207,0.311-0.207,0.5
	c0,0.188,0.074,0.366,0.207,0.499l3.045,3.045l-3.045,3.045c-0.133,0.133-0.207,0.311-0.207,0.499c0,0.188,0.073,0.366,0.207,0.5
	c0.274,0.274,0.723,0.274,0.998,0l3.045-3.045l3.045,3.046c0.138,0.137,0.318,0.206,0.499,0.206c0.181,0,0.362-0.068,0.499-0.206
	c0.134-0.133,0.207-0.311,0.207-0.5c0-0.188-0.074-0.366-0.207-0.499L99.478,12.689z"/>
<path style="fill:#1770DE;" d="M98.727,42.746c-1.714-1.374-2.213-0.687-2.961,0.062c-0.561,0.562-1.932-0.593-3.086-1.779
	c-1.184-1.186-2.337-2.591-1.776-3.09c0.779-0.78,1.434-1.249,0.062-2.965c-1.371-1.717-2.307-0.406-3.054,0.343
	c-0.873,0.874-0.063,4.12,3.148,7.335c3.21,3.184,6.452,4.027,7.325,3.153C99.132,45.056,100.473,44.119,98.727,42.746
	L98.727,42.746z"/>
<path style="fill:#1770DE;" d="M73.74,43.763l-3.589-4.175l3.593-3.724c0.026,0.077,0.043,0.157,0.043,0.242v7.403
	C73.787,43.598,73.768,43.682,73.74,43.763L73.74,43.763z M68.977,39.553l-1.19,0.932l-1.186-0.93l-0.603-0.471l-3.615-3.741
	c0.075-0.021,0.152-0.037,0.234-0.037h10.341c0.082,0,0.158,0.015,0.233,0.037l-3.613,3.738L68.977,39.553L68.977,39.553z
	 M61.835,43.763c-0.03-0.081-0.047-0.168-0.048-0.255v-7.403c0-0.085,0.018-0.165,0.043-0.242l3.596,3.725L61.835,43.763
	L61.835,43.763z M67.787,41.439l1.762-1.38l3.633,4.214c-0.073,0.021-0.148,0.033-0.224,0.034H62.616
	c-0.078,0-0.152-0.014-0.224-0.033l3.635-4.213L67.787,41.439L67.787,41.439z"/>
<g>
	<path style="fill:#1770DE;" d="M104.367,43.279c-0.216,0-0.388-0.167-0.388-0.375s0.173-0.375,0.388-0.383h4.247
		c0.216,0,0.388,0.167,0.388,0.383c0,0.208-0.173,0.375-0.388,0.375H104.367z"/>
	<path style="fill:#1770DE;" d="M111.645,36.196h-1.001v-1.533c0-0.583-0.492-1.058-1.096-1.058h-6.077
		c-0.604,0-1.096,0.475-1.096,1.058v1.533h-1.036c-0.475,0-0.855,0.367-0.855,0.825v5.242c0,0.458,0.38,0.825,0.855,0.825h0.397
		c0.138,0,0.242-0.108,0.242-0.233v-0.85h-0.009c-0.259,0-0.466-0.217-0.44-0.467c0.026-0.217,0.224-0.383,0.458-0.383h0.397v3.392
		c0,0.583,0.311,1.058,1.096,1.058h6.034c0.811,0,1.096-0.475,1.096-1.058v-3.392h0.388c0.112,0,0.224,0.05,0.311,0.125
		c0.078,0.083,0.129,0.192,0.121,0.3c0,0.233-0.199,0.417-0.432,0.417h-0.017l0.009,0.85c0,0.133,0.112,0.233,0.242,0.233h0.397
		c0.475,0,0.855-0.367,0.855-0.825v-5.233C112.499,36.563,112.119,36.196,111.645,36.196z M103.254,34.663
		c0-0.117,0.095-0.208,0.216-0.208h6.077c0.121,0,0.216,0.092,0.216,0.208v1.533h-6.509V34.663z M109.728,44.546
		c0,0.117-0.095,0.208-0.216,0.208h-6.034c-0.121,0-0.216-0.092-0.216-0.208v-3.392h6.466V44.546z M110.168,38.913
		c-0.311,0-0.561-0.242-0.561-0.542s0.25-0.542,0.561-0.542s0.561,0.242,0.561,0.542C110.738,38.663,110.479,38.913,110.168,38.913z
		"/>
</g>
<path style="fill:#1770DE;" d="M86.262,40.732c0.062-0.31,0.095-0.627,0.095-0.944c0-0.703-0.15-1.386-0.446-2.027
	c-0.285-0.62-0.695-1.177-1.215-1.656c-0.521-0.478-1.127-0.853-1.802-1.115c-0.699-0.272-1.44-0.409-2.205-0.409
	c-0.36,0-0.722,0.032-1.073,0.094c-0.485-0.236-1.028-0.361-1.577-0.361c-0.896,0-1.739,0.321-2.372,0.903
	c-0.633,0.582-0.983,1.357-0.983,2.18c0,0.524,0.147,1.039,0.422,1.494c-0.056,0.295-0.086,0.597-0.086,0.897
	c0,0.703,0.15,1.386,0.446,2.027c0.285,0.62,0.693,1.177,1.214,1.656c0.521,0.478,1.127,0.853,1.802,1.115
	c0.699,0.272,1.44,0.409,2.205,0.409c0.333,0,0.666-0.028,0.993-0.081c0.503,0.261,1.07,0.4,1.65,0.4
	c0.896,0,1.739-0.32,2.372-0.903c0.635-0.582,0.983-1.357,0.983-2.18C86.687,41.707,86.54,41.19,86.262,40.732L86.262,40.732z
	 M80.712,42.978c-2.013,0-2.913-0.91-2.913-1.591c0-0.35,0.281-0.594,0.668-0.594c0.861,0,0.639,1.137,2.246,1.137
	c0.824,0,1.278-0.411,1.278-0.831c0-0.252-0.135-0.534-0.678-0.656l-1.791-0.411c-1.442-0.332-1.704-1.049-1.704-1.722
	c0-1.398,1.433-1.923,2.778-1.923c1.239,0,2.7,0.63,2.7,1.468c0,0.36-0.339,0.568-0.726,0.568c-0.735,0-0.6-0.935-2.081-0.935
	c-0.735,0-1.142,0.306-1.142,0.743c0,0.437,0.581,0.576,1.085,0.682l1.326,0.27c1.452,0.298,1.82,1.077,1.82,1.81
	C83.577,42.129,82.628,42.978,80.712,42.978z"/>
<path style="fill:#1770DE;" d="M118.381,36.132c1.259,0,2.279,0.942,2.279,2.104c0,1.162-1.02,2.105-2.279,2.105
	c-1.259,0-2.279-0.942-2.279-2.105C116.102,37.074,117.122,36.132,118.381,36.132z M123.381,38.237c0-2.55-2.239-4.617-5-4.617
	c-2.761,0-5,2.067-5,4.617c0,0.896,0.282,1.772,0.812,2.522l3.74,4.605c0.123,0.229,0.424,0.321,0.671,0.208
	c0.097-0.045,0.176-0.118,0.225-0.208l3.747-4.605C123.082,40.033,123.381,39.169,123.381,38.237L123.381,38.237z"/>
<g>
	<path style="fill:#4FA72D;" d="M116.909,1.799c-6.617,0-12,5.383-12,12s5.383,12,12,12s12-5.383,12-12S123.526,1.799,116.909,1.799
		z M126.961,13.799c0,5.543-4.51,10.053-10.053,10.053c-5.544,0-10.054-4.51-10.054-10.053s4.51-10.053,10.054-10.053
		C122.452,3.745,126.961,8.255,126.961,13.799z"/>
	<path style="fill:#4FA72D;" d="M114.08,17.543l-3.158-4.491c-0.303-0.431-0.902-0.535-1.337-0.232
		c-0.431,0.306-0.535,0.906-0.231,1.337l3.627,5.158l-0.006,0.007l0.231,0.312l0.026-0.018c0.171,0.144,0.387,0.224,0.617,0.224
		c0.199,0,0.389-0.061,0.553-0.176l10.466-7.386c0.431-0.305,0.535-0.904,0.23-1.338c-0.149-0.21-0.369-0.348-0.624-0.392
		c-0.256-0.039-0.508,0.019-0.713,0.162L114.08,17.543z"/>
</g>
</svg>
