<?xml version="1.0" encoding="utf-8"?>
<!-- Generator: Adobe Illustrator 26.0.0, SVG Export Plug-In . SVG Version: 6.00 Build 0)  -->
<svg version="1.1" id="图层_1" xmlns="http://www.w3.org/2000/svg" xmlns:xlink="http://www.w3.org/1999/xlink" x="0px" y="0px"
	 viewBox="0 0 200 67.9" style="enable-background:new 0 0 200 67.9;" xml:space="preserve">
<style type="text/css">
	.st0{fill:#555555;}
	.st1{fill:#888888;}
	.st2{fill:#1770DE;}
	.st3{fill:#FFFFFF;}
	.st4{fill:#666666;}
	.st5{fill:#4FA72D;}
	.st6{fill:#1770DE;stroke:#1770DE;stroke-width:0.5;stroke-miterlimit:10;}
</style>
<g>
	<path class="st0" d="M9.9,2.6c-4.4,0-8,3.6-8,8s3.6,8,8,8s8-3.6,8-8S14.3,2.6,9.9,2.6z M16.3,10.6c0,3.6-2.9,6.4-6.4,6.4
		c-3.6,0-6.4-2.9-6.4-6.4s2.9-6.4,6.4-6.4C13.4,4.2,16.3,7,16.3,10.6z"/>
	<path class="st0" d="M13.5,12.8c-0.1-1.5-0.9-2.8-2.2-3.4c0.4-0.4,0.6-1,0.6-1.6c0-1.2-1-2.2-2.2-2.2s-2.2,1-2.2,2.2
		c0,0.6,0.2,1.1,0.6,1.6c-1.3,0.6-2.2,1.9-2.2,3.4l0,0.1c0,0,0,0.1,0,0.1c0,0.3,0,0.6,0.1,0.8L6,14h7.4l0-0.2
		c0.1-0.3,0.1-0.6,0.1-0.8C13.5,13,13.5,13,13.5,12.8L13.5,12.8z M9.7,8.8c-0.5,0-0.9-0.4-0.9-0.9c0-0.5,0.4-0.9,0.9-0.9
		c0.5,0,0.9,0.4,0.9,0.9C10.6,8.4,10.2,8.8,9.7,8.8z M7.3,12.7c0.2-1.2,1.2-2.1,2.4-2.1c1.2,0,2.2,0.9,2.4,2.1H7.3z"/>
</g>
<g>
	<path class="st0" d="M26.4,14.7h-3c-0.3,0-0.6,0.3-0.6,0.6c0,0.3,0.3,0.6,0.6,0.6h3c0.3,0,0.6-0.3,0.6-0.6
		C27,14.9,26.7,14.7,26.4,14.7z"/>
	<path class="st0" d="M30.5,11.8h-7.1c-0.3,0-0.6,0.3-0.6,0.6c0,0.3,0.3,0.6,0.6,0.6h7.1c0.3,0,0.6-0.3,0.6-0.6
		C31.1,12.1,30.8,11.8,30.5,11.8z"/>
	<path class="st0" d="M30.5,9h-7.1c-0.3,0-0.6,0.3-0.6,0.6c0,0.3,0.3,0.6,0.6,0.6h7.1c0.3,0,0.6-0.3,0.6-0.6C31.1,9.3,30.8,9,30.5,9
		z"/>
	<path class="st0" d="M32.8,5h-1.8c-0.1-0.7-0.7-1.2-1.5-1.3c-0.2-0.7-0.8-1.2-1.7-1.2H26c-0.8,0-1.5,0.5-1.6,1.2
		C23.6,3.8,23,4.3,22.9,5h-1.8c-0.9,0-1.6,0.7-1.6,1.6V17c0,0.9,0.7,1.6,1.6,1.6h11.7c0.9,0,1.6-0.7,1.6-1.6V6.6
		C34.4,5.7,33.7,5,32.8,5z M33,6.6V17c0,0.1-0.1,0.2-0.3,0.2H21.1c-0.1,0-0.3-0.1-0.3-0.2V6.6c0-0.1,0.1-0.2,0.3-0.2h1.8
		c0,0.8,0.7,1.5,1.7,1.5h4.7c1,0,1.7-0.6,1.7-1.5h1.8C32.9,6.3,33,6.5,33,6.6z M28.8,5.1h0.5c0.3,0,0.3,0.1,0.3,0.1v1.1
		c0,0.1-0.2,0.2-0.3,0.2h-4.7c-0.3,0-0.3-0.1-0.3-0.2l0-1.1c0,0,0-0.1,0.3-0.1H25c0.4,0,0.7-0.3,0.7-0.7V4.1c0-0.1,0-0.2,0.3-0.2
		h1.8c0.1,0,0.3,0,0.3,0.2v0.3C28.1,4.8,28.4,5.1,28.8,5.1z"/>
</g>
<g>
	<path class="st0" d="M44,2.5c-4.4,0-8,3.6-8,8s3.6,8,8,8s8-3.6,8-8S48.5,2.5,44,2.5z M50.5,10.5c0,3.6-2.9,6.4-6.4,6.4
		c-3.6,0-6.4-2.9-6.4-6.4c0-3.6,2.9-6.4,6.4-6.4C47.6,4.1,50.5,7,50.5,10.5z"/>
	<path class="st0" d="M46.1,10.2c-0.2-0.1-0.7-0.2-1.4-0.4V8.1c0.4,0.1,0.7,0.3,0.8,0.8l0,0.1l1.4-0.3l0-0.1c-0.3-1-1.1-1.5-2.2-1.7
		V6.1h-1v0.8c-1.6,0.2-2.4,0.9-2.4,2.2c0,0.5,0.2,0.9,0.5,1.3c0.3,0.3,0.9,0.6,1.9,0.8V13c-0.6-0.1-1-0.4-1.2-1.1l0-0.1l-1.5,0.3
		l0,0.1c0.4,1.2,1.3,1.8,2.7,2v1h1v-1c0.8-0.1,1.4-0.3,1.8-0.7c0.4-0.4,0.7-0.9,0.7-1.6c0-0.4-0.1-0.8-0.3-1.1
		C46.6,10.5,46.3,10.3,46.1,10.2z M45.6,12.1c0,0.3-0.1,0.5-0.3,0.6c-0.2,0.2-0.4,0.2-0.7,0.3v-1.8C45.3,11.5,45.6,11.7,45.6,12.1z
		 M42.7,8.9c0-0.3,0.1-0.4,0.3-0.6c0.2-0.1,0.4-0.2,0.6-0.2v1.5C42.7,9.5,42.7,9.1,42.7,8.9z"/>
</g>
<g>
	<ellipse class="st0" cx="59.7" cy="9.6" rx="1" ry="1"/>
	<ellipse class="st0" cx="64.5" cy="9.6" rx="1" ry="1"/>
	<path class="st0" d="M69.8,7.2c0,0-0.1,0-0.1,0c-1.1-3.3-4.1-5.6-7.5-5.6c-3.5,0-6.5,2.2-7.5,5.6c0,0-0.1,0-0.1,0
		c-0.5,0-0.8,0.4-0.8,0.8v3.1c0,0.5,0.4,0.8,0.8,0.8c0,0,0.1,0,0.1,0c1,3.4,4.1,5.7,7.6,5.7c0.8,0,1.5-0.1,2.3-0.3l0.1,0
		c0.3-0.1,0.5-0.4,0.5-0.7c0-0.4-0.3-0.8-0.8-0.8c-0.1,0-0.2,0-0.3,0.1c-0.6,0.2-1.2,0.3-1.8,0.3c-3.5,0-6.4-2.9-6.4-6.4
		s2.9-6.4,6.4-6.4c3.5,0,6.4,2.9,6.4,6.4c0,0.5,0,1.2-0.3,2.3c0,0,0,0.1,0,0.2c0,0.4,0.3,0.8,0.8,0.8c0,0,0,0,0,0
		c0.5,0,0.7-0.5,0.7-0.6c0,0,0-0.2,0.1-0.3c0,0,0,0,0,0c0.5,0,0.8-0.4,0.8-0.8V8C70.6,7.6,70.2,7.2,69.8,7.2z"/>
</g>
<path class="st1" d="M80.4,3.5c-0.3-0.3-0.7-0.3-0.9,0l-3,3l-3-3c-0.3-0.3-0.7-0.2-0.9,0c-0.2,0.3-0.2,0.7,0,0.9L76,7.9
	c0.1,0.1,0.3,0.2,0.5,0.2c0,0,0,0,0,0s0,0,0,0c0.2,0,0.3-0.1,0.5-0.2l3.5-3.5C80.7,4.2,80.7,3.8,80.4,3.5z"/>
<path class="st1" d="M72.6,17.1c0.3,0.3,0.7,0.3,0.9,0l3-3l3,3c0.3,0.3,0.7,0.2,0.9,0c0.2-0.3,0.2-0.7,0-0.9L77,12.8
	c-0.1-0.1-0.3-0.2-0.5-0.2c0,0,0,0,0,0s0,0,0,0c-0.2,0-0.3,0.1-0.5,0.2l-3.5,3.5C72.4,16.5,72.4,16.9,72.6,17.1z"/>
<g>
	<path class="st0" d="M39.6,24.5l-1-1c-0.3-0.3-0.7-0.4-1.2-0.3c-0.3,0.1-0.6,0.3-0.9,0.5l-5.9,6.1c-0.3,0.3-0.5,0.6-0.6,1L29.4,33
		c-0.1,0.3,0,0.6,0.2,0.9c0.2,0.2,0.4,0.2,0.6,0.2c0.1,0,0.2,0,0.3,0l2.2-0.7c0.4-0.1,0.7-0.3,0.9-0.6l5.9-6.1
		C40.1,25.9,40.1,25,39.6,24.5z M38.2,25.4l-5.9,6.1c-0.1,0.1-0.2,0.2-0.3,0.2l-0.6,0.2l0.2-0.7c0-0.1,0.1-0.2,0.2-0.3l5.9-6.1
		L38.2,25.4z"/>
	<path class="st0" d="M38.2,30.3c-0.4,0-0.7,0.4-0.7,0.8v5c0,0.2-0.2,0.4-0.4,0.4h-9.3c-0.2,0-0.4-0.2-0.4-0.4V26
		c0-0.2,0.2-0.4,0.4-0.4h4.7c0.4,0,0.7-0.4,0.7-0.8c0-0.4-0.3-0.8-0.7-0.8h-4.7c-1,0-1.8,0.9-1.8,2v10.1c0,1.1,0.8,2,1.8,2h9.3
		c1,0,1.8-0.9,1.8-2v-5C39,30.6,38.7,30.3,38.2,30.3z"/>
</g>
<g>
	<path class="st2" d="M21,24.3l-1-1c-0.3-0.3-0.7-0.4-1.2-0.3c-0.3,0.1-0.6,0.3-0.9,0.5l-5.9,6.1c-0.3,0.3-0.5,0.6-0.6,1l-0.7,2.2
		c-0.1,0.3,0,0.6,0.2,0.9c0.2,0.2,0.4,0.2,0.6,0.2c0.1,0,0.2,0,0.3,0l2.2-0.7c0.4-0.1,0.7-0.3,0.9-0.6l5.9-6.1
		C21.5,25.8,21.6,24.9,21,24.3z M19.6,25.3l-5.9,6.1c-0.1,0.1-0.2,0.2-0.3,0.2l-0.6,0.2l0.2-0.7c0-0.1,0.1-0.2,0.2-0.3l5.9-6.1
		L19.6,25.3z"/>
	<path class="st2" d="M19.7,30.1c-0.4,0-0.7,0.4-0.7,0.8v5c0,0.2-0.2,0.4-0.4,0.4H9.2c-0.2,0-0.4-0.2-0.4-0.4V25.9
		c0-0.2,0.2-0.4,0.4-0.4h4.7c0.4,0,0.7-0.4,0.7-0.8c0-0.4-0.3-0.8-0.7-0.8H9.2c-1,0-1.8,0.9-1.8,2V36c0,1.1,0.8,2,1.8,2h9.3
		c1,0,1.8-0.9,1.8-2v-5C20.4,30.5,20.1,30.1,19.7,30.1z"/>
</g>
<g>
	<path class="st3" d="M47.1,26L47.1,26c0.2,0,0.4-0.1,0.5-0.2l1.3-1.3v5.8c0,0.4,0.3,0.7,0.7,0.7c0.4,0,0.7-0.3,0.7-0.7v-5.8
		l1.3,1.3c0.3,0.3,0.7,0.3,1,0c0.3-0.3,0.3-0.7,0-1l-2.4-2.4c0,0-0.1-0.1-0.2-0.2c-0.1-0.1-0.2-0.2-0.4-0.2c-0.2,0-0.3,0.1-0.4,0.2
		c-0.1,0.1-0.1,0.1-0.2,0.2l-2.5,2.4c-0.3,0.3-0.3,0.7,0,1C46.7,25.9,46.9,26,47.1,26z"/>
	<path class="st3" d="M55.6,27.2h-1.7c-0.4,0-0.7,0.3-0.7,0.7c0,0.4,0.3,0.7,0.7,0.7h1.7c0.6,0,1.1,0.5,1.1,1.1v5.5
		c0,0.6-0.5,1.1-1.1,1.1H43.7c-0.6,0-1.1-0.5-1.1-1.1v-5.5c0-0.6,0.5-1.1,1.1-1.1h1.7c0.4,0,0.7-0.3,0.7-0.7c0-0.4-0.3-0.7-0.7-0.7
		l-1.7,0l-0.3,0c-1.3,0.2-2.2,1.3-2.2,2.6v5.5c0,1.4,1.1,2.6,2.5,2.6h11.9c1.4,0,2.5-1.2,2.5-2.6v-5.5C58.1,28.4,57,27.2,55.6,27.2z
		"/>
	<path class="st3" d="M47.5,33c-0.4,0-0.7,0.3-0.7,0.7c0,0.4,0.3,0.7,0.7,0.7h4.3c0.4,0,0.7-0.3,0.7-0.7c0-0.4-0.3-0.7-0.7-0.7H47.5
		z"/>
</g>
<g>
	<path class="st0" d="M76.2,25.6h-3.4V25c0-1.2-1-2.1-2.2-2.1h-4.2c-1.2,0-2.2,0.9-2.2,2.1v0.5h-3.4c-0.5,0-0.8,0.3-0.8,0.8
		s0.4,0.8,0.8,0.8h1.3v9.1c0,1.5,1.3,2.7,2.9,2.7h7c1.6,0,2.9-1.2,2.9-2.7v-9.1h1.3c0.5,0,0.8-0.3,0.8-0.8S76.7,25.6,76.2,25.6z
		 M65.9,25.6c0.1-0.6,0.6-1.1,1.3-1.1H70c0.7,0,1.2,0.5,1.3,1.1H65.9z M73.3,27.1v9.1c0,0.7-0.6,1.2-1.3,1.2h-7
		c-0.7,0-1.3-0.5-1.3-1.2v-9.1H73.3z"/>
	<path class="st0" d="M70.7,36.3c0.5,0,0.8-0.3,0.8-0.8V29c0-0.4-0.4-0.8-0.8-0.8c-0.5,0-0.8,0.3-0.8,0.8v6.6
		C69.8,36,70.2,36.3,70.7,36.3z"/>
	<path class="st0" d="M66.5,36.3c0.5,0,0.8-0.3,0.8-0.8V29c0-0.4-0.4-0.8-0.8-0.8c-0.5,0-0.8,0.3-0.8,0.8v6.6
		C65.7,36,66,36.3,66.5,36.3z"/>
</g>
<g>
	<path class="st2" d="M94.8,25.4h-3.4v-0.5c0-1.2-1-2.1-2.2-2.1H85c-1.2,0-2.2,0.9-2.2,2.1v0.5h-3.4c-0.5,0-0.8,0.3-0.8,0.8
		s0.4,0.8,0.8,0.8h1.3V36c0,1.5,1.3,2.7,2.9,2.7h7c1.6,0,2.9-1.2,2.9-2.7v-9.1h1.3c0.5,0,0.8-0.4,0.8-0.8S95.2,25.4,94.8,25.4z
		 M84.4,25.4c0.1-0.6,0.6-1.1,1.3-1.1h2.8c0.7,0,1.2,0.5,1.3,1.1H84.4z M91.9,26.9V36c0,0.7-0.6,1.2-1.3,1.2h-7
		c-0.7,0-1.3-0.5-1.3-1.2v-9.1H91.9z"/>
	<path class="st2" d="M89.2,36.1c0.5,0,0.8-0.3,0.8-0.8v-6.6c0-0.4-0.4-0.8-0.8-0.8s-0.8,0.3-0.8,0.8v6.6
		C88.4,35.8,88.7,36.1,89.2,36.1z"/>
	<path class="st2" d="M85,36.1c0.5,0,0.8-0.3,0.8-0.8v-6.6c0-0.4-0.4-0.8-0.8-0.8s-0.8,0.3-0.8,0.8v6.6C84.2,35.8,84.5,36.1,85,36.1
		z"/>
</g>
<path class="st2" d="M135.9,38.9l-4.2-4.2c1-1.3,1.6-3,1.6-4.6c0-4.2-3.4-7.6-7.6-7.6s-7.6,3.4-7.6,7.6c0,4.2,3.4,7.6,7.6,7.6
	c1.7,0,3.3-0.6,4.7-1.6l4.2,4.2c0.2,0.2,0.4,0.3,0.7,0.3c0.2,0,0.5-0.1,0.7-0.3s0.3-0.4,0.3-0.7C136.2,39.3,136.1,39.1,135.9,38.9z
	 M131.5,30c0,3.1-2.6,5.7-5.7,5.7c-3.1,0-5.7-2.6-5.7-5.7c0-3.1,2.6-5.7,5.7-5.7C128.9,24.3,131.5,26.9,131.5,30z"/>
<path class="st4" d="M116.2,38.9l-4.2-4.2c1-1.3,1.6-3,1.6-4.6c0-4.2-3.4-7.6-7.6-7.6c-4.2,0-7.6,3.4-7.6,7.6c0,4.2,3.4,7.6,7.6,7.6
	c1.7,0,3.3-0.6,4.7-1.6l4.2,4.2c0.2,0.2,0.4,0.3,0.7,0.3c0.2,0,0.5-0.1,0.7-0.3c0.2-0.2,0.3-0.4,0.3-0.7
	C116.5,39.3,116.4,39.1,116.2,38.9z M111.8,30c0,3.1-2.6,5.7-5.7,5.7s-5.7-2.6-5.7-5.7c0-3.1,2.6-5.7,5.7-5.7S111.8,26.9,111.8,30z"
	/>
<path class="st1" d="M95.7,15.6L91,10.9l4.8-4.7c0.3-0.3,0.3-0.8,0-1.1c-0.3-0.3-0.8-0.3-1.1,0l-4.8,4.7l-4.8-4.7
	c-0.3-0.3-0.8-0.3-1.1,0c-0.3,0.3-0.3,0.8,0,1.1l4.8,4.7L84,15.6c-0.3,0.3-0.3,0.8,0,1.1c0.1,0.1,0.3,0.2,0.6,0.2
	c0.2,0,0.4-0.1,0.6-0.2l4.8-4.7l4.8,4.7c0.3,0.3,0.8,0.3,1.1,0C96.1,16.4,96.1,15.9,95.7,15.6z"/>
<path class="st2" d="M112.1,17.8h-10c-1.1,0-2-0.9-2-2v-10c0-1.1,0.9-2,2-2h10c1.1,0,2,0.9,2,2v10C114.1,16.9,113.2,17.8,112.1,17.8
	z"/>
<path class="st5" d="M133.3,32.6l0.2,0l0,0L133.3,32.6C133.3,32.5,133.3,32.5,133.3,32.6z"/>
<path class="st3" d="M112.6,7.4c-0.1-0.2-0.3-0.3-0.5-0.3c-0.2,0-0.4,0-0.6,0.1l-6.3,5.4l-2.4-3.5c-0.2-0.4-0.7-0.5-1.1-0.2
	c-0.3,0.3-0.4,0.8-0.2,1.1l2.8,4.2c0,0,0.2,0.3,0.6,0.3c0.2,0,0.3-0.1,0.5-0.2l6.9-5.9C112.8,8.3,112.9,7.8,112.6,7.4z"/>
<g>
	<path class="st6" d="M178.7,46c6.7-7.9,15.2-19.8,15.2-25.5c0-8.3-6.8-15-15.2-15c-8.4,0-15.2,6.7-15.2,15
		C163.5,26.2,172,38.2,178.7,46 M178.7,50.9c0,0-18.4-20.3-18.4-30.5c0-10.1,8.2-18.3,18.4-18.3s18.4,8.2,18.4,18.3
		C197.1,30.6,178.7,50.9,178.7,50.9L178.7,50.9z"/>
	<path class="st6" d="M188.7,39.5c-0.9-0.3-1.3-1.2-1-2.1c0.3-0.9,1.2-1.3,2.1-1c5,1.8,8.4,4.7,8.4,8c0,5.4-8.7,9.8-19.5,9.8
		s-19.5-4.4-19.5-9.8c0-3.3,3.3-6.2,8.3-8c0.9-0.3,1.8,0.1,2.1,1c0.3,0.9-0.1,1.8-1,2.1c-4.2,1.5-6.2,3.6-6.2,4.9
		c0,2.7,6.3,6.5,16.3,6.5s16.3-3.8,16.3-6.5C194.9,43.1,193,41,188.7,39.5"/>
	<path class="st6" d="M185.2,17.1h-4.9v-4.9c0-0.9-0.7-1.6-1.6-1.6s-1.6,0.7-1.6,1.6v4.9h-4.9c-0.9,0-1.6,0.7-1.6,1.6
		c0,0.9,0.7,1.6,1.6,1.6h4.9v4.9c0,0.9,0.7,1.6,1.6,1.6s1.6-0.7,1.6-1.6v-4.9h4.9c0.9,0,1.6-0.7,1.6-1.6S186.1,17.1,185.2,17.1z"/>
</g>
<g>
	<path class="st3" d="M150.9,33.8c1.4-2.1,2.1-3.7,2.1-4.8c0-3.2-2.7-5.9-5.9-5.9s-5.9,2.6-5.9,5.9c0,1.1,0.7,2.8,2.1,4.8
		c-1.5,0.6-2.4,1.5-2.4,2.6c0,1.8,2.7,3.3,6.2,3.3s6.2-1.4,6.2-3.3C153.3,35.3,152.4,34.4,150.9,33.8z M144,35.1
		C144,35.1,144.1,35.1,144,35.1c1,1.3,1.9,2.4,2.5,3c-2.6-0.1-4.2-1.2-4.2-1.7C142.3,36.1,142.8,35.5,144,35.1z M147,36.4
		c-2.2-2.7-4.4-6-4.4-7.5c0-2.4,2-4.4,4.4-4.4s4.4,2,4.4,4.4C151.5,30.5,149.3,33.8,147,36.4z M150,35.1C150,35.1,150,35.1,150,35.1
		c1.3,0.5,1.8,1,1.8,1.3c0,0.6-1.6,1.6-4.2,1.7C148.1,37.5,149.1,36.4,150,35.1z"/>
	<path class="st3" d="M149,27.7h-1.3v-1.3c0-0.4-0.3-0.7-0.7-0.7s-0.7,0.3-0.7,0.7v1.3H145c-0.4,0-0.7,0.3-0.7,0.7
		c0,0.4,0.3,0.7,0.7,0.7h1.3v1.3c0,0.4,0.3,0.7,0.7,0.7s0.7-0.3,0.7-0.7v-1.3h1.3c0.4,0,0.7-0.3,0.7-0.7
		C149.8,28,149.5,27.7,149,27.7z"/>
</g>
<g>
	<path class="st3" d="M125.8,2.5c-4.4,0-8,3.6-8,8s3.6,8,8,8s8-3.6,8-8S130.2,2.5,125.8,2.5z M132.2,10.5c0,3.6-2.9,6.4-6.4,6.4
		c-3.6,0-6.4-2.9-6.4-6.4c0-3.6,2.9-6.4,6.4-6.4C129.3,4.1,132.2,7,132.2,10.5z"/>
	<path class="st3" d="M128.7,11.3h-5.9c-0.4,0-0.8-0.4-0.8-0.8v0c0-0.4,0.4-0.8,0.8-0.8h5.9c0.4,0,0.8,0.4,0.8,0.8v0
		C129.5,10.9,129.2,11.3,128.7,11.3z"/>
	<path class="st3" d="M125,13.5V7.5c0-0.4,0.4-0.8,0.8-0.8l0,0c0.4,0,0.8,0.4,0.8,0.8v5.9c0,0.4-0.4,0.8-0.8,0.8l0,0
		C125.3,14.3,125,13.9,125,13.5z"/>
</g>
<g>
	<path class="st6" d="M145.3,3c-4.1,0-7.5,3.4-7.5,7.5s3.4,7.5,7.5,7.5c4.1,0,7.5-3.4,7.5-7.5S149.4,3,145.3,3z M151.3,10.5
		c0,3.3-2.7,6-6,6c-3.3,0-6-2.7-6-6c0-3.3,2.7-6,6-6C148.6,4.5,151.3,7.2,151.3,10.5z"/>
	<path class="st6" d="M148.1,11.3h-5.5c-0.4,0-0.8-0.3-0.8-0.7v0c0-0.4,0.3-0.7,0.8-0.7h5.5c0.4,0,0.8,0.3,0.8,0.7v0
		C148.8,10.9,148.5,11.3,148.1,11.3z"/>
	<path class="st6" d="M144.5,13.3V7.7c0-0.4,0.3-0.7,0.8-0.7l0,0c0.4,0,0.8,0.3,0.8,0.7v5.5c0,0.4-0.3,0.7-0.8,0.7l0,0
		C144.9,14,144.5,13.7,144.5,13.3z"/>
</g>
<path class="st1" d="M17.3,43.4c-0.3-0.3-0.8-0.3-1.1,0l-4.6,4.8l-4.6-4.8c-0.3-0.3-0.8-0.3-1.1,0c-0.3,0.3-0.3,0.8,0,1.1l5.2,5.4
	c0.2,0.2,0.4,0.2,0.6,0.2c0.2,0,0.4-0.1,0.6-0.2l5.2-5.4c0.1-0.2,0.2-0.4,0.2-0.6C17.6,43.7,17.5,43.5,17.3,43.4z"/>
<path class="st2" d="M20.7,61.8c0.3,0.3,0.8,0.3,1.1,0l4.6-4.8l4.6,4.8c0.3,0.3,0.8,0.3,1.1,0c0.3-0.3,0.3-0.8,0-1.1L27,55.3
	c-0.2-0.2-0.4-0.2-0.6-0.2c-0.2,0-0.4,0.1-0.6,0.2l-5.2,5.4c-0.1,0.2-0.2,0.4-0.2,0.6S20.6,61.7,20.7,61.8z"/>
<path class="st2" d="M16.5,54.9c-0.3-0.3-0.8-0.3-1.1,0l-4.6,4.8l-4.6-4.8c-0.3-0.3-0.8-0.3-1.1,0c-0.3,0.3-0.3,0.8,0,1.1l5.2,5.4
	c0.2,0.2,0.4,0.2,0.6,0.2c0.2,0,0.4-0.1,0.6-0.2l5.2-5.4c0.1-0.2,0.2-0.4,0.2-0.6S16.7,55.1,16.5,54.9z"/>
<path class="st1" d="M21.5,50.3c0.3,0.3,0.8,0.3,1.1,0l4.6-4.8l4.6,4.8c0.3,0.3,0.8,0.3,1.1,0c0.3-0.3,0.3-0.8,0-1.1l-5.2-5.4
	c-0.2-0.2-0.4-0.2-0.6-0.2c-0.2,0-0.4,0.1-0.6,0.2l-5.2,5.4c-0.1,0.2-0.2,0.4-0.2,0.6S21.4,50.1,21.5,50.3z"/>
<path class="st1" d="M51.7,49.6h-12c-0.6,0-1-0.4-1-1l0,0c0-0.6,0.4-1,1-1h12c0.6,0,1,0.4,1,1l0,0C52.7,49.1,52.3,49.6,51.7,49.6z"
	/>
<path class="st1" d="M51.7,62.1h-12c-0.6,0-1-0.4-1-1v0c0-0.6,0.4-1,1-1h12c0.6,0,1,0.4,1,1v0C52.7,61.7,52.3,62.1,51.7,62.1z"/>
<path class="st1" d="M44.7,54.6v-12c0-0.6,0.4-1,1-1h0c0.6,0,1,0.4,1,1v12c0,0.6-0.4,1-1,1h0C45.2,55.6,44.7,55.1,44.7,54.6z"/>
<g>
	<path class="st1" d="M69.1,48.3c-1.8,0-3.3,1.5-3.3,3.4c0,1.9,1.5,3.4,3.3,3.4s3.3-1.5,3.3-3.4C72.4,49.8,70.9,48.3,69.1,48.3z
		 M70.6,51.7c0,0.9-0.7,1.6-1.5,1.6c-0.8,0-1.5-0.7-1.5-1.6c0-0.9,0.7-1.6,1.5-1.6C69.9,50.1,70.6,50.8,70.6,51.7z"/>
	<path class="st1" d="M77.9,51c-2.6-4.2-5.5-6.3-8.8-6.3s-6.2,2.1-8.8,6.3c-0.3,0.4-0.3,1,0,1.5c2.6,4.2,5.5,6.3,8.8,6.3
		c3.3,0,6.2-2.1,8.8-6.3C78.1,52,78.1,51.4,77.9,51z M76.2,51.7c-2.2,3.4-4.6,5.2-7.1,5.2s-4.9-1.7-7.1-5.2c2.2-3.4,4.6-5.2,7.1-5.2
		C71.6,46.5,74,48.3,76.2,51.7z"/>
</g>
</svg>
