<?xml version="1.0" encoding="iso-8859-1"?>
<!-- Generator: Adobe Illustrator 26.0.0, SVG Export Plug-In . SVG Version: 6.00 Build 0)  -->
<svg version="1.1" id="&#x56FE;&#x5C42;_1" xmlns="http://www.w3.org/2000/svg" xmlns:xlink="http://www.w3.org/1999/xlink" x="0px"
	 y="0px" viewBox="0 0 110 110" style="enable-background:new 0 0 110 110;" xml:space="preserve">
<path style="fill:#1770DE;" d="M24.112,12.774l6.72-6.406v22.483c0,0.754,0.498,1.256,1.244,1.256c0.747,0,1.244-0.502,1.244-1.256
	V6.117l6.72,6.657c0.498,0.502,1.244,0.502,1.742,0c0.498-0.502,0.498-1.256,0-1.759c0,0-8.587-8.667-8.711-8.792
	c-0.249-0.251-0.622-0.377-0.996-0.377c-0.373,0-0.747,0.126-0.996,0.377c-0.124,0.126-8.711,8.792-8.711,8.792
	c-0.498,0.502-0.498,1.256,0,1.759C22.868,13.277,23.614,13.277,24.112,12.774z"/>
<path style="fill:#1770DE;" d="M24.61,39.528c-0.747,0-1.244,0.502-1.244,1.256c0,0.754,0.498,1.256,1.244,1.256h14.933
	c0.747,0,1.244-0.502,1.244-1.256c0-0.754-0.498-1.256-1.244-1.256H24.61z"/>
<path style="fill:#1770DE;" d="M52.61,19.934h-5.849c-0.747,0-1.244,0.502-1.244,1.256c0,0.754,0.498,1.256,1.244,1.256h5.849
	c2.738,0,4.978,2.261,4.978,5.024V46.31c0,2.763-2.24,5.024-4.978,5.024H11.543c-2.738,0-4.978-2.261-4.978-5.024V27.47
	c0-2.763,2.24-5.024,4.978-5.024c0.459,0,5.973,0,5.973,0c0.747,0,1.244-0.502,1.244-1.256c0-0.754-0.498-1.256-1.244-1.256h-5.973
	h-0.249v0.013c-3.992,0.135-7.218,3.463-7.218,7.523V46.31c0,4.145,3.36,7.536,7.467,7.536H52.61c4.107,0,7.467-3.391,7.467-7.536
	V27.47C60.077,23.325,56.717,19.934,52.61,19.934z"/>
<g>
	<path style="fill:#666666;" d="M24.112,66.774l6.72-6.406v22.483c0,0.754,0.498,1.256,1.244,1.256c0.747,0,1.244-0.502,1.244-1.256
		V60.117l6.72,6.657c0.498,0.502,1.244,0.502,1.742,0c0.498-0.502,0.498-1.256,0-1.759c0,0-8.587-8.667-8.711-8.792
		c-0.249-0.251-0.622-0.377-0.996-0.377c-0.373,0-0.747,0.126-0.996,0.377c-0.124,0.126-8.711,8.792-8.711,8.792
		c-0.498,0.502-0.498,1.256,0,1.759C22.868,67.277,23.614,67.277,24.112,66.774z"/>
	<path style="fill:#666666;" d="M24.61,93.528c-0.747,0-1.244,0.502-1.244,1.256c0,0.754,0.498,1.256,1.244,1.256h14.933
		c0.747,0,1.244-0.502,1.244-1.256c0-0.754-0.498-1.256-1.244-1.256H24.61z"/>
	<path style="fill:#666666;" d="M52.61,73.934h-5.849c-0.747,0-1.244,0.502-1.244,1.256c0,0.754,0.498,1.256,1.244,1.256h5.849
		c2.738,0,4.978,2.261,4.978,5.024v18.841c0,2.763-2.24,5.024-4.978,5.024H11.543c-2.738,0-4.978-2.261-4.978-5.024V81.47
		c0-2.763,2.24-5.024,4.978-5.024c0.459,0,5.973,0,5.973,0c0.747,0,1.244-0.502,1.244-1.256c0-0.754-0.498-1.256-1.244-1.256h-5.973
		h-0.249v0.013c-3.992,0.135-7.218,3.463-7.218,7.523v18.841c0,4.145,3.36,7.536,7.467,7.536H52.61c4.107,0,7.467-3.391,7.467-7.536
		V81.47C60.077,77.325,56.717,73.934,52.61,73.934z"/>
</g>
<g>
	<path style="fill:#FAAD14;" d="M82.412,3.131c-8.822,0-16,7.178-16,16c0,8.823,7.178,16,16,16c8.823,0,16-7.177,16-16
		S91.235,3.131,82.412,3.131z M82.412,32.836c-7.557,0-13.704-6.148-13.704-13.704c0-7.557,6.147-13.704,13.704-13.704
		c7.556,0,13.704,6.147,13.704,13.704S89.968,32.836,82.412,32.836z"/>
	<path style="fill:#FAAD14;" d="M82.412,9.948c-0.951,0-1.722,0.771-1.722,1.722c0,0.951,0.771,1.722,1.722,1.722
		s1.722-0.771,1.722-1.722C84.134,10.719,83.363,9.948,82.412,9.948z"/>
	<path style="fill:#FAAD14;" d="M82.412,15.688c-0.634,0-1.148,0.514-1.148,1.148v10.331c0,0.635,0.514,1.148,1.148,1.148
		c0.634,0,1.148-0.513,1.148-1.148V16.836C83.56,16.202,83.046,15.688,82.412,15.688z"/>
</g>
<g>
	<path style="fill:#666666;" d="M71.807,47.266L71.15,49.24c-0.068,0.203-0.015,0.427,0.136,0.578
		c0.107,0.108,0.252,0.165,0.399,0.165c0.059,0,0.12-0.01,0.178-0.029l1.971-0.658c0.295-0.098,0.565-0.266,0.784-0.485l6.366-6.374
		c0.518-0.519,0.606-1.214,0.204-1.616l-0.917-0.917c-0.223-0.223-0.552-0.302-0.902-0.215c-0.252,0.063-0.505,0.212-0.712,0.419
		l-6.365,6.374C72.073,46.701,71.905,46.973,71.807,47.266z M72.877,47.623c0.043-0.128,0.116-0.248,0.212-0.343l6.366-6.374
		c0.047-0.047,0.091-0.077,0.125-0.097l0.701,0.702c-0.019,0.034-0.05,0.079-0.096,0.125l-6.365,6.375
		c-0.095,0.095-0.215,0.17-0.343,0.212l-0.901,0.301L72.877,47.623z"/>
	<path style="fill:#666666;" d="M80.852,45.593c-0.311,0-0.565,0.252-0.565,0.565v5.803c0,0.312-0.253,0.565-0.565,0.565h-9.59
		c-0.311,0-0.565-0.254-0.565-0.565v-9.603c0-0.312,0.253-0.565,0.565-0.565h3.796c0.311,0,0.565-0.252,0.565-0.565
		c0-0.313-0.252-0.565-0.565-0.565h-3.796c-0.934,0-1.693,0.76-1.693,1.695v9.602c0,0.935,0.759,1.695,1.693,1.695h9.59
		c0.934,0,1.693-0.76,1.693-1.695v-5.802C81.415,45.846,81.163,45.593,80.852,45.593z"/>
</g>
<g>
	<path style="fill:#1770DE;" d="M87.807,47.266L87.15,49.24c-0.068,0.203-0.015,0.427,0.136,0.578
		c0.107,0.108,0.252,0.165,0.399,0.165c0.059,0,0.12-0.01,0.178-0.029l1.971-0.658c0.295-0.098,0.565-0.266,0.784-0.485l6.366-6.374
		c0.518-0.519,0.606-1.214,0.204-1.616l-0.917-0.917c-0.223-0.223-0.552-0.302-0.902-0.215c-0.252,0.063-0.505,0.212-0.712,0.419
		l-6.365,6.374C88.073,46.701,87.905,46.973,87.807,47.266z M88.877,47.623c0.043-0.128,0.116-0.248,0.212-0.343l6.366-6.374
		c0.047-0.047,0.091-0.077,0.125-0.097l0.701,0.702c-0.019,0.034-0.05,0.079-0.096,0.125l-6.365,6.375
		c-0.095,0.095-0.215,0.17-0.343,0.212l-0.901,0.301L88.877,47.623z"/>
	<path style="fill:#1770DE;" d="M96.852,45.593c-0.311,0-0.565,0.252-0.565,0.565v5.803c0,0.312-0.253,0.565-0.565,0.565h-9.59
		c-0.311,0-0.565-0.254-0.565-0.565v-9.603c0-0.312,0.253-0.565,0.565-0.565h3.796c0.311,0,0.565-0.252,0.565-0.565
		c0-0.313-0.252-0.565-0.565-0.565h-3.796c-0.934,0-1.693,0.76-1.693,1.695v9.602c0,0.935,0.759,1.695,1.693,1.695h9.59
		c0.934,0,1.693-0.76,1.693-1.695v-5.802C97.415,45.846,97.163,45.593,96.852,45.593z"/>
</g>
<path style="fill:#FAAD14;" d="M82.392,75.814H69.023c-2.066,0-2.908-1.454-1.869-3.232l6.682-11.435
	c1.038-1.777,2.736-1.776,3.772,0.003l6.658,11.431C85.301,74.359,84.458,75.814,82.392,75.814z M75.709,62.966
	c-0.558,0-1.009,0.461-1.009,1.027l0.505,6.681h1.009l0.505-6.681C76.718,63.426,76.267,62.966,75.709,62.966z M75.709,71.703
	c-0.558,0-1.009,0.461-1.009,1.027s0.451,1.027,1.009,1.027c0.558,0,1.009-0.461,1.009-1.027S76.267,71.703,75.709,71.703z"/>
<path style="fill:#FF4D4F;" d="M102.813,75.814H89.445c-2.066,0-2.908-1.454-1.869-3.232l6.682-11.435
	c1.038-1.777,2.736-1.776,3.772,0.003l6.658,11.431C105.723,74.359,104.879,75.814,102.813,75.814z M96.13,62.966
	c-0.558,0-1.009,0.461-1.009,1.027l0.505,6.681h1.009l0.505-6.681C97.14,63.426,96.688,62.966,96.13,62.966z M96.13,71.703
	c-0.558,0-1.009,0.461-1.009,1.027s0.451,1.027,1.009,1.027c0.558,0,1.009-0.461,1.009-1.027S96.688,71.703,96.13,71.703z"/>
<path style="fill:#4FA72D;" d="M82.392,95.814H69.023c-2.066,0-2.908-1.454-1.869-3.232l6.682-11.435
	c1.038-1.777,2.736-1.776,3.772,0.003l6.658,11.431C85.301,94.359,84.458,95.814,82.392,95.814z M75.709,82.966
	c-0.558,0-1.009,0.461-1.009,1.027l0.505,6.681h1.009l0.505-6.681C76.718,83.426,76.267,82.966,75.709,82.966z M75.709,91.703
	c-0.558,0-1.009,0.461-1.009,1.027s0.451,1.027,1.009,1.027c0.558,0,1.009-0.461,1.009-1.027S76.267,91.703,75.709,91.703z"/>
<path style="fill:#1770DE;" d="M102.813,95.814H89.445c-2.066,0-2.908-1.454-1.869-3.232l6.682-11.435
	c1.038-1.777,2.736-1.776,3.772,0.003l6.658,11.431C105.723,94.359,104.879,95.814,102.813,95.814z M96.13,82.966
	c-0.558,0-1.009,0.461-1.009,1.027l0.505,6.681h1.009l0.505-6.681C97.14,83.426,96.688,82.966,96.13,82.966z M96.13,91.703
	c-0.558,0-1.009,0.461-1.009,1.027s0.451,1.027,1.009,1.027c0.558,0,1.009-0.461,1.009-1.027S96.688,91.703,96.13,91.703z"/>
<path style="fill:#555555;" d="M82.156,102.056H69.053l4.239-4.224c0.261-0.26,0.261-0.681,0-0.94s-0.683-0.26-0.944,0l-5.354,5.335
	c-0.261,0.26-0.261,0.681,0,0.94l5.354,5.335c0.13,0.13,0.301,0.195,0.472,0.195c0.171,0,0.342-0.065,0.472-0.195
	c0.261-0.26,0.261-0.681,0-0.94l-4.239-4.224h13.103c0.355,0,0.643-0.287,0.643-0.641S82.511,102.056,82.156,102.056z"/>
</svg>
