<?xml version="1.0" encoding="utf-8"?>
<!-- Generator: Adobe Illustrator 26.0.0, SVG Export Plug-In . SVG Version: 6.00 Build 0)  -->
<svg version="1.1" id="图层_1" xmlns="http://www.w3.org/2000/svg" xmlns:xlink="http://www.w3.org/1999/xlink" x="0px" y="0px"
	 viewBox="0 0 43.9 21" style="enable-background:new 0 0 43.9 21;" xml:space="preserve">
<style type="text/css">
	.st0{fill:#1877F2;}
	.st1{fill:#FBBC05;}
	.st2{fill:#EA4335;}
	.st3{fill:#34A853;}
	.st4{fill:#4285F4;}
</style>
<path class="st0" d="M20,10.6c0-5-4-9-9-9c-5,0-9,4-9,9c0,4.5,3.3,8.2,7.6,8.9v-6.3H7.3v-2.6h2.3v-2c0-2.3,1.3-3.5,3.4-3.5
	c1,0,2,0.2,2,0.2v2.2h-1.1c-1.1,0-1.5,0.7-1.5,1.4v1.7h2.5l-0.4,2.6h-2.1v6.3C16.7,18.8,20,15.1,20,10.6"/>
<path class="st0" d="M331.6,132.3"/>
<g>
	<path class="st1" d="M27.2,10.5c0-0.6,0.1-1.1,0.3-1.7l-3.1-2.3c-1.3,2.5-1.3,5.4,0,7.9l3.1-2.3C27.3,11.6,27.2,11.1,27.2,10.5"/>
	<path class="st2" d="M32.6,5.2c1.2,0,2.4,0.4,3.4,1.2l2.7-2.6c-3.9-3.3-9.8-2.9-13.1,1c-0.5,0.5-0.9,1.1-1.2,1.8l3.1,2.3
		C28.2,6.6,30.3,5.2,32.6,5.2"/>
	<path class="st3" d="M32.6,15.8c-2.3,0-4.4-1.4-5.2-3.6l-3.1,2.3c1.6,3.1,4.8,5,8.2,5c2.2,0,4.3-0.8,6-2.2l-2.9-2.2
		C34.7,15.6,33.7,15.9,32.6,15.8"/>
	<path class="st4" d="M41.4,10.5c0-0.5-0.1-1.1-0.2-1.6h-8.6v3.5h4.9c-0.2,1.1-0.9,2.1-1.9,2.7l2.9,2.2
		C40.5,15.5,41.5,13.1,41.4,10.5"/>
</g>
</svg>
