<?xml version="1.0" encoding="iso-8859-1"?>
<!-- Generator: Adobe Illustrator 26.0.0, SVG Export Plug-In . SVG Version: 6.00 Build 0)  -->
<svg version="1.1" id="&#x56FE;&#x5C42;_1" xmlns="http://www.w3.org/2000/svg" xmlns:xlink="http://www.w3.org/1999/xlink" x="0px"
	 y="0px" viewBox="0 0 210 70" style="enable-background:new 0 0 210 70;" xml:space="preserve">
<path style="fill:#1770DE;" d="M39.882,19.522l-4.214-4.218c1.029-1.322,1.592-2.961,1.592-4.642c0-4.168-3.389-7.559-7.554-7.559
	s-7.554,3.391-7.554,7.559c0,4.169,3.389,7.56,7.554,7.56c1.685,0,3.329-0.569,4.653-1.607l4.213,4.216
	c0.175,0.175,0.407,0.272,0.654,0.272c0.248,0,0.48-0.097,0.655-0.272c0.175-0.175,0.271-0.408,0.271-0.655
	C40.153,19.928,40.057,19.696,39.882,19.522z M35.41,10.662c0,3.147-2.558,5.707-5.703,5.707s-5.703-2.56-5.703-5.707
	c0-3.147,2.558-5.708,5.703-5.708S35.41,7.515,35.41,10.662z"/>
<path style="fill:#666666;" d="M20.169,19.522l-4.214-4.218c1.029-1.322,1.592-2.961,1.592-4.642c0-4.168-3.389-7.559-7.554-7.559
	s-7.554,3.391-7.554,7.559c0,4.169,3.389,7.56,7.554,7.56c1.685,0,3.329-0.569,4.653-1.607l4.213,4.216
	c0.175,0.175,0.407,0.272,0.654,0.272c0.248,0,0.48-0.097,0.655-0.272c0.175-0.175,0.271-0.408,0.271-0.655
	C20.441,19.928,20.344,19.696,20.169,19.522z M15.697,10.662c0,3.147-2.558,5.707-5.703,5.707s-5.703-2.56-5.703-5.707
	c0-3.147,2.558-5.708,5.703-5.708S15.697,7.515,15.697,10.662z"/>
<g style="enable-background:new    ;">
	<path style="fill:#1770DE;" d="M93.341,6.655c-0.311-0.387-0.787-0.609-1.304-0.609H74.19L73.152,1.84
		c-0.106-0.434-0.495-0.737-0.946-0.737h-2.549c-0.536,0-0.973,0.434-0.973,0.968s0.437,0.967,0.973,0.967h1.786l3.994,16.177
		c-1.072,0.519-1.754,1.591-1.754,2.786c0,1.71,1.401,3.102,3.122,3.102s3.121-1.391,3.121-3.102c0-0.399-0.079-0.795-0.23-1.165
		h3.94c-0.151,0.369-0.23,0.765-0.23,1.165c0,1.71,1.4,3.102,3.121,3.102s3.121-1.391,3.121-3.102c0-1.71-1.4-3.102-3.121-3.102
		h-9.164l-0.284-1.154h11.656c0.699,0,1.32-0.418,1.545-1.036l3.288-8.522l0.027-0.066C93.775,7.62,93.68,7.072,93.341,6.655z
		 M91.565,7.984l-3.019,7.826H76.6l-1.933-7.826H91.565z M75.632,22.001c0-0.642,0.527-1.165,1.174-1.165
		c0.646,0,1.173,0.522,1.173,1.165c0,0.642-0.527,1.164-1.173,1.164C76.158,23.165,75.632,22.643,75.632,22.001z M85.354,22.004
		c0-0.642,0.527-1.164,1.174-1.164c0.646,0,1.173,0.522,1.173,1.164s-0.527,1.164-1.173,1.164
		C85.88,23.168,85.354,22.645,85.354,22.004z"/>
	<path style="fill:#1770DE;" d="M77.808,11.239h9.614c0.536,0,0.973-0.434,0.973-0.967c0-0.533-0.437-0.968-0.973-0.968h-9.614
		c-0.536,0-0.973,0.434-0.973,0.968C76.835,10.805,77.272,11.239,77.808,11.239z"/>
	<path style="fill:#1770DE;" d="M86.583,12.555h-7.937c-0.536,0-0.973,0.434-0.973,0.967c0,0.533,0.437,0.968,0.973,0.968h7.937
		c0.536,0,0.973-0.434,0.973-0.968C87.556,12.989,87.119,12.555,86.583,12.555z"/>
</g>
<g style="enable-background:new    ;">
	<path style="fill:#666666;" d="M66.502,6.655c-0.311-0.387-0.787-0.609-1.304-0.609H47.35L46.312,1.84
		c-0.106-0.434-0.495-0.737-0.946-0.737h-2.549c-0.536,0-0.973,0.434-0.973,0.968s0.437,0.967,0.973,0.967h1.786l3.994,16.177
		c-1.072,0.519-1.754,1.591-1.754,2.786c0,1.71,1.401,3.102,3.122,3.102s3.121-1.391,3.121-3.102c0-0.399-0.079-0.795-0.23-1.165
		h3.94c-0.151,0.369-0.23,0.765-0.23,1.165c0,1.71,1.4,3.102,3.121,3.102c1.721,0,3.121-1.391,3.121-3.102
		c0-1.71-1.4-3.102-3.121-3.102h-9.164l-0.284-1.154h11.656c0.699,0,1.32-0.418,1.545-1.036l3.288-8.522l0.027-0.066
		C66.936,7.62,66.841,7.072,66.502,6.655z M64.726,7.984l-3.019,7.826H49.761l-1.933-7.826H64.726z M48.792,22.001
		c0-0.642,0.527-1.165,1.174-1.165c0.646,0,1.173,0.522,1.173,1.165c0,0.642-0.527,1.164-1.173,1.164
		C49.319,23.165,48.792,22.643,48.792,22.001z M58.515,22.004c0-0.642,0.527-1.164,1.174-1.164c0.646,0,1.173,0.522,1.173,1.164
		s-0.527,1.164-1.173,1.164C59.041,23.168,58.515,22.645,58.515,22.004z"/>
	<path style="fill:#666666;" d="M50.968,11.239h9.614c0.536,0,0.973-0.434,0.973-0.967c0-0.533-0.437-0.968-0.973-0.968h-9.614
		c-0.536,0-0.973,0.434-0.973,0.968C49.996,10.805,50.432,11.239,50.968,11.239z"/>
	<path style="fill:#666666;" d="M59.744,12.555h-7.937c-0.536,0-0.973,0.434-0.973,0.967c0,0.533,0.437,0.968,0.973,0.968h7.937
		c0.536,0,0.973-0.434,0.973-0.968C60.717,12.989,60.28,12.555,59.744,12.555z"/>
</g>
<g>
	<path style="fill:#666666;" d="M171.49,56.633h-3.59v-3.589c0-0.556-0.509-0.852-0.876-0.852l-0.066,0.007
		c-0.297,0.075-0.768,0.37-0.768,0.844v3.951c0,0.883,0.467,1.349,1.35,1.349h3.95c0.535,0,0.854-0.435,0.854-0.855
		S172.025,56.633,171.49,56.633z"/>
	<path style="fill:#666666;" d="M167.934,47.004c-5.101,0-9.25,4.149-9.25,9.25s4.149,9.25,9.25,9.25s9.25-4.149,9.25-9.25
		S173.035,47.004,167.934,47.004z M167.934,63.794c-4.157,0-7.54-3.382-7.54-7.54c0-4.158,3.383-7.541,7.54-7.541
		s7.54,3.383,7.54,7.541C175.474,60.411,172.092,63.794,167.934,63.794z"/>
</g>
<path style="fill:#666666;" d="M149.491,63.805l-3.164-3.066c-0.209-0.203-0.537-0.202-0.747,0
	c-0.107,0.105-0.169,0.253-0.169,0.407s0.062,0.302,0.169,0.407l2.744,2.659l-2.744,2.659c-0.108,0.104-0.17,0.252-0.17,0.407
	c0,0.154,0.062,0.303,0.17,0.407c0.101,0.098,0.233,0.152,0.373,0.152c0.139,0,0.272-0.054,0.374-0.152l3.163-3.066
	c0.108-0.104,0.17-0.253,0.17-0.407C149.661,64.057,149.599,63.909,149.491,63.805z"/>
<path style="fill:#1770DE;" d="M156.757,63.608l-3.164-3.066c-0.209-0.203-0.537-0.202-0.747,0
	c-0.107,0.105-0.169,0.253-0.169,0.407s0.062,0.302,0.169,0.407l2.744,2.659l-2.744,2.659c-0.108,0.104-0.17,0.252-0.17,0.407
	c0,0.154,0.062,0.303,0.17,0.407c0.101,0.098,0.233,0.152,0.373,0.152c0.139,0,0.272-0.054,0.374-0.152l3.163-3.066
	c0.108-0.104,0.17-0.253,0.17-0.407C156.927,63.86,156.865,63.712,156.757,63.608z"/>
<g>
	<path style="fill:#666666;" d="M140.092,1.5h-18c-1.105,0-2,0.851-2,1.9v15.2c0,1.049,0.895,1.9,2,1.9h2.719
		c0.489,0,0.882,0.405,0.866,0.894l-0.073,2.313c-0.018,0.584,0.458,0.997,0.968,0.997c0.192,0,0.39-0.059,0.567-0.189l5.243-3.847
		c0.149-0.109,0.328-0.168,0.513-0.168h7.198c1.105,0,2-0.851,2-1.9V3.4C142.092,2.351,141.197,1.5,140.092,1.5z M140.092,18.5
		h-7.198c-0.614,0-1.201,0.192-1.696,0.556l-3.528,2.589l0.006-0.187c0.024-0.771-0.269-1.531-0.806-2.085s-1.287-0.872-2.059-0.872
		l-2.719-0.008V3.5h18V18.5z"/>
	<path style="fill:#666666;" d="M124.938,11.688h0.217c0.275,0,0.359,0.047,0.369,0.054c0.084,0.058,0.215,0.2,0.365,0.547
		c0.257,0.591,0.43,1.028,0.515,1.298l0.055,0.175h1.659l-0.136-0.342c-0.292-0.738-0.549-1.292-0.787-1.698
		c-0.038-0.063-0.077-0.123-0.117-0.179c0.365-0.103,0.657-0.272,0.872-0.505c0.298-0.323,0.449-0.735,0.449-1.224
		c0-0.345-0.079-0.646-0.234-0.895c-0.161-0.258-0.377-0.438-0.642-0.534c-0.242-0.09-0.562-0.134-0.98-0.134h-2.428l-1.154,5.511
		h1.543L124.938,11.688z M125.375,9.59h0.932c0.372,0,0.459,0.045,0.46,0.045c0.062,0.038,0.104,0.086,0.104,0.197
		c0,0.102-0.035,0.199-0.106,0.297c-0.074,0.102-0.175,0.174-0.31,0.223c-0.086,0.031-0.332,0.084-1.016,0.084H125.2L125.375,9.59z"
		/>
	<polygon style="fill:#666666;" points="130.493,11.63 132.92,11.63 133.2,10.293 130.773,10.293 130.921,9.59 133.395,9.59 
		133.679,8.252 129.66,8.252 128.506,13.763 130.049,13.763 	"/>
	<path style="fill:#666666;" d="M134.674,13.492c0.356,0.239,0.799,0.36,1.314,0.36c0.38,0,0.727-0.085,1.059-0.209
		c0.246,0.287,0.51,0.512,0.793,0.649l0.092,0.045l0.634-0.834l-0.124-0.071c-0.166-0.094-0.325-0.219-0.481-0.351
		c0.277-0.253,0.525-0.542,0.708-0.907c0.265-0.527,0.399-1.081,0.399-1.647c0-0.7-0.217-1.274-0.645-1.707
		c-0.429-0.433-0.994-0.652-1.681-0.652c-0.5,0-0.955,0.104-1.353,0.31c-0.395,0.205-0.727,0.488-0.986,0.841
		c-0.256,0.347-0.448,0.761-0.571,1.228c-0.095,0.349-0.143,0.686-0.143,1.002c0,0.35,0.073,0.702,0.218,1.046
		C134.061,12.952,134.319,13.254,134.674,13.492z M135.64,10.122c0.269-0.399,0.603-0.594,1.021-0.594
		c0.259,0,0.465,0.084,0.629,0.258c0.168,0.178,0.249,0.425,0.249,0.757c0,0.317-0.077,0.649-0.229,0.986
		c-0.089,0.2-0.197,0.358-0.313,0.495c-0.192-0.183-0.404-0.341-0.641-0.461l-0.101-0.05l-0.522,0.799l0.147,0.054
		c0.069,0.025,0.132,0.082,0.198,0.123c-0.241-0.002-0.462-0.091-0.618-0.264c-0.168-0.188-0.25-0.416-0.25-0.698
		C135.209,11.02,135.355,10.547,135.64,10.122z"/>
</g>
<g>
	<path style="fill:#1770DE;" d="M163.192,1.5h-18c-1.105,0-2,0.851-2,1.9v15.2c0,1.049,0.895,1.9,2,1.9h2.719
		c0.489,0,0.882,0.405,0.866,0.894l-0.073,2.313c-0.018,0.584,0.458,0.997,0.968,0.997c0.192,0,0.39-0.059,0.567-0.189l5.243-3.847
		c0.149-0.109,0.328-0.168,0.513-0.168h7.198c1.105,0,2-0.851,2-1.9V3.4C165.192,2.351,164.296,1.5,163.192,1.5z M163.192,18.5
		h-7.198c-0.614,0-1.201,0.192-1.696,0.556l-3.528,2.589l0.006-0.187c0.024-0.771-0.269-1.531-0.806-2.085s-1.287-0.872-2.059-0.872
		l-2.719-0.008V3.5h18V18.5z"/>
	<path style="fill:#1770DE;" d="M148.037,11.688h0.217c0.275,0,0.359,0.047,0.369,0.054c0.084,0.058,0.215,0.2,0.365,0.547
		c0.257,0.591,0.43,1.028,0.515,1.298l0.055,0.175h1.659l-0.136-0.342c-0.292-0.738-0.549-1.292-0.787-1.698
		c-0.038-0.063-0.077-0.123-0.117-0.179c0.365-0.103,0.657-0.272,0.872-0.505c0.298-0.323,0.449-0.735,0.449-1.224
		c0-0.345-0.079-0.646-0.234-0.895c-0.161-0.258-0.377-0.438-0.642-0.534c-0.242-0.09-0.562-0.134-0.98-0.134h-2.428l-1.154,5.511
		h1.543L148.037,11.688z M148.475,9.59h0.932c0.372,0,0.459,0.045,0.46,0.045c0.062,0.038,0.104,0.086,0.104,0.197
		c0,0.102-0.035,0.199-0.106,0.297c-0.074,0.102-0.175,0.174-0.31,0.223c-0.086,0.031-0.332,0.084-1.016,0.084h-0.239L148.475,9.59z
		"/>
	<polygon style="fill:#1770DE;" points="153.593,11.63 156.02,11.63 156.299,10.293 153.872,10.293 154.021,9.59 156.494,9.59 
		156.778,8.252 152.76,8.252 151.606,13.763 153.149,13.763 	"/>
	<path style="fill:#1770DE;" d="M157.774,13.492c0.356,0.239,0.799,0.36,1.314,0.36c0.38,0,0.727-0.085,1.059-0.209
		c0.246,0.287,0.51,0.512,0.793,0.649l0.092,0.045l0.634-0.834l-0.124-0.071c-0.166-0.094-0.325-0.219-0.481-0.351
		c0.277-0.253,0.525-0.542,0.708-0.907c0.265-0.527,0.399-1.081,0.399-1.647c0-0.7-0.217-1.274-0.645-1.707
		c-0.429-0.433-0.994-0.652-1.681-0.652c-0.5,0-0.955,0.104-1.353,0.31c-0.395,0.205-0.727,0.488-0.986,0.841
		c-0.256,0.347-0.448,0.761-0.571,1.228c-0.095,0.349-0.143,0.686-0.143,1.002c0,0.35,0.073,0.702,0.218,1.046
		C157.16,12.952,157.418,13.254,157.774,13.492z M158.739,10.122c0.269-0.399,0.603-0.594,1.021-0.594
		c0.259,0,0.465,0.084,0.629,0.258c0.168,0.178,0.249,0.425,0.249,0.757c0,0.317-0.077,0.649-0.229,0.986
		c-0.089,0.2-0.197,0.358-0.313,0.495c-0.192-0.183-0.404-0.341-0.641-0.461l-0.101-0.05l-0.522,0.799l0.147,0.054
		c0.069,0.025,0.132,0.082,0.198,0.123c-0.241-0.002-0.462-0.091-0.618-0.264c-0.168-0.188-0.25-0.416-0.25-0.698
		C158.309,11.02,158.454,10.547,158.739,10.122z"/>
</g>
<g>
	<path style="fill:#1770DE;" d="M107.102,1.103c-6.627,0-12,5.373-12,12s5.373,12,12,12c6.627,0,12-5.373,12-12
		S113.73,1.103,107.102,1.103z M107.102,23.103c-5.514,0-10-4.486-10-10s4.486-10,10-10c5.514,0,10,4.486,10,10
		S112.616,23.103,107.102,23.103z"/>
	<path style="fill:#1770DE;" d="M112.451,16.537c-0.106-2.27-1.485-4.236-3.535-5.071c0.719-0.612,1.127-1.484,1.127-2.426
		c0-1.766-1.437-3.203-3.203-3.203s-3.203,1.437-3.203,3.203c0,0.942,0.408,1.814,1.126,2.426c-2.05,0.835-3.429,2.802-3.534,5.07
		l-0.005,0.082c-0.005,0.065-0.009,0.131-0.009,0.197c0,0.404,0.043,0.814,0.129,1.219l0.021,0.099h10.951l0.021-0.099
		c0.086-0.405,0.129-0.815,0.129-1.219c0-0.06-0.004-0.12-0.008-0.179L112.451,16.537z M106.839,7.554
		c0.82,0,1.487,0.667,1.487,1.487c0,0.82-0.667,1.487-1.487,1.487s-1.487-0.667-1.487-1.487
		C105.352,8.221,106.019,7.554,106.839,7.554z M102.967,16.418c0.196-2.057,1.873-3.648,3.872-3.648s3.675,1.592,3.871,3.648
		H102.967z"/>
</g>
<path style="fill:#666666;" d="M176.798,1.285c-5.514,0-10,4.486-10,10s4.486,10,10,10c5.514,0,10-4.486,10-10
	S182.312,1.285,176.798,1.285z M175.801,16c-0.268,0-0.486-0.218-0.486-0.486v-1.696l-0.932-0.923h3.985v4.195h2.66
	c0.212,0,0.386,0.125,0.461,0.322l0.147,0.468c-1.249,0.915-2.702,1.448-4.223,1.551V16H175.801z M178.368,3.909
	c0,0.283-0.239,0.522-0.522,0.522h-3.673v3.146h-3.321v1.796l-1.491-1.491c1.334-2.905,4.236-4.774,7.436-4.774
	c0.512,0,1.04,0.052,1.57,0.153V3.909z M181.027,15.266h-0.836v-2.916c0-0.717-0.562-1.279-1.279-1.279h-6.236V9.4h2.042
	c0.717,0,1.279-0.562,1.279-1.279V6.254h1.85c1.293,0,2.345-1.052,2.345-2.345v-0.08c2.937,1.317,4.818,4.21,4.818,7.456
	c0,1.938-0.679,3.793-1.919,5.262C182.709,15.768,181.92,15.266,181.027,15.266z M175.571,17.832v1.58
	c-3.959-0.603-6.915-4.033-6.915-8.076c0-0.465,0.047-0.948,0.141-1.442l4.677,4.677v0.96
	C173.474,16.734,174.396,17.724,175.571,17.832z"/>
<path style="fill:#1770DE;" d="M197.936,0.77c-5.514,0-10,4.486-10,10s4.486,10,10,10c5.514,0,10-4.486,10-10
	S203.45,0.77,197.936,0.77z M196.94,15.486c-0.268,0-0.486-0.218-0.486-0.486v-1.696l-0.932-0.923h3.985v4.195h2.66
	c0.212,0,0.386,0.125,0.461,0.322l0.147,0.468c-1.249,0.915-2.702,1.448-4.223,1.551v-3.432H196.94z M199.506,3.395
	c0,0.283-0.239,0.522-0.522,0.522h-3.673v3.146h-3.321v1.796L190.5,7.368c1.334-2.905,4.236-4.774,7.436-4.774
	c0.512,0,1.04,0.052,1.57,0.153V3.395z M202.166,14.752h-0.836v-2.916c0-0.717-0.562-1.279-1.279-1.279h-6.236V8.885h2.042
	c0.717,0,1.279-0.562,1.279-1.279V5.74h1.85c1.293,0,2.345-1.052,2.345-2.345v-0.08c2.937,1.317,4.818,4.21,4.818,7.456
	c0,1.938-0.679,3.793-1.919,5.262C203.848,15.253,203.059,14.752,202.166,14.752z M196.709,17.317v1.58
	c-3.959-0.603-6.915-4.033-6.915-8.076c0-0.465,0.047-0.948,0.141-1.442l4.677,4.677v0.96
	C194.613,16.219,195.535,17.209,196.709,17.317z"/>
<path style="fill:#666666;" d="M155.863,47.512c-0.252-0.251-0.658-0.251-0.91,0l-2.997,2.997l-2.997-2.997
	c-0.253-0.251-0.658-0.249-0.909,0c-0.25,0.25-0.25,0.658,0,0.909l3.45,3.45c0.126,0.125,0.29,0.188,0.454,0.188
	c0.001,0,0.001,0,0.002,0s0.001,0,0.002,0c0.165,0,0.329-0.062,0.455-0.188l3.45-3.45C156.113,48.17,156.113,47.763,155.863,47.512z
	"/>
<path style="fill:#1770DE;" d="M155.819,53.49c-0.252-0.251-0.658-0.251-0.91,0l-2.997,2.997l-2.997-2.997
	c-0.253-0.251-0.658-0.249-0.909,0c-0.25,0.25-0.25,0.658,0,0.909l3.45,3.45c0.126,0.125,0.29,0.188,0.454,0.188
	c0.001,0,0.001,0,0.002,0s0.001,0,0.002,0c0.165,0,0.329-0.062,0.455-0.188l3.45-3.45C156.069,54.148,156.069,53.741,155.819,53.49z
	"/>
<path style="fill:#666666;" d="M22.276,39.879l-0.31-0.39l-0.011-0.012c-0.101-0.104-0.388-0.39-0.858-0.784
	c-0.562-0.473-1.564-1.17-1.643-1.222l-1.402-0.828c-0.257-0.126-0.53-0.153-0.714-0.153c-0.2,0-0.396,0.031-0.568,0.091
	c-0.607,0.207-1.172,1.142-1.33,1.425c-0.073,0.13-0.153,0.287-0.221,0.424l-0.022,0.043c-0.086,0.167-0.181,0.354-0.282,0.536
	c-0.1,0.176-0.314,0.354-0.53,0.354c-0.067,0-0.13-0.016-0.19-0.05c-0.939-0.528-2.052-1.211-3.187-2.281
	c-1.28-1.208-2.04-2.162-2.46-3.094c-0.026-0.064-0.023-0.353,0.144-0.433c0.23-0.112,0.418-0.186,0.583-0.251l0.039-0.016
	c0.238-0.094,0.464-0.184,0.721-0.337c0.111-0.07,0.17-0.102,0.221-0.13l0.026-0.015c0.093-0.049,0.18-0.096,0.446-0.272
	c0.011-0.008,0.06-0.047,0.111-0.09l0.171-0.151c0.447-0.422,0.594-1.042,0.373-1.579l-0.077-0.217
	c-0.001-0.006-0.285-0.651-0.74-1.419c-0.221-0.371-0.556-0.865-0.852-1.257c-0.801-1.057-1.542-1.395-1.546-1.396
	c-0.008-0.004-0.2-0.104-0.319-0.157c-0.483-0.202-1.029-0.195-1.517,0.014c-0.728,0.268-1.175,0.633-1.651,1.022L4.577,27.34
	c-1.411,1.153-2.176,2.656-1.995,3.927c0.271,1.921,2.538,5.842,5.482,8.617c2.942,2.773,7.085,4.905,9.109,5.157
	c0.153,0.02,0.311,0.029,0.468,0.029c1.462,0,2.602-0.872,3.431-1.632c0.413-0.379,0.959-1.005,1.25-1.624
	C22.578,41.269,22.701,40.477,22.276,39.879 M7.184,34.524c0.505,1.117,1.366,2.214,2.79,3.556c1.244,1.175,2.457,1.922,3.48,2.497
	c0.294,0.164,0.608,0.247,0.932,0.247c0.832,0,1.52-0.558,1.833-1.111c0.118-0.21,0.222-0.414,0.336-0.639l0.047-0.095
	c0.053-0.101,0.1-0.195,0.144-0.275c0.236-0.416,0.46-0.668,0.558-0.755c0.027-0.001,0.066-0.001,0.088,0.001l1.245,0.736
	l0.021,0.014c0.302,0.211,1.05,0.742,1.469,1.096c0.366,0.307,0.602,0.535,0.678,0.609c0.014,0.014,0.022,0.023,0.031,0.029
	l0.228,0.286c0.016,0.06,0,0.285-0.093,0.483c-0.202,0.428-0.619,0.898-0.915,1.17c-0.951,0.87-1.667,1.241-2.397,1.241
	c-0.096,0-0.196-0.006-0.297-0.02c-1.547-0.192-5.439-2.096-8.266-4.761c-2.817-2.657-4.834-6.314-5.039-7.767
	c-0.108-0.766,0.47-1.789,1.474-2.609l0.108-0.087c0.436-0.359,0.725-0.596,1.253-0.791c0.091-0.038,0.165-0.057,0.226-0.057
	c0.043,0,0.09,0.009,0.13,0.025c0.053,0.024,0.141,0.069,0.195,0.098l0.047,0.023c0.005,0.002,0.48,0.246,1.026,0.967
	c0.272,0.357,0.57,0.797,0.761,1.119c0.21,0.356,0.418,0.749,0.62,1.169c0.008,0.016,0.014,0.029,0.02,0.04l0.066,0.193
	c0.005,0.012,0.006,0.018,0.008,0.018c-0.003,0.003-0.011,0.011-0.024,0.024l-0.043,0.042c-0.019,0.017-0.038,0.036-0.05,0.048
	c-0.189,0.122-0.254,0.157-0.321,0.195c-0.066,0.035-0.145,0.078-0.304,0.176c-0.147,0.088-0.294,0.146-0.504,0.229
	c-0.207,0.082-0.434,0.173-0.713,0.308C7.027,32.684,6.893,33.882,7.184,34.524"/>
<g>
	<path style="fill:#666666;" d="M33.447,32.855h-5.494c-0.442,0-0.8,0.351-0.8,0.783c0,0.432,0.358,0.782,0.8,0.783h5.494
		c0.442,0,0.8-0.351,0.8-0.783C34.247,33.205,33.889,32.855,33.447,32.855z"/>
	<path style="fill:#666666;" d="M40.014,29.933V27.74c-0.008-0.929-0.783-1.676-1.732-1.671h-9.283
		c-0.95-0.005-1.725,0.742-1.733,1.671v2.192h-0.08c-1.986,0-3.601,1.546-3.601,3.446v6.785h3.516v3.236
		c0,0.921,0.761,1.668,1.703,1.671h9.453c0.941-0.002,1.703-0.75,1.703-1.671v-3.236h3.626v-6.785
		C43.585,31.488,41.986,29.948,40.014,29.933z M28.861,27.74c0.01-0.065,0.07-0.111,0.137-0.105h9.283
		c0.067-0.006,0.127,0.04,0.137,0.105v2.192h-9.556V27.74z M38.363,43.399L38.363,43.399c0,0.058-0.048,0.105-0.107,0.105h-9.453
		c-0.059,0-0.107-0.047-0.107-0.105v-4.802h9.667V43.399z M39.959,38.597v-1.566H27.101v1.566H25.18v-5.219
		c0-1.037,0.9-1.88,2.006-1.88h12.798c1.106,0,2.005,0.844,2.005,1.88v5.219H39.959z"/>
</g>
<path style="fill:#666666;" d="M62.694,31.069H46.536c-1.06,0-1.921,0.817-1.921,1.822v10.358c0,1.004,0.862,1.821,1.921,1.821
	h16.158c0.512,0,0.995-0.19,1.359-0.534c0.363-0.345,0.563-0.801,0.562-1.286V32.891C64.614,31.886,63.753,31.069,62.694,31.069z
	 M63.203,32.891v10.358c0,0.017-0.004,0.04-0.009,0.064l-5.637-5.338l5.588-5.304C63.182,32.74,63.203,32.813,63.203,32.891z
	 M61.429,32.406l-5.42,5.144c-0.372,0.353-0.868,0.547-1.395,0.547h-0.001c-0.527,0-1.021-0.194-1.392-0.547l-5.421-5.144H61.429z
	 M52.715,38.878c0.564,0.364,1.218,0.556,1.899,0.556c0.682,0,1.336-0.192,1.9-0.556l5.114,4.855H47.6L52.715,38.878z
	 M51.673,37.975c-1.808,1.718-5,4.75-5.639,5.353c-0.004-0.026-0.007-0.052-0.007-0.079V32.891c0-0.077,0.02-0.151,0.058-0.219
	L51.673,37.975z"/>
<g>
	<path style="fill:#666666;" d="M84.994,37.38l-0.026-0.047l0.01-0.054c0.098-0.538,0.147-1.078,0.147-1.604
		c0-1.193-0.233-2.351-0.693-3.441c-0.443-1.051-1.079-1.997-1.893-2.813c-0.81-0.811-1.753-1.448-2.805-1.894
		c-1.598-0.677-3.38-0.866-5.104-0.536L74.579,27l-0.047-0.024c-0.746-0.396-1.585-0.605-2.426-0.605
		c-1.379,0-2.674,0.538-3.648,1.515c-0.976,0.978-1.513,2.277-1.513,3.659c0,0.873,0.224,1.74,0.648,2.509l0.026,0.046l-0.01,0.052
		c-0.088,0.514-0.133,1.027-0.133,1.524c0,1.196,0.233,2.354,0.693,3.442c0.444,1.055,1.08,2.001,1.89,2.812
		c0.809,0.812,1.753,1.449,2.806,1.895c1.089,0.461,2.243,0.694,3.433,0.694c0.52,0,1.039-0.046,1.546-0.138l0.053-0.01l0.048,0.026
		c0.776,0.439,1.655,0.672,2.539,0.672c1.381,0,2.677-0.538,3.648-1.516c0.976-0.976,1.512-2.274,1.512-3.659
		C85.647,39.019,85.422,38.15,84.994,37.38z M83.139,42.556c-0.706,0.71-1.648,1.102-2.653,1.102c-0.646,0-1.284-0.169-1.846-0.488
		l-0.488-0.276L77.6,42.99c-1.426,0.255-2.878,0.088-4.187-0.47c-0.883-0.372-1.676-0.908-2.357-1.592
		c-0.68-0.682-1.214-1.476-1.587-2.358c-0.387-0.914-0.583-1.887-0.583-2.893c0-0.415,0.038-0.847,0.112-1.283l0.095-0.546
		l-0.268-0.484c-0.31-0.557-0.474-1.186-0.474-1.82c0-1.004,0.391-1.948,1.099-2.658c0.712-0.711,1.654-1.103,2.655-1.103
		c0.609,0,1.22,0.154,1.767,0.444l0.485,0.256l0.537-0.104c1.473-0.28,2.947-0.118,4.291,0.449c0.884,0.375,1.677,0.911,2.356,1.594
		c0.681,0.679,1.216,1.474,1.59,2.361c0.386,0.911,0.582,1.884,0.582,2.892c0,0.45-0.042,0.904-0.124,1.35l-0.102,0.554l0.273,0.491
		c0.311,0.557,0.476,1.188,0.476,1.828C84.238,40.901,83.847,41.846,83.139,42.556z"/>
	<path style="fill:#666666;" d="M77.959,34.776L75.86,34.31c-0.731-0.168-1.835-0.422-1.835-1.325c0-0.884,0.751-1.434,1.958-1.434
		c1.442,0,1.968,0.591,2.391,1.065c0.284,0.318,0.489,0.549,0.903,0.549c0.481,0,0.999-0.26,0.999-0.831
		c0-1.344-2.217-2.386-4.125-2.386c-2.054,0-4.248,0.833-4.248,3.172c0,1.015,0.293,2.254,2.584,2.829l2.836,0.709
		c0.981,0.242,1.188,0.829,1.188,1.279c0,0.788-0.747,1.586-2.174,1.586c-1.544,0-2.084-0.703-2.518-1.268
		c-0.3-0.389-0.536-0.696-1.038-0.696c-0.534,0-0.907,0.36-0.907,0.876c0,1.078,1.385,2.597,4.463,2.597
		c2.747,0,4.387-1.226,4.387-3.278C80.723,36.188,79.794,35.186,77.959,34.776z"/>
</g>
<g>
	<path style="fill:#666666;" d="M94.248,34.06c-0.813,0-1.46,0.243-1.925,0.72c-0.45,0.454-0.685,1.075-0.7,1.845l-0.001,0.03
		l0.001,0.016c-0.001,0.011-0.001,0.022-0.001,0.033l0.002,0.123h0.019c0.077,0.295,0.345,0.511,0.655,0.511
		c0.311,0,0.579-0.217,0.654-0.511h0.024v-0.123c0-0.441,0.087-0.784,0.263-1.02c0.189-0.273,0.494-0.406,0.934-0.406
		c0.352,0,0.625,0.095,0.808,0.28c0.184,0.201,0.273,0.46,0.273,0.792c0,0.234-0.091,0.472-0.265,0.698l-0.171,0.193
		c-0.679,0.613-1.078,1.06-1.218,1.358c-0.151,0.281-0.226,0.642-0.226,1.073v0.304h1.376v-0.304c0-0.241,0.052-0.459,0.156-0.652
		c0.091-0.189,0.23-0.363,0.415-0.516c0.51-0.451,0.805-0.728,0.902-0.85c0.284-0.369,0.428-0.833,0.428-1.378
		c0-0.681-0.227-1.225-0.675-1.618C95.541,34.26,94.959,34.06,94.248,34.06z"/>
	<path style="fill:#666666;" d="M94.137,31.069c-3.86,0-7,3.14-7,7s3.14,7,7,7s7-3.14,7-7S97.997,31.069,94.137,31.069z
		 M99.994,38.069c0,3.229-2.628,5.857-5.857,5.857c-3.229,0-5.857-2.628-5.857-5.857c0-3.229,2.628-5.857,5.857-5.857
		C97.366,32.212,99.994,34.84,99.994,38.069z"/>
	<path style="fill:#666666;" d="M94.058,40.307c-0.259,0-0.473,0.084-0.632,0.247c-0.174,0.158-0.262,0.372-0.262,0.634
		c0,0.246,0.086,0.459,0.257,0.631c0.172,0.174,0.387,0.261,0.637,0.261c0.242,0,0.454-0.083,0.636-0.25
		c0.177-0.178,0.268-0.394,0.268-0.642c0-0.262-0.088-0.476-0.257-0.63C94.542,40.391,94.325,40.307,94.058,40.307z"/>
</g>
<path style="fill:#1770DE;" d="M22.01,68.983h-18c-1.105,0-2-0.895-2-2v-18c0-1.105,0.895-2,2-2h18c1.105,0,2,0.895,2,2v18
	C24.01,68.088,23.115,68.983,22.01,68.983z"/>
<g>
	<path style="fill:#1770DE;" d="M45.928,68.983h-18c-1.105,0-2-0.895-2-2v-18c0-1.105,0.895-2,2-2h18c1.105,0,2,0.895,2,2v18
		C47.928,68.088,47.033,68.983,45.928,68.983z"/>
	<path style="fill:#FFFFFF;" d="M29.128,65.605h3.579V55.45h-3.579V65.605z M41.037,55.13c-1.481,0-2.298,0.493-3.238,1.687V55.45
		h-3.573v10.155h3.573v-5.518c0-1.165,0.56-2.304,1.899-2.304c1.339,0,1.668,1.139,1.668,2.276v5.546h3.563v-5.772
		C44.928,55.822,42.518,55.13,41.037,55.13L41.037,55.13z M30.924,50.361c-1.103,0-1.996,0.802-1.996,1.792
		c0,0.989,0.893,1.79,1.996,1.79c1.102,0,1.994-0.801,1.994-1.79C32.918,51.164,32.025,50.361,30.924,50.361z"/>
</g>
<g>
	<path style="fill:#1770DE;" d="M69.846,68.983h-18c-1.105,0-2-0.895-2-2v-18c0-1.105,0.895-2,2-2h18c1.105,0,2,0.895,2,2v18
		C71.846,68.088,70.951,68.983,69.846,68.983z"/>
	<path style="fill:#FFFFFF;" d="M68.512,54.128c-0.184-0.689-0.727-1.232-1.414-1.416c-1.248-0.336-6.252-0.336-6.252-0.336
		s-5.004,0-6.252,0.334c-0.689,0.184-1.23,0.727-1.414,1.416c-0.334,1.25-0.334,3.857-0.334,3.857s0,2.607,0.334,3.855
		c0.184,0.689,0.727,1.232,1.414,1.416c1.248,0.336,6.252,0.336,6.252,0.336s5.004,0,6.252-0.336
		c0.689-0.184,1.23-0.727,1.414-1.416c0.334-1.248,0.334-3.855,0.334-3.855S68.846,55.376,68.512,54.128z M59.257,60.376V55.59
		l4.143,2.375L59.257,60.376z"/>
</g>
<g>
	<path style="fill:#1770DE;" d="M93.764,68.983h-18c-1.105,0-2-0.895-2-2v-18c0-1.105,0.895-2,2-2h18c1.105,0,2,0.895,2,2v18
		C95.764,68.088,94.868,68.983,93.764,68.983z"/>
	<g>
		<path style="fill:#FFFFFF;" d="M84.762,53.878c-2.271,0-4.105,1.833-4.105,4.105s1.833,4.105,4.105,4.105s4.105-1.833,4.105-4.105
			S87.033,53.878,84.762,53.878z M84.762,60.651c-1.469,0-2.668-1.199-2.668-2.668c0-1.469,1.199-2.668,2.668-2.668
			s2.668,1.199,2.668,2.668C87.429,59.452,86.231,60.651,84.762,60.651z"/>
		<path style="fill:#FFFFFF;" d="M89.034,52.754c-0.53,0-0.959,0.428-0.959,0.959c0,0.53,0.428,0.959,0.959,0.959
			s0.959-0.426,0.959-0.959C89.991,53.18,89.565,52.754,89.034,52.754z"/>
		<path style="fill:#FFFFFF;" d="M92.763,57.983c0-1.105,0.01-2.199-0.052-3.302c-0.062-1.281-0.354-2.418-1.291-3.354
			c-0.939-0.939-2.073-1.229-3.354-1.291c-1.105-0.062-2.199-0.052-3.302-0.052c-1.105,0-2.199-0.01-3.302,0.052
			c-1.281,0.062-2.418,0.354-3.354,1.291c-0.939,0.939-1.229,2.073-1.291,3.354c-0.062,1.105-0.052,2.199-0.052,3.302
			c0,1.103-0.01,2.199,0.052,3.302c0.062,1.281,0.354,2.418,1.291,3.354c0.939,0.939,2.073,1.229,3.354,1.291
			c1.105,0.062,2.199,0.052,3.302,0.052c1.105,0,2.199,0.01,3.302-0.052c1.281-0.062,2.418-0.354,3.354-1.291
			c0.939-0.939,1.229-2.073,1.291-3.354C92.775,60.183,92.763,59.088,92.763,57.983z M91.002,62.702
			c-0.146,0.364-0.322,0.636-0.604,0.917c-0.282,0.282-0.552,0.458-0.917,0.604c-1.053,0.418-3.552,0.324-4.719,0.324
			c-1.167,0-3.668,0.094-4.721-0.322c-0.364-0.146-0.636-0.322-0.917-0.604c-0.282-0.282-0.458-0.552-0.604-0.917
			c-0.416-1.055-0.322-3.554-0.322-4.721c0-1.167-0.094-3.668,0.322-4.721c0.146-0.364,0.322-0.636,0.604-0.917
			c0.282-0.28,0.552-0.458,0.917-0.604c1.053-0.416,3.554-0.322,4.721-0.322c1.167,0,3.668-0.094,4.721,0.322
			c0.364,0.146,0.636,0.322,0.917,0.604c0.282,0.282,0.458,0.552,0.604,0.917c0.416,1.053,0.322,3.554,0.322,4.721
			C91.326,59.15,91.42,61.65,91.002,62.702z"/>
	</g>
</g>
<path style="fill:#1770DE;" d="M117.682,68.983h-18c-1.105,0-2-0.895-2-2v-18c0-1.105,0.895-2,2-2h18c1.105,0,2,0.895,2,2v18
	C119.682,68.088,118.786,68.983,117.682,68.983z"/>
<path style="fill:#FFFFFF;" d="M115.053,55.029c0-0.15-0.003-0.298-0.01-0.446c0.642-0.478,1.198-1.076,1.639-1.761
	c-0.598,0.269-1.234,0.443-1.886,0.516c0.678-0.417,1.198-1.085,1.444-1.886c-0.635,0.385-1.337,0.66-2.084,0.804
	c-0.598-0.681-1.452-1.115-2.396-1.131c-1.813-0.03-3.283,1.502-3.283,3.421c0,0.273,0.029,0.537,0.085,0.793
	c-2.73-0.176-5.149-1.597-6.767-3.739c-0.282,0.513-0.444,1.113-0.444,1.756c0,1.216,0.58,2.296,1.46,2.934
	c-0.539-0.024-1.044-0.188-1.487-0.455v0.045c0,1.699,1.132,3.123,2.634,3.455c-0.275,0.078-0.566,0.119-0.864,0.118
	c-0.208-0.001-0.414-0.024-0.617-0.068c0.417,1.393,1.63,2.41,3.066,2.444c-1.124,0.932-2.539,1.488-4.076,1.485
	c-0.265,0-0.527-0.018-0.784-0.05c1.453,0.997,3.178,1.578,5.033,1.578C111.751,64.843,115.053,59.588,115.053,55.029
	L115.053,55.029z"/>
<path style="fill:#1770DE;" d="M141.42,69.162h-18c-1.105,0-2-0.895-2-2v-18c0-1.105,0.895-2,2-2h18c1.105,0,2,0.895,2,2v18
	C143.42,68.267,142.525,69.162,141.42,69.162z"/>
<path style="fill:#FFFFFF;" d="M139.176,56.786c-1.334,0-2.631-0.427-3.698-1.216v5.505c0,2.811-2.201,5.088-4.916,5.088
	c-2.715,0-4.916-2.277-4.916-5.088c0-2.811,2.201-5.088,4.916-5.088c0.272,0,0.535,0.023,0.792,0.067v2.916
	c-0.246-0.095-0.508-0.144-0.772-0.144c-1.212,0-2.195,1.016-2.195,2.27c0,1.253,0.983,2.27,2.195,2.27
	c1.21,0,2.193-1.017,2.193-2.27V50.162h2.742c0,2.102,1.647,3.805,3.678,3.805v2.817L139.176,56.786"/>
<path style="fill:#1770DE;" d="M195.936,44.004h-18c-1.105,0-2-0.895-2-2v-18c0-1.105,0.895-2,2-2h18c1.105,0,2,0.895,2,2v18
	C197.936,43.108,197.041,44.004,195.936,44.004z"/>
<path style="fill:#1770DE;stroke:#1770DE;stroke-width:0.25;stroke-miterlimit:10;" d="M173.022,33.75l-6.441-6.241
	c-0.303-0.294-0.795-0.294-1.098,0c-0.148,0.144-0.23,0.335-0.23,0.539c0,0.204,0.082,0.396,0.23,0.54l5.885,5.701l-5.885,5.701
	c-0.148,0.144-0.23,0.335-0.23,0.54c0,0.204,0.082,0.395,0.23,0.539c0.152,0.147,0.35,0.22,0.549,0.22s0.398-0.073,0.549-0.22
	l6.441-6.24c0.149-0.144,0.23-0.335,0.23-0.54C173.252,34.086,173.171,33.894,173.022,33.75z"/>
<path style="fill:#1770DE;stroke:#1770DE;stroke-width:0.25;stroke-miterlimit:10;" d="M155.312,34.552l5.885-5.701
	c0.148-0.143,0.23-0.335,0.23-0.539c0-0.204-0.082-0.396-0.23-0.539c-0.303-0.294-0.796-0.294-1.098,0l-6.442,6.24
	c-0.149,0.144-0.23,0.335-0.23,0.54c0,0.204,0.081,0.395,0.23,0.539l6.442,6.24c0.151,0.147,0.35,0.22,0.549,0.22
	s0.398-0.073,0.549-0.22c0.149-0.144,0.23-0.335,0.23-0.54c0-0.204-0.081-0.395-0.23-0.539L155.312,34.552z"/>
<path style="fill:#8BB7EE;stroke:#8BB7EE;stroke-width:0.25;stroke-miterlimit:10;" d="M131.172,35.048l5.885-5.701
	c0.149-0.144,0.23-0.335,0.23-0.54c0-0.204-0.081-0.395-0.23-0.539c-0.302-0.294-0.795-0.294-1.098,0l-6.442,6.24
	c-0.148,0.144-0.23,0.335-0.23,0.54c0,0.204,0.081,0.395,0.23,0.539l6.442,6.241c0.152,0.146,0.35,0.22,0.549,0.22
	c0.199,0,0.398-0.073,0.549-0.22c0.149-0.144,0.23-0.335,0.23-0.539c0-0.204-0.081-0.396-0.23-0.54L131.172,35.048z"/>
<path style="fill:#8BB7EE;stroke:#8BB7EE;stroke-width:0.25;stroke-miterlimit:10;" d="M148.619,34.508l-6.441-6.24
	c-0.303-0.294-0.795-0.294-1.098,0c-0.148,0.143-0.23,0.335-0.23,0.539c0,0.204,0.082,0.396,0.23,0.539l5.885,5.701l-5.885,5.701
	c-0.148,0.144-0.23,0.335-0.23,0.539c0,0.204,0.082,0.396,0.23,0.54c0.152,0.147,0.35,0.22,0.549,0.22
	c0.199,0,0.398-0.073,0.549-0.22l6.441-6.24c0.149-0.144,0.23-0.335,0.23-0.539C148.85,34.843,148.768,34.652,148.619,34.508z"/>
<g>
	<path style="fill:#1770DE;stroke:#1770DE;stroke-width:0.25;stroke-miterlimit:10;" d="M125.327,36.614h-20.174
		c-0.504,0-0.913-0.409-0.913-0.913v0c0-0.504,0.409-0.913,0.913-0.913h20.174c0.504,0,0.913,0.409,0.913,0.913v0
		C126.24,36.205,125.831,36.614,125.327,36.614z"/>
	<path style="fill:#1770DE;stroke:#1770DE;stroke-width:0.25;stroke-miterlimit:10;" d="M124.661,36.346l-7.177-7.087
		c-0.361-0.357-0.361-0.935,0-1.291l0,0c0.361-0.357,0.947-0.357,1.308,0l7.177,7.087c0.361,0.357,0.361,0.935,0,1.291l0,0
		C125.608,36.703,125.023,36.703,124.661,36.346z"/>
	<path style="fill:#1770DE;stroke:#1770DE;stroke-width:0.25;stroke-miterlimit:10;" d="M117.484,42.142l7.177-7.087
		c0.361-0.357,0.947-0.357,1.308,0v0c0.361,0.357,0.361,0.935,0,1.291l-7.177,7.087c-0.361,0.357-0.947,0.357-1.308,0l0,0
		C117.123,43.077,117.123,42.499,117.484,42.142z"/>
</g>
<g>
	<path style="fill:#FFFFFF;" d="M184.25,32.758l-5.184,5.184c-0.086-0.197-0.13-0.41-0.129-0.625V28.69
		c0-0.202,0.04-0.402,0.116-0.589L184.25,32.758z"/>
	<path style="fill:#FFFFFF;" d="M186.592,33.58l-6.934-6.212c0.254-0.165,0.551-0.254,0.854-0.254h12.848
		c0.304,0,0.601,0.088,0.855,0.254l-5.582,5.002l-0.037,0.031l-1.316,1.178C187.084,33.756,186.788,33.756,186.592,33.58z"/>
	<path style="fill:#FFFFFF;" d="M188.915,33.392l5.268,5.268c-0.247,0.153-0.532,0.234-0.823,0.233h-12.848
		c-0.29,0.001-0.575-0.08-0.822-0.233l5.268-5.268l1.66,1.488c0.18,0.162,0.454,0.162,0.635,0L188.915,33.392z M194.936,28.69v8.627
		c0,0.215-0.044,0.427-0.129,0.625l-5.184-5.184l5.197-4.657C194.897,28.288,194.936,28.488,194.936,28.69z"/>
</g>
<path style="fill:#FFFFFF;" d="M18.793,57.553l-0.309,2.93h-2.342v8.5h-3.518v-8.5h-1.753v-2.93h1.753v-1.764
	c0-2.383,0.991-3.806,3.808-3.806h2.341v2.93h-1.465c-1.093,0-1.166,0.413-1.166,1.176v1.464H18.793z"/>
</svg>
