<?xml version="1.0" encoding="utf-8"?>
<!-- Generator: Adobe Illustrator 26.0.0, SVG Export Plug-In . SVG Version: 6.00 Build 0)  -->
<svg version="1.1" id="图层_1" xmlns="http://www.w3.org/2000/svg" xmlns:xlink="http://www.w3.org/1999/xlink" x="0px" y="0px"
	 viewBox="0 0 160 210" style="enable-background:new 0 0 160 210;" xml:space="preserve">
<style type="text/css">
	.st0{fill:#E60012;}
	.st1{fill:#FFF100;}
	.st2{fill:#999999;}
	.st3{fill:#FF0000;}
	.st4{fill:#FFFFFF;}
	.st5{fill:#E3E7EE;}
	.st6{fill:#FFA44A;}
	.st7{fill:#1A9F0B;}
	.st8{opacity:0.15;fill:#181A93;enable-background:new    ;}
	.st9{fill:#181A93;}
	.st10{fill:#C01D3C;}
	.st11{fill:#C9211C;}
	.st12{fill:#0035AD;}
	.st13{fill:#FCD300;}
	.st14{fill:#F50013;}
	.st15{fill:#00189A;}
	.st16{fill:#FEFFFF;}
	.st17{fill:#ECA300;}
	.st18{fill:#F42A41;}
	.st19{fill:#C70000;}
	.st20{fill:#3D5897;}
	.st21{fill:#353636;}
	.st22{fill:#D5352C;}
	.st23{fill:#00458F;}
	.st24{fill:#FBE043;}
	.st25{fill:#ED2939;}
	.st26{fill:#009560;}
	.st27{fill:#FC813D;}
	.st28{fill:#002A7D;}
	.st29{fill:#FCD116;}
	.st30{fill:#C81125;}
	.st31{fill:#009246;}
	.st32{fill:#CE2B37;}
	.st33{fill:#002654;}
	.st34{fill:#CD1125;}
	.st35{fill:#00956E;}
	.st36{fill:#D72612;}
	.st37{fill:#0071CD;}
	.st38{fill:#180087;}
	.st39{fill:#EA0020;}
	.st40{fill:#1A237B;}
	.st41{fill:#BD0034;}
	.st42{fill:#D7141B;}
	.st43{fill:#11467F;}
	.st44{fill:#CF0C32;}
	.st45{fill:#006EAE;}
	.st46{fill:#FFC400;}
	.st47{fill:#231815;}
	.st48{fill:#0D5EAF;}
	.st49{fill:#D0232C;}
	.st50{fill:#008B46;}
	.st51{fill:#DC143C;}
	.st52{fill:#E02729;}
	.st53{fill:#009AD1;}
	.st54{fill:#AA1A27;}
	.st55{fill:#204385;}
	.st56{fill:#F9B613;}
	.st57{fill:#BD252C;}
	.st58{fill:#006A44;}
	.st59{fill:#801520;}
	.st60{fill:#EF2B2D;}
	.st61{fill:#002868;}
	.st62{fill:#005A2E;}
	.st63{fill:#DB241F;}
	.st64{fill:#57A863;}
	.st65{fill:#E9D304;}
	.st66{fill:#CC1126;}
	.st67{fill:#0038A8;}
	.st68{fill:#FC0C00;}
	.st69{fill:#002EE6;}
	.st70{fill:#F2C330;}
	.st71{fill:#BC091C;}
	.st72{fill:#0B5089;}
	.st73{fill:#FFC100;}
	.st74{fill:#CF1D05;}
	.st75{fill:#F5F7FA;}
	.st76{fill:#D69DA6;}
	.st77{fill:#00237A;}
	.st78{fill:#CF142B;}
	.st79{fill:#003FBD;}
	.st80{fill:#006847;}
	.st81{fill:#CE1126;}
	.st82{fill:#EABC28;}
	.st83{fill:#D02F44;}
	.st84{fill:#46467F;}
	.st85{fill:#008F3E;}
	.st86{fill:#F8C300;}
	.st87{fill:#28166F;}
	.st88{fill:#FF0001;}
	.st89{fill:#000094;}
	.st90{display:none;}
	.st91{display:inline;}
	.st92{fill:#E15638;}
	.st93{fill:#006EB7;}
	.st94{fill:#009876;}
	.st95{fill:#F6C73F;}
</style>
<g>
	<g>
		<rect x="3.8" y="2.7" class="st0" width="26" height="17"/>
	</g>
	<path class="st1" d="M14.1,7.1L15,6.7l0.5,0.7l0-0.9l0.8-0.3L15.4,6l0-0.9l-0.5,0.7l-0.9-0.2l0.5,0.7L14.1,7.1z M10.6,9.1L9.7,6.4
		L8.8,9.1l-2.9,0l2.4,1.7l-0.9,2.8l2.3-1.7l2.3,1.7l-0.9-2.8l2.4-1.7L10.6,9.1z M17.4,9.3v0.9l0.5-0.7l0.8,0.3L18.2,9l0.5-0.7
		l-0.8,0.3l-0.5-0.7v0.9L16.6,9L17.4,9.3z M18.9,12.6l-0.9,0l-0.3-0.8l-0.3,0.8l-0.9,0l0.7,0.5L17.1,14l0.7-0.5l0.7,0.5l-0.3-0.8
		L18.9,12.6z M15.5,15.4v-0.9l-0.5,0.7l-0.8-0.3l0.5,0.7l-0.5,0.7l0.8-0.3l0.5,0.7v-0.9l0.8-0.3L15.5,15.4z"/>
	<g>
		<path class="st2" d="M29.3,3.2v16h-25v-16H29.3 M29.8,2.7h-26v17h26V2.7L29.8,2.7z"/>
	</g>
</g>
<g>
	<g>
		<path class="st3" d="M3.8,23.5h26v17h-26L3.8,23.5z"/>
		<g>
			<path class="st3" d="M16.5,32l0.1,0.1l-0.1,0.1l-0.1-0.1L16.5,32z"/>
			<path class="st4" d="M16.5,32.1c-1.3-0.5-2-2.2-1.4-3.6c0.3-0.7,1.4-1.7,2.8-1.4c-0.5,0.3-0.9,0.6-0.5,1.2
				c0.4,0.6,0.2,1.5-0.5,1.8C16.2,30.4,15.7,31.4,16.5,32.1z"/>
			<path class="st3" d="M16.5,32.1c-0.3-0.2-0.7-0.5-0.9-1.4l0-0.3c0-0.7,0.4-1.2,0.4-1.2l0,0l0,0c0,0-0.1,0.1-0.2,0.3
				c-0.1,0.2-0.2,0.5-0.2,0.8l0,0.3C15.8,31.6,16.2,31.9,16.5,32.1L16.5,32.1L16.5,32.1L16.5,32.1z M16.1,28.5l0.2,0.2l0.3-0.2
				l-0.1,0.3l0.2,0.2l-0.3,0l-0.1,0.3L16.2,29l-0.3,0l0.3-0.2L16.1,28.5z"/>
			<path class="st4" d="M16.5,32.1c0.1-1.5,1.5-2.6,3-2.5c0.8,0.1,2.1,0.8,2.2,2.3c-0.4-0.4-0.9-0.7-1.3-0.2c-0.4,0.5-1.3,0.6-1.9,0
				C18.1,31.3,16.9,31.2,16.5,32.1z"/>
			<path class="st3" d="M16.5,32.1c0.1-0.3,0.2-0.9,1.1-1.2l0.3-0.1c0.7-0.2,1.2,0,1.2,0l0,0l0,0c0,0-0.1,0-0.3-0.1
				c-0.2,0-0.5,0-0.9,0.1l-0.3,0.1C16.7,31.3,16.7,31.8,16.5,32.1L16.5,32.1L16.5,32.1L16.5,32.1z M19.8,30.6l-0.1,0.3l0.2,0.2
				l-0.3,0l-0.1,0.3L19.4,31l-0.3,0l0.3-0.2l-0.1-0.3l0.2,0.2L19.8,30.6z"/>
			<path class="st4" d="M16.5,32.1c1.4-0.3,2.9,0.7,3.3,2.1c0.2,0.8-0.2,2.3-1.5,2.8c0.3-0.5,0.4-1-0.2-1.3c-0.7-0.2-1-1.1-0.6-1.8
				C17.7,33.4,17.5,32.2,16.5,32.1L16.5,32.1z"/>
			<path class="st3" d="M16.5,32.1c0.4,0,0.9,0,1.5,0.6l0.2,0.2c0.4,0.6,0.4,1.2,0.4,1.2l0,0l0,0c0,0,0-0.1,0-0.3
				c0-0.2-0.1-0.5-0.3-0.8L18,32.8C17.3,32.1,16.9,32.2,16.5,32.1L16.5,32.1L16.5,32.1L16.5,32.1L16.5,32.1z M19,34.8l-0.3,0
				l-0.1,0.3l-0.1-0.3l-0.3,0l0.3-0.2l-0.1-0.3l0.2,0.2l0.3-0.2l-0.1,0.3L19,34.8z"/>
			<path class="st4" d="M16.5,32.1c0.8,1.2,0.3,3-1,3.7c-0.7,0.4-2.2,0.5-3.1-0.6c0.6,0.1,1.1,0,1.1-0.6c0-0.7,0.7-1.3,1.5-1.1
				C15.7,33.7,16.7,33.2,16.5,32.1L16.5,32.1z"/>
			<path class="st3" d="M16.5,32.1c0.1,0.4,0.3,0.8-0.1,1.6L16.2,34c-0.4,0.6-1,0.7-1,0.7l0,0l0,0c0,0,0.1,0,0.3-0.1
				c0.2-0.1,0.4-0.3,0.6-0.6l0.2-0.2C16.8,32.9,16.6,32.5,16.5,32.1L16.5,32.1L16.5,32.1L16.5,32.1z M14.7,35.3L14.6,35l-0.3,0
				l0.3-0.2l-0.1-0.3l0.2,0.2l0.3-0.2l-0.1,0.3l0.2,0.2l-0.3,0L14.7,35.3z"/>
			<path class="st4" d="M16.5,32.1c-0.9,1.1-2.8,1.2-3.9,0.2c-0.6-0.5-1.2-1.9-0.4-3.1c0.1,0.6,0.3,1.1,0.9,0.9
				c0.7-0.2,1.4,0.3,1.5,1.1C14.8,31.8,15.6,32.6,16.5,32.1z"/>
			<path class="st3" d="M16.5,32.1c-0.3,0.2-0.7,0.6-1.6,0.4l-0.3-0.1c-0.7-0.2-1-0.7-1-0.7l0,0l0,0c0,0,0.1,0.1,0.2,0.3
				c0.2,0.1,0.4,0.3,0.7,0.4l0.3,0.1C15.8,32.6,16.2,32.3,16.5,32.1L16.5,32.1L16.5,32.1L16.5,32.1L16.5,32.1z M12.9,31.4l0.3-0.2
				l-0.1-0.3l0.2,0.2l0.3-0.2l-0.1,0.3l0.2,0.2l-0.3,0l-0.1,0.3l-0.1-0.3L12.9,31.4z"/>
		</g>
	</g>
	<g>
		<path class="st2" d="M29.3,24v16h-25V24H29.3 M29.8,23.5h-26v17h26V23.5L29.8,23.5z"/>
	</g>
</g>
<g>
	<path class="st4" d="M5.6,44.3h22.3c1.1,0,1.6,0.5,1.6,1.4v13.1c0,1-0.5,1.4-1.6,1.4H5.6c-1.1,0-1.6-0.5-1.6-1.4V45.8
		C4,44.8,4.5,44.3,5.6,44.3z"/>
	<path class="st5" d="M27.9,60.3H5.6c-1,0-1.9-0.7-1.9-1.6l0,0V45.9c0-0.9,0.8-1.6,1.9-1.6h22.3c1,0,1.9,0.7,1.9,1.6l0,0v12.8
		C29.8,59.6,28.9,60.3,27.9,60.3L27.9,60.3z M5.6,44.7c-0.8,0-1.4,0.5-1.4,1.2v12.8c0,0.7,0.6,1.2,1.4,1.2l0,0h22.3
		c0.8,0,1.4-0.5,1.4-1.2V45.9c0-0.7-0.6-1.2-1.4-1.2H5.6z"/>
	<path class="st6" d="M3.8,49.8h26v-5.5h-26V49.8z"/>
	<path class="st7" d="M3.8,61.3h26v-5.5h-26V61.3z"/>
	<g>
		<path class="st8" d="M14.6,52.8c0,1.2,1,2.1,2.2,2.1c1.2,0,2.2-0.9,2.2-2.1c0,0,0,0,0,0c0-1.2-1-2.1-2.2-2.1
			C15.6,50.7,14.6,51.7,14.6,52.8C14.6,52.8,14.6,52.8,14.6,52.8z"/>
		<path class="st9" d="M16.8,55.2c-1.4,0-2.5-1.1-2.5-2.4c0-1.3,1.1-2.4,2.5-2.4c1.4,0,2.5,1.1,2.5,2.4v0
			C19.2,54.2,18.1,55.2,16.8,55.2z M16.8,51c-1,0-1.9,0.8-1.9,1.8c0,1,0.8,1.8,1.9,1.8c1,0,1.9-0.8,1.9-1.8
			C18.6,51.8,17.8,51,16.8,51L16.8,51z"/>
		<path class="st9" d="M16.8,53.4c0.3,0,0.6-0.3,0.6-0.6c0-0.3-0.3-0.6-0.6-0.6c-0.3,0-0.6,0.3-0.6,0.6
			C16.1,53.2,16.4,53.4,16.8,53.4L16.8,53.4z"/>
	</g>
	<g>
		<path class="st2" d="M29.3,44.8v16h-25v-16H29.3 M29.8,44.3h-26v17h26V44.3L29.8,44.3z"/>
	</g>
</g>
<g>
	<g>
		<rect x="3.8" y="65.1" class="st4" width="26" height="17"/>
	</g>
	<path class="st10" d="M11.6,73.6c0,2.9,2.3,5.2,5.2,5.2s5.2-2.3,5.2-5.2s-2.3-5.2-5.2-5.2S11.6,70.8,11.6,73.6L11.6,73.6z"/>
	<g>
		<path class="st2" d="M29.3,65.6v16h-25v-16H29.3 M29.8,65.1h-26v17h26V65.1L29.8,65.1z"/>
	</g>
</g>
<g>
	<g>
		<path class="st4" d="M3.8,97.7h25.9V99H3.8L3.8,97.7z"/>
		<path class="st11" d="M3.8,96.4h25.9v1.3H3.8L3.8,96.4z M3.8,101.6h25.9v1.3H3.8L3.8,101.6z"/>
		<path class="st4" d="M3.8,95.1h25.9v1.3H3.8L3.8,95.1z"/>
		<path class="st11" d="M3.8,99h25.9v1.3H3.8L3.8,99z"/>
		<path class="st4" d="M3.8,100.3h25.9v1.3H3.8L3.8,100.3z M3.8,89.9h25.9v1.3H3.8L3.8,89.9z"/>
		<path class="st11" d="M3.8,93.8h25.9v1.3H3.8L3.8,93.8z"/>
		<path class="st11" d="M3.8,88.6h25.9v1.3H3.8L3.8,88.6z M3.8,86h25.9v1.3H3.8L3.8,86z"/>
		<path class="st4" d="M3.8,92.5h25.9v1.3H3.8L3.8,92.5z"/>
		<path class="st11" d="M3.8,91.2h25.9v1.3H3.8L3.8,91.2z"/>
	</g>
	<path class="st12" d="M3.8,86h12.9v10.6H3.8V86z"/>
	<path class="st13" d="M9.6,94.2c-1.6,0-3-1.3-3-3s1.3-3,3-3c0.5,0,0.9,0.1,1.3,0.3c-0.6-0.4-1.3-0.7-2.1-0.7
		c-1.9,0-3.3,1.5-3.3,3.3s1.5,3.3,3.3,3.3c0.8,0,1.5-0.3,2.1-0.7C10.5,94.1,10.1,94.2,9.6,94.2z"/>
	<path class="st13" d="M12.2,88.4l0.2,1.8l1-1.5l-0.6,1.7l1.5-0.9l-1.2,1.3l1.8-0.1l-1.7,0.6l1.7,0.6l-1.8-0.1l1.2,1.3l-1.5-0.9
		l0.6,1.7l-1-1.5l-0.2,1.8L12,92.3l-1,1.5l0.6-1.7L10,93l1.2-1.3l-1.8,0.1l1.7-0.6l-1.7-0.6l1.8,0.1L10,89.5l1.5,0.9L11,88.7l1,1.5
		L12.2,88.4z"/>
	<g>
		<path class="st2" d="M29.3,86.5v16h-25v-16H29.3 M29.8,86h-26v17h26V86L29.8,86z"/>
	</g>
</g>
<g>
	<path class="st14" d="M4.1,106.8h25.5v17H4.1V106.8L4.1,106.8z"/>
	<path class="st15" d="M4.1,106.8h25.5v8.5H4.1V106.8z"/>
	<path class="st16" d="M4.1,106.8l14.7,8.5l-14.7,8.5V106.8L4.1,106.8z"/>
	<path class="st17" d="M4.8,122.3l0.1-0.7l-0.6-0.3l0.7-0.1l0.2-0.7l0.3,0.6l0.7-0.1l-0.5,0.5l0.3,0.6l-0.6-0.3L4.8,122.3L4.8,122.3
		z M7.9,113.8l-0.5-0.9l-0.3,0l0.7,1L7.9,113.8z M7.5,114.2l-1.1-0.9l0-0.5l0.4,0l0.9,1.1L7.5,114.2L7.5,114.2z M7.3,114.4l-0.9-0.5
		l0-0.3l1,0.7L7.3,114.4L7.3,114.4z M9.2,113.6l0.3-1l-0.2-0.2l-0.2,1.2C9.1,113.6,9.2,113.6,9.2,113.6z M8.6,113.6l-0.2-1.4
		l0.3-0.4l0.3,0.3L9,113.6L8.6,113.6L8.6,113.6z M8.4,113.6l-0.3-1l0.2-0.2l0.2,1.2L8.4,113.6z M10.3,114.4l0.9-0.5l0-0.3l-1,0.7
		L10.3,114.4L10.3,114.4z M9.9,114l0.9-1.1l0.5,0l0,0.4l-1.1,0.9L9.9,114z M9.7,113.8l0.5-0.9l0.3,0l-0.7,1L9.7,113.8L9.7,113.8z
		 M10.4,115.7l1,0.3l0.2-0.2l-1.2-0.2L10.4,115.7L10.4,115.7z M10.4,115.1l1.4-0.2l0.4,0.3l-0.3,0.3l-1.4-0.2L10.4,115.1L10.4,115.1
		z M10.4,114.9l1-0.3l0.2,0.2l-1.2,0.2L10.4,114.9L10.4,114.9z M9.7,116.7l0.5,0.9l0.3,0l-0.7-1L9.7,116.7L9.7,116.7z M10.1,116.3
		l1.1,0.8l0,0.5l-0.4,0l-0.9-1.1L10.1,116.3z M10.3,116.1l0.9,0.5l0,0.3l-1-0.7L10.3,116.1z M8.4,116.9l-0.3,1l0.2,0.2l0.2-1.2
		L8.4,116.9z M9,116.9l0.2,1.4l-0.3,0.4l-0.3-0.3l0.1-1.4L9,116.9L9,116.9z M9.2,116.9l0.3,1l-0.2,0.2l-0.2-1.2L9.2,116.9L9.2,116.9
		z M7.3,116.1l-0.9,0.5l0,0.3l1-0.7L7.3,116.1z M7.7,116.5l-0.9,1.1l-0.5,0l0-0.4l1.1-0.9L7.7,116.5L7.7,116.5z M7.9,116.7l-0.5,0.9
		l-0.3,0l0.7-1L7.9,116.7L7.9,116.7z M7.1,114.8l-1-0.3l-0.2,0.2l1.2,0.2L7.1,114.8L7.1,114.8z M7.2,115.4l-1.4,0.2l-0.4-0.3
		l0.3-0.3l1.4,0.1L7.2,115.4L7.2,115.4L7.2,115.4z M7.2,115.7l-1,0.3l-0.2-0.2l1.2-0.2L7.2,115.7z M16.2,116.2l-0.4-0.5l-0.6,0.2
		l0.4-0.6l-0.4-0.6l0.6,0.2l0.4-0.6l0,0.7l0.6,0.2l-0.6,0.2L16.2,116.2L16.2,116.2z M5.2,110l-0.1-0.7l-0.7-0.1l0.6-0.3l-0.1-0.7
		l0.5,0.4l0.6-0.3L5.7,109l0.5,0.5l-0.7-0.1L5.2,110z"/>
	<path class="st17" d="M8.8,117c1,0,1.8-0.8,1.8-1.8c0-1-0.8-1.8-1.8-1.8c-1,0-1.8,0.8-1.8,1.8C7,116.2,7.8,117,8.8,117z"/>
	<g>
		<path class="st2" d="M29.3,107.3v16h-25v-16H29.3 M29.8,106.8h-26v17h26V106.8L29.8,106.8z"/>
	</g>
</g>
<g>
	<g>
		<rect x="3.8" y="130.4" class="st4" width="26" height="14.2"/>
		<rect x="3.8" y="127.6" class="st18" width="26" height="8.7"/>
		<g>
			<path class="st4" d="M9.5,135.6c0.4,0,0.8-0.1,1.1-0.2c-1.7-0.1-3.1-1.5-3.1-3.3c0-1.8,1.4-3.2,3.1-3.3c-0.4-0.1-0.7-0.2-1.1-0.2
				c-1.9,0-3.5,1.5-3.5,3.5C6,134,7.6,135.6,9.5,135.6z"/>
			<path class="st4" d="M9.5,131.8l0.4,0.4l-0.2-0.6l0.5-0.4H9.6l-0.2-0.6l-0.2,0.6H8.7l0.5,0.4L9,132.2L9.5,131.8z M13.9,131.2
				h-0.6l-0.2-0.6l-0.2,0.6h-0.6l0.5,0.4l-0.2,0.6l0.5-0.4l0.4,0.4l-0.2-0.6L13.9,131.2L13.9,131.2z M11.6,130.2l0.5-0.3h-0.6
				l-0.2-0.6l-0.2,0.6h-0.6l0.4,0.3l-0.2,0.6l0.4-0.4l0.5,0.4L11.6,130.2z M10.3,133.4l-0.2-0.6l-0.2,0.6H9.4l0.5,0.4l-0.2,0.6
				l0.5-0.4l0.4,0.4l-0.2-0.6l0.5-0.4H10.3L10.3,133.4z M12.6,133.4l-0.2-0.6l-0.2,0.6h-0.6l0.5,0.4l-0.2,0.6l0.5-0.4l0.4,0.4
				l-0.2-0.6l0.4-0.4H12.6z"/>
		</g>
	</g>
	<g>
		<path class="st2" d="M29.3,128.1v16h-25v-16H29.3 M29.8,127.6h-26v17h26V127.6L29.8,127.6z"/>
	</g>
</g>
<g>
	<g>
		<rect x="4" y="148.6" class="st4" width="25.5" height="16.5"/>
		<path class="st2" d="M29.3,148.9v16h-25v-16H29.3 M29.8,148.4h-26v17h26V148.4L29.8,148.4z"/>
	</g>
	<g>
		<path class="st4" d="M28.2,164.9H5.4v-16h22.8V164.9z"/>
		<path class="st4" d="M17,156.9c0,1.9-1.6,3.5-3.5,3.5c-1.9,0-3.5-1.6-3.5-3.5c0,0,0,0,0,0c0-1.9,1.6-3.5,3.5-3.5
			C15.4,153.4,17,154.9,17,156.9z"/>
		<path class="st19" d="M21.4,157.1c0,2.5-2,4.6-4.5,4.6s-4.5-2.1-4.5-4.6s2-4.6,4.5-4.6S21.4,154.6,21.4,157.1z"/>
		<path d="M7.6,152.8l2.6-3l0.6,0.5l-2.6,3L7.6,152.8z M8.4,153.6l2.6-3l0.6,0.5l-2.6,3L8.4,153.6z"/>
		<path d="M7.6,152.8l2.6-3l0.6,0.5l-2.6,3L7.6,152.8z"/>
		<path d="M7.6,152.8l2.6-3l0.6,0.5l-2.6,3L7.6,152.8z M9.3,154.3l2.6-3l0.6,0.5l-2.6,3L9.3,154.3z"/>
		<path d="M7.6,152.8l2.6-3l0.6,0.5l-2.6,3L7.6,152.8z"/>
		<path d="M7.6,152.8l2.6-3l0.6,0.5l-2.6,3L7.6,152.8z M23.5,149.8l2.6,3l-0.6,0.5l-2.6-3L23.5,149.8z M21.7,151.3l2.6,3l-0.6,0.5
			l-2.6-3L21.7,151.3z"/>
		<path class="st4" d="M22.1,153l2.4-2.1l0.5,0.5l-2.6,2.4L22.1,153L22.1,153z"/>
		<path d="M25.2,160.5l-2.5,3L22,163l2.5-3L25.2,160.5z M22.6,150.5l2.6,3l-0.6,0.5l-2.6-3L22.6,150.5z M26,161.2l-2.5,3l-0.6-0.5
			l2.5-3L26,161.2z M24.3,159.8l-2.5,3l-0.6-0.5l2.5-3L24.3,159.8z"/>
		<path class="st20" d="M12.4,156.3c0.1,1.2,0.4,2.4,2.1,2.6c0.7,0,2-0.2,2.4-2c0.6-1.7,2.3-2.2,3.5-1.3c0.7,0.4,0.9,1.1,0.9,1.7
			c-0.1,1.7-1,3.2-2.3,3.8c-1.4,0.9-3.4,0.9-5.2-0.4C13.1,159.9,12,158.6,12.4,156.3L12.4,156.3z"/>
		<path class="st4" d="M22.7,160.5l2.5,2.1l-0.5,0.5l-2.7-2.2L22.7,160.5L22.7,160.5z"/>
		<path d="M9,160l2.6,3l-0.6,0.5l-2.6-3L9,160z"/>
		<path class="st4" d="M8.6,162.6l2.5-2.1l0.5,0.5l-2.6,2.4L8.6,162.6L8.6,162.6z"/>
		<path d="M9.9,159.3l2.6,3l-0.6,0.5l-2.6-3L9.9,159.3z M8.2,160.8l2.6,3l-0.6,0.5l-2.6-3L8.2,160.8z"/>
	</g>
</g>
<g>
	<g>
		<path class="st21" d="M4.1,206.9h25.2v-16.8H4.1V206.9z M29.4,206.9L29.4,206.9L29.4,206.9z M4,207v-17h25.5v17H4z"/>
		<path class="st4" d="M4.1,201.3h25.4v2.8H4.1V201.3z"/>
		<path class="st22" d="M4.1,204.1h25.4v2.8H4.1V204.1z M4.1,190h25.4v2.8H4.1V190z"/>
		<path class="st4" d="M4.1,192.9h25.4v2.8H4.1V192.9z"/>
		<path class="st23" d="M4.1,195.7h25.4v5.6H4.1V195.7z"/>
	</g>
	<g>
		<path class="st2" d="M29.3,190.5v16h-25v-16H29.3 M29.8,190h-26v17h26V190L29.8,190z"/>
	</g>
</g>
<g>
	<g>
		<rect x="35.6" y="65.1" width="26" height="17"/>
		<rect x="44.3" y="65.1" class="st24" width="8.7" height="17"/>
		<rect x="52.9" y="65.1" class="st25" width="8.7" height="17"/>
	</g>
	<g>
		<path class="st2" d="M61.1,65.6v16h-25v-16H61.1 M61.6,65.1h-26v17h26V65.1L61.6,65.1z"/>
	</g>
</g>
<g>
	<rect x="65.5" y="65.1" class="st26" width="26" height="17"/>
	<rect x="74.1" y="65.1" class="st4" width="8.7" height="17"/>
	<rect x="82.8" y="65.1" class="st27" width="8.7" height="17"/>
	<g>
		<path class="st2" d="M91,65.6v16H66v-16H91 M91.5,65.1h-26v17h26V65.1L91.5,65.1z"/>
	</g>
</g>
<g>
	<rect x="98.6" y="65.1" class="st28" width="26" height="17"/>
	<rect x="107.2" y="65.1" class="st29" width="8.7" height="17"/>
	<rect x="115.8" y="65.1" class="st30" width="8.7" height="17"/>
	<g>
		<path class="st2" d="M124.1,65.6v16h-25v-16H124.1 M124.6,65.1h-26v17h26V65.1L124.6,65.1z"/>
	</g>
</g>
<g>
	<rect x="65.5" y="86" class="st31" width="26" height="17"/>
	<rect x="74.1" y="86" class="st4" width="8.7" height="17"/>
	<rect x="82.8" y="86" class="st32" width="8.7" height="17"/>
	<g>
		<path class="st2" d="M91,86.5v16H66v-16H91 M91.5,86h-26v17h26V86L91.5,86z"/>
	</g>
</g>
<g>
	<rect x="35.6" y="190" class="st33" width="26" height="17"/>
	<rect x="44.3" y="190" class="st4" width="8.7" height="17"/>
	<rect x="52.9" y="190" class="st34" width="8.7" height="17"/>
	<g>
		<path class="st2" d="M61.1,190.5v16h-25v-16H61.1 M61.6,190h-26v17h26V190L61.6,190z"/>
	</g>
</g>
<g>
	<g>
		<rect x="35.6" y="86" class="st4" width="26" height="17"/>
		<rect x="35.6" y="91.6" class="st35" width="26" height="11.3"/>
		<rect x="35.6" y="97.2" class="st36" width="26" height="5.7"/>
	</g>
	<g>
		<path class="st2" d="M61.1,86.5v16h-25v-16H61.1 M61.6,86h-26v17h26V86L61.6,86z"/>
	</g>
</g>
<g>
	<rect x="35.6" y="148.4" class="st37" width="26" height="17"/>
	<rect x="35.6" y="154" width="26" height="11.3"/>
	<rect x="35.6" y="159.7" class="st4" width="26" height="5.7"/>
	<g>
		<path class="st2" d="M61.1,148.9v16h-25v-16H61.1 M61.6,148.4h-26v17h26V148.4L61.6,148.4z"/>
	</g>
</g>
<g>
	<g>
		<rect x="35.6" y="44.3" class="st25" width="26" height="17"/>
		<rect x="35.6" y="50" class="st4" width="26" height="5.7"/>
	</g>
	<g>
		<path class="st2" d="M61.1,44.8v16h-25v-16H61.1 M61.6,44.3h-26v17h26V44.3L61.6,44.3z"/>
	</g>
</g>
<g>
	<path class="st38" d="M35.6,2.7h26v17h-26V2.7z"/>
	<path class="st4" d="M42.5,12.5l0.4,1.2l1.2-0.5l-0.7,1.1l1.1,0.7l-1.3,0.1l0.2,1.3l-0.9-0.9l-0.9,0.9l0.2-1.3L40.5,15l1.1-0.7
		l-0.7-1.1l1.2,0.5L42.5,12.5z M56.2,14.7l0.2,0.6l0.6-0.2l-0.3,0.5l0.5,0.3l-0.6,0.1l0.1,0.6l-0.4-0.4l-0.4,0.4l0.1-0.6l-0.6-0.1
		l0.5-0.3l-0.3-0.5l0.6,0.2L56.2,14.7z M52.7,9.3l0.2,0.6l0.6-0.2l-0.3,0.5l0.5,0.3l-0.6,0.1l0.1,0.6l-0.4-0.4l-0.4,0.4l0.1-0.6
		l-0.6-0.1l0.5-0.3L52,9.6l0.6,0.2L52.7,9.3z M56.2,5.6l0.2,0.6l0.6-0.2l-0.3,0.5l0.5,0.3l-0.6,0.1l0.1,0.6L56.2,7l-0.4,0.4l0.1-0.6
		l-0.6-0.1l0.5-0.3l-0.3-0.5L56,6.2L56.2,5.6z M59.2,8.4l0.2,0.6L60,8.7l-0.3,0.5l0.5,0.3l-0.6,0.1l0.1,0.6l-0.4-0.4l-0.4,0.4
		l0.1-0.6l-0.6-0.1l0.5-0.3l-0.3-0.5L59,8.9L59.2,8.4z M57.5,11.1l0.1,0.4l0.4,0l-0.3,0.3l0.1,0.4l-0.3-0.2l-0.3,0.2l0.1-0.4
		L57,11.5l0.4,0L57.5,11.1z M41.3,3.2v2.3h-5.7v2.3h5.7V10h2.3V7.7h5.7V5.5h-5.7V3.2H41.3z"/>
	<path class="st4" d="M35.6,3.2v0.8L47.8,10h1.5V9.3L37.2,3.2H35.6z"/>
	<path class="st4" d="M47.8,3.2L35.6,9.3V10h1.5l12.2-6.1V3.2H47.8z"/>
	<path class="st39" d="M41.8,3.2v2.7h-6.2v1.4h6.2V10h1.4V7.3h6.2V5.9h-6.2V3.2H41.8z"/>
	<path class="st39" d="M35.6,3.2v0.5l3.5,1.8h1L35.6,3.2z M48.3,3.2l-4.6,2.3h1l4.6-2.3H48.3L48.3,3.2z M40.2,7.7L35.6,10h1l4.6-2.3
		H40.2z M44.8,7.7l4.6,2.3V9.5l-3.5-1.8H44.8L44.8,7.7z"/>
	<g>
		<path class="st2" d="M61.1,3.2v16h-25v-16H61.1 M61.6,2.7h-26v17h26V2.7L61.6,2.7z"/>
	</g>
</g>
<g>
	<g>
		<rect x="35.6" y="23.5" class="st40" width="26" height="16.5"/>
		<g>
			<path class="st40" d="M48.6,23.9v0.7l-2.9,1.4h2.9v2.2h-2.9l2.9,1.4v0.8h-1.4l-4.1-2v2H41v-2l-4.1,2h-1.4v8.6h26V23.9H48.6z
				 M35.6,28.3v1.4l2.9-1.4H35.6z M43.2,23.9v2l4-2H43.2z M41,23.9h-4l4,2V23.9z M35.6,26.1h2.9l-2.9-1.4V26.1z"/>
			<path class="st4" d="M48.6,23.9l-4.3,2.2h-1l4.3-2.2h-0.5l-4,2v-2h-0.4v2.6h5.9v-0.4h-2.9l2.9-1.4L48.6,23.9L48.6,23.9z M41,23.9
				v2l-4-2h-1.5l4.3,2.2h-1l-3.4-1.7v0.2l2.9,1.4h-2.9v0.4h5.8v-2.6H41z M44.4,27.8h-1.6v2.6h0.4v-2l4.1,2h1.4v0l-4.3-2.2h1l3.4,1.7
				v-0.2l-2.9-1.4h2.9v-0.4h-3.8H44.4z M40.8,27.8h-5.2v0.4h2.9l-2.9,1.4v0.7l4.3-2.2h1l-4.4,2.2H37l4.1-2v2h0.4v-2.6H40.8z"/>
			<path class="st41" d="M40,28.3l-4.3,2.2v0h0.9l4.4-2.2H40z M35.6,24.4l3.4,1.7h1l-4.3-2.2V24.4z M48.6,23.9h-1l-4.3,2.2h1
				L48.6,23.9z M44.3,28.3l4.3,2.2v-0.5l-3.4-1.7H44.3z"/>
			<path class="st41" d="M41.5,23.9v2.6h-5.8v1.3h5.8v2.6h1.3v-2.6h5.9v-1.3h-5.9v-2.6H41.5z"/>
			<path class="st4" d="M53.7,28.3h0.7l0.2-0.7l0.2,0.7h0.7L55,28.8l0.2,0.7L54.6,29L54,29.4l0.2-0.7L53.7,28.3z"/>
			<path class="st41" d="M54,28.4h0.5l0.1-0.4l0.1,0.4h0.5l-0.4,0.3l0.1,0.4l-0.4-0.3l-0.4,0.3l0.1-0.4L54,28.4z"/>
			<path class="st4" d="M50.9,31.2h0.7l0.2-0.7l0.2,0.7h0.7l-0.6,0.4l0.2,0.7l-0.6-0.4l-0.6,0.4l0.2-0.7L50.9,31.2z"/>
			<path class="st41" d="M51.2,31.3h0.5l0.1-0.4l0.1,0.4h0.5L52,31.6l0.1,0.4l-0.4-0.3L51.4,32l0.1-0.4L51.2,31.3z"/>
			<path class="st4" d="M56.2,30.5h0.6l0.2-0.6l0.2,0.6h0.6l-0.5,0.4l0.2,0.6L57,31.1l-0.5,0.4l0.2-0.6L56.2,30.5z"/>
			<path class="st41" d="M56.5,30.6h0.4l0.1-0.4l0.1,0.4h0.4l-0.3,0.2l0.1,0.4L57,31l-0.3,0.2l0.1-0.4L56.5,30.6z"/>
			<path class="st4" d="M53.6,35.6h0.8l0.2-0.7l0.2,0.7h0.8L55,36.1l0.2,0.7l-0.6-0.5L54,36.9l0.2-0.7L53.6,35.6z"/>
			<path class="st41" d="M53.9,35.8h0.5l0.2-0.5l0.2,0.5h0.5l-0.4,0.3l0.2,0.5l-0.4-0.3l-0.4,0.3l0.2-0.5L53.9,35.8z"/>
		</g>
	</g>
	<g>
		<path class="st2" d="M61.1,24v16h-25V24H61.1 M61.6,23.5h-26v17h26V23.5L61.6,23.5z"/>
	</g>
</g>
<g>
	<g>
		<path class="st4" d="M35.9,106.8h25.5v8.5H47.2L35.9,106.8z"/>
		<path class="st42" d="M35.9,123.8h25.5v-8.5H47.2L35.9,123.8z"/>
		<path class="st43" d="M35.9,106.8l11.3,8.5l-11.3,8.5V106.8z"/>
	</g>
	<g>
		<path class="st2" d="M61.1,107.3v16h-25v-16H61.1 M61.6,106.8h-26v17h26V106.8L61.6,106.8z"/>
	</g>
</g>
<g>
	<g>
		<path class="st44" d="M35.7,127.6h25.8v17H35.7L35.7,127.6z"/>
		<path class="st4" d="M61.6,134.6H46v-7h-3v7h-7.3v3H43v7h3v-7h15.5V134.6z"/>
	</g>
	<g>
		<path class="st2" d="M61.1,128.1v16h-25v-16H61.1 M61.6,127.6h-26v17h26V127.6L61.6,127.6z"/>
	</g>
</g>
<g>
	<g>
		<path class="st21" d="M36,186.1h25.2v-16.8H36V186.1L36,186.1z M61.3,186.1L61.3,186.1L61.3,186.1z M35.9,186.2v-17h25.5v17H35.9z
			"/>
		<path class="st4" d="M36,169.2h25.4v16.9H36V169.2z"/>
		<path class="st45" d="M61.3,175.6h-14v-6.3h-4.2v6.3H36v4.2h7.1v6.3h4.2v-6.3h14V175.6z"/>
	</g>
	<g>
		<path class="st2" d="M61.1,169.7v16h-25v-16H61.1 M61.6,169.2h-26v17h26V169.2L61.6,169.2z"/>
	</g>
</g>
<g>
	<g>
		<polygon class="st46" points="89.4,14.1 67.5,14.1 65.5,14.1 65.5,15.8 65.5,18 65.5,19.7 67.5,19.7 89.4,19.7 91.5,19.7 91.5,18 
			91.5,15.8 91.5,14.1 		"/>
		<polygon class="st47" points="89.4,2.7 67.5,2.7 65.5,2.7 65.5,4.5 65.5,6.6 65.5,8.4 67.5,8.4 89.4,8.4 91.5,8.4 91.5,6.6 
			91.5,4.5 91.5,2.7 		"/>
		<path class="st3" d="M65.5,8.4h26v5.7h-26V8.4z"/>
	</g>
	<g>
		<path class="st2" d="M91,3.2v16H66v-16H91 M91.5,2.7h-26v17h26V2.7L91.5,2.7z"/>
	</g>
</g>
<g>
	<g>
		<rect x="65.5" y="23.8" class="st48" width="26" height="16.3"/>
		<g>
			<path class="st48" d="M67.7,23.8h21.4c1.3,0,2.3,1,2.3,2.2V38c0,1.2-1,2.2-2.3,2.2H67.7c-1.2,0-2.3-1-2.3-2.2V26.1
				C65.5,24.8,66.5,23.8,67.7,23.8z"/>
			<path class="st4" d="M74.8,26.2h16.6v1.6H74.8V26.2z M65.5,27.7h9.4v1.6h-9.4V27.7z"/>
			<path class="st4" d="M69.4,23.8h1.6v9.4h-1.6V23.8z M74.8,29.3h16.6v1.6H74.8V29.3z M65.5,33.2h26v1.6h-26V33.2z M65.5,36.5h26
				v1.6h-26V36.5z"/>
		</g>
	</g>
	<g>
		<path class="st2" d="M91,24v16H66V24H91 M91.5,23.5h-26v17h26V23.5L91.5,23.5z"/>
	</g>
</g>
<g>
	<g>
		<rect x="65.5" y="44.3" class="st49" width="26" height="17"/>
		<rect x="65.5" y="51.8" class="st50" width="26" height="9.6"/>
		<path class="st4" d="M65.5,50h26v5.7h-26V50z"/>
	</g>
	<g>
		<path class="st2" d="M91,44.8v16H66v-16H91 M91.5,44.3h-26v17h26V44.3L91.5,44.3z"/>
	</g>
</g>
<g>
	<rect x="98.6" y="23.5" class="st4" width="26" height="17"/>
	<rect x="98.6" y="32.1" class="st51" width="26" height="8.5"/>
	<g>
		<path class="st2" d="M124.1,24v16h-25V24H124.1 M124.6,23.5h-26v17h26V23.5L124.6,23.5z"/>
	</g>
</g>
<g>
	<rect x="65.5" y="148.4" class="st52" width="26" height="17"/>
	<rect x="65.5" y="155.8" class="st53" width="26" height="9.6"/>
	<path class="st4" d="M65.5,154h26v5.7h-26V154z"/>
	<g>
		<path class="st2" d="M91,148.9v16H66v-16H91 M91.5,148.4h-26v17h26V148.4L91.5,148.4z"/>
	</g>
</g>
<g>
	<rect x="65.5" y="169.2" class="st54" width="26" height="17"/>
	<rect x="65.5" y="176.6" class="st55" width="26" height="9.6"/>
	<path class="st4" d="M65.5,174.8h26v5.7h-26V174.8z"/>
	<g>
		<path class="st2" d="M91,169.7v16H66v-16H91 M91.5,169.2h-26v17h26V169.2L91.5,169.2z"/>
	</g>
</g>
<g>
	<rect x="65.5" y="127.6" class="st56" width="26" height="17"/>
	<rect x="65.5" y="135" class="st57" width="26" height="9.6"/>
	<path class="st58" d="M65.5,133.2h26v5.7h-26V133.2z"/>
	<g>
		<path class="st2" d="M91,128.1v16H66v-16H91 M91.5,127.6h-26v17h26V127.6L91.5,127.6z"/>
	</g>
</g>
<g>
	<path class="st59" d="M65.5,106.8h26v17h-26V106.8z"/>
	<path class="st4" d="M65.5,114h26v2.6h-26V114z"/>
	<g>
		<path class="st2" d="M91,107.3v16H66v-16H91 M91.5,106.8h-26v17h26V106.8L91.5,106.8z"/>
	</g>
</g>
<g>
	<rect x="98.6" y="2.7" class="st60" width="26" height="17"/>
	<g>
		<path class="st4" d="M124.5,9.7h-15.6v-7h-3v7h-7.3v3h7.3v7h3v-7h15.6V9.7z"/>
		<path class="st61" d="M106.5,2.7h2v17h-2V2.7z"/>
		<path class="st61" d="M98.6,10.2h25.9v2H98.6V10.2z"/>
	</g>
	<g>
		<path class="st2" d="M124.1,3.2v16h-25v-16H124.1 M124.6,2.7h-26v17h26V2.7L124.6,2.7z"/>
	</g>
</g>
<g>
	<rect x="98.6" y="44.3" class="st62" width="26" height="17"/>
	<rect x="107.2" y="44.3" class="st63" width="17.2" height="17"/>
	<path class="st64" d="M124.6,46.5V59V46.6V46.5z"/>
	<path class="st65" d="M104.4,52.9c0,1.5,1.3,2.8,2.8,2.8c1.5,0,2.8-1.3,2.8-2.8c0,0,0,0,0,0c0-1.5-1.3-2.8-2.8-2.8
		C105.7,50.1,104.4,51.3,104.4,52.9C104.4,52.9,104.4,52.9,104.4,52.9z"/>
	<path class="st63" d="M105.2,52.9c0,1.1,0.9,2,2,2c1.1,0,2-0.9,2-2c0,0,0,0,0,0c0-1.1-0.9-2-2-2C106.1,50.8,105.2,51.8,105.2,52.9
		C105.2,52.9,105.2,52.9,105.2,52.9z"/>
	<path class="st4" d="M105.9,52.9c0,0.8,0.6,1.4,1.4,1.4c0.8,0,1.4-0.6,1.4-1.4c0,0,0,0,0,0c0-0.8-0.6-1.4-1.4-1.4
		C106.5,51.5,105.9,52.1,105.9,52.9z"/>
	<g>
		<path class="st2" d="M124.1,44.8v16h-25v-16H124.1 M124.6,44.3h-26v17h26V44.3L124.6,44.3z"/>
	</g>
</g>
<g>
	<g>
		<g>
			<rect x="98.6" y="86" class="st4" width="26" height="17"/>
			<rect x="98.6" y="93.4" class="st66" width="26" height="9.6"/>
			<path class="st67" d="M98.6,91.6h26v5.7h-26V91.6z"/>
		</g>
		<g>
			<path class="st4" d="M100.9,86h21.2c1.3,0,2.4,1.1,2.4,2.3v12.4c0,1.3-1.1,2.3-2.3,2.3h-21.2c-1.3,0-2.3-1.1-2.3-2.3V88.3
				C98.6,87,99.6,86,100.9,86z"/>
			<path class="st66" d="M98.6,100.6c0,1.3,1.1,2.3,2.3,2.3h21.2c1.3,0,2.3-1,2.3-2.3v-9H98.6V100.6z"/>
			<path class="st67" d="M98.6,91.6h25.9v5.7H98.6V91.6z"/>
			<path class="st66" d="M106.6,99.5c-2.7-1.3-4-3.2-4-5.5c0-2.6,0.1-4.1,0.1-4.6h7.7c0,0.5,0.1,2,0.1,4.6
				C110.6,96.3,109.2,98.2,106.6,99.5z"/>
			<path class="st4" d="M110.3,89.6c0,0.6,0.1,2.1,0.1,4.4c0,2.3-1.3,4-3.8,5.3c-2.5-1.3-3.8-3.1-3.8-5.3c0-2.3,0.1-3.8,0.1-4.4
				H110.3 M110.7,89.2h-8.1c0,0-0.2,1.5-0.2,4.8s2.5,4.9,4.2,5.8c1.7-0.8,4.2-2.5,4.2-5.8S110.7,89.2,110.7,89.2z"/>
			<path class="st4" d="M109,93c-0.7,0.2-1.6,0.2-2,0.2v-1.1c0.4,0,1,0,1.6,0.2v-0.6v-0.6c-0.6,0.2-1.2,0.2-1.6,0.2
				c0-0.6,0.2-1.5,0.2-1.5s-0.4,0-0.6,0s-0.6,0-0.6,0s0.2,0.8,0.2,1.5c-0.4,0-1,0-1.6-0.2v1.1c0.6-0.2,1.2-0.2,1.6-0.2v1.1
				c-0.4,0-1.3,0-2-0.2V94c0.7-0.2,1.5-0.2,2-0.2v1.7h0.7v-1.7c0.5,0,1.3,0,2,0.2v-0.6C108.9,93.2,109,93,109,93z"/>
			<path class="st67" d="M106.5,100.4l-3.2-3c0,0,0.4-1.4,1.2-1.4c0.6,0,0.8,0.5,0.8,0.5s0.4-1.1,1.2-1.1s1.2,1.1,1.2,1.1
				s0.2-0.5,0.8-0.5c0.8,0,1.2,1.4,1.2,1.4L106.5,100.4z"/>
		</g>
	</g>
	<g>
		<path class="st2" d="M124.1,86.5v16h-25v-16H124.1 M124.6,86h-26v17h26V86L124.6,86z"/>
	</g>
</g>
<g>
	<g>
		<g>
			<rect x="98.6" y="106.8" class="st4" width="26" height="17"/>
			<rect x="98.6" y="114.2" class="st68" width="26" height="9.6"/>
			<path class="st69" d="M98.6,112.4h26v5.7h-26V112.4z"/>
		</g>
		<g>
			<path class="st4" d="M100.9,106.8h21.2c1.3,0,2.4,1.1,2.4,2.3v12.4c0,1.3-1.1,2.3-2.3,2.3h-21.2c-1.3,0-2.3-1.1-2.3-2.3v-12.4
				C98.6,107.8,99.7,106.8,100.9,106.8z"/>
			<path class="st68" d="M98.6,121.5c0,1.3,1.1,2.3,2.3,2.3h21.2c1.3,0,2.3-1,2.3-2.3v-9H98.6V121.5z"/>
			<path class="st69" d="M98.6,112.4h25.9v5.7H98.6V112.4z"/>
			<path class="st69" d="M108.5,112.9l0.2-2.7c-1.4-0.7-3.1-0.7-4.6,0l0.2,2.7c0.1,1.2,0.9,2.3,2.1,2.6
				C107.5,115.1,108.4,114.1,108.5,112.9"/>
			<path class="st4" d="M105.5,113.7c0.2-0.1,0.4-0.1,0.6,0c0.2,0.1,0.4,0.1,0.6,0s0.4-0.1,0.6,0c0.3,0.2,0.6,0.1,0.8-0.2
				c0-0.1,0.1-0.2,0.1-0.3l-0.9-1.1l-0.3,0.5l-0.5-1l-0.5,1l-0.3-0.5l-0.9,1.1c0,0.1,0.1,0.2,0.1,0.3
				C104.9,113.8,105.2,113.9,105.5,113.7L105.5,113.7z M107.2,114.2c-0.2-0.1-0.4-0.1-0.6,0c-0.2,0.1-0.4,0.1-0.6,0s-0.4-0.1-0.6,0
				c-0.1,0.1-0.2,0.1-0.3,0.1c0.3,0.4,0.7,0.7,1.2,0.9c0.5-0.2,0.9-0.5,1.2-0.9C107.4,114.3,107.3,114.3,107.2,114.2L107.2,114.2z"
				/>
			<path class="st4" d="M107.2,113.9c-0.2-0.1-0.4-0.1-0.6,0c-0.2,0.1-0.4,0.1-0.6,0c-0.2-0.1-0.4-0.1-0.6,0c-0.2,0.1-0.5,0.1-0.6,0
				c0,0.1,0.1,0.2,0.1,0.2c0.2,0.1,0.3,0.1,0.5,0c0.2-0.1,0.4-0.1,0.6,0s0.4,0.1,0.6,0c0.2-0.1,0.4-0.1,0.6,0c0.2,0.1,0.3,0.1,0.5,0
				c0.1-0.1,0.1-0.2,0.1-0.2C107.7,114,107.4,114,107.2,113.9L107.2,113.9z"/>
			<path class="st70" d="M106.4,110.9l0-0.1L106.4,110.9l-0.2,0l0.1,0.1l-0.1,0.1l0.1,0l0,0.1l0-0.1l0.1,0L106.4,110.9l0.1,0
				L106.4,110.9z M105.8,110l0-0.1L105.8,110l-0.2,0l0.1,0.1l-0.1,0.1l0.1,0l0,0.1l0-0.1l0.1,0L105.8,110l0.1,0L105.8,110z
				 M107.2,110l-0.1,0l0-0.1l0,0.1l-0.1,0l0.1,0.1l-0.1,0.1l0.1,0l0,0.1l0-0.1l0.1,0l-0.1-0.1L107.2,110z"/>
			<path class="st68" d="M104.2,110.1l0.2,2.8c0.1,1.1,0.8,2.1,1.9,2.5c1.1-0.4,1.8-1.3,1.9-2.5l0.2-2.8c0.1,0,0.1,0,0.2,0.1
				l-0.2,2.7c-0.1,1.2-0.9,2.3-2.1,2.6c-1.2-0.4-2-1.4-2.1-2.6l-0.2-2.7C104.1,110.1,104.2,110.1,104.2,110.1"/>
		</g>
	</g>
	<g>
		<path class="st2" d="M124.1,107.3v16h-25v-16H124.1 M124.6,106.8h-26v17h26V106.8L124.6,106.8z"/>
	</g>
</g>
<g>
	<g>
		<g>
			<rect x="98.6" y="127.6" class="st71" width="26" height="17"/>
			<rect x="98.6" y="135" class="st71" width="26" height="9.6"/>
			<path class="st46" d="M98.6,131.3h26v9.5h-26V131.3z"/>
		</g>
		<g>
			<path class="st71" d="M104.4,134.1C104.4,134.1,104.5,134.2,104.4,134.1C104.5,134.2,104.5,134.1,104.4,134.1
				C104.5,134.1,104.5,134.1,104.4,134.1C104.5,134.1,104.5,134.1,104.4,134.1C104.5,134.1,104.4,134.1,104.4,134.1
				C104.4,134.1,104.4,134.1,104.4,134.1z"/>
			<path class="st71" d="M104.4,134C104.4,134.1,104.4,134.1,104.4,134C104.5,134.1,104.5,134.1,104.4,134
				C104.5,134,104.5,134,104.4,134C104.5,134,104.5,134,104.4,134C104.4,134,104.4,134,104.4,134C104.4,134,104.4,134,104.4,134z"/>
			<path class="st71" d="M104.4,133.9C104.4,133.9,104.4,133.9,104.4,133.9C104.4,133.9,104.4,133.9,104.4,133.9L104.4,133.9
				C104.4,133.9,104.4,133.9,104.4,133.9C104.4,133.9,104.4,133.9,104.4,133.9L104.4,133.9z"/>
			<path class="st71" d="M104.4,133.8C104.4,133.8,104.4,133.8,104.4,133.8C104.4,133.8,104.4,133.8,104.4,133.8
				C104.4,133.8,104.4,133.8,104.4,133.8C104.4,133.8,104.4,133.7,104.4,133.8C104.4,133.7,104.4,133.8,104.4,133.8
				C104.4,133.8,104.4,133.8,104.4,133.8z"/>
			<path class="st71" d="M104.4,133.6C104.4,133.6,104.4,133.7,104.4,133.6C104.4,133.7,104.4,133.6,104.4,133.6
				C104.4,133.6,104.4,133.6,104.4,133.6C104.4,133.6,104.4,133.6,104.4,133.6C104.4,133.6,104.4,133.6,104.4,133.6
				C104.4,133.6,104.4,133.6,104.4,133.6z"/>
			<path class="st71" d="M104.4,133.5C104.4,133.6,104.5,133.6,104.4,133.5C104.5,133.6,104.5,133.6,104.4,133.5
				C104.5,133.5,104.5,133.5,104.4,133.5C104.5,133.5,104.5,133.5,104.4,133.5C104.5,133.5,104.4,133.5,104.4,133.5
				C104.4,133.5,104.4,133.5,104.4,133.5z"/>
			<path class="st71" d="M104.5,133.4C104.5,133.4,104.5,133.5,104.5,133.4C104.6,133.5,104.6,133.4,104.5,133.4L104.5,133.4
				C104.6,133.4,104.6,133.4,104.5,133.4C104.5,133.4,104.5,133.4,104.5,133.4L104.5,133.4z"/>
			<path class="st71" d="M104.6,133.3C104.6,133.4,104.7,133.4,104.6,133.3C104.7,133.4,104.7,133.4,104.6,133.3L104.6,133.3
				C104.7,133.3,104.7,133.3,104.6,133.3C104.7,133.3,104.6,133.3,104.6,133.3L104.6,133.3z"/>
			<path class="st71" d="M104.7,133.3C104.7,133.3,104.7,133.3,104.7,133.3C104.8,133.3,104.8,133.3,104.7,133.3
				C104.8,133.3,104.8,133.3,104.7,133.3C104.8,133.3,104.8,133.3,104.7,133.3C104.7,133.3,104.7,133.3,104.7,133.3
				C104.7,133.3,104.7,133.3,104.7,133.3z"/>
			<path class="st71" d="M104.9,133.3C104.9,133.3,104.9,133.3,104.9,133.3C105,133.3,105,133.3,104.9,133.3L104.9,133.3
				C105,133.2,105,133.2,104.9,133.3C104.9,133.2,104.9,133.2,104.9,133.3L104.9,133.3z"/>
			<path class="st71" d="M105,133.2C105,133.2,105,133.3,105,133.2C105.1,133.3,105.1,133.2,105,133.2
				C105.1,133.2,105.1,133.2,105,133.2C105.1,133.2,105.1,133.2,105,133.2C105,133.2,105,133.2,105,133.2
				C105,133.2,105,133.2,105,133.2z"/>
			<path class="st71" d="M105.1,133.2C105.1,133.2,105.2,133.3,105.1,133.2C105.2,133.3,105.2,133.2,105.1,133.2
				C105.2,133.2,105.2,133.2,105.1,133.2C105.2,133.2,105.2,133.2,105.1,133.2C105.2,133.2,105.1,133.2,105.1,133.2
				C105.1,133.2,105.1,133.2,105.1,133.2z"/>
			<path class="st71" d="M105.3,133.2C105.3,133.2,105.3,133.3,105.3,133.2C105.3,133.3,105.3,133.2,105.3,133.2
				C105.3,133.2,105.3,133.2,105.3,133.2C105.3,133.2,105.3,133.2,105.3,133.2C105.3,133.2,105.3,133.2,105.3,133.2
				C105.3,133.2,105.3,133.2,105.3,133.2z"/>
			<path class="st71" d="M105.4,133.2C105.4,133.2,105.4,133.3,105.4,133.2C105.5,133.3,105.5,133.2,105.4,133.2
				C105.5,133.2,105.5,133.2,105.4,133.2C105.5,133.2,105.5,133.2,105.4,133.2C105.4,133.2,105.4,133.2,105.4,133.2
				C105.4,133.2,105.4,133.2,105.4,133.2z"/>
			<path class="st71" d="M105.5,133.1C105.5,133.2,105.5,133.2,105.5,133.1C105.6,133.2,105.6,133.2,105.5,133.1
				C105.6,133.1,105.6,133.1,105.5,133.1C105.6,133.1,105.6,133.1,105.5,133.1C105.5,133.1,105.5,133.1,105.5,133.1
				C105.5,133.1,105.5,133.1,105.5,133.1z"/>
			<path class="st71" d="M105.6,133.1C105.6,133.1,105.6,133.1,105.6,133.1C105.7,133.1,105.7,133.1,105.6,133.1L105.6,133.1
				C105.7,133.1,105.7,133.1,105.6,133.1C105.6,133.1,105.6,133.1,105.6,133.1L105.6,133.1z"/>
			<path class="st71" d="M105.7,133.1C105.7,133.1,105.8,133.1,105.7,133.1C105.8,133.1,105.8,133.1,105.7,133.1
				C105.8,133.1,105.8,133.1,105.7,133.1C105.8,133,105.8,133,105.7,133.1C105.8,133,105.7,133,105.7,133.1
				C105.7,133.1,105.7,133.1,105.7,133.1z"/>
			<path class="st71" d="M105.9,133C105.9,133,105.9,133.1,105.9,133C105.9,133.1,105.9,133,105.9,133L105.9,133
				C105.9,133,105.9,133,105.9,133C105.9,133,105.9,133,105.9,133L105.9,133z"/>
			<path class="st71" d="M106,133C106,133,106,133.1,106,133C106,133.1,106.1,133,106,133L106,133C106.1,133,106,133,106,133
				C106,133,106,133,106,133L106,133z"/>
			<path class="st71" d="M106.1,133.1C106.1,133.1,106.2,133.1,106.1,133.1C106.2,133.1,106.2,133.1,106.1,133.1
				C106.2,133.1,106.2,133.1,106.1,133.1C106.2,133,106.2,133,106.1,133.1C106.2,133,106.1,133,106.1,133.1
				C106.1,133.1,106.1,133.1,106.1,133.1z"/>
			<g>
				<path class="st71" d="M100.9,127.6h21.2c1.3,0,2.4,1.1,2.4,2.3v12.4c0,1.3-1.1,2.3-2.3,2.3h-21.2c-1.3,0-2.3-1.1-2.3-2.3v-12.4
					C98.6,128.6,99.7,127.6,100.9,127.6z"/>
				<path class="st71" d="M98.6,142.3c0,1.3,1.1,2.3,2.3,2.3h21.2c1.3,0,2.3-1,2.3-2.3v-9H98.6V142.3z"/>
				<path class="st46" d="M98.6,131.3h25.9v9.5H98.6V131.3z"/>
				<path class="st71" d="M103.2,134.9C103.2,134.9,103.3,134.9,103.2,134.9C103.3,134.9,103.3,134.9,103.2,134.9l0.1,0v0h0
					c0,0,0,0,0,0h0.1h-0.3v0.2h0.1c0,0,0,0,0,0c0,0,0,0,0,0c0,0,0,0,0,0c0,0,0,0,0,0c0,0,0,0,0,0c0,0,0,0,0,0h0.6c0,0,0,0,0,0
					c0,0,0,0,0,0c0,0,0,0,0,0c0,0,0,0,0,0c0,0,0,0,0,0c0,0,0,0,0,0h0.1V135h-0.3h0.1c0,0,0,0,0,0h0v0h0l0,0l0,0l0,0v0v0l0,0h0v0H104
					h0h0h0h0v-0.1h0v0h0v0h0v0h0v0h0v0.1h-0.1h0h0h-0.1v0c0,0,0,0,0,0l0,0v0.1h0C103.2,134.9,103.2,134.9,103.2,134.9L103.2,134.9z
					 M103.8,135.1c0,0-0.1,0-0.2,0C103.7,135,103.8,135,103.8,135.1z M103.6,135c-0.1,0-0.2,0-0.2,0C103.4,135,103.5,135,103.6,135z
					 M104.1,139.1C104.1,139.1,104.1,139.1,104.1,139.1v-0.2c0,0-0.1,0-0.1-0.1v0c0,0,0,0,0,0c0,0,0,0,0,0h-0.6c0,0,0,0,0,0
					c0,0,0,0,0,0v0c0,0,0,0.1-0.1,0.1v0.2c0,0-0.1,0-0.2,0v0.1c0,0,0.1,0,0.2,0l0,0c0,0-0.1,0-0.2,0v0.2c0,0,0.1,0,0.2,0
					c0,0-0.1,0-0.2,0v0.1c0,0,0.1,0,0.2,0c0,0,0.1,0,0.2,0c0,0,0.1,0,0.2,0c0,0,0.1,0,0.2,0c0,0,0.1,0,0.2,0c0,0,0.1,0,0.2,0
					c0,0,0.1,0,0.2,0c0,0-0.1,0-0.2,0c0,0-0.1,0-0.2,0c0,0-0.1,0-0.2,0c0,0-0.1,0-0.2,0c0,0-0.1,0-0.2,0c0,0-0.1,0-0.2,0
					s-0.1,0-0.2,0v0.1c0,0,0.1,0,0.2,0c0,0,0.1,0,0.2,0c0,0,0.1,0,0.2,0c0,0,0.1,0,0.2,0c0,0,0.1,0,0.2,0c0,0,0.1,0,0.2,0
					c0,0,0.1,0,0.2,0c0,0,0.1,0,0.2,0v-0.4C104.1,139.1,104.1,139.1,104.1,139.1L104.1,139.1z M103.8,139.1c0,0-0.1,0-0.2,0
					c0,0-0.1,0-0.2,0H103.8z M103.3,139.1L103.3,139.1L103.3,139.1z M104.1,139.2c0,0-0.1,0-0.2,0c0,0-0.1,0-0.2,0s-0.1,0-0.2,0
					c0,0-0.1,0-0.2,0c0,0,0.1,0,0.2,0c0,0,0.1,0,0.2,0c0,0,0.1,0,0.2,0C104,139.1,104,139.1,104.1,139.2z M108.9,134.8
					C108.9,134.9,108.9,134.9,108.9,134.8C108.9,134.9,108.9,134.9,108.9,134.8C108.9,134.9,108.9,134.9,108.9,134.8
					C108.9,134.9,108.9,134.9,108.9,134.8L108.9,134.8l0.1,0.1h0v0h0c0,0,0,0,0,0h0.1H109v0.2h0.1c0,0,0,0,0,0c0,0,0,0,0,0
					c0,0,0,0,0,0c0,0,0,0,0,0c0,0,0,0,0,0c0,0,0,0,0,0h0.6c0,0,0,0,0,0c0,0,0,0,0,0s0,0,0,0c0,0,0,0,0,0c0,0,0,0,0,0c0,0,0,0,0,0
					h0.1V135h-0.3h0.1c0,0,0,0,0,0h0v0h0l0,0l0,0l0,0v0c0,0,0-0.1-0.1-0.1h0l0,0h0c0,0,0-0.1-0.1-0.1h-0.1l0.1,0h-0.1v0
					c0,0,0,0,0-0.1v-0.1h0v0h0v0h0v0h0v0h0v0.1c0,0,0,0,0,0.1v0h-0.1l0.1,0h-0.1c0,0-0.1,0-0.1,0.1h0l0,0h0
					C109,134.7,108.9,134.8,108.9,134.8L108.9,134.8z M109.6,135.1c0,0-0.1,0-0.2,0C109.4,135,109.5,135,109.6,135.1z M109.3,134.9
					 M109.3,135C109.4,135,109.4,135,109.3,135C109.4,135,109.4,135,109.3,135c-0.1,0-0.2,0-0.2,0C109.2,135,109.2,135,109.3,135z
					 M109.8,139.1C109.8,139.1,109.8,139.1,109.8,139.1v-0.2c0,0-0.1,0-0.1-0.1v0c0,0,0,0,0,0c0,0,0,0,0,0H109c0,0,0,0,0,0
					c0,0,0,0,0,0v0c0,0,0,0.1-0.1,0.1v0.2c0,0-0.1,0-0.2,0v0.1c0,0,0.1,0,0.2,0l0,0c0,0-0.1,0-0.2,0v0.2c0,0,0.1,0,0.2,0
					c0,0-0.1,0-0.2,0v0.1c0,0,0.1,0,0.2,0c0,0,0.1,0,0.2,0c0,0,0.1,0,0.2,0c0,0,0.1,0,0.2,0c0,0,0.1,0,0.2,0c0,0,0.1,0,0.2,0
					c0,0,0.1,0,0.2,0c0,0-0.1,0-0.2,0c0,0-0.1,0-0.2,0c0,0-0.1,0-0.2,0c0,0-0.1,0-0.2,0c0,0-0.1,0-0.2,0c0,0-0.1,0-0.2,0
					s-0.1,0-0.2,0v0.1c0,0,0.1,0,0.2,0c0,0,0.1,0,0.2,0c0,0,0.1,0,0.2,0c0,0,0.1,0,0.2,0c0,0,0.1,0,0.2,0c0,0,0.1,0,0.2,0
					c0,0,0.1,0,0.2,0c0,0,0.1,0,0.2,0v-0.4C109.9,139.1,109.9,139.1,109.8,139.1L109.8,139.1z M109.5,139.1c0,0-0.1,0-0.2,0
					c0,0-0.1,0-0.2,0H109.5z M109,139.1 M109,139.3 M109.8,139.2c0,0-0.1,0-0.2,0c0,0-0.1,0-0.2,0s-0.1,0-0.2,0c0,0-0.1,0-0.2,0
					c0,0,0.1,0,0.2,0c0,0,0.1,0,0.2,0c0,0,0.1,0,0.2,0C109.7,139.1,109.8,139.1,109.8,139.2z"/>
				<path class="st71" d="M110,137c0,0,0.1-0.3,0.2-0.3c0-0.1-0.2-0.2-0.4-0.3v-0.8h-0.6v0.7c-0.2,0-0.5,0-0.6,0.1v-1.3h-1.4
					c0.2,0,0.5-0.1,0.7-0.1c0,0,0,0,0,0s0,0,0,0c0,0,0,0,0-0.1l0.1,0l0,0c0,0,0,0,0.1,0c0,0,0,0,0,0c0,0,0,0,0,0h-0.1h0
					c0,0,0.1,0,0.2,0l0.1-0.1h0.1c0,0,0-0.1,0-0.1c0,0,0-0.1,0.1-0.1c0,0,0.1,0,0.1,0c0-0.1,0-0.1-0.1-0.1v0l0,0
					c0-0.1,0.1-0.2,0.1-0.2c0-0.2-0.1-0.3-0.2-0.4l0,0c-0.1-0.1-0.3-0.2-0.5-0.2h-0.2h0h0h0l-0.1-0.1l0.1,0.1
					c-0.1-0.1-0.3-0.2-0.5-0.2c-0.1,0-0.2,0-0.4,0.1c0,0,0,0,0,0h0c0,0,0,0,0,0c0,0,0,0,0,0c0,0,0,0,0,0c0,0,0,0-0.1,0
					c0,0,0.1,0,0.1-0.1v-0.1c0-0.1,0-0.1-0.1-0.2v-0.1h0.1v-0.1h-0.1v-0.1h-0.1v0.1h-0.1v0.1h0.1v0.1c-0.1,0-0.1,0.1-0.1,0.2v0.1
					c0,0,0.1,0.1,0.1,0.1c0,0,0,0-0.1,0c0,0,0,0,0,0s0,0,0,0s0,0,0,0h0c0,0,0,0,0,0c-0.1,0-0.2-0.1-0.4-0.1c-0.2,0-0.4,0.1-0.5,0.2
					c0,0,0-0.1,0.1-0.1l-0.1,0.1h0h0H105c-0.2,0-0.4,0-0.5,0.1c-0.2,0.1-0.2,0.2-0.2,0.4c0,0.1,0,0.2,0.1,0.2l0,0c0,0-0.1,0-0.1,0.1
					h0.1c0,0,0.1,0.1,0.1,0.1c0,0,0,0,0,0.1c0,0,0,0,0.1,0c0,0,0.1,0.1,0.1,0.1c0,0,0.1,0,0.2,0l0,0c0,0,0,0,0,0c0,0,0,0,0,0
					s0,0,0.1,0l0,0l0.1,0v0.1l0,0c0,0,0,0,0,0c0.2,0,0.4,0.1,0.7,0.1h-1.4v1.3c-0.1,0-0.4-0.1-0.6-0.1v-0.7h-0.6v0.8
					c-0.3,0.1-0.5,0.2-0.4,0.3l0.2,0.3c0,0.1,0.1,0.1,0.3,0.1v-0.3H103c0,0,0.1,0,0.2-0.1v0.7c-0.2,0.1-0.4,0.2-0.4,0.2l0,0.3
					c0,0,0,0,0.1,0.1c0.1,0,0.1,0.1,0.1,0.2c0,0,0.1-0.1,0.1-0.2c0-0.1,0-0.1-0.1-0.2c0,0,0.1-0.1,0.2-0.1v0.8h0.6v-1.1
					c0.2-0.1,0.3-0.2,0.3-0.2c0,0,0-0.3,0-0.3c0,0-0.1,0-0.2-0.1v0.3v-0.6c0.2,0,0.5,0,0.6,0.1v1.9c0,0.1,0,0.2,0.1,0.3
					c0,0,0,0.1,0.1,0.2c0,0,0,0,0,0.1c0.1,0.1,0.2,0.2,0.3,0.2c0.4,0.2,0.9,0.3,1.4,0.3c0.5,0,1-0.1,1.4-0.3
					c0.2-0.1,0.4-0.3,0.4-0.5c0-0.1,0-0.2,0-0.3v-1.8c0.1,0,0.4-0.1,0.6-0.1v0.2c-0.1,0-0.2,0-0.2,0.1l0,0.3c0,0,0.1,0.1,0.3,0.2
					v1.1h0.6v-0.9c0.1,0,0.1,0,0.2,0.1c0,0-0.1,0.1-0.1,0.2c0,0.1,0,0.1,0.1,0.2c0,0,0-0.1,0.1-0.2c0,0,0.1,0,0.1-0.1l0-0.3
					c0,0-0.2-0.2-0.4-0.2v-0.7c0,0,0.1,0,0.2,0.1h-0.2v0.3C109.9,137.1,109.9,137,110,137z M108.3,133.9
					C108.3,133.9,108.3,133.8,108.3,133.9L108.3,133.9z M108.4,133.5C108.4,133.5,108.4,133.6,108.4,133.5
					C108.4,133.6,108.4,133.5,108.4,133.5S108.4,133.5,108.4,133.5C108.4,133.5,108.4,133.5,108.4,133.5z M108.3,133.4 M107.5,133.3
					h0.2c0.3,0,0.5,0.1,0.6,0.2c0,0,0,0.1,0,0.1s0,0.1,0,0.2c0,0-0.1-0.1-0.2-0.1c-0.2-0.1-0.3-0.1-0.4-0.1h-0.1v0v0c0,0,0,0,0,0
					c0,0,0,0,0,0v0C107.6,133.4,107.6,133.4,107.5,133.3C107.6,133.4,107.6,133.4,107.5,133.3C107.5,133.4,107.5,133.3,107.5,133.3
					L107.5,133.3z M104.7,133.4L104.7,133.4L104.7,133.4z M105.4,133.4C105.4,133.4,105.4,133.4,105.4,133.4
					C105.4,133.4,105.4,133.4,105.4,133.4v0.1c0,0,0,0,0,0c0,0,0,0,0,0v0.1h-0.1c-0.1,0-0.2,0-0.4,0.1c-0.1,0-0.1,0.1-0.2,0.1
					c0,0,0-0.1,0-0.2c0,0,0-0.1,0-0.1c0.1-0.2,0.3-0.2,0.6-0.2L105.4,133.4C105.4,133.3,105.4,133.4,105.4,133.4L105.4,133.4z
					 M104.1,137L104.1,137C104.1,137.1,104.1,137,104.1,137z M107,133.1c0.2,0,0.4,0.1,0.5,0.3v0c0,0.1,0,0.1-0.1,0.2
					c-0.1,0-0.2,0-0.3-0.1c-0.1,0-0.3-0.1-0.4-0.1v-0.1v0v-0.1C106.7,133.1,106.8,133.1,107,133.1z M105.8,133.5
					c-0.1,0-0.2,0-0.3,0.1c0,0-0.1-0.1-0.1-0.2v0c0-0.2,0.2-0.3,0.5-0.3c0.1,0,0.2,0,0.3,0.1v0.2C106.1,133.4,106,133.5,105.8,133.5
					z M106.5,134.7h-0.3h0.5H106.5z M108.8,137L108.8,137L108.8,137z M109,137.2C109,137.2,109,137.2,109,137.2
					C109,137.2,109,137.2,109,137.2z"/>
				<path class="st71" d="M106.7,133C106.7,133,106.7,133,106.7,133C106.8,133,106.8,133,106.7,133C106.8,133,106.8,133,106.7,133
					C106.8,133,106.8,132.9,106.7,133C106.7,132.9,106.7,133,106.7,133C106.7,133,106.7,133,106.7,133z"/>
				<path class="st71" d="M106.8,132.9C106.8,133,106.8,133,106.8,132.9C106.9,133,106.9,133,106.8,132.9L106.8,132.9
					C106.9,132.9,106.9,132.9,106.8,132.9C106.8,132.9,106.8,132.9,106.8,132.9C106.8,132.9,106.8,132.9,106.8,132.9z"/>
				<path class="st71" d="M107,132.9C107,133,107,133,107,132.9C107,133,107.1,133,107,132.9L107,132.9
					C107.1,132.9,107,132.9,107,132.9C107,132.9,107,132.9,107,132.9C107,132.9,107,132.9,107,132.9z"/>
				<path class="st71" d="M107.1,133C107.1,133,107.1,133,107.1,133C107.2,133,107.2,133,107.1,133C107.2,133,107.2,132.9,107.1,133
					C107.1,132.9,107.1,133,107.1,133z"/>
				<path class="st71" d="M107.2,133C107.2,133.1,107.2,133.1,107.2,133C107.3,133.1,107.3,133.1,107.2,133
					C107.3,133,107.3,133,107.2,133C107.3,133,107.3,133,107.2,133C107.2,133,107.2,133,107.2,133L107.2,133z"/>
				<path class="st71" d="M107.3,133.1C107.3,133.1,107.4,133.1,107.3,133.1C107.4,133.1,107.4,133.1,107.3,133.1
					C107.4,133,107.4,133,107.3,133.1C107.4,133,107.3,133,107.3,133.1z"/>
				<path class="st71" d="M107.4,133.2C107.4,133.2,107.4,133.2,107.4,133.2C107.5,133.2,107.5,133.2,107.4,133.2
					C107.5,133.1,107.5,133.1,107.4,133.2C107.4,133.1,107.4,133.1,107.4,133.2z"/>
				<path class="st71" d="M107.6,133.2C107.6,133.2,107.6,133.2,107.6,133.2C107.6,133.2,107.7,133.2,107.6,133.2
					C107.7,133.2,107.7,133.2,107.6,133.2C107.7,133.1,107.6,133.1,107.6,133.2C107.6,133.1,107.6,133.1,107.6,133.2L107.6,133.2z"
					/>
				<path class="st71" d="M107.7,133.2C107.7,133.2,107.7,133.2,107.7,133.2C107.8,133.2,107.8,133.2,107.7,133.2
					C107.8,133.1,107.8,133.1,107.7,133.2C107.7,133.1,107.7,133.1,107.7,133.2z"/>
				<path class="st71" d="M107.8,133.2C107.8,133.2,107.8,133.2,107.8,133.2C107.9,133.2,107.9,133.2,107.8,133.2
					C107.9,133.1,107.9,133.1,107.8,133.2C107.8,133.1,107.8,133.1,107.8,133.2z"/>
				<path class="st71" d="M107.9,133.2C107.9,133.2,108,133.2,107.9,133.2C108,133.2,108,133.2,107.9,133.2
					C108,133.2,108,133.2,107.9,133.2C108,133.2,108,133.2,107.9,133.2C108,133.2,107.9,133.2,107.9,133.2L107.9,133.2z"/>
				<path class="st71" d="M108.1,133.2C108.1,133.3,108.1,133.3,108.1,133.2C108.1,133.3,108.2,133.3,108.1,133.2
					C108.2,133.2,108.1,133.2,108.1,133.2C108.1,133.2,108.1,133.2,108.1,133.2z"/>
				<path class="st71" d="M108.2,133.3C108.2,133.3,108.2,133.3,108.2,133.3C108.3,133.3,108.3,133.3,108.2,133.3
					C108.3,133.3,108.3,133.2,108.2,133.3C108.2,133.2,108.2,133.3,108.2,133.3z"/>
				<path class="st71" d="M108.3,133.4C108.3,133.4,108.3,133.4,108.3,133.4C108.4,133.4,108.4,133.4,108.3,133.4
					C108.4,133.3,108.4,133.3,108.3,133.4C108.3,133.3,108.3,133.3,108.3,133.4z"/>
				<path class="st71" d="M108.4,133.5C108.4,133.5,108.4,133.5,108.4,133.5C108.5,133.5,108.5,133.5,108.4,133.5
					C108.5,133.5,108.5,133.4,108.4,133.5C108.4,133.4,108.4,133.5,108.4,133.5z"/>
				<path class="st71" d="M108.5,133.6C108.5,133.6,108.5,133.6,108.5,133.6C108.5,133.6,108.6,133.6,108.5,133.6
					C108.6,133.5,108.5,133.5,108.5,133.6C108.5,133.5,108.5,133.5,108.5,133.6z"/>
				<path class="st71" d="M108.5,133.7C108.5,133.7,108.5,133.8,108.5,133.7C108.5,133.8,108.6,133.7,108.5,133.7
					C108.6,133.7,108.5,133.7,108.5,133.7C108.5,133.7,108.5,133.7,108.5,133.7L108.5,133.7z"/>
				<path class="st71" d="M108.5,133.8C108.5,133.9,108.5,133.9,108.5,133.8C108.5,133.9,108.6,133.9,108.5,133.8
					C108.6,133.8,108.5,133.8,108.5,133.8C108.5,133.8,108.5,133.8,108.5,133.8z"/>
				<path class="st71" d="M108.4,134C108.4,134,108.5,134,108.4,134C108.5,134,108.5,134,108.4,134
					C108.5,133.9,108.5,133.9,108.4,134C108.5,133.9,108.4,133.9,108.4,134z"/>
				<path class="st71" d="M108.4,134C108.4,134.1,108.4,134.1,108.4,134C108.5,134.1,108.5,134.1,108.4,134
					C108.5,134,108.5,134,108.4,134C108.4,134,108.4,134,108.4,134z"/>
			</g>
		</g>
	</g>
	<g>
		<path class="st2" d="M124.1,128.1v16h-25v-16H124.1 M124.6,127.6h-26v17h26V127.6L124.6,127.6z"/>
	</g>
</g>
<g>
	<rect x="98.6" y="148.4" class="st72" width="26" height="17"/>
	<g>
		<path class="st72" d="M100.9,148.4h21.2c1.3,0,2.4,1.1,2.4,2.3v12.4c0,1.3-1.1,2.3-2.3,2.3h-21.2c-1.3,0-2.3-1.1-2.3-2.3v-12.4
			C98.6,149.4,99.7,148.4,100.9,148.4z"/>
		<path class="st73" d="M109.1,155v-6.6h-3.7v6.6h-6.8v3.7h6.8v6.6h3.7v-6.6h15.4V155H109.1z"/>
	</g>
	<g>
		<path class="st2" d="M124.1,148.9v16h-25v-16H124.1 M124.6,148.4h-26v17h26V148.4L124.6,148.4z"/>
	</g>
</g>
<g>
	<path class="st74" d="M98.6,169.2h26v17h-26V169.2z"/>
	<g>
		<path class="st74" d="M100.9,169.2h21.2c1.3,0,2.4,1.1,2.4,2.3v12.4c0,1.3-1.1,2.3-2.3,2.3h-21.2c-1.3,0-2.3-1.1-2.3-2.3v-12.4
			C98.6,170.2,99.7,169.2,100.9,169.2z"/>
		<path class="st75" d="M117.6,175.9h-4.3v-4.2h-3.6v4.2h-4.3v3.6h4.3v4.2h3.6v-4.2h4.3V175.9z"/>
	</g>
	<g>
		<path class="st2" d="M124.1,169.7v16h-25v-16H124.1 M124.6,169.2h-26v17h26V169.2L124.6,169.2z"/>
	</g>
</g>
<g>
	<g>
		<polygon class="st76" points="115.5,200.8 124.6,206 124.6,206 115.5,200.8 		"/>
		<polygon class="st76" points="109.3,195.6 99.5,190 99.5,190 109.3,195.6 		"/>
		<polygon class="st76" points="113.8,201.4 123.5,207 123.6,207 113.8,201.3 		"/>
		<polygon class="st76" points="113.8,195.6 123.6,190 123.6,190 113.8,195.6 		"/>
		<polygon class="st76" points="107.6,200.8 98.6,206 98.6,206 107.7,200.8 		"/>
		<polygon class="st77" points="99.5,207 109.3,207 109.3,201.4 		"/>
		<polygon class="st77" points="109.3,190 99.5,190 109.3,195.6 		"/>
		<polygon class="st77" points="124.6,204.4 124.6,200.8 118.2,200.8 		"/>
		<polygon class="st77" points="124.6,196.2 124.6,192.6 118.2,196.2 		"/>
		<polygon class="st77" points="113.8,195.6 123.6,190 113.8,190 		"/>
		<polygon class="st77" points="98.6,192.6 98.6,196.2 104.9,196.2 		"/>
		<polygon class="st77" points="113.8,207 123.5,207 113.8,201.4 		"/>
		<polygon class="st77" points="98.6,200.8 98.6,204.4 104.9,200.8 		"/>
		<polygon class="st4" points="109.3,196.2 109.3,195.6 99.5,190 98.6,190 98.6,191 107.7,196.2 		"/>
		<polygon class="st4" points="105.8,196.2 98.6,192 98.6,192.6 104.9,196.2 		"/>
		<polygon class="st4" points="113.8,200.8 113.8,201.3 123.6,207 124.6,207 124.6,206 115.5,200.8 		"/>
		<polygon class="st4" points="117.3,200.8 124.6,204.9 124.6,204.4 118.2,200.8 		"/>
		<polygon class="st78" points="107.6,196.2 98.6,191 98.6,192 105.8,196.2 		"/>
		<polygon class="st78" points="117.2,200.8 115.5,200.8 124.6,206 124.6,205 		"/>
		<polygon class="st78" points="117.2,200.8 124.6,205 124.6,204.9 117.3,200.8 		"/>
		<polygon class="st78" points="107.7,196.2 98.6,191 98.6,191 107.6,196.2 		"/>
		<polygon class="st4" points="109.3,200.9 98.7,207 99.5,207 109.3,201.4 		"/>
		<polygon class="st4" points="118.2,196.2 124.6,192.6 124.6,191 115.5,196.2 		"/>
		<polygon class="st4" points="113.8,196.1 124.5,190 123.6,190 113.8,195.6 		"/>
		<polygon class="st4" points="104.9,200.8 98.6,204.4 98.6,206 107.6,200.8 		"/>
		<polygon class="st78" points="109.3,200.8 107.7,200.8 98.6,206 98.6,207 98.6,207 109.3,200.8 		"/>
		<polygon class="st78" points="109.3,200.8 98.6,207 98.7,207 109.3,200.9 		"/>
		<polygon class="st78" points="124.5,190 113.8,196.1 113.8,196.2 115.5,196.2 124.6,191 124.6,190 		"/>
		<polygon class="st4" points="113.9,199.8 115.5,200.8 115.5,200.8 113.9,199.8 		"/>
		<polygon class="st4" points="112.9,200.9 113.8,201.4 113.8,201.3 112.9,200.8 		"/>
		<polygon class="st4" points="110.2,196.1 109.3,195.6 109.3,195.6 110.2,196.2 		"/>
		<polygon class="st4" points="109.2,199.8 107.6,200.8 107.7,200.8 109.3,199.8 		"/>
		<rect x="112.8" y="195.9" transform="matrix(0.8673 -0.4977 0.4977 0.8673 -82.447 82.4051)" class="st4" width="1" height="0"/>
		<polygon class="st4" points="104.9,196.2 98.6,196.2 98.6,197.1 106.5,197.1 		"/>
		<polygon class="st4" points="113.8,195.6 113.8,190 112.9,190 112.9,196.1 		"/>
		<polygon class="st4" points="110.2,196.1 110.2,190 109.3,190 109.3,195.6 		"/>
		<polygon class="st4" points="109.3,201.4 109.3,207 110.2,207 110.2,200.9 		"/>
		<polygon class="st4" points="116.6,197.1 124.6,197.1 124.6,196.2 118.2,196.2 		"/>
		<polygon class="st4" points="112.9,207 113.8,207 113.8,201.4 112.9,200.9 		"/>
		<polygon class="st4" points="118.2,200.8 124.6,200.8 124.6,199.8 116.6,199.8 		"/>
		<polygon class="st4" points="106.5,199.8 98.6,199.8 98.6,200.8 104.9,200.8 		"/>
		<polygon class="st4" points="110.2,197.1 110.2,196.2 109.3,195.6 109.3,196.2 107.7,196.2 109.3,197.1 		"/>
		<polygon class="st4" points="105.8,196.2 104.9,196.2 106.5,197.1 107.4,197.1 		"/>
		<polygon class="st4" points="112.9,199.8 112.9,200.8 113.8,201.3 113.8,200.8 115.5,200.8 113.9,199.8 		"/>
		<polygon class="st4" points="117.3,200.8 118.2,200.8 116.6,199.8 115.7,199.8 		"/>
		<polygon class="st4" points="109.2,197.1 107.6,196.2 105.8,196.2 107.4,197.1 		"/>
		<polygon class="st4" points="113.9,199.8 115.5,200.8 117.2,200.8 115.7,199.8 		"/>
		<polygon class="st4" points="109.3,197.1 107.7,196.2 107.6,196.2 109.2,197.1 		"/>
		<polygon class="st4" points="115.7,199.8 115.7,199.8 117.2,200.8 117.3,200.8 		"/>
		<polygon class="st4" points="116.6,197.1 118.2,196.2 115.5,196.2 113.9,197.1 		"/>
		<polygon class="st4" points="109.3,200.9 109.3,201.4 110.2,200.9 110.2,200.4 		"/>
		<polygon class="st4" points="106.5,199.8 104.9,200.8 107.6,200.8 109.2,199.8 		"/>
		<polygon class="st4" points="112.9,196.7 113.8,196.1 113.8,195.6 112.9,196.1 		"/>
		<polygon class="st4" points="110.2,199.8 109.3,199.8 107.7,200.8 109.3,200.8 109.3,200.8 110.2,200.3 		"/>
		<polygon class="st4" points="110.2,200.3 109.3,200.8 109.3,200.9 110.2,200.4 		"/>
		<polygon class="st4" points="112.9,197.1 113.9,197.1 115.5,196.2 113.8,196.2 113.8,196.1 112.9,196.7 		"/>
		<polygon class="st78" points="110.6,199 111.1,199.3 110.6,199 111.6,198.5 111.1,197.7 112,197.2 111.6,196.9 110.2,196.1 
			110.2,196.2 111.6,197 110.2,197.7 110.2,197.7 109.3,198.2 108.8,198.5 110.2,199.3 		"/>
		<polygon class="st78" points="109.2,199.8 109.3,199.8 110.2,199.3 111.1,199.8 111.1,199.8 110.2,199.3 		"/>
		<polygon class="st78" points="113.9,199.8 113.9,199.8 112.9,199.3 		"/>
		<polygon class="st78" points="112.5,197.9 111.6,198.5 112,199.3 111.1,199.8 111.6,200.1 112.9,200.9 112.9,200.8 111.6,200 
			112.9,199.3 113.8,198.8 114.3,198.5 112.9,197.7 		"/>
		<polygon class="st78" points="112.9,196.1 111.6,196.9 112.9,196.1 		"/>
		<polygon class="st78" points="111.6,200.1 110.2,200.9 110.2,207 112.9,207 112.9,200.9 		"/>
		<polygon class="st78" points="111.6,196.9 112.9,196.1 112.9,190 110.2,190 110.2,196.1 		"/>
		<polygon class="st78" points="108.8,198.5 106.5,197.1 98.6,197.1 98.6,199.8 106.5,199.8 		"/>
		<polygon class="st78" points="114.3,198.5 116.6,199.8 124.6,199.8 124.6,197.1 116.6,197.1 		"/>
		<polygon class="st78" points="111.6,200 112.9,200.8 112.9,199.8 113.9,199.8 112.9,199.3 		"/>
		<polygon class="st78" points="109.3,197.1 110.2,197.7 110.2,197.7 110.2,197.7 111.6,197 110.2,196.2 110.2,197.1 		"/>
		<polygon class="st78" points="107.4,197.1 106.5,197.1 108.8,198.5 109.3,198.2 		"/>
		<polygon class="st78" points="115.7,199.8 116.6,199.8 114.3,198.5 113.8,198.8 		"/>
		<polygon class="st78" points="107.4,197.1 109.3,198.2 110.2,197.7 109.2,197.1 		"/>
		<polygon class="st78" points="112.9,199.3 113.9,199.8 115.7,199.8 113.8,198.8 		"/>
		<polygon class="st78" points="109.3,197.1 109.2,197.1 110.2,197.7 110.2,197.7 		"/>
		<polygon class="st78" points="115.7,199.8 115.7,199.8 113.8,198.8 		"/>
		<polygon class="st78" points="110.2,199.3 108.8,198.5 106.5,199.8 109.2,199.8 		"/>
		<polygon class="st78" points="111.1,199.8 111.1,199.8 110.2,200.4 110.2,200.9 111.6,200.1 111.1,199.8 		"/>
		<polygon class="st78" points="112.9,197.7 114.3,198.5 116.6,197.1 113.9,197.1 		"/>
		<polygon class="st78" points="112.9,196.7 112.9,196.1 111.6,196.9 112,197.2 		"/>
		<polygon class="st78" points="110.6,199 110.2,199.3 111.1,199.8 112,199.3 111.6,198.5 111.1,199.3 		"/>
		<polygon class="st78" points="109.3,199.8 110.2,199.8 110.2,200.3 111.1,199.8 110.2,199.3 		"/>
		<polygon class="st78" points="110.2,200.4 111.1,199.8 111.1,199.8 110.2,200.3 		"/>
		<polygon class="st78" points="111.1,199.3 111.6,198.5 110.6,199 		"/>
		<polygon class="st78" points="112.9,197.7 113.9,197.1 112.9,197.1 112.9,196.7 112,197.2 		"/>
		<polygon class="st78" points="111.1,197.7 111.6,198.5 112,197.7 112.5,197.9 112.9,197.7 112,197.2 		"/>
		<polygon class="st78" points="111.6,198.5 112.5,197.9 112,197.7 		"/>
	</g>
	<g>
		<path class="st2" d="M124.1,190.5v16h-25v-16H124.1 M124.6,190h-26v17h26V190L124.6,190z"/>
	</g>
</g>
<g>
	<rect x="132.1" y="2.7" class="st79" width="26" height="17"/>
	<g>
		<path class="st79" d="M134.5,2.7h21.2c1.3,0,2.4,1.1,2.4,2.3v12.4c0,1.3-1.1,2.3-2.3,2.3h-21.2c-1.3,0-2.3-1.1-2.3-2.3V5
			C132.1,3.8,133.2,2.7,134.5,2.7z"/>
		<path class="st79" d="M132.1,17.4c0,1.3,1.1,2.3,2.3,2.3h21.2c1.3,0,2.3-1,2.3-2.3v-9h-25.9V17.4z"/>
		<path class="st75" d="M132.1,6H158v10.5h-25.9V6z"/>
		<path class="st79" d="M145.1,6.9L143.8,9h2.5L145.1,6.9z M146.3,13.4h2.5l-1.3-2.2L146.3,13.4z M141.3,13.4h2.5l-1.3-2.2
			L141.3,13.4z M145.1,15.5l1.3-2.1h-2.5L145.1,15.5z"/>
		<path class="st79" d="M148.8,9h-2.5l1.3,2.2L148.8,9z M141.3,9l1.3,2.2l1.3-2.2L141.3,9z"/>
		<path class="st79" d="M146.3,9h-2.5l-1.3,2.2l1.3,2.2h2.5l1.3-2.2L146.3,9z"/>
	</g>
	<g>
		<path class="st2" d="M157.6,3.2v16h-25v-16H157.6 M158.1,2.7h-26v17h26V2.7L158.1,2.7z"/>
	</g>
</g>
<g>
	<rect x="132.1" y="44.3" class="st80" width="26" height="17"/>
	<rect x="140.7" y="44.3" class="st4" width="8.7" height="17"/>
	<rect x="149.3" y="44.3" class="st81" width="8.7" height="17"/>
	<g>
		<path class="st2" d="M157.6,44.8v16h-25v-16H157.6 M158.1,44.3h-26v17h26V44.3L158.1,44.3z"/>
	</g>
	<path class="st82" d="M142.2,52.8c0,1.6,1.3,2.8,2.8,2.8c1.6,0,2.8-1.3,2.8-2.8c0,0,0,0,0,0c0-1.6-1.3-2.8-2.8-2.8
		C143.5,50,142.2,51.3,142.2,52.8C142.2,52.8,142.2,52.8,142.2,52.8z"/>
</g>
<g>
	<rect x="132.1" y="23.5" class="st3" width="26" height="17"/>
	<g>
		<path class="st4" d="M134.5,23.5h21.2c1.3,0,2.4,1.1,2.4,2.3v12.4c0,1.3-1.1,2.3-2.3,2.3h-21.2c-1.3,0-2.3-1.1-2.3-2.3V25.8
			C132.1,24.6,133.2,23.5,134.5,23.5z"/>
		<path class="st64" d="M158,25.7v12.5V25.8V25.7z"/>
		<path class="st3" d="M155.7,40.5h-3.8v-17h3.8c1.3,0,2.3,1.1,2.3,2.3v12.4C158,39.5,157,40.6,155.7,40.5z M132.1,38.3V25.8
			c0-1.3,1.1-2.3,2.3-2.3h3.8v17h-3.8C133.2,40.6,132.1,39.5,132.1,38.3z M145.1,26.2l-0.9,1.8c-0.1,0.2-0.3,0.2-0.5,0.1l-0.7-0.4
			l0.5,2.7c0.1,0.5-0.2,0.5-0.4,0.3l-1.2-1.3l-0.2,0.6c0,0.1-0.1,0.2-0.3,0.2l-1.5-0.3l0.4,1.4c0.1,0.3,0.2,0.4-0.1,0.5l-0.5,0.2
			l2.6,2.1c0.1,0.1,0.2,0.2,0.1,0.4l-0.2,0.8c0.9-0.1,1.7-0.2,2.6-0.4c0.1,0,0.2,0.1,0.2,0.2l-0.1,2.7h0.4l-0.1-2.7
			c0-0.1,0.1-0.2,0.2-0.2c0.9,0.1,1.7,0.2,2.6,0.4l-0.2-0.7c0-0.1,0-0.3,0.1-0.4l2.6-2.1l-0.5-0.2c-0.2-0.1-0.2-0.2-0.1-0.5l0.4-1.4
			l-1.5,0.3c-0.2,0-0.2-0.1-0.3-0.2l-0.2-0.7l-1.1,1.3c-0.2,0.2-0.5,0.2-0.4-0.3l0.5-2.7l-0.7,0.4c-0.2,0.1-0.4,0.1-0.5-0.1"/>
	</g>
	<g>
		<path class="st2" d="M157.6,24v16h-25V24H157.6 M158.1,23.5h-26v17h26V23.5L158.1,23.5z"/>
	</g>
</g>
<g>
	<g>
		<path class="st4" d="M132.1,65.1h26v17h-26V65.1z"/>
		<path class="st83" d="M132.1,65.1h26v1.1h-26V65.1z M132.1,67.4h26v1.1h-26V67.4z M132.1,69.7h26v1.1h-26V69.7z M132.1,71.9h26
			v1.1h-26V71.9z M132.1,74.2h26v1.1h-26V74.2L132.1,74.2z M132.1,76.5h26v1.1h-26V76.5z M132.1,78.7h26v1.1h-26V78.7z M132.1,81h26
			v1.1h-26V81z"/>
		<path class="st84" d="M132.1,65.1h10.8v7.9h-10.8V65.1z"/>
		<path class="st4" d="M133.6,66.7l-0.4,0.3l0.1-0.5l-0.4-0.3h0.5l0.2-0.5l0.2,0.5h0.5l-0.4,0.3L134,67L133.6,66.7z M136.2,66.7
			l-0.4,0.3l0.1-0.5l-0.4-0.3h0.5l0.2-0.5l0.2,0.5h0.5l-0.4,0.3l0.1,0.5C136.6,67,136.2,66.7,136.2,66.7z M138.7,66.7l-0.4,0.3
			l0.1-0.5l-0.4-0.3h0.5l0.2-0.5l0.2,0.5h0.5l-0.4,0.3l0.1,0.5L138.7,66.7z M141.3,66.8l-0.4,0.3l0.1-0.5l-0.4-0.3l0.5,0l0.2-0.5
			l0.2,0.5l0.5,0l-0.4,0.3l0.1,0.5L141.3,66.8z M134.6,68.1l-0.4,0.3l0.1-0.5l-0.4-0.3h0.5l0.2-0.5l0.2,0.5h0.5l-0.4,0.3l0.1,0.5
			L134.6,68.1z M137.5,68.1l-0.4,0.3l0.1-0.5l-0.4-0.3h0.5l0.2-0.5l0.2,0.5h0.5l-0.4,0.3l0.1,0.5L137.5,68.1z M140.3,68.1l-0.4,0.3
			l0.1-0.5l-0.4-0.3h0.5l0.2-0.5l0.2,0.5h0.5l-0.4,0.3l0.1,0.5L140.3,68.1z M133.6,69.4l-0.4,0.3l0.1-0.5l-0.4-0.3h0.5l0.2-0.5
			l0.2,0.5h0.5l-0.4,0.3l0.1,0.5L133.6,69.4z M136.2,69.4l-0.4,0.3l0.1-0.5l-0.4-0.3h0.5l0.2-0.5l0.2,0.5h0.5l-0.4,0.3l0.1,0.5
			C136.6,69.7,136.2,69.4,136.2,69.4z M138.7,69.4l-0.4,0.3l0.1-0.5l-0.4-0.3h0.5l0.2-0.5l0.2,0.5h0.5l-0.4,0.3l0.1,0.5L138.7,69.4z
			 M141.3,69.4l-0.4,0.3l0.1-0.5l-0.4-0.3l0.5,0l0.2-0.5l0.2,0.5l0.5,0l-0.4,0.3l0.1,0.5L141.3,69.4z M133.6,72.1l-0.4,0.3l0.1-0.5
			l-0.4-0.3h0.5l0.2-0.5l0.2,0.5h0.5l-0.4,0.3l0.1,0.5L133.6,72.1z M136.2,72.1l-0.4,0.3l0.1-0.5l-0.4-0.3h0.5l0.2-0.5l0.2,0.5h0.5
			l-0.4,0.3l0.1,0.5C136.6,72.4,136.2,72.1,136.2,72.1z M138.7,72.1l-0.4,0.3l0.1-0.5l-0.4-0.3h0.5l0.2-0.5l0.2,0.5h0.5l-0.4,0.3
			l0.1,0.5L138.7,72.1z M141.3,72.1l-0.4,0.3l0.1-0.5l-0.4-0.3l0.5,0l0.2-0.5l0.2,0.5l0.5,0l-0.4,0.3l0.1,0.5L141.3,72.1z
			 M134.6,70.7l-0.4,0.3l0.1-0.5l-0.4-0.3h0.5l0.2-0.5l0.2,0.5h0.5l-0.4,0.3L135,71L134.6,70.7z M137.5,70.7l-0.4,0.3l0.1-0.5
			l-0.4-0.3h0.5l0.2-0.5l0.2,0.5h0.5l-0.4,0.3l0.1,0.5L137.5,70.7z M140.3,70.7l-0.4,0.3l0.1-0.5l-0.4-0.3h0.5l0.2-0.5l0.2,0.5h0.5
			l-0.4,0.3l0.1,0.5L140.3,70.7z"/>
	</g>
	<g>
		<path class="st2" d="M157.6,65.6v16h-25v-16H157.6 M158.1,65.1h-26v17h26V65.1L158.1,65.1z"/>
	</g>
</g>
<g>
	<rect x="132.1" y="86" class="st85" width="26" height="17"/>
	<g>
		<path class="st85" d="M135.7,87h18.7c1.2,0,2.1,0.9,2.1,2v10.9c0,1.1-0.9,2-2.1,2h-18.7c-1.1,0-2.1-0.9-2.1-2V89
			C133.6,87.9,134.6,87,135.7,87z"/>
		<path class="st86" d="M135.1,94.5l10-7.5l10,7.5l-10,7.5L135.1,94.5z"/>
		<path class="st87" d="M140.1,94.5c0,2.8,2.2,5,5,5s5-2.2,5-5c0-2.8-2.2-5-5-5S140.1,91.7,140.1,94.5z"/>
		<path class="st4" d="M149.5,97c0.1-0.3,0.2-0.6,0.3-0.9c-1.5-3.4-5.5-5-8.9-3.5l-0.4,0.2c-0.1,0.2-0.2,0.5-0.3,0.8
			c3.3-1.7,7.4-0.4,9,3C149.4,96.6,149.5,96.8,149.5,97L149.5,97z"/>
	</g>
	<g>
		<path class="st2" d="M157.6,86.5v16h-25v-16H157.6 M158.1,86h-26v17h26V86L158.1,86z"/>
	</g>
</g>
<g>
	<g>
		<rect x="3.8" y="169.2" class="st88" width="26" height="17"/>
		<rect x="3.8" y="169.2" class="st89" width="13" height="8.7"/>
		<g>
			<path class="st4" d="M10.7,171.7l-0.4-1.5l-0.4,1.5c0.1,0,0.3,0,0.4,0C10.4,171.7,10.5,171.7,10.7,171.7z"/>
			<path class="st4" d="M9.9,175.3l0.4,1.5l0.4-1.5c-0.1,0-0.3,0-0.4,0C10.1,175.4,10,175.4,9.9,175.3z"/>
			<path class="st4" d="M9.7,171.8l-1.1-1.1l0.4,1.5C9.2,172,9.4,171.8,9.7,171.8z"/>
			<path class="st4" d="M10.8,175.3l1.1,1.1l-0.4-1.5C11.3,175.1,11.1,175.2,10.8,175.3z"/>
			<path class="st4" d="M8.9,172.3l-1.5-0.4l1.1,1.1C8.6,172.7,8.7,172.5,8.9,172.3z"/>
			<path class="st4" d="M11.6,174.8l1.5,0.4l-1.1-1.1C11.9,174.3,11.8,174.6,11.6,174.8z"/>
			<path class="st4" d="M8.4,173.5c0-0.1,0-0.3,0-0.4L7,173.5l1.5,0.4C8.4,173.8,8.4,173.7,8.4,173.5z"/>
			<path class="st4" d="M13.5,173.5l-1.5-0.4c0,0.1,0,0.3,0,0.4c0,0.1,0,0.3,0,0.4L13.5,173.5z"/>
			<path class="st4" d="M8.5,174.1l-1.1,1.1l1.5-0.4C8.7,174.6,8.6,174.3,8.5,174.1z"/>
			<path class="st4" d="M12,173l1.1-1.1l-1.5,0.4C11.8,172.5,11.9,172.7,12,173z"/>
			<path class="st4" d="M8.6,176.4l1.1-1.1c-0.3-0.1-0.5-0.2-0.7-0.4L8.6,176.4z"/>
			<path class="st4" d="M11.9,170.7l-1.1,1.1c0.3,0.1,0.5,0.2,0.7,0.4L11.9,170.7z"/>
			<circle class="st4" cx="10.3" cy="173.5" r="1.6"/>
		</g>
	</g>
	<g>
		<path class="st2" d="M29.3,169.7v16h-25v-16H29.3 M29.8,169.2h-26v17h26V169.2L29.8,169.2z"/>
	</g>
</g>
<g class="st90">
	<g class="st91">
		<path class="st21" d="M132.4,144.5h25.2v-16.8h-25.2L132.4,144.5L132.4,144.5z M157.7,144.5L157.7,144.5L157.7,144.5z
			 M132.3,144.6v-17h25.4v17L132.3,144.6L132.3,144.6z"/>
		<path class="st4" d="M135.4,127.6v16.9h2l8.4-5.6h11.8v-5.6h-11.8l-8.4-5.6H135.4z"/>
		<path class="st92" d="M137.5,127.6l8.4,5.6h11.8v-5.6H137.5z"/>
		<path class="st93" d="M145.9,138.9l-8.4,5.6h20.3v-5.6H145.9z"/>
		<path class="st94" d="M132.4,127.6v2l9.6,6.4l-9.6,6.4v2h3l10.1-6.8h12.1v-3.4h-12.1l-10.1-6.7H132.4z"/>
		<path class="st95" d="M132.4,142.5l9.6-6.4l-9.6-6.4L132.4,142.5z"/>
		<path class="st47" d="M132.4,141.1l7.6-5.1l-7.6-5V141.1z"/>
	</g>
	<g class="st91">
		<path class="st2" d="M157.6,128.1v16h-25v-16H157.6 M158.1,127.6h-26v17h26V127.6L158.1,127.6z"/>
	</g>
</g>
</svg>
