<?xml version="1.0" encoding="utf-8"?>
<!-- Generator: Adobe Illustrator 26.0.0, SVG Export Plug-In . SVG Version: 6.00 Build 0)  -->
<svg version="1.1" id="图层_1" xmlns="http://www.w3.org/2000/svg" xmlns:xlink="http://www.w3.org/1999/xlink" x="0px" y="0px"
	 viewBox="0 0 35 17" style="enable-background:new 0 0 35 17;" xml:space="preserve">
<style type="text/css">
	.st0{fill:#555555;}
	.st1{fill:#1770DE;}
</style>
<g>
	<path class="st0" d="M13.3,13.1c-0.9,0.8-2,1.3-3.3,1.5c-1.2,0.2-2.4,0-3.6-0.5c-1.1-0.5-2.1-1.3-2.7-2.3c-0.7-1-1-2.2-1-3.4
		c0-1.2,0.3-2.4,1-3.4c0.7-1,1.6-1.8,2.7-2.3C7.5,2.4,8.8,2.2,10,2.4c1.2,0.2,2.3,0.7,3.3,1.5c0.4,0.3,0.9,0.3,1.2-0.1
		c0.2-0.2,0.2-0.4,0.2-0.6c0-0.2-0.1-0.5-0.3-0.6c-1.2-1-2.6-1.7-4.2-1.9c-1.6-0.2-3.1,0-4.6,0.6C4.3,1.8,3,2.9,2.2,4.2
		C1.3,5.5,0.9,7,0.9,8.5c0,1.5,0.5,3,1.3,4.3c0.9,1.3,2.1,2.3,3.5,2.9c1.1,0.5,2.2,0.7,3.3,0.7c0.4,0,0.8,0,1.3-0.1
		c1.5-0.2,3-0.9,4.2-1.9c0.2-0.2,0.3-0.4,0.3-0.6c0-0.2-0.1-0.5-0.2-0.6C14.2,12.9,13.6,12.8,13.3,13.1z"/>
	<path class="st0" d="M16.9,9c0-0.1,0-0.2-0.1-0.3c0-0.1-0.1-0.2-0.2-0.3l-2-1.9c-0.3-0.4-0.9-0.4-1.3,0c-0.2,0.2-0.3,0.4-0.3,0.6
		c0,0.2,0.1,0.5,0.3,0.7l0.4,0.4H9.5C9.2,8.2,9,8.2,8.8,8.4C8.7,8.6,8.6,8.8,8.6,9.1c0,0.5,0.4,0.9,0.9,0.9H16
		c0.2,0,0.5-0.1,0.6-0.3c0.1-0.1,0.1-0.2,0.2-0.3C16.9,9.3,16.9,9.2,16.9,9L16.9,9L16.9,9z"/>
</g>
<g>
	<path class="st1" d="M30.6,13.1c-0.9,0.8-2,1.3-3.3,1.5c-1.2,0.2-2.4,0-3.6-0.5c-1.1-0.5-2.1-1.3-2.7-2.3c-0.7-1-1-2.2-1-3.4
		c0-1.2,0.3-2.4,1-3.4c0.7-1,1.6-1.8,2.7-2.3c1.1-0.5,2.4-0.7,3.6-0.5c1.2,0.2,2.3,0.7,3.3,1.5c0.4,0.3,0.9,0.3,1.2-0.1
		c0.2-0.2,0.2-0.4,0.2-0.6c0-0.2-0.1-0.5-0.3-0.6c-1.2-1-2.6-1.7-4.2-1.9c-1.6-0.2-3.1,0-4.6,0.6c-1.4,0.6-2.6,1.7-3.5,3
		c-0.9,1.3-1.3,2.8-1.3,4.3c0,1.5,0.5,3,1.3,4.3c0.9,1.3,2.1,2.3,3.5,2.9c1.1,0.5,2.2,0.7,3.3,0.7c0.4,0,0.8,0,1.3-0.1
		c1.5-0.2,3-0.9,4.2-1.9c0.2-0.2,0.3-0.4,0.3-0.6c0-0.2-0.1-0.5-0.2-0.6C31.6,12.9,31,12.8,30.6,13.1z"/>
	<path class="st1" d="M34.2,9c0-0.1,0-0.2-0.1-0.3c0-0.1-0.1-0.2-0.2-0.3l-2-1.9c-0.3-0.4-0.9-0.4-1.3,0c-0.2,0.2-0.3,0.4-0.3,0.6
		c0,0.2,0.1,0.5,0.3,0.7l0.4,0.4h-4.3c-0.2,0-0.5,0.1-0.6,0.3c-0.2,0.2-0.3,0.4-0.3,0.6c0,0.5,0.4,0.9,0.9,0.9h6.5
		c0.2,0,0.5-0.1,0.6-0.3c0.1-0.1,0.1-0.2,0.2-0.3C34.2,9.3,34.2,9.2,34.2,9L34.2,9L34.2,9z"/>
</g>
</svg>
