<?xml version="1.0" encoding="iso-8859-1"?>
<!-- Generator: Adobe Illustrator 26.0.0, SVG Export Plug-In . SVG Version: 6.00 Build 0)  -->
<svg version="1.1" id="&#x56FE;&#x5C42;_1" xmlns="http://www.w3.org/2000/svg" xmlns:xlink="http://www.w3.org/1999/xlink" x="0px"
	 y="0px" viewBox="0 0 245 25" style="enable-background:new 0 0 245 25;" xml:space="preserve">
<g>
	<path style="fill:#888888;" d="M24.684,6.849c-0.288-0.355-0.726-0.558-1.201-0.558H7.066L6.111,2.438
		C6.013,2.04,5.655,1.761,5.24,1.761H2.896C2.402,1.761,2,2.16,2,2.651c0,0.491,0.402,0.89,0.896,0.89h1.643L8.21,18.358
		c-0.981,0.477-1.612,1.472-1.612,2.556c0,1.57,1.289,2.847,2.873,2.847s2.873-1.277,2.873-2.847c0-0.361-0.072-0.726-0.21-1.063
		h3.619c-0.138,0.336-0.21,0.701-0.21,1.063c0,1.57,1.289,2.847,2.873,2.847s2.873-1.277,2.873-2.847
		c0-1.57-1.289-2.846-2.873-2.846h-8.43l-0.26-1.05h10.721c0.643,0,1.214-0.383,1.423-0.951l3.033-7.832l0.015-0.038
		C25.083,7.737,24.996,7.232,24.684,6.849z M8.393,20.914c0-0.586,0.484-1.063,1.078-1.063s1.078,0.477,1.078,1.063
		c0,0.587-0.483,1.064-1.078,1.064S8.393,21.5,8.393,20.914z M9.283,15.237L7.508,8.074h15.54l-2.774,7.163H9.283z M17.337,20.917
		c0-0.587,0.483-1.064,1.078-1.064s1.078,0.477,1.078,1.064c0,0.586-0.484,1.063-1.078,1.063S17.337,21.503,17.337,20.917z"/>
	<path style="fill:#888888;" d="M19.238,9.276h-8.844c-0.494,0-0.896,0.399-0.896,0.89c0,0.491,0.402,0.891,0.896,0.891h8.844
		c0.494,0,0.896-0.4,0.896-0.891C20.134,9.675,19.732,9.276,19.238,9.276z"/>
	<path style="fill:#888888;" d="M18.467,12.255h-7.302c-0.493,0-0.895,0.399-0.895,0.89c0,0.491,0.402,0.89,0.895,0.89h7.302
		c0.494,0,0.896-0.399,0.896-0.89C19.362,12.654,18.96,12.255,18.467,12.255z"/>
</g>
<g>
	<path style="fill:#1770DE;" d="M48.962,6.849c-0.288-0.355-0.726-0.558-1.201-0.558H31.343l-0.954-3.853
		c-0.098-0.398-0.456-0.677-0.871-0.677h-2.345c-0.494,0-0.896,0.399-0.896,0.89c0,0.491,0.402,0.89,0.896,0.89h1.643l3.672,14.817
		c-0.981,0.477-1.612,1.472-1.612,2.556c0,1.57,1.289,2.847,2.873,2.847s2.873-1.277,2.873-2.847c0-0.361-0.072-0.726-0.21-1.063
		h3.619c-0.138,0.336-0.21,0.701-0.21,1.063c0,1.57,1.289,2.847,2.873,2.847s2.873-1.277,2.873-2.847
		c0-1.57-1.289-2.846-2.873-2.846h-8.43l-0.26-1.05h10.721c0.643,0,1.214-0.383,1.423-0.951l3.033-7.832l0.015-0.038
		C49.361,7.737,49.274,7.232,48.962,6.849z M32.67,20.914c0-0.586,0.484-1.063,1.078-1.063s1.078,0.477,1.078,1.063
		c0,0.587-0.483,1.064-1.078,1.064S32.67,21.5,32.67,20.914z M33.561,15.237l-1.776-7.163h15.54l-2.774,7.163H33.561z
		 M41.615,20.917c0-0.587,0.483-1.064,1.078-1.064s1.078,0.477,1.078,1.064c0,0.586-0.484,1.063-1.078,1.063
		S41.615,21.503,41.615,20.917z"/>
	<path style="fill:#1770DE;" d="M43.516,9.276h-8.844c-0.494,0-0.896,0.399-0.896,0.89c0,0.491,0.402,0.891,0.896,0.891h8.844
		c0.494,0,0.896-0.4,0.896-0.891C44.411,9.675,44.01,9.276,43.516,9.276z"/>
	<path style="fill:#1770DE;" d="M42.744,12.255h-7.302c-0.493,0-0.895,0.399-0.895,0.89c0,0.491,0.402,0.89,0.895,0.89h7.302
		c0.494,0,0.896-0.399,0.896-0.89C43.64,12.654,43.238,12.255,42.744,12.255z"/>
</g>
<g>
	<path style="fill:#888888;" d="M55.023,13.792l-0.003-0.003l0.006,0.005c0.028,0.037,0.058,0.074,0.094,0.11l5.496,5.782
		c0.36,0.378,0.883,0.595,1.437,0.595c0.453,0,0.889-0.147,1.228-0.412c0.067-0.05,0.132-0.109,0.208-0.187l5.414-5.729l0.036-0.037
		c0.038-0.041,0.075-0.082,0.11-0.132l0.082-0.12l0.002,0.001l0.097-0.126c0.921-1.216,1.419-2.659,1.439-4.172
		c0-4.194-3.866-7.606-8.616-7.606c-4.74,0-8.613,3.408-8.635,7.596c0,1.497,0.491,2.942,1.42,4.18L55.023,13.792z M62.052,3.5
		c3.693,0,6.697,2.628,6.697,5.856c-0.012,1.201-0.428,2.352-1.205,3.334l-0.054,0.081l-5.339,5.654
		c-0.026,0.028-0.062,0.043-0.102,0.043h-0.001c-0.039,0-0.076-0.016-0.103-0.043l-5.414-5.722c-0.785-0.99-1.199-2.146-1.196-3.343
		C55.351,6.129,58.364,3.5,62.052,3.5z"/>
	<path style="fill:#888888;" d="M72.797,21.183l-2.051-3.176c-0.286-0.37-0.843-0.478-1.266-0.248
		c-0.225,0.117-0.384,0.309-0.449,0.539c-0.061,0.223-0.025,0.454,0.103,0.651l1.97,3.054l-0.012,0.019l-18.074-0.089l-0.001,0.082
		l-0.011-0.102l1.916-2.961c0.221-0.411,0.056-0.896-0.384-1.126c-0.442-0.233-1.053-0.087-1.31,0.313l-1.977,3.056
		c-0.128,0.236-0.194,0.489-0.196,0.753c-0.002,0.459,0.192,0.89,0.547,1.214c0.356,0.326,0.83,0.506,1.335,0.509l18.221,0.09
		l0.125-0.004c0.292-0.017,0.579-0.096,0.831-0.23c0.445-0.235,0.758-0.613,0.881-1.063C73.119,22.027,73.048,21.572,72.797,21.183z
		"/>
	<path style="fill:#888888;" d="M62.06,13.012c1.93-0.001,3.5-1.572,3.499-3.501c0-1.93-1.571-3.499-3.5-3.499
		c-1.93,0-3.5,1.57-3.5,3.501C58.559,11.442,60.13,13.012,62.06,13.012z M62.059,7.8c0.945,0,1.714,0.768,1.714,1.712
		c-0.001,0.944-0.77,1.711-1.715,1.711c-0.458-0.001-0.89-0.18-1.215-0.507c-0.322-0.323-0.499-0.752-0.498-1.206
		C60.345,8.568,61.114,7.8,62.059,7.8z"/>
</g>
<g>
	<path style="fill:#1770DE;" d="M79.301,13.792l-0.003-0.003l0.006,0.005c0.028,0.037,0.058,0.074,0.094,0.11l5.496,5.782
		c0.36,0.378,0.883,0.595,1.437,0.595c0.453,0,0.889-0.147,1.228-0.412c0.067-0.05,0.132-0.109,0.208-0.187l5.414-5.729l0.036-0.037
		c0.038-0.041,0.075-0.082,0.11-0.132l0.082-0.12l0.002,0.001l0.097-0.126c0.921-1.216,1.419-2.659,1.439-4.172
		c0-4.194-3.866-7.606-8.616-7.606c-4.74,0-8.613,3.408-8.635,7.596c0,1.497,0.491,2.942,1.42,4.18L79.301,13.792z M86.33,3.5
		c3.693,0,6.697,2.628,6.697,5.856c-0.012,1.201-0.428,2.352-1.205,3.334l-0.054,0.081l-5.339,5.654
		c-0.026,0.028-0.062,0.043-0.102,0.043h-0.001c-0.039,0-0.076-0.016-0.103-0.043l-5.414-5.722c-0.785-0.99-1.199-2.146-1.196-3.343
		C79.629,6.129,82.642,3.5,86.33,3.5z"/>
	<path style="fill:#1770DE;" d="M97.075,21.183l-2.051-3.176c-0.286-0.37-0.843-0.478-1.266-0.248
		c-0.225,0.117-0.384,0.309-0.449,0.539c-0.061,0.223-0.025,0.454,0.103,0.651l1.97,3.054l-0.012,0.019l-18.074-0.089l-0.001,0.082
		l-0.011-0.102l1.916-2.961c0.221-0.411,0.056-0.896-0.384-1.126c-0.442-0.233-1.053-0.087-1.31,0.313l-1.977,3.056
		c-0.128,0.236-0.194,0.489-0.196,0.753c-0.002,0.459,0.192,0.89,0.547,1.214c0.356,0.326,0.83,0.506,1.335,0.509l18.221,0.09
		l0.125-0.004c0.292-0.017,0.579-0.096,0.831-0.23c0.445-0.235,0.758-0.613,0.881-1.063C97.397,22.027,97.326,21.572,97.075,21.183z
		"/>
	<path style="fill:#1770DE;" d="M86.337,13.012c1.93-0.001,3.5-1.572,3.499-3.501c0-1.93-1.571-3.499-3.5-3.499
		c-1.93,0-3.5,1.57-3.5,3.501C82.837,11.442,84.408,13.012,86.337,13.012z M86.336,7.8c0.945,0,1.714,0.768,1.714,1.712
		c-0.001,0.944-0.77,1.711-1.715,1.711c-0.458-0.001-0.89-0.18-1.215-0.507c-0.322-0.323-0.499-0.752-0.498-1.206
		C84.622,8.568,85.391,7.8,86.336,7.8z"/>
</g>
<path style="fill:#888888;" d="M120.77,2.605c-0.541-0.551-1.232-0.843-2.001-0.844c-1.162,0-2.422,0.653-3.646,1.888l-2.867,2.867
	l-9.08-1.762c-0.485-0.093-0.987,0.06-1.339,0.416l-1.757,1.789c-0.354,0.359-0.499,0.867-0.39,1.359
	c0.11,0.492,0.458,0.89,0.931,1.065l6.804,2.519l-1.869,2.078l-3.302-0.65c-0.495-0.1-0.995,0.057-1.348,0.418l-0.875,0.895
	c-0.307,0.316-0.457,0.746-0.413,1.181c0.044,0.438,0.277,0.83,0.639,1.076l3.913,2.681l2.142,3.459
	c0.239,0.388,0.639,0.64,1.097,0.692c0.453,0.047,0.903-0.112,1.219-0.434l0.879-0.895c0.319-0.325,0.472-0.788,0.41-1.238
	l-0.437-3.18l1.951-1.845l2.375,6.638c0.174,0.483,0.576,0.838,1.075,0.947c0.104,0.023,0.212,0.036,0.319,0.036
	c0.396,0,0.781-0.163,1.058-0.446l1.761-1.792c0.333-0.34,0.483-0.822,0.402-1.289l-1.56-9.011l2.912-2.909
	C122.921,5.111,121.156,2.996,120.77,2.605z M115.552,10.095c-0.34,0.34-0.494,0.826-0.412,1.3l1.568,9.001l-1.41,1.435
	l-2.369-6.622c-0.17-0.473-0.562-0.824-1.046-0.939c-0.486-0.125-0.996,0.013-1.366,0.362l-2.312,2.186
	c-0.346,0.328-0.514,0.805-0.449,1.278l0.438,3.185l-0.578,0.588l-2.023-3.266c-0.11-0.177-0.252-0.325-0.424-0.442l-3.701-2.521
	l0.58-0.593l3.31,0.651c0.506,0.1,1.039-0.076,1.388-0.463l2.199-2.445c0.328-0.364,0.454-0.866,0.337-1.343
	c-0.118-0.476-0.463-0.863-0.924-1.034l-6.788-2.515l1.391-1.429l9.089,1.763c0.483,0.095,0.981-0.056,1.332-0.406l2.961-2.961
	c0.882-0.889,1.741-1.379,2.417-1.379c0.311,0,0.558,0.104,0.778,0.327c0.703,0.712,0.331,1.943-0.994,3.291L115.552,10.095z"/>
<path style="fill:#1770DE;" d="M145.047,2.605c-0.541-0.551-1.232-0.843-2.001-0.844c-1.162,0-2.422,0.653-3.646,1.888l-2.867,2.867
	l-9.08-1.762c-0.485-0.093-0.987,0.06-1.339,0.416l-1.757,1.789c-0.354,0.359-0.499,0.867-0.39,1.359
	c0.11,0.492,0.458,0.89,0.931,1.065l6.804,2.519l-1.869,2.078l-3.302-0.65c-0.495-0.1-0.995,0.057-1.348,0.418l-0.875,0.895
	c-0.307,0.316-0.457,0.746-0.413,1.181c0.044,0.438,0.277,0.83,0.639,1.076l3.913,2.681l2.142,3.459
	c0.239,0.388,0.639,0.64,1.097,0.692c0.453,0.047,0.903-0.112,1.219-0.434l0.879-0.895c0.319-0.325,0.472-0.788,0.41-1.238
	l-0.437-3.18l1.951-1.845l2.375,6.638c0.174,0.483,0.576,0.838,1.075,0.947c0.104,0.023,0.212,0.036,0.319,0.036
	c0.396,0,0.781-0.163,1.058-0.446l1.761-1.792c0.333-0.34,0.483-0.822,0.402-1.289l-1.56-9.011l2.912-2.909
	C147.198,5.111,145.433,2.996,145.047,2.605z M139.83,10.095c-0.34,0.34-0.494,0.826-0.412,1.3l1.568,9.001l-1.41,1.435
	l-2.369-6.622c-0.17-0.473-0.562-0.824-1.046-0.939c-0.486-0.125-0.996,0.013-1.366,0.362l-2.312,2.186
	c-0.346,0.328-0.514,0.805-0.449,1.278l0.438,3.185l-0.578,0.588l-2.023-3.266c-0.11-0.177-0.252-0.325-0.424-0.442l-3.701-2.521
	l0.58-0.593l3.31,0.651c0.506,0.1,1.039-0.076,1.388-0.463l2.199-2.445c0.328-0.364,0.454-0.866,0.337-1.343
	c-0.118-0.476-0.463-0.863-0.924-1.034l-6.788-2.515l1.391-1.429l9.089,1.763c0.483,0.095,0.981-0.056,1.332-0.406l2.961-2.961
	c0.882-0.889,1.741-1.379,2.417-1.379c0.311,0,0.558,0.104,0.778,0.327c0.703,0.712,0.331,1.943-0.994,3.291L139.83,10.095z"/>
<g>
	<path style="fill:#888888;" d="M159.167,1.761c-6.065,0-11,4.935-11,11s4.935,11,11,11c2.934,0,5.696-1.146,7.775-3.225
		c2.081-2.081,3.226-4.842,3.225-7.775C170.167,6.696,165.232,1.761,159.167,1.761z M168.342,12.759c0,5.06-4.117,9.176-9.176,9.176
		c-5.06,0-9.176-4.116-9.176-9.176s4.116-9.176,9.176-9.176C164.226,3.584,168.342,7.7,168.342,12.759z"/>
	<path style="fill:#888888;" d="M160.228,12.09V9.003c0.655,0.328,0.79,0.953,0.803,1.026c0.083,0.494,0.542,0.82,1.043,0.748
		c0.242-0.039,0.452-0.169,0.594-0.366c0.143-0.198,0.2-0.439,0.162-0.679c-0.129-0.802-0.823-2.25-2.602-2.65V6.477
		c0-0.503-0.409-0.913-0.912-0.913c-0.503,0-0.913,0.409-0.913,0.913v0.584c-0.939,0.184-1.507,0.641-1.819,0.997
		c-0.724,0.823-0.877,1.906-0.78,2.646c0.117,0.894,0.869,2.155,2.599,2.791v2.904c-0.535-0.409-0.914-0.987-1.009-1.272
		c-0.077-0.232-0.24-0.42-0.46-0.529c-0.22-0.11-0.465-0.125-0.693-0.048c-0.23,0.076-0.417,0.238-0.527,0.455
		c-0.11,0.218-0.127,0.466-0.049,0.698c0.275,0.831,1.302,2.225,2.737,2.758v0.744c0,0.503,0.409,0.912,0.913,0.912
		c0.502,0,0.912-0.409,0.912-0.912v-0.552c0.814-0.099,1.552-0.426,2.089-0.924c0.615-0.573,0.953-1.356,0.953-2.207
		C163.269,14.322,162.74,12.757,160.228,12.09z M161.44,15.521c0,0.349-0.125,0.644-0.371,0.875c-0.211,0.198-0.5,0.34-0.841,0.412
		v-2.812C161.293,14.397,161.44,14.99,161.44,15.521z M157.615,10.469c-0.034-0.264-0.001-0.815,0.341-1.206
		c0.112-0.127,0.262-0.229,0.447-0.304v2.519C157.841,11.114,157.643,10.679,157.615,10.469z"/>
</g>
<g>
	<path style="fill:#1770DE;" d="M183.444,1.761c-6.065,0-11,4.935-11,11s4.935,11,11,11c2.934,0,5.696-1.146,7.775-3.225
		c2.081-2.081,3.226-4.842,3.225-7.775C194.444,6.696,189.51,1.761,183.444,1.761z M192.62,12.759c0,5.06-4.117,9.176-9.176,9.176
		c-5.06,0-9.176-4.116-9.176-9.176s4.116-9.176,9.176-9.176C188.504,3.584,192.62,7.7,192.62,12.759z"/>
	<path style="fill:#1770DE;" d="M184.505,12.09V9.003c0.655,0.328,0.79,0.953,0.803,1.026c0.083,0.494,0.542,0.82,1.043,0.748
		c0.242-0.039,0.452-0.169,0.594-0.366c0.143-0.198,0.2-0.439,0.162-0.679c-0.129-0.802-0.823-2.25-2.602-2.65V6.477
		c0-0.503-0.409-0.913-0.912-0.913c-0.503,0-0.913,0.409-0.913,0.913v0.584c-0.939,0.184-1.507,0.641-1.819,0.997
		c-0.724,0.823-0.877,1.906-0.78,2.646c0.117,0.894,0.869,2.155,2.599,2.791v2.904c-0.535-0.409-0.914-0.987-1.009-1.272
		c-0.077-0.232-0.24-0.42-0.46-0.529c-0.22-0.11-0.465-0.125-0.693-0.048c-0.23,0.076-0.417,0.238-0.527,0.455
		c-0.11,0.218-0.127,0.466-0.049,0.698c0.275,0.831,1.302,2.225,2.737,2.758v0.744c0,0.503,0.409,0.912,0.913,0.912
		c0.502,0,0.912-0.409,0.912-0.912v-0.552c0.814-0.099,1.552-0.426,2.089-0.924c0.615-0.573,0.953-1.356,0.953-2.207
		C187.547,14.322,187.017,12.757,184.505,12.09z M185.718,15.521c0,0.349-0.125,0.644-0.371,0.875
		c-0.211,0.198-0.5,0.34-0.841,0.412v-2.812C185.57,14.397,185.718,14.99,185.718,15.521z M181.893,10.469
		c-0.034-0.264-0.001-0.815,0.341-1.206c0.112-0.127,0.262-0.229,0.447-0.304v2.519C182.119,11.114,181.921,10.679,181.893,10.469z"
		/>
</g>
<g>
	<path style="fill:#888888;" d="M212.653,16.451l0.001-0.002c0.796-1.058,1.233-2.367,1.227-3.686c0-1.863-0.829-3.606-2.276-4.78
		c-1.442-1.17-3.335-1.624-5.206-1.239c-2.323,0.484-4.208,2.371-4.691,4.695c-0.389,1.863,0.063,3.761,1.239,5.206
		c1.175,1.445,2.917,2.274,4.779,2.274c1.321,0,2.629-0.435,3.685-1.225l0.003-0.002l4.764,4.763
		c0.157,0.157,0.38,0.247,0.612,0.247c0.232-0.001,0.454-0.091,0.608-0.247c0.174-0.173,0.27-0.399,0.27-0.635
		c0-0.228-0.089-0.442-0.251-0.604L212.653,16.451z M212.128,12.761c0,2.429-1.977,4.404-4.406,4.404
		c-2.429,0-4.404-1.976-4.404-4.404s1.976-4.405,4.404-4.405C210.151,8.356,212.128,10.332,212.128,12.761z"/>
	<path style="fill:#888888;" d="M216.856,1.761h-18.267c-1.029,0-1.867,0.838-1.867,1.866v18.265c0,1.03,0.838,1.869,1.869,1.869
		h8.143c0.543,0,0.985-0.443,0.985-0.987s-0.442-0.987-0.985-0.987h-8.037V3.735h18.052v8.035c0,0.545,0.444,0.988,0.988,0.988
		c0.543,0,0.985-0.443,0.985-0.988V3.627C218.722,2.599,217.885,1.761,216.856,1.761z"/>
</g>
<g>
	<path style="fill:#1770DE;" d="M236.931,16.451l0.001-0.002c0.796-1.058,1.233-2.367,1.227-3.686c0-1.863-0.829-3.606-2.276-4.78
		c-1.441-1.17-3.335-1.624-5.206-1.239c-2.323,0.484-4.208,2.371-4.691,4.695c-0.389,1.863,0.063,3.761,1.239,5.206
		c1.175,1.445,2.917,2.274,4.779,2.274c1.321,0,2.629-0.435,3.685-1.225l0.003-0.002l4.764,4.763
		c0.157,0.157,0.38,0.247,0.612,0.247c0.232-0.001,0.454-0.091,0.608-0.247c0.174-0.173,0.27-0.399,0.27-0.635
		c0-0.228-0.088-0.442-0.251-0.604L236.931,16.451z M236.406,12.761c0,2.429-1.977,4.404-4.406,4.404s-4.404-1.976-4.404-4.404
		s1.976-4.405,4.404-4.405S236.406,10.332,236.406,12.761z"/>
	<path style="fill:#1770DE;" d="M241.134,1.761h-18.267c-1.029,0-1.867,0.838-1.867,1.866v18.265c0,1.03,0.838,1.869,1.869,1.869
		h8.143c0.543,0,0.985-0.443,0.985-0.987s-0.442-0.987-0.985-0.987h-8.037V3.735h18.052v8.035c0,0.545,0.444,0.988,0.988,0.988
		c0.543,0,0.985-0.443,0.985-0.988V3.627C243,2.599,242.163,1.761,241.134,1.761z"/>
</g>
</svg>
