<?xml version="1.0" encoding="iso-8859-1"?>
<!-- Generator: Adobe Illustrator 26.0.0, SVG Export Plug-In . SVG Version: 6.00 Build 0)  -->
<svg version="1.1" id="&#x56FE;&#x5C42;_1" xmlns="http://www.w3.org/2000/svg" xmlns:xlink="http://www.w3.org/1999/xlink" x="0px"
	 y="0px" viewBox="0 0 210 74" style="enable-background:new 0 0 210 74;" xml:space="preserve">
<path style="opacity:0.6;fill:#999999;" d="M34.056,39.286c-0.792-0.808-1.807-1.235-2.934-1.237c-1.723,0-3.597,0.974-5.421,2.817
	l-4.381,4.382L7.527,42.572c-0.694-0.138-1.407,0.083-1.909,0.594l-2.656,2.704c-0.504,0.512-0.712,1.237-0.555,1.938
	c0.157,0.702,0.653,1.27,1.328,1.52l10.458,3.872l-2.997,3.333l-5.063-0.996c-0.699-0.147-1.418,0.077-1.921,0.596l-1.322,1.353
	c-0.438,0.45-0.652,1.065-0.59,1.684c0.062,0.624,0.394,1.182,0.911,1.534l5.936,4.068l3.253,5.25
	c0.342,0.554,0.911,0.913,1.563,0.987c0.653,0.065,1.287-0.156,1.739-0.62l1.329-1.352c0.456-0.465,0.674-1.125,0.585-1.766
	l-0.668-4.87l3.136-2.967l3.655,10.215c0.248,0.689,0.823,1.194,1.535,1.351c0.15,0.033,0.302,0.05,0.453,0.05
	c0.559,0,1.109-0.226,1.509-0.635l2.662-2.709c0.475-0.485,0.689-1.171,0.574-1.838l-2.37-13.684l4.447-4.443
	C37.226,42.981,34.625,39.862,34.056,39.286z M26.35,50.609c-0.485,0.485-0.705,1.178-0.588,1.855l2.381,13.671l-2.318,2.357
	l-3.649-10.198c-0.243-0.675-0.802-1.175-1.494-1.338c-0.695-0.177-1.421,0.019-1.946,0.516l-3.496,3.303
	c-0.494,0.468-0.734,1.149-0.641,1.822l0.671,4.876l-1.03,1.048l-3.143-5.074c-0.156-0.252-0.36-0.464-0.603-0.63l-5.719-3.895
	l1.03-1.053l5.072,0.997c0.728,0.142,1.485-0.111,1.979-0.661l3.325-3.696c0.469-0.52,0.648-1.236,0.48-1.916
	c-0.168-0.679-0.66-1.23-1.317-1.475L4.902,47.249L7.19,44.9l13.805,2.679c0.695,0.142,1.399-0.078,1.899-0.579l4.475-4.475
	c1.998-2.018,3.914-2.708,5.008-1.59c1.117,1.131,0.555,3.058-1.502,5.153L26.35,50.609z"/>
<path style="fill:#4FA72D;" d="M70.303,39.286c-0.792-0.808-1.807-1.235-2.934-1.237c-1.723,0-3.597,0.974-5.421,2.817l-4.381,4.382
	l-13.792-2.676c-0.694-0.138-1.407,0.083-1.909,0.594l-2.656,2.704c-0.504,0.512-0.712,1.237-0.555,1.938
	c0.157,0.702,0.653,1.27,1.328,1.52l10.458,3.872l-2.997,3.333l-5.063-0.996c-0.699-0.147-1.418,0.077-1.921,0.596l-1.322,1.353
	c-0.438,0.45-0.652,1.065-0.59,1.684c0.062,0.624,0.394,1.182,0.911,1.534l5.936,4.068l3.253,5.25
	c0.342,0.554,0.911,0.913,1.563,0.987c0.653,0.065,1.286-0.156,1.739-0.62l1.329-1.352c0.456-0.465,0.674-1.125,0.585-1.766
	l-0.668-4.87l3.136-2.967l3.655,10.215c0.248,0.689,0.823,1.194,1.535,1.351c0.15,0.033,0.302,0.05,0.453,0.05
	c0.559,0,1.109-0.226,1.509-0.635l2.662-2.709c0.475-0.485,0.689-1.171,0.574-1.838l-2.37-13.684l4.447-4.443
	C73.473,42.981,70.872,39.862,70.303,39.286z M62.597,50.609c-0.485,0.485-0.705,1.178-0.588,1.855l2.381,13.671l-2.318,2.357
	l-3.649-10.198c-0.243-0.675-0.802-1.175-1.494-1.338c-0.695-0.177-1.421,0.019-1.946,0.516l-3.496,3.303
	c-0.494,0.468-0.734,1.149-0.641,1.822l0.671,4.876l-1.03,1.048l-3.143-5.074c-0.156-0.252-0.36-0.464-0.603-0.63l-5.719-3.895
	l1.03-1.053l5.072,0.997c0.728,0.142,1.485-0.111,1.979-0.661l3.325-3.696c0.469-0.52,0.648-1.236,0.48-1.916
	c-0.168-0.679-0.66-1.23-1.317-1.475l-10.443-3.868l2.288-2.349l13.805,2.679c0.695,0.142,1.399-0.078,1.899-0.579l4.475-4.475
	c1.998-2.018,3.914-2.708,5.008-1.59c1.117,1.131,0.555,3.058-1.502,5.153L62.597,50.609z"/>
<g style="opacity:0.6;">
	<path style="fill:#999999;" d="M86.957,2.07c-9.098,0-16.5,7.402-16.5,16.5c0,9.098,7.402,16.5,16.5,16.5
		c4.401,0,8.543-1.718,11.663-4.838c3.12-3.119,4.838-7.261,4.837-11.662C103.457,9.471,96.056,2.07,86.957,2.07z M86.957,32.749
		c-7.819,0-14.181-6.361-14.181-14.181c0-7.819,6.362-14.181,14.181-14.181c7.819,0,14.18,6.362,14.18,14.181
		C101.138,26.387,94.777,32.749,86.957,32.749z"/>
	<path style="fill:#999999;" d="M88.161,17.488V12.99c1.075,0.47,1.296,1.403,1.319,1.512c0.13,0.704,0.853,1.188,1.604,1.071
		c0.383-0.056,0.727-0.261,0.944-0.562c0.2-0.277,0.279-0.611,0.221-0.941c-0.204-1.167-1.295-3.259-4.087-3.829V9.36
		c0-0.722-0.63-1.31-1.405-1.31c-0.775,0-1.405,0.587-1.405,1.31v0.851c-1.475,0.261-2.366,0.92-2.859,1.438
		c-1.135,1.189-1.377,2.758-1.225,3.831c0.184,1.298,1.365,3.119,4.085,4.034v4.245c-0.898-0.616-1.503-1.5-1.641-1.881
		c-0.246-0.681-1.041-1.05-1.769-0.825c-0.366,0.112-0.669,0.363-0.833,0.69c-0.153,0.307-0.174,0.652-0.059,0.972
		c0.439,1.213,2.054,3.223,4.302,3.986v1.078c0,0.723,0.63,1.31,1.405,1.31c0.775,0,1.405-0.588,1.405-1.31v-0.805
		c1.276-0.139,2.438-0.608,3.288-1.331c0.961-0.827,1.49-1.961,1.49-3.192C92.939,20.709,92.104,18.446,88.161,17.488z
		 M85.352,16.63c-0.922-0.532-1.249-1.175-1.294-1.494c-0.054-0.381-0.001-1.179,0.537-1.747c0.187-0.195,0.44-0.35,0.757-0.462
		V16.63z M89.536,23.715c-0.347,0.298-0.819,0.507-1.375,0.611V20.22c1.722,0.584,1.962,1.45,1.962,2.228
		C90.123,22.952,89.925,23.379,89.536,23.715z"/>
</g>
<g>
	<path style="fill:#4FA72D;" d="M121.805,2.07c-9.098,0-16.5,7.402-16.5,16.5c0,9.098,7.402,16.5,16.5,16.5
		c4.401,0,8.543-1.718,11.663-4.838c3.12-3.119,4.838-7.261,4.837-11.662C138.305,9.471,130.903,2.07,121.805,2.07z M121.805,32.749
		c-7.819,0-14.181-6.361-14.181-14.181c0-7.819,6.362-14.181,14.181-14.181c7.819,0,14.18,6.362,14.18,14.181
		C135.985,26.387,129.624,32.749,121.805,32.749z"/>
	<path style="fill:#4FA72D;" d="M123.008,17.488V12.99c1.075,0.47,1.296,1.403,1.319,1.512c0.13,0.704,0.853,1.188,1.604,1.071
		c0.383-0.056,0.727-0.261,0.944-0.562c0.2-0.277,0.279-0.611,0.221-0.941c-0.204-1.167-1.295-3.259-4.087-3.829V9.36
		c0-0.722-0.63-1.31-1.405-1.31s-1.405,0.587-1.405,1.31v0.851c-1.475,0.261-2.366,0.92-2.859,1.438
		c-1.135,1.189-1.377,2.758-1.225,3.831c0.184,1.298,1.365,3.119,4.085,4.034v4.245c-0.898-0.616-1.503-1.5-1.641-1.881
		c-0.246-0.681-1.041-1.05-1.769-0.825c-0.366,0.112-0.669,0.363-0.833,0.69c-0.153,0.307-0.174,0.652-0.059,0.972
		c0.439,1.213,2.054,3.223,4.302,3.986v1.078c0,0.723,0.63,1.31,1.405,1.31s1.405-0.588,1.405-1.31v-0.805
		c1.276-0.139,2.438-0.608,3.288-1.331c0.961-0.827,1.49-1.961,1.49-3.192C127.786,20.709,126.952,18.446,123.008,17.488z
		 M120.199,16.63c-0.922-0.532-1.249-1.175-1.294-1.494c-0.054-0.381-0.001-1.179,0.537-1.747c0.187-0.195,0.44-0.35,0.757-0.462
		V16.63z M124.383,23.715c-0.347,0.298-0.819,0.507-1.375,0.611V20.22c1.722,0.584,1.962,1.45,1.962,2.228
		C124.971,22.952,124.773,23.379,124.383,23.715z"/>
</g>
<g style="opacity:0.6;">
	<path style="fill:#999999;" d="M26.668,5.805h-1.127V3.21c0-0.597-0.573-1.14-1.201-1.14c-0.629,0-1.202,0.544-1.202,1.14v2.595
		h-11.75V3.21c0-0.608-0.562-1.14-1.202-1.14c-0.629,0-1.201,0.544-1.201,1.14v2.595H7.857C4.628,5.805,2,8.148,2,11.029v18.816
		c0,2.881,2.628,5.224,5.857,5.224h18.81c3.23,0,5.857-2.344,5.857-5.224V11.029C32.525,8.148,29.897,5.805,26.668,5.805z
		 M10.186,12.416c0.64,0,1.202-0.532,1.202-1.139V7.925h11.75v3.352c0,0.607,0.562,1.139,1.202,1.139
		c0.64,0,1.201-0.532,1.201-1.139V7.925h1.127c1.872,0,3.454,1.421,3.454,3.104v18.816c0,1.682-1.582,3.103-3.454,3.103H7.857
		c-1.872,0-3.454-1.421-3.454-3.103V11.029c0-1.683,1.582-3.104,3.454-3.104h1.127v3.352C8.984,11.884,9.545,12.416,10.186,12.416z"
		/>
	<path style="fill:#999999;" d="M14.122,26.372c0.554,0.419,1.134,0.631,1.725,0.631c0.621,0,1.212-0.243,1.497-0.608l7.094-6.757
		c0.442-0.419,0.437-1.207-0.011-1.721c-0.222-0.255-0.564-0.411-0.938-0.429h-0.005c-0.005,0-0.011,0-0.017,0
		c-0.377,0-0.701,0.118-0.937,0.343l-6.787,6.461l-3.67-3.493c-0.265-0.254-0.604-0.393-0.954-0.393
		c-0.35,0-0.689,0.139-0.954,0.393c-0.264,0.252-0.41,0.573-0.41,0.904c0.001,0.331,0.146,0.652,0.41,0.903L14.122,26.372z"/>
</g>
<g>
	<path style="fill:#4FA72D;" d="M61.515,5.805h-1.127V3.21c0-0.597-0.573-1.14-1.201-1.14c-0.629,0-1.202,0.544-1.202,1.14v2.595
		h-11.75V3.21c0-0.608-0.562-1.14-1.202-1.14c-0.629,0-1.201,0.544-1.201,1.14v2.595h-1.127c-3.23,0-5.857,2.344-5.857,5.224v18.816
		c0,2.881,2.628,5.224,5.857,5.224h18.81c3.23,0,5.857-2.344,5.857-5.224V11.029C67.372,8.148,64.745,5.805,61.515,5.805z
		 M45.033,12.416c0.64,0,1.202-0.532,1.202-1.139V7.925h11.75v3.352c0,0.607,0.562,1.139,1.202,1.139
		c0.64,0,1.201-0.532,1.201-1.139V7.925h1.127c1.872,0,3.454,1.421,3.454,3.104v18.816c0,1.682-1.582,3.103-3.454,3.103h-18.81
		c-1.872,0-3.454-1.421-3.454-3.103V11.029c0-1.683,1.582-3.104,3.454-3.104h1.127v3.352C43.832,11.884,44.393,12.416,45.033,12.416
		z"/>
	<path style="fill:#4FA72D;" d="M48.97,26.372c0.554,0.419,1.134,0.631,1.725,0.631c0.621,0,1.212-0.243,1.497-0.608l7.094-6.757
		c0.442-0.419,0.437-1.207-0.011-1.721c-0.222-0.255-0.564-0.411-0.938-0.429h-0.005c-0.005,0-0.011,0-0.017,0
		c-0.377,0-0.701,0.118-0.937,0.343l-6.787,6.461l-3.67-3.493c-0.265-0.254-0.604-0.393-0.954-0.393
		c-0.35,0-0.689,0.139-0.954,0.393c-0.264,0.252-0.41,0.573-0.41,0.904c0.001,0.331,0.146,0.652,0.41,0.903L48.97,26.372z"/>
</g>
<path style="fill:#FF4D4F;" d="M173.975,42.316h-1.127v-2.595c0-0.597-0.573-1.14-1.201-1.14c-0.629,0-1.202,0.544-1.202,1.14v2.595
	h-11.75v-2.595c0-0.608-0.562-1.14-1.202-1.14c-0.629,0-1.201,0.544-1.201,1.14v2.595h-1.127c-3.23,0-5.857,2.344-5.857,5.224
	v18.816c0,2.881,2.628,5.224,5.857,5.224h18.81c3.23,0,5.857-2.344,5.857-5.224V47.54C179.832,44.659,177.205,42.316,173.975,42.316
	z M157.493,48.927c0.64,0,1.202-0.532,1.202-1.139v-3.352h11.75v3.352c0,0.607,0.562,1.139,1.202,1.139
	c0.64,0,1.201-0.532,1.201-1.139v-3.352h1.127c1.872,0,3.454,1.421,3.454,3.104v18.816c0,1.682-1.582,3.103-3.454,3.103h-18.81
	c-1.872,0-3.454-1.421-3.454-3.103V47.54c0-1.683,1.582-3.104,3.454-3.104h1.127v3.352
	C156.291,48.395,156.853,48.927,157.493,48.927z"/>
<g style="opacity:0.6;">
	<path style="fill:#999999;" d="M172.735,15.346L157.415,2.35c-0.435-0.374-1.091-0.373-1.526-0.001l-15.32,12.997
		c-0.239,0.201-0.386,0.485-0.412,0.799c-0.027,0.314,0.072,0.62,0.276,0.862c0.202,0.238,0.486,0.387,0.803,0.414
		c0.33,0.015,0.624-0.079,0.856-0.277l0.41-0.346v16.728c0,0.851,0.693,1.544,1.544,1.544h25.215c0.851,0,1.544-0.691,1.544-1.54
		V16.801l0.404,0.342c0.227,0.195,0.525,0.284,0.856,0.269c0.317-0.026,0.612-0.174,0.806-0.404c0.205-0.24,0.303-0.545,0.279-0.862
		C173.122,15.833,172.973,15.549,172.735,15.346z M168.449,14.802l-0.002,17.91h-23.588V14.799l11.794-10.003L168.449,14.802z"/>
	<path style="fill:#999999;" d="M150.308,22.104h-2.652c-0.244,0-0.443,0.198-0.443,0.442v2.652c0,0.245,0.199,0.443,0.443,0.443
		h2.652c0.243,0,0.441-0.198,0.441-0.443v-2.652C150.75,22.306,150.548,22.104,150.308,22.104z"/>
	<path style="fill:#999999;" d="M150.308,26.813h-2.652c-0.244,0-0.443,0.198-0.443,0.442v2.654c0,0.243,0.199,0.442,0.443,0.442
		h2.652c0.239,0,0.441-0.201,0.441-0.442v-2.654C150.75,27.014,150.548,26.813,150.308,26.813z"/>
	<path style="fill:#999999;" d="M150.308,17.406h-2.652c-0.244,0-0.443,0.198-0.443,0.443v2.652c0,0.243,0.199,0.442,0.443,0.442
		h2.652c0.239,0,0.441-0.201,0.441-0.442v-2.652C150.75,17.604,150.552,17.406,150.308,17.406z"/>
	<path style="fill:#999999;" d="M154.291,22.546v2.652c0,0.245,0.198,0.443,0.441,0.443h2.652c0.245,0,0.443-0.198,0.443-0.443
		v-2.652c0-0.243-0.198-0.442-0.443-0.442h-2.652C154.492,22.104,154.291,22.306,154.291,22.546z"/>
	<path style="fill:#999999;" d="M161.806,30.35h2.652c0.243,0,0.441-0.198,0.441-0.442v-2.654c0-0.243-0.198-0.442-0.441-0.442
		h-2.652c-0.243,0-0.441,0.198-0.441,0.442v2.654C161.364,30.152,161.562,30.35,161.806,30.35z"/>
	<path style="fill:#999999;" d="M157.384,26.813h-2.652c-0.24,0-0.441,0.201-0.441,0.442v2.654c0,0.24,0.201,0.442,0.441,0.442
		h2.652c0.245,0,0.443-0.198,0.443-0.442v-2.654C157.827,27.011,157.629,26.813,157.384,26.813z"/>
</g>
<g>
	<path style="fill:#4FA72D;" d="M207.582,15.346L192.262,2.35c-0.435-0.374-1.091-0.373-1.526-0.001l-15.32,12.997
		c-0.239,0.201-0.386,0.485-0.412,0.799c-0.027,0.314,0.072,0.62,0.276,0.862c0.202,0.238,0.486,0.387,0.803,0.414
		c0.329,0.015,0.624-0.079,0.856-0.277l0.41-0.346v16.728c0,0.851,0.693,1.544,1.544,1.544h25.215c0.851,0,1.544-0.691,1.544-1.54
		V16.801l0.404,0.342c0.227,0.195,0.525,0.284,0.856,0.269c0.317-0.026,0.612-0.174,0.806-0.404c0.205-0.24,0.303-0.545,0.279-0.862
		C207.969,15.833,207.821,15.549,207.582,15.346z M203.296,14.802l-0.002,17.91h-23.588V14.799L191.5,4.795L203.296,14.802z"/>
	<path style="fill:#4FA72D;" d="M185.156,22.104h-2.652c-0.244,0-0.443,0.198-0.443,0.442v2.652c0,0.245,0.199,0.443,0.443,0.443
		h2.652c0.243,0,0.441-0.198,0.441-0.443v-2.652C185.597,22.306,185.395,22.104,185.156,22.104z"/>
	<path style="fill:#4FA72D;" d="M185.156,26.813h-2.652c-0.244,0-0.443,0.198-0.443,0.442v2.654c0,0.243,0.199,0.442,0.443,0.442
		h2.652c0.239,0,0.441-0.201,0.441-0.442v-2.654C185.597,27.014,185.395,26.813,185.156,26.813z"/>
	<path style="fill:#4FA72D;" d="M185.156,17.406h-2.652c-0.244,0-0.443,0.198-0.443,0.443v2.652c0,0.243,0.199,0.442,0.443,0.442
		h2.652c0.239,0,0.441-0.201,0.441-0.442v-2.652C185.597,17.604,185.399,17.406,185.156,17.406z"/>
	<path style="fill:#4FA72D;" d="M189.138,22.546v2.652c0,0.245,0.198,0.443,0.441,0.443h2.652c0.245,0,0.443-0.198,0.443-0.443
		v-2.652c0-0.243-0.198-0.442-0.443-0.442h-2.652C189.34,22.104,189.138,22.306,189.138,22.546z"/>
	<path style="fill:#4FA72D;" d="M196.653,30.35h2.652c0.243,0,0.441-0.198,0.441-0.442v-2.654c0-0.243-0.198-0.442-0.441-0.442
		h-2.652c-0.243,0-0.441,0.198-0.441,0.442v2.654C196.212,30.152,196.41,30.35,196.653,30.35z"/>
	<path style="fill:#4FA72D;" d="M192.232,26.813h-2.652c-0.24,0-0.441,0.201-0.441,0.442v2.654c0,0.24,0.201,0.442,0.441,0.442
		h2.652c0.245,0,0.443-0.198,0.443-0.442v-2.654C192.675,27.011,192.477,26.813,192.232,26.813z"/>
</g>
<g style="opacity:0.6;">
	<path style="fill:#999999;" d="M91.283,38.049c-9.098,0-16.5,7.402-16.5,16.5c0,9.098,7.402,16.5,16.5,16.5
		c9.098,0,16.5-7.402,16.5-16.5C107.783,45.451,100.381,38.049,91.283,38.049z M91.283,68.812c-7.865,0-14.263-6.398-14.263-14.263
		c0-7.864,6.398-14.262,14.263-14.262c7.864,0,14.263,6.398,14.263,14.262C105.546,62.414,99.148,68.812,91.283,68.812z"/>
	<path style="fill:#999999;" d="M101.021,49.279c-0.199-0.279-0.493-0.464-0.831-0.52c-0.337-0.053-0.675,0.023-0.947,0.216
		l-11.796,8.324l-3.818-5.43c-0.195-0.278-0.488-0.463-0.825-0.522c-0.338-0.057-0.675,0.017-0.954,0.214
		c-0.278,0.197-0.463,0.49-0.521,0.826c-0.058,0.336,0.018,0.675,0.214,0.952l4.367,6.211l-0.006,0.005l0.449,0.607l0.048-0.042
		c0.214,0.151,0.471,0.235,0.738,0.235c0.264,0,0.518-0.081,0.736-0.234l12.841-9.062c0.574-0.406,0.711-1.204,0.306-1.779
		L101.021,49.279z"/>
</g>
<g>
	<path style="fill:#4FA72D;" d="M126.529,38.049c-9.098,0-16.5,7.402-16.5,16.5c0,9.098,7.402,16.5,16.5,16.5
		c9.098,0,16.5-7.402,16.5-16.5C143.029,45.451,135.628,38.049,126.529,38.049z M126.529,68.812
		c-7.865,0-14.263-6.398-14.263-14.263c0-7.864,6.398-14.262,14.263-14.262c7.864,0,14.263,6.398,14.263,14.262
		C140.792,62.414,134.394,68.812,126.529,68.812z"/>
	<path style="fill:#4FA72D;" d="M136.268,49.279c-0.199-0.279-0.493-0.464-0.831-0.52c-0.337-0.053-0.675,0.023-0.947,0.216
		l-11.796,8.324l-3.818-5.43c-0.195-0.278-0.488-0.463-0.825-0.522c-0.338-0.057-0.675,0.017-0.954,0.214
		c-0.278,0.197-0.463,0.49-0.521,0.826s0.018,0.675,0.214,0.952l4.367,6.211l-0.006,0.005l0.449,0.607l0.048-0.042
		c0.214,0.151,0.471,0.235,0.738,0.235c0.264,0,0.518-0.081,0.736-0.234l12.841-9.062c0.574-0.406,0.711-1.204,0.306-1.779
		L136.268,49.279z"/>
</g>
<path style="fill:#FF4D4F;" d="M170.934,52.312L170.934,52.312c0.527,0.527,0.527,1.382,0,1.909L160.115,65.04
	c-0.527,0.527-1.382,0.527-1.909,0l0,0c-0.527-0.527-0.527-1.382,0-1.909l10.819-10.819
	C169.552,51.785,170.407,51.785,170.934,52.312z"/>
<path style="fill:#FF4D4F;" d="M170.934,65.04L170.934,65.04c-0.527,0.527-1.382,0.527-1.909,0l-10.819-10.819
	c-0.527-0.527-0.527-1.382,0-1.909v0c0.527-0.527,1.382-0.527,1.909,0l10.819,10.819C171.461,63.658,171.461,64.513,170.934,65.04z"
	/>
</svg>
