<?xml version="1.0" encoding="utf-8"?>
<!-- Generator: Adobe Illustrator 26.0.0, SVG Export Plug-In . SVG Version: 6.00 Build 0)  -->
<svg version="1.1" id="图层_1" xmlns="http://www.w3.org/2000/svg" xmlns:xlink="http://www.w3.org/1999/xlink" x="0px" y="0px"
	 viewBox="0 0 24.4 53.8" style="enable-background:new 0 0 24.4 53.8;" xml:space="preserve">
<style type="text/css">
	.st0{fill:#F54D52;}
	.st1{fill:#F54D52;stroke:#F54D52;stroke-width:0.25;stroke-miterlimit:10;}
	.st2{fill:#0D9A48;}
</style>
<g>
	<path class="st0" d="M19.3,1.3L19.3,1.3h-14c-1.7,0-3,1.3-3,3v14c0,1.7,1.3,3,3,3h14c1.7,0,3-1.3,3-3v-14C22.3,2.7,21,1.3,19.3,1.3
		z M20.8,18.3c0,0.8-0.7,1.5-1.5,1.5h-14c-0.8,0-1.5-0.7-1.5-1.5v-14c0-0.8,0.7-1.5,1.5-1.5h14c0.8,0,1.5,0.7,1.5,1.5
		C20.8,4.3,20.8,18.3,20.8,18.3z"/>
	<path class="st1" d="M16.7,11.8c-0.7,0-1.4,0.2-2.2,0.4c-0.8-0.7-1.4-1.7-2-2.8c1.1-2.2,0.5-3.2,0.1-3.8c-0.2-0.2-0.5-0.4-0.9-0.4
		s-0.8,0.2-1.1,0.6c-0.6,1-0.4,2.5,0.6,3.8c-0.6,1.5-1,2.2-1.7,3.8c-3.4,0.9-3.3,2.7-3.3,3c0,0.4,0.2,0.8,0.6,0.9
		c0.2,0.1,0.3,0.2,0.5,0.2c0.8,0,2.1-0.5,2.9-2.8c1.3-0.6,2.7-1,4.1-1.3c0.7,0.6,1.7,1.2,2.6,1.2l0,0c0.9,0.1,1.9-0.3,1.9-1.5
		C18.8,12.7,18.3,11.8,16.7,11.8z M8.8,15.6c-0.7,0.5-1,0.6-1.1,0.3c-0.1-0.5,0.9-1.2,1.7-1.6C9.3,14.8,9.2,15.1,8.8,15.6z
		 M11.3,7.2c0.1-0.2,0.2-0.4,0.3-0.5l0,0c0.2,0,0.2,0.2,0.4,0.6c0.1,0.6,0,1-0.2,1.4C11.5,8.3,11.3,7.7,11.3,7.2z M11.2,13
		c0.3-0.7,0.6-1.3,0.9-2c0.3,0.5,0.7,0.9,1.1,1.3L11.2,13z M17.8,13.4c-0.2,0.4-0.7,0.3-0.9,0.2c-0.3-0.1-0.7-0.3-0.9-0.7
		c0.3-0.2,0.6-0.2,0.9-0.2C17.6,12.8,17.8,13,17.8,13.4z"/>
</g>
<path class="st0" d="M60.3,361.6"/>
<path class="st0" d="M59.7,364.9"/>
<path class="st2" d="M6.8,26.2c0,0.1,0.1,0.3,0.1,0.5c0.1,0.3,0.3,0.6,0.3,1c0.3,1.1,0.7,2.5,0.8,3.1c0.3,1.2,0.5,2.7,0.5,2.7
	c0,0-0.7-0.2-1.3-0.5c-0.2-0.1-1.5-0.7-1.5-0.7s0.8,0.7,1.1,0.8c0.2,0.1,1.8,0.9,1.8,0.9l0.7,2.8c0,0-0.5,0.1-2.5-0.7
	c-0.6-0.2-2.3-1-2.3-1s0.1,0.3,1.8,1.1c0.3,0.1,3.3,1.3,3.3,1.3l0.9,3.3c0,0-2.6-0.4-3.6-0.8c-1.5-0.5-2.4-1-2.4-0.9
	c0,0.1,0.9,0.5,1.9,1c1,0.5,4.5,1.6,4.5,1.6l1.6,3.4c0,0-1.9-0.1-3.9-0.7c-0.7-0.2-3-1-3-1s0.5,0.4,1.6,0.8c0.4,0.2,1.5,0.7,2.6,1
	c1.5,0.5,3.1,0.8,3.1,0.8l2.6,3.6c0,0-1.6,0-3.7-0.6c-1-0.3-2.1-0.6-2.9-0.9c-0.9-0.3-1.5-0.6-1.5-0.5c0.6,0.4,2.5,1.3,5,2.1
	c2.1,0.6,4,1,4,1l1.2,1.4c0,0-1.8,0.8-4.3,0.1c-2.8-0.7-5.7-2.6-8.2-5.7c-4.6-5.8-1.5-16.1-1.5-16.1s1.9-7.9,1.9-7.9
	c0.1,0,1.4,1.1,3.7,3.3c2.1,1.9,3.1,2.8,4.7,4c4.8,3.3,7.5,8.4,7.8,9.5c0.4,1.1,1.8,4,0,8.5c-0.7,2.4-3.3,4-3.3,4l-1-1.5
	c0,0,2.1-3.3,2.9-6.9c0.8-3.6,0.4-3.9,0.4-3.9s-0.6,2.9-1.4,5c-0.8,2.4-2.5,5-2.5,5s-1.2-1.5-1.5-2c-0.3-0.6-1.1-1.7-1.1-1.7
	s2.3-4.5,2.9-6.8c0.6-2.3,0.3-2.4,0.3-2.4s-1.5,3.7-2,4.6c-0.5,1.2-2,3.5-2,3.5l-1.6-3.2c0,0,1.8-2.7,2.2-4.8
	c0.4-1.4,0.2-1.3,0.2-1.3s-0.2,0.9-1,2.2c-1.8,3.3-1.9,2.9-1.9,2.9l-1.6-4.5c0,0,1-1.5,1.4-2.5s0.2-1,0.2-1s0.1,0-0.7,1.5
	c-1,1.7-1,1.3-1,1.3s-0.5-3.3-0.9-4.4c-0.3-0.9-1.1-3.1-1.4-4.1C7,26.4,6.8,26.2,6.8,26.2z"/>
<path class="st0" d="M16.9,51.8"/>
</svg>
